<svg width="1520" height="443" viewBox="0 0 1520 443" fill="none" xmlns="http://www.w3.org/2000/svg">
<g clip-path="url(#clip0_212_131)">
<path d="M397.142 119.347C397.142 131.774 387.068 141.847 374.642 141.847C362.215 141.847 352.142 131.774 352.142 119.347C352.142 106.921 362.215 96.8474 374.642 96.8474C387.068 96.8474 397.142 106.921 397.142 119.347ZM355.459 119.347C355.459 129.941 364.048 138.53 374.642 138.53C385.236 138.53 393.824 129.941 393.824 119.347C393.824 108.753 385.236 100.165 374.642 100.165C364.048 100.165 355.459 108.753 355.459 119.347Z" fill="#D34638"/>
<path d="M1361.14 409.347C1361.14 421.774 1351.07 431.847 1338.64 431.847C1326.22 431.847 1316.14 421.774 1316.14 409.347C1316.14 396.921 1326.22 386.847 1338.64 386.847C1351.07 386.847 1361.14 396.921 1361.14 409.347ZM1319.46 409.347C1319.46 419.941 1328.05 428.53 1338.64 428.53C1349.24 428.53 1357.82 419.941 1357.82 409.347C1357.82 398.753 1349.24 390.165 1338.64 390.165C1328.05 390.165 1319.46 398.753 1319.46 409.347Z" fill="#C65694"/>
<line y1="-2" x2="53.7587" y2="-2" transform="matrix(0.995336 -0.0964648 0.148681 0.988885 705.126 93.7009)" stroke="#69CB50" stroke-width="4"/>
<line y1="-2" x2="53.7587" y2="-2" transform="matrix(-0.148681 -0.988885 0.995336 -0.0964648 736.383 115.009)" stroke="#69CB50" stroke-width="4"/>
<line y1="-2" x2="53.7587" y2="-2" transform="matrix(0.795471 -0.605991 0.64699 0.762498 1.2417 49.3293)" stroke="#69CB50" stroke-width="4"/>
<line y1="-2" x2="53.7587" y2="-2" transform="matrix(-0.64699 -0.762498 0.795471 -0.605991 39.0342 50.991)" stroke="#69CB50" stroke-width="4"/>
<path d="M1228.54 183.419L1192.9 186.116L1193.74 223.724L1158.84 229.811" stroke="#C05C9B" stroke-width="5"/>
</g>
<defs>
<clipPath id="clip0_212_131">
<rect width="1520" height="442.4" fill="white"/>
</clipPath>
</defs>
</svg>
