<?xml version="1.0" encoding="UTF-8"?>
<svg id="b" data-name="Слой 2" xmlns="http://www.w3.org/2000/svg" width="280.04" height="268.63" viewBox="0 0 280.04 268.63">
  <g id="c" data-name="Слой 1">
    <g>
      <path d="m279.38,139.44c1.42-7.5,1.07-14.86-6.13-19.63-2.6-1.71-2.45-2.77-1.21-5.32,10.9-22.37,5.61-39.55-11.91-56.04-12.1-11.4-27.53-15.75-43.26-19.02-3.17-.66-5.42-1.89-7.6-4.1-7.65-7.78-16.78-13.24-27.53-15.21-5.34-.97-9.54-2.47-12.1-7.67-1.05-2.12-3.31-3.71-5.22-5.31-11.21-9.38-28.1-9.56-38.74-.28-1.64,1.43-2.75,1.16-4.4.55-7.72-2.84-15-2.49-21.44,3.27-.73.65-1.41,1.54-2.57,1.14-7.72-2.65-11.96,2.41-15.61,7.62-1.82,2.6-3.08,2.55-5.59,1.59-4.06-1.55-8.27-2.17-12.69-1.17-19.65,4.47-31.4,17.9-39.36,35.2-6.92,15.04-9.49,31.1-8.95,47.63.09,2.91-.25,4.54-3.85,4.61-4.17.09-6.35,2.97-7.32,6.97-1.15,4.73-.03,8.93,2.55,12.79,1.06,1.58,1.35,2.49.08,4.26-10.72,15.03-7.95,36.19,6.24,48.14,1.74,1.47,2.95,2.88,3.16,5.31,2.98,34.17,32.6,53.28,59.73,54.22,1.84.07,3.5.11,5.07,1.47,13.98,12.1,30.45,19.55,47.9,24.95,17.14,5.3,33.8,4.37,49.43-5.18,2.91-1.78,5.58-3.95,8.59-6.11.58,1.63.99,2.88,1.48,4.1,2.89,7.1,8.74,8.56,14.63,3.62,3.25-2.73,5.73-6.08,7.11-10.09.89-2.55,1.97-2.73,4.39-1.68,6.79,2.96,11.47,1.09,14.75-5.55,1.03-2.08,2.08-4.23,1.87-6.64-.18-2.06.88-3.16,2.61-3.61,19.06-4.96,30.13-28.02,26.64-47.43,7.75,3.59,10.8,2.32,12.91-4.98,1.77-6.13.67-12.01-2.23-17.37-1.75-3.22-1.2-5.26.87-7.89,3.97-5.04,6.52-10.9,7.7-17.16Zm-112.6-44.97c6.48,6.62,14.34,10.17,23.72,9.68,3.46-.19,6.43-.06,8.46,3.41,1.31,2.23,4.28,2.29,6.84,3.69-2.42,2.75-4.71,4.73-5.95,7.54-.26.59-.71,1.5-1.14,1.55-5.69.63-10.37,3.09-14.32,7.22-.93.97-1.74-.44-2.29-1.18-1.85-2.51-4.3-4.59-7.23-5.02-7.23-1.06-13.44-5.71-20.92-5.66-1.37.01-1.99-1.1-2.85-1.81-2.6-2.13-5.34-4.32-8.61-4.86-10.61-1.74-19.78-7.87-30.36-9.61-1.01-.17-1.87-.45-2.61-1.24-4.72-5.04-11.11-6.76-17.47-7.73-3.67-.56-6.07-1.76-7.77-5.1,6.01-2.11,11.78-4.64,16.27-9.34.78-.81,1.77-1.06,2.74-.73,4.29,1.45,8.22-.15,12.13-1.46,2.2-.74,3.45-.72,4.87,1.56,4.83,7.77,12.3,10.88,21.19,10.77,3.85-.05,7.53-.41,10.5,2.94,1.14,1.28,3.41,2.54,4.98,1.71,4.91-2.61,7.07.86,9.82,3.67Zm14.94,74.34c-7.17-7.04-15.85-10.12-25.78-9.78-1.82.06-3.07-.51-4.44-1.65-6.86-5.76-14.57-9.81-23.57-11.07-.8-.11-2.09-.12-2.31-.58-3.52-7.37-9.63-4.97-15.11-3.83-2.99.63-4.94.74-6.23-2.48-.52-1.32-1.63-2.87-2.86-3.36-6.5-2.63-9.8-9.42-16.13-12.15-1.49-.65-1.32-1.75-1.23-2.87.37-4.85-.33-9.55-2.62-15.46,8.43,3.57,15.8,6,23.77,5.56,1.77-.1,2.53,1.4,3.54,2.45,6.87,7.18,15.38,10.88,25.18,11.61,3.13.23,5.59,1.12,7.87,3.47,3.43,3.56,8.36,6.22,12.8,6.04,8.33-.33,15.14,4.14,22.88,5.22,2.41.33,2.35,1.33,1.95,3.36-1.57,7.98-.37,15.23,6.45,20.65,2.21,1.76,2.43,3.81.64,5.91-2.11,2.49-3.46.27-4.8-1.04Zm-64.4,18.55c-6.72.57-11.42-1.38-16.36-6.14-8.43-8.11-19.51-11.11-31.02-12.04-2.78-.23-4.69-.8-5.71-3.65-1.09-3.06-4.01-4.28-7.35-5.95,3.75-3.02,7.47-5.35,9.76-9.14.81-1.33,2.24-1.17,3.57-1.32,4.33-.49,8.57-1.39,12.19-3.97,1.84-1.3,3.14-1.34,4.55.6,7.1,9.71,17.35,12.22,28.6,12.22,3.34.01,6.48-.41,8.82,3.04,1.3,1.9,4.07,2.92,6.32,2.16,4.23-1.42,6.43.86,9.24,3.35,4.44,3.94,10.01,6.15,15.95,6.31,3.86.1,7.03,1.04,10.16,3.22,3.82,2.67,8,4.9,12.61,5.85,2.27.47,2.98,1.49,3.2,3.6.23,2.21-.42,3.47-2.68,3.92-.96.19-2.07.52-2.72,1.17-5.8,5.79-13.99,6.63-20.82,10.26-.79.42-1.35.73-2.16,0-5.56-5.06-12.42-5.03-19.28-4.71-2.38.11-3.84-.16-4.82-2.85-2.02-5.56-7.34-6.33-12.05-5.93Z" fill="#9978bf" stroke-width="0"/>
      <path d="m277.88,130.43c-.35-3.5-2.32-6.01-4.56-8.61-3.09-3.57-5.48-1.02-8.16.6,1.17-2.14,2.43-3.88,3.61-5.67,9.82-14.86,9.43-32.88-1.04-47.2-7.68-10.49-17.58-18.05-29.86-22.42-7.29-2.6-14.57-5.24-23.08-6.07,1.36,2.34,2.38,4.01,3.3,5.75.97,1.84,1.84,3.74,2.76,5.61-13.22-21.3-31.01-33.81-56.99-31.82.93-1.2,2.39-1.4,3.87-1.41,3.17-.03,3.75-1,2.01-3.87-6.49-10.63-24.18-16.8-35.64-12.36-4.04,1.57-6.39,6.53-9.2,7.34-3.38.97-7.97-3.16-12.66-2.99-7.83.28-12.14,3.94-12,10.31-4.93-5.75-7.71-6.26-12.75-2.37-5.86,4.53-6.26,6.99-2.17,13.02.28.41.58.83.73,1.29,1.12,3.26,2.46,3.73,5.66,1.67,7.11-4.55,14.64-3.31,19.24,2.45,2.06,2.57,2.94,5.65,3.42,8.95,6.01-3.2,11.77-3.5,14.43-.7,2.33,2.46,2.92,5.33.6,9.47-.62-3.9.41-7.35-3.16-9.14-5-2.52-11.5.82-12.35,6.47-.27,1.83-.85,3.62-1.44,6.06-1.36-5,1.15-9.34-.54-13.57-1.42-3.17-4.02-4.72-7.29-5.44-8.21-1.82-14.68.94-19.79,7.38-.32.6-.64,1.21-.97,1.81-3.4,1.64-3.11-1.39-3.51-3.01-1.02-4.19-1.68-8.51-3.87-12.3-3.02-5.21-7.05-8.81-13.7-7.57-9,1.17-16.06,6.12-22.27,12.18-16.25,15.86-21.93,36.18-23.46,58.01-.75,10.75.3,21.44,3,32.51-2.36-2.09-2.83-4.34-3.26-6.61-.3-.6-.64-1.31-1.42-1.06-4.14,1.32-6.75,6.73-5.43,11.12.44.64.88,1.28,1.31,1.92-1,2.41-3.62,3.45-4.68,5.94-2.68,6.33,1.2,19.84,6.93,23.61,2.49,1.64,3.95.73,5.17-1.58.79-1.52,1.01-4.28,3.3-3.62,2.36.68.79,3.14.8,4.82,0,1.32-.31,2.64-.45,3.96-1.03,9.73,1.57,18.49,7.7,26.03,3.82,4.7,8.04,9.3,15.1,5.34.28-.16.66-.16.98-.14,4.29.35,6.9-1.85,9.49-5.12,7.78-9.8,24.24-7.46,28.77,3.97,1.09,2.75,2.66,4.04,5.51,4.02,2.79-.02,5.54.17,7.59,2.76-1.19-.63-2.48-1.45-3.43-1.06-8.33,3.46-12.07-2.71-16.45-7.61-.33-.37-.73-.68-1.12-.99-5.78-4.52-13.33-3.29-17.38,2.83-5.13,7.74-4.43,17.84,1.82,24.95,6.47,7.35,14.65,10.68,24.41,10.14,4.38-.24,8.72-.35,11.66,3.84.32-.06.59-.09.8-.09h.04c1.36.03.53,1.2.39,2.01-.03.13-.03.25-.01.35,0,.03.01.06.02.09.14.96.53,1.71,1.65,1.8.14-.09.27-.19.4-.29.2-.13.38-.28.56-.43.44-.35.84-.72,1.22-1.12-.33.36-.64.72-.91,1.11h-.01c-.07.1-.14.21-.21.32-.05.05-.1.1-.14.15-2.35,2.57.06,4.21,1.57,5.6,16.16,14.87,35.03,22.5,57.06,18.91,15.52-2.53,27.57-11.69,37.66-23.48.72-.31,2.17-1.38,1.48.57-.89,2.53-2.45,4.83-3.73,7.22-1.59,4.67-.84,7.45,2.51,9.38,3.4,1.96,6.88.96,9.81-2.83.6-.79,1.23-1.56,1.71-2.43,1.09-2.13,1.91-4.36,2.14-6.77,1.75-1.11,3.08.52,4.62.73,3.88.54,7.68.68,10.59-2.42,2.05-2.18,2.47-4.38-1.31-5.35-.56-.1-1.13-.19-1.69-.29-.6-.79-1.02-1.69-1.6-2.51-3.48-4.94-2.26-8.03,3.64-8.97,3.11-.5,6.25-.86,9.32-1.54,4.54-1,9.45-1.86,12.65-5.36,7.83-8.57,13.2-18.25,10.71-30.56.1-4.8-2.36-9.07-2.81-13.76.4-1.89,1.09-3.61,3.4-3.48,2.28.12,2.86,1.91,3.14,3.79.4,2.63,1.08,5.16,2.51,7.42,2.61,4.15,4.55,4.15,7.48.1.63-6.85.26-13.38-5.5-18.51,1.65-2.43,3.77-5.41,5.74-8.48,4.43-6.91,6.84-14.39,6.01-22.7Zm-148.51,62.86c-2.02-5.56-7.34-6.33-12.05-5.93-6.72.57-11.42-1.38-16.36-6.14-8.43-8.11-19.51-11.11-31.02-12.04-2.78-.23-4.69-.8-5.71-3.65-1.09-3.06-4.01-4.28-7.35-5.95,3.75-3.02,7.47-5.35,9.76-9.14.81-1.33,2.24-1.17,3.57-1.32,4.33-.49,8.57-1.39,12.19-3.97,1.84-1.3,3.14-1.34,4.55.6,7.1,9.71,17.35,12.22,28.6,12.22,3.34.01,6.48-.41,8.82,3.04,1.3,1.9,4.07,2.92,6.32,2.16,4.23-1.42,6.43.86,9.24,3.35,4.44,3.94,10.01,6.15,15.95,6.31,3.86.1,7.03,1.04,10.16,3.22,3.82,2.67,8,4.9,12.61,5.85,2.27.47,2.98,1.49,3.2,3.6.23,2.21-.42,3.47-2.68,3.92-.96.19-2.07.52-2.72,1.17-5.8,5.79-13.99,6.63-20.82,10.26-.79.42-1.35.73-2.16,0-5.56-5.06-12.42-5.03-19.28-4.71-2.38.11-3.84-.16-4.82-2.85Zm37.41-98.82c6.48,6.62,14.34,10.17,23.72,9.68,3.46-.19,6.43-.06,8.46,3.41,1.31,2.23,4.28,2.29,6.84,3.69-2.42,2.75-4.71,4.73-5.95,7.54-.26.59-.71,1.5-1.14,1.55-5.69.63-10.37,3.09-14.32,7.22-.93.97-1.74-.44-2.29-1.18-1.85-2.51-4.3-4.59-7.23-5.02-7.23-1.06-13.44-5.71-20.92-5.66-1.37.01-1.99-1.1-2.85-1.81-2.6-2.13-5.34-4.32-8.61-4.86-10.61-1.74-19.78-7.87-30.36-9.61-1.01-.17-1.87-.45-2.61-1.24-4.72-5.04-11.11-6.76-17.47-7.73-3.67-.56-6.07-1.76-7.77-5.1,6.01-2.11,11.78-4.64,16.27-9.34.78-.81,1.77-1.06,2.74-.73,4.29,1.45,8.22-.15,12.13-1.46,2.2-.74,3.45-.72,4.87,1.56,4.83,7.77,12.3,10.88,21.19,10.77,3.85-.05,7.53-.41,10.5,2.94,1.14,1.28,3.41,2.54,4.98,1.71,4.91-2.61,7.07.86,9.82,3.67Zm14.94,74.34c-7.17-7.04-15.85-10.12-25.78-9.78-1.82.06-3.07-.51-4.44-1.65-6.86-5.76-14.57-9.81-23.57-11.07-.8-.11-2.09-.12-2.31-.58-3.52-7.37-9.63-4.97-15.11-3.83-2.99.63-4.94.74-6.23-2.48-.52-1.32-1.63-2.87-2.86-3.36-6.5-2.63-9.8-9.42-16.13-12.15-1.49-.65-1.32-1.75-1.23-2.87.37-4.85-.33-9.55-2.62-15.46,8.43,3.57,15.8,6,23.77,5.56,1.77-.1,2.53,1.4,3.54,2.45,6.87,7.18,15.38,10.88,25.18,11.61,3.13.23,5.59,1.12,7.87,3.47,3.43,3.56,8.36,6.22,12.8,6.04,8.33-.33,15.14,4.14,22.88,5.22,2.41.33,2.35,1.33,1.95,3.36-1.57,7.98-.37,15.23,6.45,20.65,2.21,1.76,2.43,3.81.64,5.91-2.11,2.49-3.46.27-4.8-1.04Zm-77.2,62.12c.26-.54.49-1.11.7-1.7-.19.59-.43,1.15-.7,1.7-.19.42-.39.84-.6,1.25-.38.74-.92,1.35-1.47,1.94.82-.96,1.51-2.03,2.07-3.19Z" fill="#eee6fe" stroke-width="0"/>
      <path d="m101.99,236.23c-2.27,1.42-.92,2.45.27,3.73,9.37,10.11,21.43,15.64,34.37,18.9,10.71,2.69,21.98,2.69,32.15-2.06,9.66-4.52,18.83-10.25,26.26-18.26.54-.58,1.34-.92,2.03-1.37-9.81,18.73-32,32.7-54.87,29.1-21.49-3.38-40.56-12.07-57.86-24.98-2.22-1.66-2.17-1.73-.31-4.33-20.95,1.47-39.12-4.88-52.89-20.58-13.87-15.82-16.7-34.85-12.08-55.24-3.01,5.52-3.18,11.41-3.4,18.04-6.66-4.04-10.03-9.83-12.04-16.24-2.82-8.99-2.27-17.99,1.69-26.71,1.28-2.81,2.96-5.03,5.95-6.07.73.65,1.46,1.3,2.97,2.65-5.11-1.06-6.61,2.02-7.07,5.07-1.1,7.42.98,14.12,5.92,19.86,2.32,2.69,4,2.78,4.84-1.07.14-.65.11-1.37.41-1.93.92-1.75,2.31-2.95,4.42-2.42,2.39.6,2.29,2.4,1.95,4.37-.86,5-1.74,9.87-.88,15.14,1.2,7.35,3.93,13.62,9.18,18.82,3.02,2.99,5.8,6.59,10.73,2.81.87-.67,2.61-.47,3.9-.3,2.68.36,4.44-.75,5.71-2.98,5.98-10.5,22.27-11.03,29.6-2.07,3.6,4.41,5.25,9.67,12.42,8.47,1.54-.26,4.36,3.89,5.68,7.4-5.13-4.2-9.97-5.56-15.12-1.53-1.13.88-1.6-.15-2.07-1.16-1.35-2.89-3.55-5.14-5.64-7.52-3.68-4.21-8.09-6.12-13.29-3.96-5.28,2.19-7.3,7.15-7.88,12.42-1.54,13.87,11.29,23.76,23.29,24.84,2.64.24,5.36.3,7.98-.02,4.46-.55,7.73.73,9.53,5.01-.11,3.78-3.58,4.34-5.41,6.01,2.46-.32,3.48-3.87,6.52-4,.06.82.2,1.6,1.03,2.03.72-.54,1.41-.64,2.04.13Z" fill="#d9caf6" stroke-width="0"/>
      <path d="m223.19,234.99c-3.12-1.76-6.15-3.71-5.09-7.97,1.03-4.12,4.3-4.67,8.07-5.03,6.05-.57,12.21-1.47,17.59-4.45,6.26-3.46,8.54-10.2,11.83-16.03,2.74-4.85,2.32-10.19,2.33-15.46,4.52,18.3-5.88,45.17-31.58,48-1.11.12-2.37-.3-3.14.94Z" fill="#d9caf6" stroke-width="0"/>
      <path d="m83.86,44.97c-.38,1.35-1.13,2.67-2.57,2.55-1.33-.11-1.32-1.71-1.6-2.78-.97-3.8-1.62-7.71-2.89-11.41-2.26-6.61-6.66-10.85-14.02-11.24,10.75-2.87,19.34,2.36,23.49,10.81.93,1.9.01,2.98-.71,4.5-1.11,2.34-3.54,4.52-1.7,7.57Z" fill="#d9caf6" stroke-width="0"/>
      <path d="m194.81,244.97c.39,2.23-.6,4.68,1.19,6.7,2.63,2.97,5.54,3.47,8.73,1.03,1.44-1.1,2.74-2.4,4.1-3.61-1.46,5.08-4.05,9.36-8.55,12.33-2.97,1.96-5.79,2.45-8.37-.63-2.56-3.06-4.52-6.29-1.99-10.26,1.33-2.08,2.74-4.15,4.88-5.55Z" fill="#d9caf6" stroke-width="0"/>
      <path d="m255.09,172.29c-2.53-2.86-.17-4.28,1.92-4.92,2.89-.88,5.41.32,5.71,3.61.24,2.67.75,5.18,1.88,7.55,2.13,4.46,3.28,4.69,7.02,1.59-.88,3.12-1.19,7.13-5.58,6.89-4.18-.23-6.7-2.86-7.51-7.27-.49-2.65-.81-5.66-3.44-7.46Z" fill="#d9caf6" stroke-width="0"/>
      <path d="m111.9,41.21c-6.22-6.04-15.98-6.49-22.9-.69-1.25,1.05-2.78,1.77-4.18,2.64,1.72-5.75,5.12-9.98,10.93-12,8.3-2.89,14.85,1.2,16.15,10.06Z" fill="#d9caf6" stroke-width="0"/>
      <path d="m16.78,118.18c-4.7,1.71-7.14,4.95-6.85,10.06-3.87-4.08-5.93-8.62-4.02-14.35.63-1.89,1.86-3.09,3.51-3.96,3.89-2.05,6.04-.91,6.56,3.39.2,1.63.53,3.24.8,4.86Z" fill="#d9caf6" stroke-width="0"/>
      <path d="m210.98,242.32c.21-3.39,2.08-1.44,3.36-.99,3.58,1.24,7.1,1.4,10.34-.76,2.32-1.54,3.12-3.42.19-5.29,3.45-.69,4.37.92,4.05,4.11-.78,7.94-7.44,12.07-14.23,9.28-3.34-1.37-1.94-4.59-3.72-6.35Z" fill="#d9c9f5" stroke-width="0"/>
      <path d="m178.95,57.39c2.94,4.71,2.21,8.68-1.41,13-5.16,6.16-4.73,12.76.25,19.12,4.6,5.86,13.26,8.33,19.72,6,1.96-.71,2.28-2.13,3.02-3.55,1.62-3.14,3.66-5.7,7.77-4.47,2.51.75,3.88,2.28,3.53,5.16-1.02,8.47-.37,9.47,7.66,12.89.9.38,1.89.72,2.29,1.77-.38.33-.82.55-1.32.61-1.03.12-1.86-.58-1.8-.57,2.05-.15,3.86,3.25,7.07,2.89,3.14,1.52,2.51,4.01,1.33,6.29-1.59,3.07-3.03.08-4.32-.49-4.87-2.15-11.22.21-13.81,5.35-3.58,7.11-4.01,7.22-10.41,2.43-1.18-.88-2.54-.53-3.8-.79.02-.17-.01-.35.06-.49,1.24-2.61,5.24-.47,5.46-1.98.4-2.76,1.74-4.54,3.37-6.39,2.07-2.36,4.65-3.5,6.56-3.43-4.2-.49-10.44.25-12.46-6.98-.47-1.67-1.5-.74-2.36-.61-13.41,1.93-24.17-2.37-32.05-13.55-.52-.74-.57-2.92-2.66-1-3.23,2.97-6.61,1.62-9.34-.94-2.02-1.89-4.13-2.35-6.76-2.27-4.62.15-9.22.47-13.67-1.73-5.24-2.59-9.82-5.59-11.5-11.52-5.68,1.41-10.84,5.16-16.87,1.8-1.11-.62-1.99.96-2.74,1.77-5.74,6.14-13.02,8.91-21.18,9.78-.66.06.19,1.13,0,.5-.07-.24,0-.36.22-.38,2.86-.21,5.63-.25,6.02,3.63-5.16.07-10.3.19-15-2.55-2.18-1.27-4.21.2-6.21.79-7.28,2.12-13.84.46-18.38-5.26,5.08,1.81,9.73,2.78,14.48,1.51.99-.27,2.6-.14,2.77-1.64.14-1.13-1.13-1.44-1.84-2.1-5.14-4.75-8.06-12.21-7.02-18.53,3.39,4.51,7.56,7.63,11.76,10.74,9.62,7.12,25.47,4.86,32.45-4.74.19-.27.28-.62.49-.86,2.26-2.63,4.07-6.09,6.92-7.67,3.87-2.15,5.16,3.05,7.91,4.53,5.31,2.87,10.62,3.86,16.22,1.71,3.46-1.34,4.79-.47,6.2,2.97,3.07,7.5,8.23,12.69,17.22,12.1,2.12-.14,3.57,1.58,5.88,2.32.66-3.88-.51-8.06,2.15-11.37,1.89-.39,1.75-2.22,2.4-3.47,3.6-6.9,9.76-10.94,15.75-10.31Z" fill="#d9caf6" stroke-width="0"/>
      <path d="m204.94,173.05c-.68-.81-1.76-.87-2.6-1.35-3.97-2.28-8.75-3.36-12.07-6.47-6.58-6.18-9.37-14.07-8.45-23.16.01-1.27.03-2.54.04-3.81-2.64-1.53-5.7-1.27-8.54-1.92-1.89-.44-3.52-.76-3.39-3.18-1.67,0-3.34.01-5,.01-.12,0-.23.01-.34.01-7.01.28-13.73-1.31-18.96-5.82-3.11-2.69-6.08-4.23-9.95-4.69-10.83-1.28-20.43-5.19-27.96-13.4-.92-1.05-1.84-2.11-2.76-3.16-3,2.2-6.31,2.02-9.69,1.27-4.15-.92-8.24-2.07-12.35-3.18-3.45.15-4.46-4.05-9.1-5.07,8.39,8.31,9.99,17.26,7.85,27.22,6.29-2.09,8.84.71,7.54,8.14,5.5-2.5,10.44-.15,12.21,4.19,2.96,7.24,7.17,6.17,12.42,4.04.15-.07.32-.13.48-.14,4.19-.4,8.63-1.28,9.59,4.79.17,1.04.66,1.05,1.69.97,8.53-.68,15.18,3.79,22.03,7.95,3.17,1.94,4.63,6.63,10.66,4.48,3.84-1.38,9.44.59,13.62,3.36,3.01,2.37,5.87,4.91,8.34,7.83,1.45,1.73,1.36,3.78.14,5.58-1.22,1.82-3.04,1.05-4.52.4-2.57-1.12-5.34-1.68-7.9-2.84-2.17-3.3-5.06-4.62-9.11-4.06-3.41.47-6.92.27-9.97-1.82-3.13-2.18-6.92-3.64-9.03-6.93-1.77-2.76-3.79-3.38-6.72-2.53-2.89.84-5.86.86-7.65-1.94-1.82-2.87-4.21-3.23-7.25-3-12.17.92-22.78-2.11-30.36-12.48-1.81-2.48-3.76-2.96-6.16-.57-1.93,1.91-4.46,2.88-7.06,3.56-1.28.33-2.76.81-3.67-.56-.64-.96-1.19-1.46-1.69-1.64h-.02c-1.31-.46-2.19,1.28-2.88,2.52-3.37,6.07-8.51,10.12-14.44,13.37-.98.38-1.97.76-2.95,1.14.35,2.39,2.35,1.7,3.68,1.72,2.82.05,5.04,1.36,7.18,2.87,1.8,1.27,2.37,2.78.02,4.19-.48.11-.99.16-1.43.36-.18.08-.23.46-.41.86,9.95.03,19.76.64,28.91,4.95,3.79,2.96,8.11,5.12,11.98,7.98,3.52,2.61,6.17,5.96,9.08,9.12,1.01,1.1,3.34,3.5,4.08.95,1.03-3.54,3.18-2.58,5.29-2.81,4.1-.43,7.34,1.46,10.43,3.81h.01c2.27,2.33-1.15,3.15-1.53,5.38,5.59-2.19,11.05-1.65,16.45-1.32,9.36.59,14.1,7.24,12.09,16.31-1.44,6.48-5.37,11.21-10.18,15.42-.76.66-3,1.79.24,2.14,1.08-.79,2.47-.72,3.67-1.36,3.6-1.92,6.52-.25,8.7,2.51,2.4,3.04.48,5.57-1.64,7.9-2.19,2.39-5.02,3.74-7.84,5.19-1.54.79-4.08.85-3.63,3.69l.38-.03.38.07c4.65.56,8.35-1.68,11.78-4.31,7.78-5.96,7.45-13.68-.87-18.85-1.88-1.17-2.24-1.98-1.17-3.83,3.09-5.37,4.08-11.12,3.31-17.29-.38-3.09,2.59-6.12,5.19-4.8,4.84,2.45,6.41-.88,8.75-3.47,1.11-1.24,2.49-2.19,3.89-3.09,4.64-2.96,5.04-2.82,7.62,2.17.44.87.85,1.81,1.65,2.46,2.16-2.68-.8-5.21-.23-7.84-.98-4.57-1-9.13.29-13.63,1.57-5.46,4.31-6.94,9.62-5.24,1.4.45,2.88.77,4,1.85.87,1.12,1.74,2.24,3.35,4.32-.6-3.36.15-4.44,2.88-3.81,1.08.25.36-1.06-.04-1.65Zm-49-14.02c-1.82.06-3.07-.51-4.44-1.65-6.86-5.76-14.57-9.81-23.57-11.07-.8-.11-2.09-.12-2.31-.58-3.52-7.37-9.63-4.97-15.11-3.83-2.99.63-4.94.74-6.23-2.48-.52-1.32-1.63-2.87-2.86-3.36-6.5-2.63-9.8-9.42-16.13-12.15-1.49-.65-1.32-1.75-1.23-2.87.37-4.85-.33-9.55-2.62-15.46,8.43,3.57,15.8,6,23.77,5.56,1.77-.1,2.53,1.4,3.54,2.45,6.87,7.18,15.38,10.88,25.18,11.61,3.13.23,5.59,1.12,7.87,3.47,3.43,3.56,8.36,6.22,12.8,6.04,8.33-.33,15.14,4.14,22.88,5.22,2.41.33,2.35,1.33,1.95,3.36-1.57,7.98-.37,15.23,6.45,20.65,2.21,1.76,2.43,3.81.64,5.91-2.11,2.49-3.46.27-4.8-1.04-7.17-7.04-15.85-10.12-25.78-9.78Zm-2.47,41.82c-5.56-5.06-12.42-5.03-19.28-4.71-2.38.11-3.84-.16-4.82-2.85-2.02-5.56-7.34-6.33-12.05-5.93-6.72.57-11.42-1.38-16.36-6.14-8.43-8.11-19.51-11.11-31.02-12.04-2.78-.23-4.69-.8-5.71-3.65-1.09-3.06-4.01-4.28-7.35-5.95,3.75-3.02,7.47-5.35,9.76-9.14.81-1.33,2.24-1.17,3.57-1.32,4.33-.49,8.57-1.39,12.19-3.97,1.84-1.3,3.14-1.34,4.55.6,7.1,9.71,17.35,12.22,28.6,12.22,3.34.01,6.48-.41,8.82,3.04,1.3,1.9,4.07,2.92,6.32,2.16,4.23-1.42,6.43.86,9.24,3.35,4.44,3.94,10.01,6.15,15.95,6.31,3.86.1,7.03,1.04,10.16,3.22,3.82,2.67,8,4.9,12.61,5.85,2.27.47,2.98,1.49,3.2,3.6.23,2.21-.42,3.47-2.68,3.92-.96.19-2.07.52-2.72,1.17-5.8,5.79-13.99,6.63-20.82,10.26-.79.42-1.35.73-2.16,0Z" fill="#9776be" stroke-width="0"/>
      <path d="m204.93,173.05c-4.58,1.26-7.05-2.9-10.65-4.18-10.3-3.67-16.03-16.2-12.47-26.79,2.75,7.15,6.53,12.95,15.32,13.44,1.99.11,2.81-.2,4-1.7,7.46-9.47,15.59-11.2,26.18-5.26,2.83,1.59,3.57,1.04,4.53-1.58,1.34-3.64,3.97-6.79,7.9-6.46,4.46.38,8.51,2.58,9.94,8.06-.71-.3-1.18-.36-1.46-.63-2.44-2.29-5.13-5.05-8.57-2.8-3.67,2.4-4.34,6.64-3.32,10.67,1.18,4.66,2.46,9.22,2.58,14.09.14,5.62-2.25,10.16-5.56,14.56,3.13-6.63,3.33-13.25.75-20.02-2.26-5.93-7.24-8.72-12.73-10.05-4.89-1.19-10.02-.65-13.41,4.19-1.04,1.49-2.17,2.82-1.47,4.95,1.11,3.37.25,6.55-1.55,9.51Z" fill="#d9caf6" stroke-width="0"/>
      <path d="m144.91,250.06c3.32-1.04,6.69-1.91,9.57-4.03,4.04-2.96,7.67-6.21,6.44-11.87-1.06-4.91-5.16-6.46-9.75-7.56,4.5-7.09,7.42-14.19,5.02-22.72-.84-2.97,6.66-5.87,9.97-3.82,1.04.64,1.07,1.73,2.05-.22.99-1.98,2.89-3.64,4.7-5.04,8.2-6.33,9.69-5.77,12.14,4.24-2.05-.62-4.09-1.68-6.17-1.77-3.96-.19-6.49,3.34-6.1,7.46.58,6.17-1.21,11.8-4.83,16.76-1.87,2.56-2.78,4.59-1.08,7.95,3.21,6.31-.3,14.53-8.14,17.84-4.19,1.77-8.56,5.4-13.84,2.78Z" fill="#d9caf6" stroke-width="0"/>
      <path d="m203.22,108.34c-4.47-1.26-4.51-4.89-4.65-7.67-7.31,2.62-14.21,2.23-21.11-.69-7.19-3.04-11.86-8.79-15.98-15.41-1.72,5.16-5.43,6.11-9.38,2.26-2.36-2.3-4.53-3.02-7.79-2.74-4.23.36-8.49.47-12.71-1.41-5.93-2.63-10.25-6.44-11.72-12.95-4.02,2.89-8.13,3.59-12.18,4.33-1.08.2-3.08.12-3.29-.39-1.53-3.74-2.96-1.45-4.22-.02-5.56,6.31-12.72,9.4-20.85,10.65-1.02.15-2.09.32-2.63,1.59,3.04.72,6.31.28,8.11,3.34,1.6,1.59.53,3.61.6,5.7,1.79-1.23,2.05-3.6,4.91-3.06,7.28,1.36,14.29,2.98,19.49,8.82.56.63.65,1.74,2.04,1.66,7.28-.41,7.3-.38,12.12,4.92.82.9,1.46.05,2.19.05,7.81.02,15.01,2.22,21.65,6.25,1.06.64,3.1,1.33,2.52,2.67-1.43,3.34,1.07,1.79,2.01,1.75,1.47-.06,2.91-.54,4.39-.69,1.37-.15,2.85.2,3.65,1.23,1.31,1.66-2.28,1.52-1.54,3.25,10.05-1.8,18.83-.31,24.6,9.28,3.68-3.11,6.08-7.59,11.29-8.02,2.48-1.79,5.48-.13,7.68-.98-2.48-4.02,1.23-5.65,2.98-7.87,2.15-2.7,5.7-2.4,9.59-3.82-4.7-.39-8.25-1.04-11.77-2.03Zm-18.83,19.22c-.93.97-1.74-.44-2.29-1.18-1.85-2.51-4.3-4.59-7.23-5.02-7.23-1.06-13.44-5.71-20.92-5.66-1.37.01-1.99-1.1-2.85-1.81-2.6-2.13-5.34-4.32-8.61-4.86-10.61-1.74-19.78-7.87-30.36-9.61-1.01-.17-1.87-.45-2.61-1.24-4.72-5.04-11.11-6.76-17.47-7.73-3.67-.56-6.07-1.76-7.77-5.1,6.01-2.11,11.78-4.64,16.27-9.34.78-.81,1.77-1.06,2.74-.73,4.29,1.45,8.22-.15,12.13-1.46,2.2-.74,3.45-.72,4.87,1.56,4.83,7.77,12.3,10.88,21.19,10.77,3.85-.05,7.53-.41,10.5,2.94,1.14,1.28,3.41,2.54,4.98,1.71,4.91-2.61,7.07.86,9.82,3.67,6.48,6.62,14.34,10.17,23.72,9.68,3.46-.19,6.43-.06,8.46,3.41,1.31,2.23,4.28,2.29,6.84,3.69-2.42,2.75-4.71,4.73-5.95,7.54-.26.59-.71,1.5-1.14,1.55-5.69.63-10.37,3.09-14.32,7.22Z" fill="#9a79bf" stroke-width="0"/>
      <path d="m148.88,169.21c-4.65-.81-8.41-3.16-10.78-7.17-1-1.69-1.64-2.05-3.41-1.39-4.63,1.72-8.87,1.67-11.31-3.58-.83-1.79-2.18-.99-3.39-.96-7.98.19-15.85.16-23.21-3.88-5.13-2.82-8.31-7.45-12.08-11.71-3.25,4.24-7.58,6.03-12.47,6.57-2.75.31-2.77.13-2.94-4-4.2,7.61-8.83,13.99-17.34,15.92,6.52-4.96,10.93-11.27,13.41-19.18.92-2.93,3.63-4.85,7.22-2.86,2.79,1.54,5.65,1.37,8.68.57,6.85-1.8,10.81.01,14.49,6.18,2.03,3.4,4.69,5.8,8.86,6.58,5.88,1.09,11.74,2.07,17.74,1.82,3.33-.14,6.25.41,8.07,3.73.5.92,1.76,2.08,2.63,2.04,8.27-.32,11.49,6.24,15.81,11.3Z" fill="#d9caf6" stroke-width="0"/>
      <path d="m86.96,175.1c10.44,3.13,17.43,10.8,24.15,18.92,1.38-1.98-1.66-2.84-.62-4.15,1.15-1.45,3.07-.79,4.63-.76,4.83.11,10.21-.97,12.71,5.05-3.06.46-5.74,1.67-7.62,4.2-2.92,3.94-6.62,3.2-9.53.72-3.48-2.97-7.15-5.73-10.07-9.51-4.03-5.22-9.05-9.69-13.65-14.48Z" fill="#d9caf6" stroke-width="0"/>
      <path d="m164.92,133.17c-7.55,2.22-16.75-.83-21.8-6.92-1.53-1.84-4.07-1.94-6.4-2.18-8.89-.9-17.3-3.2-24.27-9.14-1.87-1.59-3.9-3.15-4.73-5.66,2.3,1.58,4.49,3.35,6.92,4.69,6.85,3.77,13.86,7.1,22.05,6.21,8.12-.88,14.92,1.31,19.99,8.17,1.96,2.65,4.47,4.98,8.24,4.83Z" fill="#d9caf6" stroke-width="0"/>
      <path d="m221.08,93.17c-2.89-.5-6.19-1.38-6.2-6.03-.01-4.69,4.46-8.9,9.49-8.93,4.28-.02,8.37,3.26,8.44,6.77.07,3.57-6.2,8.24-11.74,8.19Z" fill="#d9cbf6" stroke-width="0"/>
      <path d="m144.89,232.09c2.13-1.32,3.36-4.36,6.6-3.55,3.43.86,6.78,1.94,7.97,5.82,1.1,3.61-1.27,5.79-3.37,8.19-3.26,3.72-8.59,3.99-11.94,7.47-2.11-1.22-.45-2.16.34-2.93,1.9-1.86,3.56-3.83,4.59-6.32,2.03-4.9,1.1-6.89-4.19-8.68Z" fill="#d9caf6" stroke-width="0"/>
      <path d="m171.9,164.13c4.37,1.2,7.17,4.52,10.09,7.61,2.35,2.49.23,5.15-.55,7.38-.72,2.06-3.1.99-4.78.4-3.09-1.09-6.19-2.18-8.7-4.43,3.04.52,5.27-.89,6.49-3.44,1.49-3.12-1.27-5.15-2.55-7.53Z" fill="#d9c9f5" stroke-width="0"/>
      <path d="m184.83,191.21c-1.8-4.53-2.45-9.11-1.01-13.92.94-3.15,2.17-6.23,5.57-6.94,3.71-.77,7.24.14,9.36,3.84-8.73.55-13.7,6.63-13.92,17.02Z" fill="#d8c9f5" stroke-width="0"/>
      <path d="m104.95,106.11c-.75,1.81-1.3,3.25-4.06,3.18-6.51-.15-12.27-2.41-17.98-5.09,5.01.6,9.92.78,14.9-.86,2.65-.88,5.62-.37,7.14,2.77Z" fill="#d9c9f5" stroke-width="0"/>
      <path d="m49,160.16c2.73,2.08,6.43-.59,9.19,1.95,1.17,1.08,3.01,1.47,3.93,2.93.59.94,1.48,2.25,1.22,3.07-.51,1.59-2.21.81-3.45.83-1.83-4.99-6.59-5.48-10.71-6.64-3.03-.85-1.42-1.34-.18-2.15Z" fill="#d6c6f3" stroke-width="0"/>
      <path d="m178.95,57.39c-7.57.95-12.33,5.48-15.62,12.04-.4.8.14,3.9-2.53,1.74,3.18-7.78,7.83-13.91,16.91-15.06,1.49-.2,3.24-1.52,4.11.95-.96.11-1.91.22-2.87.33Z" fill="#9d7dc3" stroke-width="0"/>
      <path d="m181.82,57.06c-1.13-1.34-2.73-.66-4.11-.95,1.49-1.39,3.47-.72,5.32-1.24-.81-.36-1.52-.66-3.27-1.43,5.74-.84,10.06-.27,13.95,3.18-4.19-2.91-7.94.54-11.89.44Z" fill="#a688c8" stroke-width="0"/>
      <path d="m181.85,138.26c-3.96.36-7.73-.28-11.43-1.8-2.36-.97-2.02-1.95-.5-3.31,1.5,2.21,3.77,2.14,6.04,1.99,2.63-.18,4.82.39,5.89,3.12Z" fill="#d7c8f4" stroke-width="0"/>
      <path d="m60.3,95.35c6.42-.25,11.83,4.36,12.83,10.8-3.04-5.05-6.89-9.1-12.83-10.8Z" fill="#9f7fc3" stroke-width="0"/>
      <path d="m225.74,110.25c.36,1.04.72,2.08,1.07,3.12-3.56-3.17-7.6-5.12-13.16-5.96,3.5-2.3,5.78.09,8.13-.09,1.32.98,2.63,1.96,3.95,2.93Z" fill="#a080c6" stroke-width="0"/>
      <path d="m98.92,234.07c-2.97,2.09-5.19,5.38-10.08,6.12,3.01-3.55,7.29-4.47,8.98-8.13.9-.74,1.15-2.32,2.79-2.21.76,1.97-1.29,2.76-1.69,4.22Z" fill="#9c7bc2" stroke-width="0"/>
      <path d="m101.99,236.23c-.68-.04-1.36-.09-2.04-.13,2.78-3.02,4.33-6.78,6.34-10.32.36,4.21-1.99,7.33-4.31,10.45Z" fill="#9e7fc3" stroke-width="0"/>
      <path d="m229.72,110.46c3.94,1.62,4.64,4.54,3.24,9.64-1.49-3.93-.87-7.43-3.24-9.64Z" fill="#a283c5" stroke-width="0"/>
      <path d="m67.89,109.35c-2.28-1.36-3.22-2.73-4.04-5.09,2.92.73,3.6,2.31,4.04,5.09Z" fill="#a88bc9" stroke-width="0"/>
    </g>
  </g>
</svg>