<?xml version="1.0" encoding="UTF-8"?>
<svg id="b" data-name="Слой 2" xmlns="http://www.w3.org/2000/svg" width="1466.65" height="562.58" xmlns:xlink="http://www.w3.org/1999/xlink" viewBox="0 0 1466.65 562.58">
  <defs>
    <radialGradient id="d" data-name="Безымянный градиент 8" cx="668.2" cy="346.03" fx="668.2" fy="346.03" r="1" gradientTransform="translate(-16289.37 26585.5) rotate(-30.88) scale(41.49 -41.49)" gradientUnits="userSpaceOnUse">
      <stop offset="0" stop-color="#be38e1"/>
      <stop offset="1" stop-color="#9060bd"/>
    </radialGradient>
    <radialGradient id="e" data-name="Безымянный градиент 8" cx="668.2" fx="668.2" r="1" gradientTransform="translate(-16289.37 26585.5) rotate(-30.88) scale(41.49 -41.49)" xlink:href="#d"/>
    <radialGradient id="f" data-name="Безымянный градиент 8" cx="661.96" cy="332.8" fx="661.96" fy="332.8" r="1" gradientTransform="translate(-29156.78 4415.62) rotate(18.41) scale(41.49 -41.49)" xlink:href="#d"/>
    <radialGradient id="g" data-name="Безымянный градиент 8" cx="661.96" cy="332.8" fx="661.96" fy="332.8" r="1" gradientTransform="translate(-29156.78 4415.62) rotate(18.41) scale(41.49 -41.49)" xlink:href="#d"/>
    <radialGradient id="h" data-name="Безымянный градиент 8" cx="671.33" cy="342.32" fx="671.33" fy="342.32" r="1" gradientTransform="translate(-22967.89 36719.93) rotate(-30.88) scale(57.35 -57.35)" xlink:href="#d"/>
    <radialGradient id="i" data-name="Безымянный градиент 8" cx="671.33" cy="342.32" fx="671.33" fy="342.32" r="1" gradientTransform="translate(-22967.89 36719.93) rotate(-30.88) scale(57.35 -57.35)" xlink:href="#d"/>
    <radialGradient id="j" data-name="Безымянный градиент 8" cx="666.87" cy="331.42" fx="666.87" fy="331.42" r="1" gradientTransform="translate(-41341.6 1615.03) rotate(24.43) scale(57.35 -57.35)" xlink:href="#d"/>
    <radialGradient id="k" data-name="Безымянный градиент 8" cx="666.87" cy="331.42" fx="666.87" fy="331.42" r="1" gradientTransform="translate(-41341.6 1615.03) rotate(24.43) scale(57.35 -57.35)" xlink:href="#d"/>
    <radialGradient id="l" data-name="Безымянный градиент 10" cx="661.18" cy="338.93" fx="661.18" fy="338.93" r="1" gradientTransform="translate(-23756.38 13069.54) scale(37.56 -37.56)" gradientUnits="userSpaceOnUse">
      <stop offset="0" stop-color="#e18638"/>
      <stop offset="1" stop-color="#d23f38"/>
    </radialGradient>
    <radialGradient id="m" data-name="Безымянный градиент 10" r="1" xlink:href="#l"/>
    <radialGradient id="n" data-name="Безымянный градиент 22" cx="662.92" cy="338.33" fx="662.92" fy="338.33" r="1" gradientTransform="translate(-26272.95 14314.45) scale(41.49 -41.49)" gradientUnits="userSpaceOnUse">
      <stop offset="0" stop-color="#38e139"/>
      <stop offset="1" stop-color="#89bd5f"/>
    </radialGradient>
    <radialGradient id="o" data-name="Безымянный градиент 22" cx="662.92" cy="338.33" fx="662.92" fy="338.33" r="1" xlink:href="#n"/>
    <radialGradient id="p" data-name="Безымянный градиент 22" cx="667.5" cy="336.75" fx="667.5" fy="336.75" r="1" gradientTransform="translate(-36862.19 19553.5) scale(57.35 -57.35)" xlink:href="#n"/>
    <radialGradient id="q" data-name="Безымянный градиент 22" cx="667.5" cy="336.75" fx="667.5" fy="336.75" r="1" gradientTransform="translate(-36862.19 19553.5) scale(57.35 -57.35)" xlink:href="#n"/>
    <radialGradient id="r" data-name="Безымянный градиент 18" cx="658.7" cy="332.76" fx="658.7" fy="332.76" r="1" gradientTransform="translate(-24610.89 4983.25) rotate(18.59) scale(34.99 -37.56)" gradientUnits="userSpaceOnUse">
      <stop offset="0" stop-color="#e13874"/>
      <stop offset="1" stop-color="#bd609f"/>
    </radialGradient>
    <radialGradient id="s" data-name="Безымянный градиент 18" r="1" gradientTransform="translate(-24610.9 4983.25) rotate(18.59) scale(34.99 -37.56)" xlink:href="#r"/>
    <radialGradient id="t" data-name="Безымянный градиент 18" cx="665.93" cy="343.73" fx="665.93" fy="343.73" r="1" gradientTransform="translate(-20716.93 23378.55) rotate(-20.31) scale(41.49 -41.49)" xlink:href="#r"/>
    <radialGradient id="u" data-name="Безымянный градиент 18" cx="665.93" cy="343.73" fx="665.93" fy="343.73" r="1" gradientTransform="translate(-20716.93 23378.55) rotate(-20.31) scale(41.49 -41.49)" xlink:href="#r"/>
    <radialGradient id="v" data-name="Безымянный градиент 22" cx="696.08" cy="326.91" fx="696.08" fy="326.91" r="1" gradientTransform="translate(29170.1 -13269.25) rotate(-180) scale(41.49 -41.49)" xlink:href="#n"/>
    <radialGradient id="w" data-name="Безымянный градиент 22" cx="696.08" cy="326.91" fx="696.08" fy="326.91" r="1" gradientTransform="translate(29170.1 -13269.25) rotate(-180) scale(41.49 -41.49)" xlink:href="#n"/>
    <radialGradient id="x" data-name="Безымянный градиент 22" cx="691.5" cy="328.49" fx="691.5" fy="328.49" r="1" gradientTransform="translate(39759.34 -18580.87) rotate(-180) scale(57.35 -57.35)" xlink:href="#n"/>
    <radialGradient id="y" data-name="Безымянный градиент 22" cx="691.5" cy="328.49" fx="691.5" fy="328.49" r="1" gradientTransform="translate(39759.34 -18580.87) rotate(-180) scale(57.35 -57.35)" xlink:href="#n"/>
  </defs>
  <g id="c" data-name="Слой 1">
    <path d="m169.74,32.89c-7.44-2.98-16.38-.79-21.94,4.93-6.06,6.23-5.36,15.42-.57,22.19,1.53,2.16,3.36,4.12,5.46,5.72,1.04.88,2.14,1.68,3.28,2.43,2.17,1.41,4.52,2.52,6.97,3.32,1.22.4,2.46.72,3.73.95,1.11.21,2.39.53,3.53.31.07.05.14.1.23.14.15.8.32,1.59.33,2.42.02.85-.27,1.94.34,2.65.42.49,1.12.64,1.65.24.26-.2.34-.5.5-.78.51-.88,1.14-.98,2.11-.97.94,0,1.9.03,2.65-.64.53-.48.81-1.2.54-1.88-.34-.87-1.25-1.13-2.05-1.42-.96-.35-1.7-.88-2.46-1.46,2.17-2.07,3.75-5.04,4.9-7.6,1.65-3.68,2.87-7.65,3-11.7.26-8.1-4.67-15.86-12.21-18.87Z" fill="url(#d)" stroke-width="0"/>
    <path d="m169.74,32.89c-1.67-.67-3.4-1.08-5.17-1.24.16.19.31.38.46.58,2.63,3.39,4.97,7.29,5.8,11.55.91,4.69.24,9.26-1.6,13.62-2.08,4.92-5.53,9.13-9.48,12.82,1.04.47,2.11.9,3.2,1.26,1.22.4,2.46.72,3.73.95,1.12.21,2.39.53,3.53.31.07.05.14.1.23.14.15.8.32,1.59.33,2.42.02.85-.27,1.94.34,2.65.42.49,1.12.64,1.65.24.26-.2.34-.5.5-.78.51-.88,1.14-.98,2.11-.97.94,0,1.9.03,2.65-.64.53-.48.81-1.2.54-1.88-.34-.87-1.25-1.13-2.05-1.42-.96-.35-1.7-.88-2.46-1.46,2.18-2.07,3.76-5.04,4.9-7.6,1.65-3.68,2.87-7.65,3-11.7.26-8.1-4.67-15.86-12.21-18.87Z" fill="url(#e)" isolation="isolate" opacity=".36" stroke-width="0"/>
    <path d="m173.57,70.75c-.41,1.16-1.45,1.25-2.48,1.56-.46.13-1.09.72-1.46.48-.11-.07-.23.08-.17.18.12.22.12.21.29.4.07.08.2.06.26,0,.95-.83,3.97-.75,3.86-2.57,0-.17-.23-.19-.29-.04h0Z" stroke-width="0"/>
    <path d="m181.04,89.39c-2.51-2.68-5.77-4-8.76-6.03-1.77-1.19-3.48-2.78-4.12-4.88-.56-1.85-.19-3.92,1.22-5.3.12-.12-.06-.28-.18-.17-2.34,1.95-1.98,5.41-.36,7.7,2.31,3.26,6.31,4.47,9.41,6.73,5.9,4.31,8.65,11.8,7.65,18.94-.02.15.2.21.23.06,1.25-6.05-.9-12.58-5.09-17.05Z" stroke-width="0"/>
    <g opacity=".21">
      <path d="m161.51,43.18c-.77-1.56-1.76-2.97-2.96-4-3.91-3.32-9.03-.97-10.6,3.48-1.21,3.46-1.26,7.35-.57,10.93.66,3.45,2.32,7,5.77,8.36,3.91,1.55,8.13-.57,9.92-4.23,2.08-4.25,1.52-10.63-1.57-14.56h0Z" fill="#fff" stroke-width="0"/>
    </g>
    <path d="m149.98,41.7c-.51.35-.92.99-1.17,1.73-.28.69-.34,1.51-.33,2.21,0,1.01.09,2.41.8,3.2.77.86,1.97.63,2.68-.18.73-.83,1.09-1.98,1.21-3.06.19-1.65-.72-5.59-3.18-3.92h0Z" fill="#fff" stroke-width="0"/>
    <path d="m149.99,50.58c-.55.26-.87.9-.84,1.5,0,.05.01.1.02.15-.01.15,0,.29.03.42.06.24.17.4.32.59.02.03.06.07.09.12.1.1.22.17.35.21.17.06.32.1.5.1.65-.02,1.25-.54,1.4-1.17.13-.53,0-1.09-.3-1.53-.36-.55-.98-.67-1.58-.4h0Z" fill="#fff" stroke-width="0"/>
    <path d="m149.55,53.3s-.02-.03-.03-.05c-.13-.16-.11-.14.03.05Z" fill="#fff" stroke-width="0"/>
    <g opacity=".21">
      <path d="m177.05,53.25c-1.18,2.6-1.7,5.41-1.38,8.25.1.87,1.14,1.17,1.63.41.25-.38.48-.8.69-1.25.2-.11.37-.28.46-.52.76-2.16.78-4.49.26-6.7-.17-.74-1.33-.9-1.66-.2h0Z" fill="#fff" stroke-width="0"/>
    </g>
    <g opacity=".21">
      <path d="m176.21,63.84c-.36-.09-.62.14-.74.44l-.3.76c-.14.35,0,.87.41.96.41.1.74-.24.85-.61.08-.28.15-.55.22-.83.08-.32-.13-.66-.44-.74h0Z" fill="#fff" stroke-width="0"/>
    </g>
    <path d="m1286.98,13.45c-2.59-7.59-10.08-12.93-18.05-13.42-8.67-.54-15.17,5.99-17.19,14.04-.64,2.57-.93,5.23-.77,7.87.01,1.36.11,2.72.3,4.07.34,2.56,1.04,5.07,2.03,7.45.49,1.19,1.05,2.33,1.7,3.45.57.98,1.16,2.16,2.07,2.88,0,.09.02.17.04.27-.51.63-1,1.28-1.62,1.83-.63.57-1.65,1.06-1.79,1.99-.1.64.24,1.26.89,1.4.33.07.6-.06.92-.13,1-.18,1.48.22,2.11.97.6.72,1.22,1.46,2.21,1.59.71.09,1.44-.17,1.78-.81.44-.82.04-1.68-.26-2.48-.36-.95-.45-1.87-.5-2.81,2.99.3,6.27-.44,8.96-1.24,3.86-1.15,7.67-2.81,10.83-5.36,6.31-5.09,8.97-13.89,6.34-21.56Z" fill="url(#f)" stroke-width="0"/>
    <path d="m1286.98,13.45c-.58-1.7-1.4-3.28-2.43-4.73-.04.24-.09.49-.14.72-.85,4.21-2.28,8.52-4.97,11.93-2.95,3.75-6.85,6.22-11.37,7.67-5.09,1.63-10.53,1.77-15.91,1.18.32,1.1.7,2.19,1.14,3.24.49,1.19,1.05,2.33,1.7,3.45.57.98,1.16,2.16,2.07,2.88,0,.09.02.17.04.27-.51.63-1,1.28-1.62,1.83-.64.57-1.65,1.06-1.79,1.99-.1.64.24,1.26.89,1.4.33.07.6-.06.92-.13,1-.18,1.48.22,2.11.97.6.72,1.22,1.46,2.21,1.59.71.09,1.44-.16,1.78-.81.44-.82.04-1.68-.26-2.48-.36-.95-.45-1.87-.5-2.81,2.99.3,6.27-.44,8.96-1.24,3.86-1.15,7.67-2.81,10.83-5.35,6.31-5.09,8.97-13.89,6.34-21.56Z" fill="url(#g)" isolation="isolate" opacity=".36" stroke-width="0"/>
    <path d="m1260.77,41.04c-1.14.44-1.89-.28-2.8-.87-.39-.26-1.26-.36-1.31-.8-.02-.13-.21-.12-.25,0-.09.23-.08.23-.12.48-.01.1.09.19.18.2,1.25.17,3.16,2.52,4.46,1.25.13-.12,0-.3-.16-.24h0Z" stroke-width="0"/>
    <path d="m1251.51,58.86c.4-3.65-.73-6.99-1.15-10.57-.25-2.12-.16-4.45,1.02-6.3,1.04-1.64,2.84-2.7,4.81-2.53.17.01.17-.23.01-.25-3-.5-5.4,2.03-6.07,4.75-.96,3.87.73,7.69,1.03,11.53.58,7.29-3.3,14.26-9.36,18.15-.12.09-.03.28.11.22,5.4-3,8.95-8.89,9.6-14.98Z" stroke-width="0"/>
    <g opacity=".21">
      <path d="m1273.81,13.92c.68-1.6,1.1-3.27,1.1-4.85-.04-5.13-5.16-7.48-9.55-5.76-3.42,1.34-6.39,3.84-8.66,6.7-2.18,2.75-3.79,6.33-2.58,9.83,1.38,3.98,5.74,5.79,9.67,4.76,4.59-1.19,9.05-5.78,10.02-10.68h0Z" fill="#fff" stroke-width="0"/>
    </g>
    <path d="m1267.41,4.21c-.6-.16-1.35-.05-2.07.25-.71.24-1.37.72-1.89,1.19-.76.66-1.77,1.65-1.91,2.7-.15,1.14.81,1.9,1.88,1.91,1.1,0,2.21-.47,3.11-1.07,1.37-.93,3.77-4.19.89-4.97h-.01Z" fill="#fff" stroke-width="0"/>
    <path d="m1260.68,10.01c-.56-.25-1.25-.07-1.69.35-.03.04-.06.07-.1.11-.12.09-.22.19-.3.3-.14.21-.19.39-.24.63-.01.04-.02.09-.03.15,0,.14.02.28.07.4.06.17.13.31.25.44.44.48,1.23.6,1.8.29.49-.25.83-.71.97-1.23.18-.64-.13-1.18-.73-1.45h0Z" fill="#fff" stroke-width="0"/>
    <path d="m1258.33,11.46s.02-.04.02-.06c.04-.2.04-.18-.02.06Z" fill="#fff" stroke-width="0"/>
    <g opacity=".21">
      <path d="m1276.31,32.27c-2.74.79-5.2,2.24-7.15,4.33-.6.65-.15,1.63.75,1.5.45-.06.92-.16,1.39-.29.22.08.46.1.7,0,2.13-.84,3.9-2.34,5.24-4.18.45-.61-.18-1.6-.93-1.38h0Z" fill="#fff" stroke-width="0"/>
    </g>
    <g opacity=".21">
      <path d="m1267.73,38.53c-.16-.33-.5-.38-.81-.27l-.78.27c-.36.12-.66.56-.46.94.19.38.67.4,1.02.24.26-.12.51-.25.76-.38.3-.15.42-.53.28-.82h-.01Z" fill="#fff" stroke-width="0"/>
    </g>
    <path d="m39.33,98.28c-10.75-2.67-22.56.56-31.05,7.49-4.4,3.59-7.56,8.4-8.17,14.12-.61,5.71,1.29,11.66,4.05,16.61,3.17,5.68,8.42,10.59,14.95,11.91,5.39,1.09,11.49-.41,16.31-3.2.28-.11.57-.23.85-.35-.04.36-.12.71-.27,1.06-.49,1.15-1.16,1.95-.56,3.21.28.61,1.2.38,1.36-.2.38-1.41,1.94,0,2.87-.34.47-.17.77-.53.97-.97.19-.4.29-1.49.99-1.25,1.16.39,1.57-1.24.73-1.84-.72-.5-1.47-1.13-2.25-1.67,1.76-1.1,3.41-2.37,4.91-3.77,3.98-3.73,6.79-8.62,8.2-13.88,1.4-5.23,1.61-11.39-.47-16.46-2.35-5.74-7.58-8.99-13.43-10.45h0Z" fill="url(#h)" stroke-width="0"/>
    <path d="m39.33,98.28c-3.09-.77-6.29-1.04-9.45-.88.58.55,1.12,1.11,1.6,1.66,9.16,10.56,7.45,24.59,1.1,36.13-2.78,5.05-6.52,9.83-11.04,13.53,4.74.3,9.77-1.14,13.89-3.51.28-.11.57-.23.85-.35-.04.36-.12.71-.27,1.06-.49,1.15-1.16,1.95-.56,3.21.29.62,1.2.38,1.36-.2.38-1.4,1.94,0,2.87-.34.47-.17.77-.53.97-.97.19-.4.29-1.49.99-1.25,1.16.39,1.57-1.24.73-1.84-.72-.5-1.47-1.13-2.25-1.67,1.76-1.1,3.41-2.37,4.91-3.77,3.98-3.73,6.78-8.62,8.2-13.88,1.4-5.23,1.61-11.39-.47-16.46-2.35-5.74-7.58-8.99-13.43-10.45h0Z" fill="url(#i)" isolation="isolate" opacity=".36" stroke-width="0"/>
    <path d="m39.94,142.69c-.12-.08-.24.09-.14.19-.04.2-.08.4-.12.61-.11.04-.23.09-.34.12-.16.05-.33.08-.48.13-.23.07-.45.14-.66.23-.52.22-1.02.5-1.47.84-.17.12-.33.26-.48.4-.08.07-.21.27-.32.31-.12-.02-.25-.04-.36-.05.03-.04.07-.09.1-.14.08-.21.26-.3.18-.55-.03-.11-.17-.07-.18.03-.01.08-.06.16-.12.25-.02-.03-.04-.06-.08-.05-2.29.33-3.74,2.71-3.76,4.89-.04,2.91,1.99,5.39,4.14,7.14,1.2.97,2.5,1.82,3.76,2.72,1.35.97,2.63,2.02,3.81,3.19,2.29,2.27,4.21,4.96,5.36,7.99,1.21,3.18,1.44,6.44.94,9.79-.01.11.14.16.18.04.73-2.59.5-5.47-.19-8.04-.74-2.78-2.12-5.35-3.9-7.61-1.89-2.4-4.22-4.36-6.71-6.1-2.48-1.72-5.17-3.49-6.46-6.33-.68-1.48-.86-3.18-.24-4.71.56-1.37,1.64-2.45,3.1-2.83-.19.25-.39.52-.05.74.19.12.4.04.56-.07.39-.26.7-.65,1.09-.92.42-.29.88-.53,1.35-.72.44-.17.96-.2,1.36-.44.39-.23.53-.76.12-1.03v-.02Z" stroke-width="0"/>
    <g opacity=".21">
      <path d="m24.47,110.95c-2.45-3.87-7.13-6.27-11.44-3.67-3.62,2.17-4.79,6.65-5.02,10.58-.21,3.4.44,7.08,1.43,10.33,1.44,4.75,6.36,7.26,10.57,3.83.68-.56,1.27-1.2,1.77-1.91,1.7-.76,2.91-1.6,3.77-3.57.79-1.81,1.34-3.55,1.44-5.57.17-3.4-.7-7.12-2.52-10h0Z" fill="#fff" stroke-width="0"/>
    </g>
    <path d="m9.76,112.3c-1.21.27-1.38,1.67-1.55,2.7-.21,1.23-.3,2.46-.27,3.7,0,.12.03.26.07.38.06.53.22,1.02.63,1.35,2.04,1.68,3.43-2.02,3.61-3.47.19-1.55-.1-5.22-2.49-4.67h0Z" fill="#fff" stroke-width="0"/>
    <path d="m10.16,122.14s-.1-.03-.15-.04c-.35-.04-.71.18-.81.52,0,0-.02.01-.02.02-.06.11-.1.22-.14.34-.03.1-.05.21-.03.33,0,.03-.03.05-.03.08,0,0,0,0-.02.01.01-.06.02-.05-.01.02-.16.3-.18.7.02.98.14.21.34.4.61.45.28.06.49,0,.75-.11.71-.31,1.12-1.5.67-2.15-.21-.29-.52-.46-.83-.49v.02Z" fill="#fff" stroke-width="0"/>
    <g opacity=".21">
      <path d="m47.94,121.21c-1.99,2.48-3.01,5.54-2.75,8.72.04.46.32.73.67.81.05.65.85,1.12,1.41.54,1.19-1.23,1.9-2.84,2.46-4.43.4-1.12,1.38-3.42.11-4.35-.07-.29-.15-.58-.25-.86-.23-.63-1.15-1.04-1.65-.41h0Z" fill="#fff" stroke-width="0"/>
    </g>
    <g opacity=".21">
      <path d="m45.9,133.05c-.25-.03-.52.05-.69.24-.29.3-.47.66-.5,1.08-.02.28.04.51.16.74,0,.06,0,.12.01.19.08.52.74.66,1.13.45.6-.32.79-1.3.62-1.94,0,0,0-.03.02-.03.14-.46-.36-.8-.74-.72h-.01Z" fill="#fff" stroke-width="0"/>
    </g>
    <path d="m1373.21,152.7c-3.92-10.36-13.3-18.23-23.82-21.27-5.46-1.58-11.21-1.43-16.27,1.32-5.05,2.75-8.85,7.7-11.35,12.78-2.86,5.84-3.91,12.95-1.28,19.08,2.17,5.05,6.87,9.21,11.91,11.59.25.17.51.34.77.5-.32.17-.66.31-1.02.38-1.23.26-2.27.16-2.96,1.37-.34.58.37,1.2.94,1.01,1.37-.49,1.11,1.59,1.91,2.17.41.29.87.33,1.35.25.44-.07,1.39-.61,1.59.1.34,1.18,1.92.59,1.93-.45,0-.88.09-1.85.1-2.8,1.9.82,3.88,1.46,5.9,1.89,5.33,1.15,10.95.67,16.08-1.16,5.1-1.82,10.28-5.16,13.27-9.75,3.38-5.2,3.08-11.35.95-16.99h0Z" fill="url(#j)" stroke-width="0"/>
    <path d="m1373.21,152.7c-1.12-2.98-2.72-5.76-4.65-8.28-.12.79-.28,1.56-.46,2.26-3.47,13.54-15.98,20.12-29.08,21.46-5.74.59-11.79.23-17.41-1.37,2.45,4.07,6.5,7.39,10.79,9.43.25.17.51.34.77.5-.32.17-.66.31-1.02.38-1.23.26-2.27.16-2.96,1.37-.35.59.37,1.2.94,1.01,1.37-.49,1.11,1.59,1.91,2.17.41.29.87.33,1.35.25.44-.07,1.39-.61,1.59.1.34,1.18,1.92.59,1.93-.45,0-.88.09-1.85.1-2.8,1.9.82,3.88,1.46,5.9,1.89,5.33,1.15,10.95.67,16.08-1.16,5.1-1.82,10.28-5.16,13.27-9.75,3.38-5.2,3.08-11.35.95-16.99h0Z" fill="url(#k)" isolation="isolate" opacity=".36" stroke-width="0"/>
    <path d="m1337.05,178.47c0-.14-.21-.14-.24-.01-.19.08-.37.16-.56.25-.1-.07-.21-.14-.3-.21-.13-.1-.25-.22-.38-.33-.19-.15-.38-.29-.57-.41-.48-.3-.99-.55-1.53-.73-.2-.07-.4-.13-.6-.17-.11-.03-.35-.02-.44-.09-.05-.11-.1-.22-.16-.32.06,0,.12,0,.18,0,.22-.05.39.05.56-.16.07-.09-.04-.18-.13-.13-.07.03-.16.05-.28.05.02-.03.03-.06,0-.09-1.58-1.7-4.36-1.53-6.16-.31-2.42,1.63-3.31,4.71-3.52,7.47-.11,1.54-.07,3.09-.09,4.64-.03,1.66-.16,3.31-.46,4.94-.56,3.17-1.68,6.29-3.52,8.96-1.92,2.81-4.47,4.85-7.52,6.35-.1.05-.05.21.07.17,2.55-.87,4.79-2.7,6.51-4.73,1.86-2.2,3.19-4.79,4.04-7.54.89-2.92,1.18-5.95,1.19-8.99.01-3.02-.07-6.24,1.54-8.91.83-1.4,2.12-2.52,3.73-2.88,1.44-.32,2.95-.04,4.09.94-.31-.01-.65-.02-.63.38,0,.22.19.35.37.42.44.18.94.21,1.38.37.48.18.94.43,1.36.71.39.26.72.68,1.14.87.41.19.92,0,.91-.49h.02Z" stroke-width="0"/>
    <g opacity=".21">
      <path d="m1354.35,147.69c1.79-4.22,1.09-9.43-3.49-11.49-3.85-1.74-8.19-.15-11.56,1.89-2.92,1.76-5.57,4.39-7.69,7.05-3.08,3.89-2.35,9.37,2.88,10.87.84.24,1.71.36,2.57.37,1.6.96,2.98,1.48,5.09,1.07,1.94-.38,3.68-.92,5.39-1.99,2.89-1.79,5.46-4.63,6.79-7.77h.02Z" fill="#fff" stroke-width="0"/>
    </g>
    <path d="m1344.86,136.36c-.91-.84-2.15-.19-3.1.26-1.13.53-2.2,1.16-3.2,1.89-.1.08-.2.17-.27.27-.4.35-.71.76-.75,1.29-.22,2.64,3.61,1.67,4.91,1,1.38-.72,4.23-3.05,2.42-4.71h-.01Z" fill="#fff" stroke-width="0"/>
    <path d="m1337,142.29s-.04-.1-.06-.15c-.17-.31-.55-.48-.89-.37,0,0-.01,0-.03,0-.12,0-.24.04-.36.08-.1.03-.2.08-.29.16-.03,0-.06,0-.09.02,0,0-.01,0-.02,0,.06-.02.05-.01-.02,0-.34.04-.68.25-.8.57-.09.23-.13.51-.02.76.11.26.28.4.51.55.66.41,1.87.07,2.15-.67.13-.34.09-.69-.07-.96h-.01Z" fill="#fff" stroke-width="0"/>
    <g opacity=".21">
      <path d="m1359.26,172.82c-3.17-.22-6.27.68-8.74,2.7-.35.29-.41.68-.28,1.01-.5.41-.44,1.34.35,1.47,1.69.27,3.42-.05,5.05-.5,1.15-.31,3.6-.81,3.64-2.39.2-.22.4-.45.57-.7.4-.55.21-1.53-.59-1.59h0Z" fill="#fff" stroke-width="0"/>
    </g>
    <g opacity=".21">
      <path d="m1348.36,177.89c-.12-.22-.34-.4-.58-.43-.41-.07-.81,0-1.17.2-.24.14-.4.32-.52.56-.05.03-.1.07-.15.12-.39.36-.12.99.27,1.19.61.31,1.52-.09,1.95-.6,0,0,.03,0,.04,0,.46-.14.45-.75.17-1.02h-.01Z" fill="#fff" stroke-width="0"/>
    </g>
    <path d="m1105.45,347.5c-3.71-6.69-12.11-8.89-18.96-5.95-7.11,3.05-11.06,10.83-10.99,18.33.05,4.72,1.48,9.32,3.82,13.4,1.17,2.04,2.56,3.95,4.08,5.74,1.19,1.4,2.41,2.75,3.86,3.84-.47.74-.78,1.61-1.26,2.35-.39.59-1.04,1.22-.96,1.99.16,1.55,2.64,1.2,3.66,1.24.9.03,3.46.59,3.51-.96.03-.77-.68-1.66-1.01-2.31-.31-.63-.61-1.39-1.04-2,6.69-2.59,12.03-8.39,14.93-14.87,2.88-6.43,3.9-14.4.34-20.8h.02Z" fill="url(#l)" stroke-width="0"/>
    <path d="m1105.45,347.5c-.48-.86-1.03-1.64-1.65-2.35.02,4.83-1.31,9.99-2.73,13.46-2.53,6.17-7.34,10.89-13.08,14.21-2.34,1.35-4.78,2.18-7.27,2.66.83,1.22,1.73,2.4,2.68,3.52,1.19,1.4,2.41,2.75,3.86,3.84-.47.74-.78,1.61-1.26,2.35-.39.59-1.04,1.22-.96,1.99.16,1.55,2.64,1.2,3.66,1.24.9.03,3.46.59,3.51-.96.03-.77-.68-1.66-1.01-2.31-.31-.63-.61-1.39-1.04-2,6.69-2.59,12.03-8.39,14.93-14.87,2.88-6.43,3.9-14.4.34-20.8l.02.02Z" fill="url(#m)" isolation="isolate" opacity=".36" stroke-width="0"/>
    <path d="m1090.2,382.81c-.36.69-1.48-.09-2.02-.17-.17-.02-.34-.03-.51-.03-.08,0-1.4.06-1.07-.19.09-.07,0-.22-.11-.18-.14.06-.23.15-.25.27-2.68.62-4.64,2.82-5.59,5.33-1.22,3.23-.66,6.83.33,10.05,1.13,3.65,2.9,7.08,3.75,10.82.95,4.19.51,8.28-.66,12.37-.04.15.18.2.23.06,1.32-3.29,1.6-7.05,1.13-10.54-.46-3.44-1.85-6.6-3.09-9.81-1.35-3.49-2.58-7.29-1.89-11.07.58-3.17,2.67-6.02,5.8-7.03h0c.17.52.82.27,1.19.23.59-.07,1.04.09,1.57.32.22.09.43.2.68.18.37-.02.62-.21.65-.58,0-.09-.12-.12-.16-.04h.02Z" stroke-width="0"/>
    <g opacity=".21">
      <path d="m1094.58,348.31c-.39-3.54-3.71-5.9-7.1-4.08-3.89,2.09-7.14,5.46-8.97,9.49-1.96,4.34-3.27,10.81,1.65,13.77,3.5,2.1,6.63.62,8.96-1.91,1.97-1.57,3.27-4.26,4.16-6.58,1.29-3.38,1.7-7.12,1.3-10.7h0Z" fill="#fff" stroke-width="0"/>
    </g>
    <path d="m1087.33,344.97c-.84-.23-1.54.23-2.1.8-1.27.8-2.4,2.27-2.38,3.67.02,1.11,1.01,1.95,2.1,1.73.89-.18,1.75-.82,2.32-1.5.92-1.1,2.27-4.09.05-4.7h.01Z" fill="#fff" stroke-width="0"/>
    <path d="m1083.29,351.98c-.06-.21-.2-.39-.43-.49-.35-.15-.79-.02-.98.32-.01.02-.03.05-.04.07-.02.02-.05.03-.07.06-.11.11-.21.27-.3.4h.02c-.16.25-.21.56-.07.88.22.52.9.81,1.41.47.14-.09.29-.18.41-.29.22-.22.29-.49.31-.79.01-.25-.09-.47-.25-.64h-.01Z" fill="#fff" stroke-width="0"/>
    <g opacity=".21">
      <path d="m1100.01,368.74c-1.88,1.28-3.21,3.2-3.59,5.46-.15.91.85,1.59,1.58.92.03-.03.07-.06.1-.1.14.05.29.06.47,0,1.78-.62,2.6-3.49,2.91-5.16.14-.77-.68-1.65-1.46-1.12h-.01Z" fill="#fff" stroke-width="0"/>
    </g>
    <g opacity=".21">
      <path d="m1095.23,375.19c-.52-.13-.98.18-1.15.66-.08.23,0,.56.19.72,0,0,.01.01.02.02.11.09.24.16.38.19.14.06.3.08.46.05.23,0,.49-.15.59-.35.25-.48.07-1.13-.5-1.28h.01Z" fill="#fff" stroke-width="0"/>
    </g>
    <path d="m1261.8,292.98c-4.86-6.38-13.65-9.08-21.36-7.03-8.4,2.23-12.51,10.48-11.88,18.75.2,2.64.77,5.26,1.75,7.71.44,1.29.97,2.54,1.57,3.77,1.14,2.32,2.59,4.48,4.28,6.43.84.97,1.74,1.88,2.71,2.73.85.75,1.78,1.68,2.87,2.08.03.08.07.16.12.24-.28.76-.54,1.53-.96,2.25-.42.74-1.23,1.53-1.07,2.45.11.64.63,1.12,1.29,1.05.33-.04.55-.25.83-.41.89-.49,1.48-.26,2.31.25.8.49,1.62,1,2.6.81.7-.14,1.31-.61,1.43-1.33.16-.92-.49-1.61-1.03-2.27-.64-.79-1.01-1.63-1.36-2.51,2.93-.66,5.81-2.4,8.11-4.01,3.3-2.31,6.39-5.09,8.58-8.5,4.38-6.82,4.13-16.01-.79-22.46Z" fill="url(#n)" stroke-width="0"/>
    <path d="m1261.8,292.98c-1.09-1.43-2.37-2.67-3.8-3.72.04.24.07.49.1.73.52,4.26.52,8.81-.95,12.89-1.62,4.49-4.54,8.07-8.37,10.87-4.31,3.15-9.43,5-14.72,6.14.65.94,1.35,1.86,2.1,2.72.84.97,1.74,1.88,2.71,2.73.85.75,1.78,1.68,2.87,2.08.03.08.07.16.12.24-.28.76-.54,1.53-.96,2.25-.42.74-1.23,1.53-1.07,2.45.11.64.63,1.12,1.29,1.05.33-.04.55-.25.83-.41.89-.49,1.48-.26,2.31.25.8.49,1.62,1,2.6.81.7-.14,1.31-.61,1.43-1.33.16-.92-.49-1.61-1.03-2.27-.64-.79-1.01-1.63-1.36-2.51,2.93-.66,5.81-2.4,8.11-4.01,3.3-2.31,6.39-5.09,8.58-8.5,4.38-6.82,4.13-16.01-.79-22.46Z" fill="url(#o)" isolation="isolate" opacity=".36" stroke-width="0"/>
    <path d="m1245.65,327.45c-.95.78-1.89.33-2.93.06-.46-.12-1.31.06-1.5-.35-.06-.12-.24-.05-.24.07-.01.25,0,.24.04.49.02.1.14.15.23.13,1.24-.23,3.79,1.39,4.63-.22.08-.15-.1-.28-.23-.18Z" stroke-width="0"/>
    <path d="m1242.49,347.28c-.78-3.59-2.9-6.4-4.43-9.67-.91-1.93-1.56-4.17-1.03-6.3.47-1.88,1.85-3.46,3.77-3.92.16-.04.09-.27-.07-.24-3.01.47-4.48,3.63-4.26,6.42.31,3.98,3.12,7.07,4.62,10.61,2.85,6.73,1.37,14.57-3.15,20.18-.09.12.06.28.17.17,4.18-4.55,5.69-11.26,4.38-17.25Z" stroke-width="0"/>
    <g opacity=".21">
      <path d="m1249.45,297.6c.14-1.73.01-3.45-.49-4.95-1.65-4.86-7.25-5.47-10.88-2.45-2.82,2.35-4.85,5.66-6.1,9.09-1.2,3.3-1.6,7.2.66,10.14,2.56,3.34,7.27,3.68,10.68,1.46,3.97-2.58,6.76-8.34,6.13-13.3h0Z" fill="#fff" stroke-width="0"/>
    </g>
    <path d="m1240.32,290.4c-.62.04-1.3.38-1.89.89-.6.45-1.07,1.12-1.42,1.73-.51.87-1.16,2.12-.96,3.16.22,1.13,1.37,1.55,2.39,1.22,1.05-.34,1.95-1.14,2.61-2,1.01-1.32,2.25-5.17-.72-5h-.01Z" fill="#fff" stroke-width="0"/>
    <path d="m1235.76,298.04c-.61-.06-1.21.33-1.49.86-.02.05-.04.09-.06.14-.09.12-.15.25-.19.38-.07.24-.06.43-.03.67,0,.04.01.09.02.15.03.14.1.26.19.36.11.14.22.25.38.34.57.32,1.35.18,1.8-.29.38-.39.56-.93.53-1.47-.03-.66-.5-1.09-1.15-1.15h0Z" fill="#fff" stroke-width="0"/>
    <path d="m1233.99,300.15v-.06c-.03-.2-.02-.18,0,.06Z" fill="#fff" stroke-width="0"/>
    <g opacity=".21">
      <path d="m1257.62,314.22c-2.35,1.62-4.23,3.77-5.42,6.37-.36.8.38,1.59,1.19,1.19.41-.2.82-.44,1.23-.72.23,0,.46-.05.66-.21,1.76-1.47,2.97-3.45,3.66-5.62.23-.72-.68-1.46-1.32-1.02h0Z" fill="#fff" stroke-width="0"/>
    </g>
    <g opacity=".21">
      <path d="m1251.46,322.87c-.26-.26-.6-.2-.86,0l-.65.5c-.3.23-.45.74-.14,1.04.31.3.76.17,1.04-.09.21-.2.41-.4.61-.6.23-.23.23-.63,0-.86h0Z" fill="#fff" stroke-width="0"/>
    </g>
    <path d="m1460.31,251.17c-7.86-7.81-19.65-11.1-30.49-9.51-5.62.82-10.8,3.33-14.26,7.93-3.46,4.59-4.88,10.67-5.05,16.33-.19,6.5,1.79,13.41,6.72,17.9,4.07,3.7,10.07,5.54,15.64,5.63.3.05.61.1.91.14-.22.29-.47.55-.77.77-1.01.74-2,1.08-2.13,2.47-.07.68.84.94,1.27.53,1.05-1.01,1.67.99,2.64,1.18.49.1.93-.06,1.33-.33.37-.25,1.01-1.13,1.49-.57.8.93,1.99-.26,1.57-1.21-.36-.8-.68-1.72-1.07-2.59,2.07-.04,4.14-.28,6.15-.72,5.33-1.16,10.25-3.92,14.16-7.71,3.89-3.77,7.23-8.95,8.05-14.37.93-6.13-1.89-11.61-6.17-15.86h.01Z" fill="url(#p)" stroke-width="0"/>
    <path d="m1460.31,251.17c-2.26-2.25-4.86-4.12-7.66-5.61.22.77.39,1.53.52,2.25,2.44,13.76-6.23,24.93-17.6,31.57-4.98,2.91-10.64,5.09-16.42,5.95,3.91,2.69,8.97,4.04,13.72,4.12.3.05.61.1.91.14-.22.29-.47.55-.77.77-1.01.74-2,1.08-2.13,2.47-.07.68.84.94,1.27.53,1.05-1.01,1.67.99,2.64,1.18.49.1.93-.06,1.33-.33.37-.25,1.01-1.13,1.49-.57.8.93,1.99-.26,1.57-1.21-.36-.8-.68-1.72-1.07-2.59,2.07-.04,4.14-.28,6.15-.72,5.33-1.16,10.25-3.92,14.16-7.71,3.89-3.77,7.23-8.95,8.05-14.37.93-6.13-1.89-11.61-6.17-15.86h.01Z" fill="url(#q)" isolation="isolate" opacity=".36" stroke-width="0"/>
    <path d="m1438.04,289.59c-.06-.13-.25-.04-.22.09-.14.15-.27.3-.41.46-.12-.02-.24-.04-.36-.07-.16-.04-.32-.1-.48-.14-.23-.06-.46-.11-.69-.14-.56-.08-1.13-.09-1.69-.03-.21.02-.42.05-.62.1-.11.02-.32.12-.43.1-.09-.08-.19-.16-.28-.23.05-.02.11-.04.16-.07.18-.14.38-.12.44-.38.03-.11-.11-.15-.17-.07-.05.06-.13.11-.23.16,0-.03,0-.07-.04-.08-2.14-.89-4.6.41-5.74,2.27-1.53,2.48-1.06,5.65-.11,8.25.53,1.45,1.21,2.84,1.83,4.26.66,1.52,1.22,3.08,1.63,4.69.8,3.12,1.07,6.42.5,9.61-.59,3.35-2.07,6.27-4.22,8.89-.07.09.04.21.13.13,1.96-1.85,3.24-4.44,3.97-7,.79-2.77.93-5.68.56-8.53-.39-3.03-1.38-5.91-2.63-8.68-1.24-2.75-2.64-5.64-2.29-8.75.18-1.62.89-3.17,2.21-4.17,1.18-.89,2.67-1.26,4.11-.84-.29.12-.6.25-.42.61.1.2.32.24.52.23.47-.02.94-.2,1.41-.23.51-.03,1.03,0,1.53.08.46.08.93.32,1.39.32s.84-.38.63-.82v-.02Z" stroke-width="0"/>
    <g opacity=".21">
      <path d="m1441.07,254.41c-.11-4.58-2.91-9.04-7.93-9.02-4.22,0-7.52,3.25-9.74,6.5-1.93,2.81-3.26,6.3-4.08,9.6-1.2,4.82,1.73,9.5,7.11,8.71.87-.13,1.71-.38,2.5-.73,1.85.22,3.32.12,5.07-1.13,1.61-1.15,2.97-2.36,4.09-4.04,1.89-2.83,3.05-6.47,2.97-9.88h0Z" fill="#fff" stroke-width="0"/>
    </g>
    <path d="m1427.74,248.02c-1.18-.39-2.04.72-2.72,1.52-.81.95-1.52,1.96-2.13,3.04-.06.11-.11.24-.13.36-.22.48-.33.99-.15,1.48.89,2.49,3.98.03,4.88-1.12.96-1.23,2.59-4.53.26-5.29h-.01Z" fill="#fff" stroke-width="0"/>
    <path d="m1423.04,256.67s-.07-.08-.11-.11c-.28-.21-.7-.21-.96.03-.01,0-.02,0-.03,0-.11.06-.2.14-.3.22-.08.07-.15.16-.2.27-.02.02-.05.03-.07.05h-.02s.04-.03-.02.01c-.29.18-.51.51-.49.85.01.25.09.52.29.7.21.19.42.25.7.29.77.1,1.73-.71,1.68-1.5-.03-.36-.21-.66-.46-.84v.02Z" fill="#fff" stroke-width="0"/>
    <g opacity=".21">
      <path d="m1455.94,275.25c-2.98,1.11-5.43,3.21-6.84,6.07-.2.41-.1.79.16,1.04-.29.58.15,1.4.93,1.19,1.65-.45,3.09-1.46,4.39-2.54.92-.76,2.94-2.23,2.33-3.68.09-.28.17-.57.23-.87.13-.66-.45-1.48-1.2-1.2h0Z" fill="#fff" stroke-width="0"/>
    </g>
    <g opacity=".21">
      <path d="m1448.1,284.39c-.2-.15-.47-.22-.71-.15-.4.11-.74.33-.98.67-.16.23-.23.46-.24.72-.03.05-.06.11-.09.17-.2.49.3.95.74.97.68.03,1.34-.71,1.53-1.35,0,0,.02-.02.03-.02.36-.32.1-.87-.27-1h-.01Z" fill="#fff" stroke-width="0"/>
    </g>
    <path d="m1241.44,499.02c-1.14-7.44-7.86-12.02-14.84-11.27-7.25.78-13.22,6.98-15.55,14.11-1.46,4.49-1.66,9.27-.9,13.83.38,2.28,1,4.5,1.77,6.65.61,1.68,1.26,3.32,2.19,4.79-.65.56-1.2,1.3-1.86,1.85-.54.44-1.31.85-1.48,1.6-.36,1.52,1.94,1.92,2.83,2.26.79.29,2.87,1.59,3.41.13.27-.72-.07-1.77-.16-2.49-.07-.69-.09-1.5-.28-2.21,6.73-.47,13.3-4.38,17.92-9.66,4.6-5.24,8.04-12.49,6.93-19.61h.02Z" fill="url(#r)" stroke-width="0"/>
    <path d="m1241.44,499.02c-.15-.96-.39-1.86-.71-2.72-1.52,4.58-4.34,9.08-6.7,11.95-4.2,5.1-9.95,8.14-16.08,9.59-2.49.58-4.91.65-7.27.36.34,1.4.76,2.79,1.24,4.13.61,1.68,1.25,3.32,2.19,4.79-.65.56-1.21,1.29-1.87,1.85-.53.44-1.3.85-1.48,1.6-.35,1.52,1.95,1.92,2.84,2.26.78.3,2.87,1.59,3.4.13.28-.72-.07-1.78-.15-2.49-.07-.69-.1-1.5-.28-2.21,6.73-.47,13.3-4.38,17.92-9.66,4.59-5.24,8.04-12.49,6.93-19.61l.02.03Z" fill="url(#s)" isolation="isolate" opacity=".36" stroke-width="0"/>
    <path d="m1216.72,527.95c-.53.55-1.27-.52-1.73-.76-.14-.07-.29-.13-.44-.18-.07-.02-1.25-.36-.88-.5.1-.04.07-.21-.04-.2-.14.01-.25.07-.31.18-2.56-.21-4.99,1.29-6.63,3.39-2.11,2.7-2.76,6.28-2.91,9.62-.17,3.8.3,7.57-.14,11.37-.5,4.25-2.19,8-4.53,11.53-.08.13.1.24.19.12,2.21-2.73,3.66-6.21,4.35-9.65.69-3.4.47-6.8.4-10.22-.08-3.71.05-7.68,1.86-11.05,1.52-2.83,4.28-4.91,7.36-4.94h0c-.01.54.64.5.98.57.55.11.89.39,1.29.77.16.15.31.32.54.37.33.09.61-.02.76-.36.03-.09-.07-.15-.13-.09v.02Z" stroke-width="0"/>
    <g opacity=".21">
      <path d="m1231.58,496.55c.78-3.47-1.4-6.69-4.97-5.98-4.1.83-8.05,3.05-10.95,6.33-3.11,3.53-6.33,9.28-2.93,13.54,2.42,3.03,5.66,2.56,8.52.85,2.24-.9,4.25-3.07,5.77-5,2.22-2.82,3.77-6.24,4.56-9.76h0Z" fill="#fff" stroke-width="0"/>
    </g>
    <path d="m1226.24,491.23c-.67-.47-1.43-.24-2.11.13-1.37.38-2.84,1.44-3.27,2.77-.34,1.06.27,2.15,1.3,2.26.85.09,1.81-.26,2.53-.73,1.16-.77,3.31-3.2,1.54-4.44h.01Z" fill="#fff" stroke-width="0"/>
    <path d="m1220.44,496.68c.01-.22-.05-.43-.23-.59-.26-.25-.69-.25-.96.01-.02.02-.05.04-.06.05-.03.01-.05.01-.08.04-.13.07-.27.19-.39.29h.01c-.22.19-.36.47-.34.82.03.56.54,1.03,1.09.87.16-.04.32-.09.46-.15.26-.14.41-.38.52-.66.09-.23.07-.47-.01-.68h-.01Z" fill="#fff" stroke-width="0"/>
    <g opacity=".21">
      <path d="m1229.86,517.52c-2.07.65-3.85,2.08-4.91,4.11-.42.82.25,1.76,1.1,1.34.04-.02.08-.04.12-.07.11.09.24.14.42.14,1.77-.06,3.41-2.54,4.21-4.03.37-.69-.07-1.77-.93-1.5h-.01Z" fill="#fff" stroke-width="0"/>
    </g>
    <g opacity=".21">
      <path d="m1223.58,522.23c-.41-.28-.92-.12-1.22.28-.15.2-.18.53-.06.74,0,0,0,.01.01.03.07.12.16.22.27.29.11.1.24.16.39.18.21.07.48,0,.63-.16.38-.38.43-1.05-.03-1.36h.01Z" fill="#fff" stroke-width="0"/>
    </g>
    <path d="m277.41,416.85c-6.77-4.3-15.95-3.78-22.47.82-7.1,5.01-8.09,14.17-4.63,21.71,1.1,2.41,2.55,4.67,4.32,6.62.86,1.06,1.79,2.05,2.78,2.99,1.88,1.78,3.98,3.3,6.25,4.54,1.12.62,2.29,1.16,3.49,1.62,1.06.41,2.25.96,3.41.96.06.06.12.13.2.18,0,.81.02,1.62-.12,2.44-.14.84-.62,1.86-.15,2.67.33.56.98.83,1.57.54.29-.15.43-.42.64-.67.66-.77,1.3-.76,2.25-.57.92.18,1.87.38,2.72-.14.61-.37,1.02-1.03.88-1.74-.17-.92-1.02-1.34-1.75-1.77-.88-.52-1.51-1.18-2.15-1.88,2.52-1.64,4.62-4.27,6.21-6.58,2.29-3.31,4.23-6.99,5.1-10.95,1.74-7.92-1.68-16.45-8.54-20.79Z" fill="url(#t)" stroke-width="0"/>
    <path d="m277.41,416.85c-1.52-.96-3.15-1.68-4.86-2.17.12.21.24.43.35.65,1.97,3.81,3.55,8.08,3.58,12.42.04,4.77-1.46,9.14-4.08,13.1-2.95,4.45-7.11,7.96-11.67,10.87.94.66,1.91,1.28,2.91,1.82,1.12.62,2.29,1.16,3.49,1.62,1.06.41,2.25.96,3.41.95.06.07.12.13.2.18,0,.81.02,1.62-.12,2.44-.14.84-.62,1.86-.15,2.67.33.56.98.83,1.57.54.3-.15.43-.43.64-.67.66-.77,1.3-.76,2.25-.57.92.18,1.87.38,2.72-.14.61-.37,1.02-1.03.88-1.74-.17-.92-1.02-1.34-1.75-1.77-.87-.52-1.51-1.18-2.15-1.88,2.52-1.64,4.62-4.27,6.21-6.58,2.29-3.31,4.23-6.99,5.1-10.95,1.74-7.92-1.68-16.45-8.54-20.79Z" fill="url(#u)" isolation="isolate" opacity=".36" stroke-width="0"/>
    <path d="m274.22,454.78c-.62,1.06-1.66.96-2.73,1.07-.47.05-1.21.51-1.53.19-.1-.09-.24.04-.2.15.08.24.08.23.21.45.05.09.18.09.26.04,1.08-.65,4.04-.01,4.27-1.81.02-.17-.19-.23-.28-.09Z" stroke-width="0"/>
    <path d="m278.14,474.47c-1.98-3.1-4.94-5-7.51-7.53-1.52-1.49-2.91-3.37-3.15-5.55-.21-1.93.53-3.89,2.17-4.98.14-.09,0-.29-.15-.2-2.66,1.49-2.94,4.96-1.77,7.5,1.67,3.62,5.38,5.55,8.02,8.35,5.01,5.32,6.34,13.19,4.05,20.02-.04.14.15.24.22.1,2.34-5.72,1.43-12.54-1.88-17.7Z" stroke-width="0"/>
    <g opacity=".21">
      <path d="m267.42,425.47c-.47-1.67-1.19-3.24-2.18-4.47-3.23-3.98-8.7-2.61-11.05,1.48-1.83,3.18-2.58,6.99-2.57,10.64.02,3.51,1,7.31,4.14,9.28,3.56,2.24,8.1.93,10.52-2.34,2.83-3.8,3.44-10.17,1.13-14.6h0Z" fill="#fff" stroke-width="0"/>
    </g>
    <path d="m256.37,421.89c-.57.25-1.09.81-1.46,1.49-.41.63-.62,1.42-.73,2.12-.18.99-.35,2.39.2,3.3.6.98,1.82.98,2.66.31.87-.68,1.43-1.75,1.75-2.78.49-1.59.32-5.63-2.41-4.44h-.01Z" fill="#fff" stroke-width="0"/>
    <path d="m254.74,430.63c-.59.15-1.02.73-1.1,1.32,0,.05,0,.1,0,.15-.04.14-.05.29-.05.42.02.25.09.42.2.64.01.04.04.08.07.13.08.12.18.21.3.27.15.09.29.16.48.19.64.1,1.33-.3,1.59-.9.22-.5.2-1.07-.01-1.56-.26-.61-.85-.85-1.48-.68h0Z" fill="#fff" stroke-width="0"/>
    <path d="m253.81,433.22s-.01-.04-.02-.06c-.1-.18-.08-.16.02.06Z" fill="#fff" stroke-width="0"/>
    <g opacity=".21">
      <path d="m280.85,438.22c-1.64,2.33-2.66,5-2.87,7.86-.06.88.91,1.36,1.53.7.32-.33.62-.7.9-1.1.22-.07.41-.21.55-.43,1.14-1.99,1.59-4.27,1.48-6.54-.03-.76-1.14-1.13-1.59-.5h0Z" fill="#fff" stroke-width="0"/>
    </g>
    <g opacity=".21">
      <path d="m278.07,448.47c-.33-.16-.63.02-.81.3l-.44.69c-.2.32-.17.85.23,1.02.39.18.77-.1.94-.45.13-.26.25-.52.36-.77.14-.29,0-.67-.3-.81h0Z" fill="#fff" stroke-width="0"/>
    </g>
    <path d="m259.35,309.98c4.86-6.38,13.65-9.08,21.36-7.03,8.4,2.23,12.51,10.48,11.88,18.75-.2,2.64-.77,5.26-1.75,7.71-.44,1.29-.97,2.54-1.57,3.77-1.14,2.32-2.59,4.48-4.28,6.43-.84.97-1.74,1.88-2.71,2.73-.85.75-1.78,1.68-2.87,2.08-.03.08-.07.16-.12.24.28.76.54,1.53.96,2.25.42.74,1.23,1.53,1.07,2.45-.11.64-.63,1.12-1.29,1.05-.33-.04-.55-.25-.83-.41-.89-.49-1.48-.26-2.31.25-.8.49-1.62,1-2.6.81-.7-.14-1.31-.61-1.43-1.33-.16-.92.49-1.61,1.03-2.27.64-.79,1.01-1.63,1.36-2.51-2.93-.66-5.81-2.4-8.11-4.01-3.3-2.31-6.39-5.09-8.58-8.5-4.38-6.82-4.13-16.01.79-22.46Z" fill="url(#v)" stroke-width="0"/>
    <path d="m259.35,309.98c1.09-1.43,2.37-2.67,3.8-3.72-.04.24-.07.49-.1.73-.52,4.26-.52,8.81.95,12.89,1.62,4.49,4.54,8.07,8.37,10.87,4.31,3.15,9.43,5,14.72,6.14-.65.94-1.35,1.86-2.1,2.72-.84.97-1.74,1.88-2.71,2.73-.85.75-1.78,1.68-2.87,2.08-.03.08-.07.16-.12.24.28.76.54,1.53.96,2.25.42.74,1.23,1.53,1.07,2.45-.11.64-.63,1.12-1.29,1.05-.33-.04-.55-.25-.83-.41-.89-.49-1.48-.26-2.31.25-.8.49-1.62,1-2.6.81-.7-.14-1.31-.61-1.43-1.33-.16-.92.49-1.61,1.03-2.27.64-.79,1.01-1.63,1.36-2.51-2.93-.66-5.81-2.4-8.11-4.01-3.3-2.31-6.39-5.09-8.58-8.5-4.38-6.82-4.13-16.01.79-22.46Z" fill="url(#w)" isolation="isolate" opacity=".36" stroke-width="0"/>
    <path d="m275.5,344.45c.95.78,1.89.33,2.93.06.46-.12,1.31.06,1.5-.35.06-.12.24-.05.24.07.01.25,0,.24-.04.49-.02.1-.14.15-.23.13-1.24-.23-3.79,1.39-4.63-.22-.08-.15.1-.28.23-.18Z" stroke-width="0"/>
    <path d="m278.66,364.28c.78-3.59,2.9-6.4,4.43-9.67.91-1.93,1.56-4.17,1.03-6.3-.47-1.88-1.85-3.46-3.77-3.92-.16-.04-.09-.27.07-.24,3.01.47,4.48,3.63,4.26,6.42-.31,3.98-3.12,7.07-4.62,10.61-2.85,6.73-1.37,14.57,3.15,20.18.09.12-.06.28-.17.17-4.18-4.55-5.69-11.26-4.38-17.25Z" stroke-width="0"/>
    <g opacity=".21">
      <path d="m271.7,314.6c-.14-1.73,0-3.45.49-4.95,1.65-4.86,7.25-5.47,10.88-2.45,2.82,2.35,4.85,5.66,6.1,9.09,1.2,3.3,1.6,7.2-.66,10.14-2.56,3.34-7.27,3.68-10.68,1.46-3.97-2.58-6.76-8.34-6.13-13.3h0Z" fill="#fff" stroke-width="0"/>
    </g>
    <path d="m280.83,307.4c.62.04,1.3.38,1.89.89.6.45,1.07,1.12,1.42,1.73.51.87,1.16,2.12.96,3.16-.22,1.13-1.37,1.55-2.39,1.22-1.05-.34-1.95-1.14-2.61-2-1.01-1.32-2.25-5.17.72-5h.01Z" fill="#fff" stroke-width="0"/>
    <path d="m285.39,315.04c.61-.06,1.21.33,1.49.86.02.05.04.09.06.14.09.12.15.25.19.38.07.24.06.43.03.67,0,.04,0,.09-.02.15-.03.14-.1.26-.19.36-.11.14-.22.25-.38.34-.57.32-1.35.18-1.8-.29-.38-.39-.56-.93-.53-1.47.03-.66.5-1.09,1.15-1.15h0Z" fill="#fff" stroke-width="0"/>
    <path d="m287.16,317.15v-.06c.03-.2.02-.18,0,.06Z" fill="#fff" stroke-width="0"/>
    <g opacity=".21">
      <path d="m263.53,331.22c2.35,1.62,4.23,3.77,5.42,6.37.36.8-.38,1.59-1.19,1.19-.41-.2-.82-.44-1.23-.72-.23,0-.46-.05-.66-.21-1.76-1.47-2.97-3.45-3.66-5.62-.23-.72.68-1.46,1.32-1.02h0Z" fill="#fff" stroke-width="0"/>
    </g>
    <g opacity=".21">
      <path d="m269.69,339.87c.26-.26.6-.2.86,0l.65.5c.3.23.45.74.14,1.04-.31.3-.76.17-1.04-.09-.21-.2-.41-.4-.61-.6-.23-.23-.23-.63,0-.86h0Z" fill="#fff" stroke-width="0"/>
    </g>
    <path d="m60.84,268.17c7.86-7.81,19.65-11.1,30.49-9.51,5.62.82,10.8,3.33,14.26,7.93,3.46,4.59,4.88,10.67,5.05,16.33.19,6.5-1.79,13.41-6.72,17.9-4.07,3.7-10.07,5.54-15.64,5.63-.3.05-.61.1-.91.14.22.29.47.55.77.77,1.01.74,2,1.08,2.13,2.47.07.68-.84.94-1.27.53-1.05-1.01-1.67.99-2.64,1.18-.49.1-.93-.06-1.33-.33-.37-.25-1.01-1.13-1.49-.57-.8.93-1.99-.26-1.57-1.21.36-.8.68-1.72,1.07-2.59-2.07-.04-4.14-.28-6.15-.72-5.33-1.16-10.25-3.92-14.16-7.71-3.89-3.77-7.23-8.95-8.05-14.37-.93-6.13,1.89-11.61,6.17-15.86h-.01Z" fill="url(#x)" stroke-width="0"/>
    <path d="m60.84,268.17c2.26-2.25,4.86-4.12,7.66-5.61-.22.77-.39,1.53-.52,2.25-2.44,13.76,6.23,24.93,17.6,31.57,4.98,2.91,10.64,5.09,16.42,5.95-3.91,2.69-8.97,4.04-13.72,4.12-.3.05-.61.1-.91.14.22.29.47.55.77.77,1.01.74,2,1.08,2.13,2.47.07.68-.84.94-1.27.53-1.05-1.01-1.67.99-2.64,1.18-.49.1-.93-.06-1.33-.33-.37-.25-1.01-1.13-1.49-.57-.8.93-1.99-.26-1.57-1.21.36-.8.68-1.72,1.07-2.59-2.07-.04-4.14-.28-6.15-.72-5.33-1.16-10.25-3.92-14.16-7.71-3.89-3.77-7.23-8.95-8.05-14.37-.93-6.13,1.89-11.61,6.17-15.86h-.01Z" fill="url(#y)" isolation="isolate" opacity=".36" stroke-width="0"/>
    <path d="m83.11,306.59c.06-.13.25-.04.22.09.14.15.27.3.41.46.12-.02.24-.04.36-.07.16-.04.32-.1.48-.14.23-.06.46-.11.69-.14.56-.08,1.13-.09,1.69-.03.21.02.42.05.62.1.11.02.32.12.43.1.09-.08.19-.16.28-.23-.05-.02-.11-.04-.16-.07-.18-.14-.38-.12-.44-.38-.03-.11.11-.15.17-.07.05.06.13.11.23.16,0-.03,0-.07.04-.08,2.14-.89,4.6.41,5.74,2.27,1.53,2.48,1.06,5.65.11,8.25-.53,1.45-1.21,2.84-1.83,4.26-.66,1.52-1.22,3.08-1.63,4.69-.8,3.12-1.07,6.42-.5,9.61.59,3.35,2.07,6.27,4.22,8.89.07.09-.04.21-.13.13-1.96-1.85-3.24-4.44-3.97-7-.79-2.77-.93-5.68-.56-8.53.39-3.03,1.38-5.91,2.63-8.68,1.24-2.75,2.64-5.64,2.29-8.75-.18-1.62-.89-3.17-2.21-4.17-1.18-.89-2.67-1.26-4.11-.84.29.12.6.25.42.61-.1.2-.32.24-.52.23-.47-.02-.94-.2-1.41-.23-.51-.03-1.03,0-1.53.08-.46.08-.93.32-1.39.32s-.84-.38-.63-.82v-.02Z" stroke-width="0"/>
    <g opacity=".21">
      <path d="m80.08,271.41c.11-4.58,2.91-9.04,7.93-9.02,4.22.01,7.52,3.25,9.74,6.5,1.93,2.81,3.26,6.3,4.08,9.6,1.2,4.82-1.73,9.5-7.11,8.71-.87-.13-1.71-.38-2.5-.73-1.85.22-3.32.12-5.07-1.13-1.61-1.15-2.97-2.36-4.09-4.04-1.89-2.83-3.05-6.47-2.97-9.88h-.01Z" fill="#fff" stroke-width="0"/>
    </g>
    <path d="m93.41,265.02c1.18-.39,2.04.72,2.72,1.52.81.95,1.52,1.96,2.13,3.04.06.11.11.24.13.36.22.48.33.99.15,1.48-.89,2.49-3.98.03-4.88-1.12-.96-1.23-2.59-4.53-.26-5.29h0Z" fill="#fff" stroke-width="0"/>
    <path d="m98.11,273.67s.07-.08.11-.11c.28-.21.7-.21.96.03.01,0,.02,0,.03,0,.11.06.2.14.3.22.08.07.15.16.2.27.02.02.05.03.07.05h.02s-.04-.03.02.01c.29.18.51.51.49.85-.01.25-.09.52-.29.7-.21.19-.42.25-.7.29-.77.1-1.73-.71-1.68-1.5.03-.36.21-.66.46-.84v.02Z" fill="#fff" stroke-width="0"/>
    <g opacity=".21">
      <path d="m65.21,292.25c2.98,1.11,5.43,3.21,6.84,6.07.2.41.1.79-.16,1.04.29.58-.15,1.4-.93,1.19-1.65-.45-3.09-1.46-4.39-2.54-.92-.76-2.94-2.23-2.33-3.68-.09-.28-.17-.57-.23-.87-.13-.66.45-1.48,1.2-1.2h0Z" fill="#fff" stroke-width="0"/>
    </g>
    <g opacity=".21">
      <path d="m73.05,301.39c.2-.15.47-.22.71-.15.4.11.74.33.98.67.16.23.23.46.24.72.03.05.06.11.09.17.2.49-.3.95-.74.97-.68.03-1.34-.71-1.53-1.35,0,0-.02-.02-.03-.02-.36-.32-.1-.87.27-1h0Z" fill="#fff" stroke-width="0"/>
    </g>
  </g>
</svg>