<svg width="1538" height="490" viewBox="0 0 1538 490" fill="none" xmlns="http://www.w3.org/2000/svg">
<g opacity="0.3">
<g clip-path="url(#clip0_625_53)">
<path d="M490.008 0.11377H0.44043V489.681H490.008V0.11377Z" fill="#DECC8A"/>
<path d="M100.803 20.1851H79.2617V30.9555H100.803V20.1851Z" fill="#FFEAB0"/>
<path d="M101.639 31.7919C101.73 31.6998 101.781 31.5745 101.781 31.4452V19.6956C101.781 19.5664 101.73 19.441 101.639 19.349C101.546 19.2579 101.421 19.2061 101.292 19.2061H78.7718C78.6425 19.2061 78.5172 19.2579 78.4252 19.349C78.3341 19.441 78.2822 19.5664 78.2822 19.6956V31.4452C78.2822 31.5745 78.3341 31.6998 78.4252 31.7919C78.5172 31.8829 78.6425 31.9348 78.7718 31.9348H101.292C101.421 31.9348 101.546 31.8829 101.639 31.7919ZM79.2614 20.1852H100.802V30.9557H79.2614V20.1852Z" fill="#6B3D1B"/>
<path d="M261.706 13.9841H241.797V23.7755H261.706V13.9841Z" fill="#E2A47A"/>
<path d="M241.308 24.7548H262.196C262.325 24.7548 262.451 24.7019 262.542 24.6108C262.633 24.5198 262.685 24.3935 262.685 24.2652V13.4947C262.685 13.3654 262.633 13.2391 262.542 13.1481C262.45 13.057 262.324 13.0051 262.196 13.0051H241.308C241.179 13.0051 241.053 13.057 240.961 13.1481C240.87 13.2391 240.818 13.3654 240.818 13.4947V24.2652C240.818 24.3935 240.87 24.5198 240.961 24.6108C241.053 24.7019 241.179 24.7548 241.308 24.7548ZM241.797 13.9843H261.706V23.7756H241.797V13.9843Z" fill="#6B3D1B"/>
<path d="M253.873 68.8157H233.312V78.607H253.873V68.8157Z" fill="#FFEAB0"/>
<path d="M232.822 79.5863H254.363C254.492 79.5863 254.618 79.5334 254.709 79.4424C254.799 79.3513 254.852 79.225 254.852 79.0967V68.3262C254.852 68.197 254.799 68.0707 254.709 67.9796C254.617 67.8886 254.491 67.8367 254.363 67.8367H232.822C232.693 67.8367 232.567 67.8886 232.476 67.9796C232.385 68.0707 232.332 68.197 232.332 68.3262V79.0967C232.332 79.225 232.385 79.3513 232.476 79.4424C232.567 79.5334 232.693 79.5863 232.822 79.5863ZM233.311 68.8158H253.873V78.6072H233.311V68.8158Z" fill="#6B3D1B"/>
<path d="M269.539 83.176H248.651V93.9465H269.539V83.176Z" fill="#E2A47A"/>
<path d="M270.028 82.1968H248.161C248.032 82.1968 247.906 82.2496 247.815 82.3407C247.724 82.4318 247.672 82.5581 247.672 82.6863V94.436C247.672 94.5652 247.725 94.6915 247.815 94.7826C247.906 94.8736 248.032 94.9255 248.161 94.9255H270.028C270.158 94.9255 270.284 94.8736 270.375 94.7826C270.465 94.6915 270.518 94.5652 270.518 94.436V82.6863C270.518 82.5581 270.465 82.4318 270.375 82.3407C270.284 82.2496 270.158 82.1968 270.028 82.1968ZM248.651 83.1759H269.539V93.9464H248.651V83.1759Z" fill="#6B3D1B"/>
<path d="M248.978 168.034H227.763V178.479H248.978V168.034Z" fill="#E2A47A"/>
<path d="M227.274 179.458H249.467C249.596 179.458 249.722 179.405 249.814 179.314C249.904 179.223 249.956 179.097 249.956 178.969V167.545C249.956 167.416 249.904 167.29 249.814 167.198C249.722 167.107 249.596 167.055 249.467 167.055H227.274C227.145 167.055 227.018 167.107 226.927 167.198C226.836 167.29 226.784 167.416 226.784 167.545V178.969C226.784 179.097 226.836 179.223 226.927 179.314C227.018 179.405 227.145 179.458 227.274 179.458ZM227.763 168.035H248.978V178.479H227.763V168.035Z" fill="#6B3D1B"/>
<path d="M259.748 217.645H237.881V227.762H259.748V217.645Z" fill="#E2A47A"/>
<path d="M260.237 216.666H237.391C237.262 216.666 237.136 216.717 237.044 216.808C236.953 216.9 236.901 217.026 236.901 217.155V228.253C236.901 228.382 236.953 228.507 237.044 228.599C237.136 228.69 237.262 228.742 237.391 228.742H260.237C260.366 228.742 260.493 228.69 260.584 228.599C260.674 228.507 260.727 228.382 260.727 228.253V217.156C260.727 217.027 260.674 216.901 260.584 216.809C260.493 216.718 260.366 216.666 260.237 216.666ZM237.881 217.645H259.748V227.763H237.881V217.645Z" fill="#6B3D1B"/>
<path d="M352.765 228.742H331.551V238.533H352.765V228.742Z" fill="#E2A47A"/>
<path d="M338.405 243.429H316.211V254.525H338.405V243.429Z" fill="#E2A47A"/>
<path d="M353.092 258.116H331.551V267.907H353.092V258.116Z" fill="#FFEAB0"/>
<path d="M331.061 239.512H353.254C353.383 239.512 353.51 239.46 353.601 239.369C353.691 239.277 353.744 239.152 353.744 239.023V228.252C353.744 228.123 353.691 227.998 353.601 227.906C353.509 227.815 353.382 227.763 353.254 227.763H331.061C330.932 227.763 330.805 227.815 330.714 227.906C330.624 227.998 330.571 228.123 330.571 228.252V239.023C330.571 239.152 330.624 239.277 330.714 239.369C330.805 239.459 330.932 239.512 331.061 239.512ZM331.55 228.742H352.764V238.533H331.55V228.742Z" fill="#6B3D1B"/>
<path d="M315.721 255.505H338.894C339.023 255.505 339.15 255.452 339.241 255.361C339.331 255.27 339.384 255.143 339.384 255.015V242.939C339.384 242.81 339.331 242.685 339.241 242.593C339.149 242.502 339.022 242.45 338.894 242.45H315.721C315.592 242.45 315.465 242.502 315.374 242.593C315.283 242.685 315.231 242.81 315.231 242.939V255.015C315.231 255.144 315.284 255.271 315.374 255.361C315.464 255.451 315.592 255.505 315.721 255.505ZM316.211 243.429H338.405V254.525H316.211V243.429Z" fill="#6B3D1B"/>
<path d="M353.581 257.137H331.061C330.932 257.137 330.805 257.19 330.714 257.28C330.624 257.371 330.571 257.497 330.571 257.626V268.397C330.571 268.526 330.624 268.652 330.714 268.743C330.806 268.834 330.933 268.886 331.061 268.886H353.581C353.71 268.886 353.837 268.833 353.928 268.743C354.018 268.652 354.071 268.526 354.071 268.397V257.626C354.071 257.497 354.018 257.371 353.928 257.28C353.837 257.189 353.71 257.137 353.581 257.137ZM331.55 258.116H353.091V267.907H331.55V258.116Z" fill="#6B3D1B"/>
<path d="M158.245 229.721H136.704V240.491H158.245V229.721Z" fill="#E2A47A"/>
<path d="M172.932 243.755H152.37V254.2H172.932V243.755Z" fill="#FFEAB0"/>
<path d="M159.08 241.328C159.171 241.236 159.224 241.11 159.224 240.981V229.232C159.224 229.102 159.171 228.977 159.08 228.885C158.989 228.794 158.863 228.742 158.734 228.742H136.214C136.085 228.742 135.959 228.794 135.868 228.885C135.776 228.977 135.725 229.102 135.725 229.232V240.981C135.725 241.11 135.776 241.236 135.868 241.328C135.959 241.419 136.085 241.471 136.214 241.471H158.734C158.863 241.471 158.989 241.418 159.08 241.328ZM136.704 229.721H158.245V240.492H136.704V229.721Z" fill="#6B3D1B"/>
<path d="M173.421 242.776H151.88C151.751 242.776 151.625 242.829 151.534 242.92C151.443 243.011 151.391 243.137 151.391 243.265V254.689C151.391 254.818 151.443 254.945 151.534 255.035C151.625 255.126 151.751 255.179 151.88 255.179H173.421C173.549 255.179 173.676 255.126 173.767 255.035C173.858 254.944 173.911 254.817 173.911 254.689V243.265C173.911 243.137 173.858 243.011 173.767 242.92C173.676 242.829 173.549 242.776 173.421 242.776ZM152.37 243.755H172.932V254.199H152.37V243.755Z" fill="#6B3D1B"/>
<path d="M45.3176 255.178H24.4297V265.296H45.3176V255.178Z" fill="#E2A47A"/>
<path d="M45.8068 254.199H23.9398C23.8105 254.199 23.6852 254.252 23.5931 254.342C23.5021 254.433 23.4502 254.56 23.4502 254.689V265.786C23.4502 265.915 23.5021 266.041 23.5931 266.131C23.6852 266.222 23.8105 266.275 23.9398 266.275H45.8068C45.936 266.275 46.0623 266.222 46.1534 266.131C46.2445 266.04 46.2964 265.914 46.2964 265.786V254.689C46.2964 254.56 46.2445 254.433 46.1534 254.342C46.0623 254.251 45.936 254.199 45.8068 254.199ZM24.4293 255.179H45.3172V265.296H24.4293V255.179Z" fill="#6B3D1B"/>
<path d="M251.589 279.657H230.374V289.774H251.589V279.657Z" fill="#E2A47A"/>
<path d="M229.395 290.264C229.395 290.393 229.447 290.52 229.538 290.61C229.63 290.701 229.756 290.754 229.884 290.754H252.078C252.207 290.754 252.334 290.701 252.424 290.61C252.514 290.519 252.568 290.392 252.568 290.264V279.168C252.568 279.038 252.515 278.912 252.424 278.822C252.333 278.731 252.206 278.678 252.078 278.678H229.884C229.756 278.678 229.63 278.731 229.538 278.822C229.447 278.913 229.395 279.039 229.395 279.168V290.264ZM230.374 279.657H251.589V289.775H230.374V279.657Z" fill="#6B3D1B"/>
<path d="M245.715 333.509H224.174V343.626H245.715V333.509Z" fill="#E2A47A"/>
<path d="M230.049 349.176H210.466V358.314H230.049V349.176Z" fill="#E2A47A"/>
<path d="M258.769 349.828H238.207V358.641H258.769V349.828Z" fill="#E2A47A"/>
<path d="M245.388 363.536H224.826V372.675H245.388V363.536Z" fill="#FFEAB0"/>
<path d="M223.684 344.606H246.204C246.333 344.606 246.46 344.553 246.551 344.463C246.642 344.372 246.694 344.245 246.694 344.116V333.02C246.694 332.89 246.641 332.764 246.551 332.674C246.46 332.583 246.333 332.53 246.204 332.53H223.684C223.555 332.53 223.429 332.583 223.337 332.674C223.246 332.765 223.194 332.891 223.194 333.02V344.116C223.194 344.245 223.246 344.372 223.337 344.463C223.429 344.553 223.555 344.606 223.684 344.606ZM224.173 333.509H245.714V343.627H224.173V333.509Z" fill="#6B3D1B"/>
<path d="M230.884 359.149C230.975 359.058 231.027 358.932 231.027 358.802V348.686C231.027 348.557 230.975 348.43 230.884 348.34C230.792 348.249 230.667 348.196 230.538 348.196H209.976C209.847 348.196 209.721 348.249 209.629 348.34C209.538 348.431 209.486 348.558 209.486 348.686V358.803C209.486 358.933 209.538 359.059 209.629 359.15C209.721 359.241 209.847 359.293 209.976 359.293H230.538C230.667 359.293 230.792 359.24 230.884 359.149ZM230.048 358.314H210.465V349.175H230.048V358.314Z" fill="#6B3D1B"/>
<path d="M259.259 348.849H237.718C237.59 348.849 237.464 348.902 237.372 348.992C237.281 349.083 237.229 349.21 237.229 349.339V359.13C237.229 359.26 237.281 359.386 237.372 359.477C237.464 359.567 237.59 359.62 237.718 359.62H259.259C259.388 359.62 259.515 359.567 259.606 359.477C259.696 359.385 259.749 359.259 259.749 359.13V349.339C259.749 349.21 259.696 349.083 259.606 348.992C259.515 348.901 259.388 348.849 259.259 348.849ZM238.208 349.829H258.77V358.641H238.208V349.829Z" fill="#6B3D1B"/>
<path d="M223.991 362.7C223.9 362.791 223.848 362.918 223.848 363.047V373.164C223.848 373.294 223.9 373.42 223.991 373.51C224.082 373.601 224.208 373.654 224.337 373.654H245.878C246.007 373.654 246.134 373.601 246.225 373.51C246.315 373.419 246.368 373.293 246.368 373.164V363.047C246.368 362.918 246.315 362.791 246.225 362.7C246.133 362.609 246.006 362.557 245.878 362.557H224.337C224.208 362.557 224.082 362.609 223.991 362.7ZM245.389 372.675H224.827V363.537H245.389V372.675Z" fill="#6B3D1B"/>
<path d="M254.525 410.535H233.311V420.979H254.525V410.535Z" fill="#E2A47A"/>
<path d="M238.534 425.548H217.972V435.666H238.534V425.548Z" fill="#FFEAB0"/>
<path d="M255.015 409.556H232.821C232.692 409.556 232.566 409.609 232.475 409.699C232.384 409.79 232.331 409.916 232.331 410.046V421.468C232.331 421.598 232.384 421.724 232.475 421.815C232.566 421.906 232.692 421.958 232.821 421.958H255.015C255.144 421.958 255.27 421.905 255.36 421.815C255.45 421.725 255.504 421.598 255.504 421.468V410.046C255.504 409.916 255.451 409.79 255.36 409.699C255.27 409.608 255.144 409.556 255.015 409.556ZM233.31 410.535H254.525V420.979H233.31V410.535Z" fill="#6B3D1B"/>
<path d="M239.023 424.569H217.482C217.353 424.569 217.226 424.622 217.135 424.712C217.044 424.803 216.992 424.93 216.992 425.059V436.155C216.992 436.285 217.044 436.411 217.135 436.502C217.226 436.593 217.353 436.645 217.482 436.645H239.023C239.151 436.645 239.277 436.592 239.368 436.502C239.459 436.411 239.512 436.285 239.512 436.155V425.059C239.512 424.93 239.459 424.803 239.368 424.712C239.277 424.622 239.151 424.569 239.023 424.569ZM217.971 425.548H238.533V435.666H217.971V425.548Z" fill="#6B3D1B"/>
<path d="M324.697 463.409H304.787V473.526H324.697V463.409Z" fill="#E2A47A"/>
<path d="M325.186 462.429H304.297C304.168 462.429 304.042 462.482 303.95 462.572C303.86 462.663 303.808 462.79 303.808 462.919V474.015C303.808 474.145 303.86 474.271 303.95 474.361C304.042 474.452 304.168 474.505 304.297 474.505H325.186C325.315 474.505 325.442 474.452 325.533 474.361C325.623 474.27 325.676 474.144 325.676 474.015V462.919C325.676 462.79 325.623 462.663 325.533 462.572C325.442 462.482 325.315 462.429 325.186 462.429ZM304.787 463.408H324.696V473.526H304.787V463.408Z" fill="#6B3D1B"/>
<path d="M463.405 362.557H443.17V373.328H463.405V362.557Z" fill="#E2A47A"/>
<path d="M478.092 376.591H448.392V388.667H478.092V376.591Z" fill="#FFEAB0"/>
<path d="M464.242 374.164C464.333 374.072 464.385 373.946 464.385 373.817V362.068C464.385 361.938 464.333 361.812 464.242 361.721C464.15 361.63 464.024 361.578 463.896 361.578H442.682C442.553 361.578 442.426 361.631 442.335 361.721C442.245 361.812 442.192 361.938 442.192 362.068V373.817C442.192 373.947 442.245 374.073 442.335 374.164C442.427 374.254 442.554 374.307 442.682 374.307H463.896C464.024 374.307 464.15 374.254 464.242 374.164ZM463.405 373.328H443.171V362.557H463.405V373.328Z" fill="#6B3D1B"/>
<path d="M478.582 375.612H447.903C447.773 375.612 447.647 375.665 447.556 375.755C447.465 375.845 447.413 375.972 447.413 376.102V389.156C447.413 389.286 447.466 389.412 447.556 389.503C447.646 389.594 447.773 389.646 447.903 389.646H478.582C478.711 389.646 478.837 389.593 478.929 389.503C479.019 389.412 479.071 389.286 479.071 389.156V376.102C479.071 375.972 479.019 375.846 478.929 375.755C478.837 375.664 478.711 375.612 478.582 375.612ZM478.092 388.667H448.392V376.591H478.092V388.667Z" fill="#6B3D1B"/>
<path d="M481.683 243.103H460.795V252.569H481.683V243.103Z" fill="#E2A47A"/>
<path d="M482.173 242.124H460.306C460.177 242.124 460.05 242.176 459.959 242.267C459.869 242.358 459.816 242.484 459.816 242.614V253.057C459.816 253.186 459.869 253.313 459.959 253.403C460.051 253.494 460.178 253.547 460.306 253.547H482.173C482.302 253.547 482.429 253.494 482.519 253.403C482.609 253.312 482.663 253.185 482.663 253.057V242.614C482.663 242.484 482.61 242.358 482.519 242.267C482.429 242.176 482.302 242.124 482.173 242.124ZM460.796 243.103H481.683V252.568H460.796V243.103Z" fill="#6B3D1B"/>
<path d="M481.683 147.799H461.447V157.916H481.683V147.799Z" fill="#FFEAB0"/>
<path d="M466.996 133.113H448.718V142.251H466.996V133.113Z" fill="#E2A47A"/>
<path d="M481.03 117.773H460.468V127.89H481.03V117.773Z" fill="#E2A47A"/>
<path d="M482.518 146.964C482.427 146.872 482.301 146.82 482.172 146.82H460.957C460.828 146.82 460.702 146.872 460.61 146.964C460.52 147.055 460.468 147.181 460.468 147.309V158.407C460.468 158.535 460.521 158.661 460.61 158.752C460.702 158.843 460.828 158.896 460.957 158.896H482.172C482.302 158.896 482.428 158.843 482.518 158.752C482.609 158.661 482.662 158.535 482.662 158.407V147.309C482.662 147.181 482.609 147.056 482.518 146.964ZM461.447 147.799H481.683V157.916H461.447V147.799Z" fill="#6B3D1B"/>
<path d="M448.229 132.133C448.1 132.133 447.973 132.185 447.881 132.277C447.791 132.368 447.739 132.494 447.739 132.622V142.741C447.739 142.869 447.792 142.995 447.881 143.086C447.973 143.177 448.1 143.23 448.229 143.23H467.485C467.615 143.23 467.741 143.177 467.831 143.086C467.922 142.995 467.975 142.869 467.975 142.741V132.622C467.975 132.494 467.922 132.368 467.831 132.277C467.74 132.185 467.614 132.133 467.485 132.133H448.229ZM466.996 142.251H448.718V133.113H466.996V142.251Z" fill="#6B3D1B"/>
<path d="M459.631 116.936C459.541 117.027 459.489 117.154 459.489 117.283V128.38C459.489 128.509 459.542 128.634 459.631 128.726C459.723 128.817 459.849 128.869 459.978 128.869H481.519C481.649 128.869 481.775 128.817 481.866 128.726C481.956 128.634 482.009 128.509 482.009 128.38V117.283C482.009 117.154 481.956 117.027 481.866 116.936C481.774 116.845 481.648 116.793 481.519 116.793H459.978C459.849 116.793 459.723 116.845 459.631 116.936ZM481.03 127.89H460.468V117.773H481.03V127.89Z" fill="#6B3D1B"/>
<path d="M463.733 13.6572H441.865V24.4277H463.733V13.6572Z" fill="#FFEAB0"/>
<path d="M464.569 25.264C464.659 25.173 464.712 25.0467 464.712 24.9174V13.1678C464.712 13.0395 464.659 12.9132 464.569 12.8222C464.477 12.7311 464.351 12.6782 464.222 12.6782H441.375C441.246 12.6782 441.12 12.7311 441.028 12.8222C440.938 12.9132 440.886 13.0395 440.886 13.1678V24.9174C440.886 25.0467 440.939 25.173 441.028 25.264C441.12 25.3551 441.246 25.407 441.375 25.407H464.222C464.352 25.407 464.478 25.3551 464.569 25.264ZM441.865 13.6574H463.733V24.4278H441.865V13.6574Z" fill="#6B3D1B"/>
<path d="M30.9573 362.557H7.45801V371.696H30.9573V362.557Z" fill="#FFEAB0"/>
<path d="M35.5256 376.591H22.7969V386.709H35.5256V376.591Z" fill="#E2A47A"/>
<path d="M31.7921 372.531C31.8832 372.44 31.936 372.314 31.936 372.185V362.068C31.936 361.939 31.8832 361.812 31.7921 361.721C31.701 361.63 31.5747 361.578 31.4465 361.578H6.96808C6.83884 361.578 6.71253 361.631 6.62147 361.721C6.53041 361.812 6.47852 361.939 6.47852 362.068V372.185C6.47852 372.315 6.53041 372.441 6.62147 372.531C6.71253 372.622 6.83884 372.675 6.96808 372.675H31.4465C31.5747 372.675 31.701 372.622 31.7921 372.531ZM7.45765 362.558H30.9569V371.696H7.45765V362.558Z" fill="#6B3D1B"/>
<path d="M36.0158 375.612H22.3079C22.1797 375.612 22.0534 375.665 21.9623 375.755C21.8712 375.846 21.8184 375.972 21.8184 376.102V387.198C21.8184 387.327 21.8712 387.454 21.9623 387.545C22.0534 387.636 22.1797 387.688 22.3079 387.688H36.0158C36.1451 387.688 36.2714 387.635 36.3624 387.545C36.4535 387.455 36.5054 387.327 36.5054 387.198V376.102C36.5054 375.972 36.4535 375.846 36.3624 375.755C36.2714 375.664 36.1451 375.612 36.0158 375.612ZM22.7975 376.591H35.5263V386.709H22.7975V376.591Z" fill="#6B3D1B"/>
<path d="M112.878 471.567H93.2949V480.705H112.878V471.567Z" fill="#E2A47A"/>
<path d="M113.367 470.588H92.805C92.6767 470.588 92.5504 470.641 92.4594 470.732C92.3683 470.823 92.3154 470.95 92.3154 471.078V481.195C92.3154 481.325 92.3683 481.451 92.4594 481.542C92.5504 481.633 92.6767 481.685 92.805 481.685H113.367C113.496 481.685 113.622 481.632 113.713 481.542C113.805 481.451 113.856 481.325 113.856 481.195V471.078C113.856 470.949 113.805 470.822 113.713 470.732C113.622 470.641 113.496 470.588 113.367 470.588ZM93.2946 471.568H112.877V480.706H93.2946V471.568Z" fill="#6B3D1B"/>
</g>
<g clip-path="url(#clip1_625_53)">
<path d="M1013.58 0.11377H524.008V489.681H1013.58V0.11377Z" fill="#DECC8A"/>
<path d="M624.37 20.1853H602.829V30.9558H624.37V20.1853Z" fill="#FFEAB0"/>
<path d="M625.205 31.7919C625.296 31.6998 625.348 31.5745 625.348 31.4452V19.6956C625.348 19.5664 625.296 19.441 625.205 19.349C625.113 19.2579 624.988 19.2061 624.859 19.2061H602.339C602.209 19.2061 602.084 19.2579 601.992 19.349C601.901 19.441 601.849 19.5664 601.849 19.6956V31.4452C601.849 31.5745 601.901 31.6998 601.992 31.7919C602.084 31.8829 602.209 31.9348 602.339 31.9348H624.859C624.988 31.9348 625.113 31.8829 625.205 31.7919ZM602.828 20.1852H624.369V30.9557H602.828V20.1852Z" fill="#6B3D1B"/>
<path d="M785.274 13.9844H765.365V23.7757H785.274V13.9844Z" fill="#E2A47A"/>
<path d="M764.875 24.7548H785.763C785.892 24.7548 786.019 24.7019 786.11 24.6108C786.2 24.5198 786.253 24.3935 786.253 24.2652V13.4947C786.253 13.3654 786.2 13.2391 786.11 13.1481C786.018 13.057 785.891 13.0051 785.763 13.0051H764.875C764.746 13.0051 764.621 13.057 764.529 13.1481C764.438 13.2391 764.386 13.3654 764.386 13.4947V24.2652C764.386 24.3935 764.438 24.5198 764.529 24.6108C764.621 24.7019 764.746 24.7548 764.875 24.7548ZM765.365 13.9843H785.274V23.7756H765.365V13.9843Z" fill="#6B3D1B"/>
<path d="M777.441 68.8159H756.879V78.6073H777.441V68.8159Z" fill="#FFEAB0"/>
<path d="M756.389 79.5863H777.93C778.059 79.5863 778.186 79.5334 778.277 79.4424C778.367 79.3513 778.42 79.225 778.42 79.0967V68.3262C778.42 68.197 778.367 68.0707 778.277 67.9796C778.185 67.8886 778.058 67.8367 777.93 67.8367H756.389C756.261 67.8367 756.134 67.8886 756.043 67.9796C755.952 68.0707 755.899 68.197 755.899 68.3262V79.0967C755.899 79.225 755.952 79.3513 756.043 79.4424C756.134 79.5334 756.261 79.5863 756.389 79.5863ZM756.879 68.8158H777.44V78.6072H756.879V68.8158Z" fill="#6B3D1B"/>
<path d="M793.107 83.176H772.219V93.9465H793.107V83.176Z" fill="#E2A47A"/>
<path d="M793.596 82.1968H771.729C771.6 82.1968 771.474 82.2496 771.383 82.3407C771.292 82.4318 771.24 82.5581 771.24 82.6863V94.436C771.24 94.5652 771.293 94.6915 771.383 94.7826C771.474 94.8736 771.6 94.9255 771.729 94.9255H793.596C793.726 94.9255 793.852 94.8736 793.943 94.7826C794.033 94.6915 794.086 94.5652 794.086 94.436V82.6863C794.086 82.5581 794.033 82.4318 793.943 82.3407C793.852 82.2496 793.726 82.1968 793.596 82.1968ZM772.219 83.1759H793.107V93.9464H772.219V83.1759Z" fill="#6B3D1B"/>
<path d="M772.545 168.035H751.33V178.479H772.545V168.035Z" fill="#E2A47A"/>
<path d="M750.841 179.458H773.034C773.163 179.458 773.29 179.405 773.382 179.314C773.472 179.223 773.524 179.097 773.524 178.969V167.545C773.524 167.416 773.471 167.29 773.382 167.198C773.29 167.107 773.163 167.055 773.034 167.055H750.841C750.712 167.055 750.586 167.107 750.495 167.198C750.403 167.29 750.352 167.416 750.352 167.545V178.969C750.352 179.097 750.403 179.223 750.495 179.314C750.586 179.405 750.712 179.458 750.841 179.458ZM751.331 168.035H772.546V178.479H751.331V168.035Z" fill="#6B3D1B"/>
<path d="M783.315 217.645H761.448V227.762H783.315V217.645Z" fill="#E2A47A"/>
<path d="M783.805 216.665H760.959C760.83 216.665 760.704 216.717 760.612 216.808C760.521 216.899 760.469 217.026 760.469 217.155V228.252C760.469 228.382 760.521 228.507 760.612 228.599C760.704 228.69 760.83 228.742 760.959 228.742H783.805C783.934 228.742 784.061 228.69 784.152 228.599C784.242 228.507 784.295 228.382 784.295 228.252V217.156C784.295 217.027 784.242 216.9 784.152 216.809C784.061 216.718 783.934 216.665 783.805 216.665ZM761.448 217.644H783.315V227.763H761.448V217.644Z" fill="#6B3D1B"/>
<path d="M876.333 228.742H855.119V238.533H876.333V228.742Z" fill="#E2A47A"/>
<path d="M861.973 243.429H839.779V254.526H861.973V243.429Z" fill="#E2A47A"/>
<path d="M876.66 258.116H855.119V267.907H876.66V258.116Z" fill="#FFEAB0"/>
<path d="M854.63 239.513H876.823C876.952 239.513 877.078 239.461 877.169 239.37C877.259 239.278 877.312 239.152 877.312 239.023V228.253C877.312 228.123 877.259 227.998 877.169 227.906C877.077 227.815 876.951 227.763 876.823 227.763H854.63C854.5 227.763 854.374 227.815 854.283 227.906C854.193 227.998 854.14 228.123 854.14 228.253V239.023C854.14 239.152 854.193 239.278 854.283 239.37C854.374 239.46 854.5 239.513 854.63 239.513ZM855.119 228.742H876.333V238.533H855.119V228.742Z" fill="#6B3D1B"/>
<path d="M839.289 255.505H862.463C862.592 255.505 862.718 255.452 862.809 255.361C862.899 255.27 862.952 255.143 862.952 255.015V242.94C862.952 242.81 862.899 242.685 862.809 242.593C862.717 242.502 862.591 242.45 862.463 242.45H839.289C839.16 242.45 839.034 242.502 838.943 242.593C838.852 242.685 838.8 242.81 838.8 242.94V255.015C838.8 255.144 838.853 255.271 838.943 255.361C839.033 255.451 839.16 255.505 839.289 255.505ZM839.779 243.429H861.973V254.526H839.779V243.429Z" fill="#6B3D1B"/>
<path d="M877.15 257.137H854.63C854.5 257.137 854.374 257.19 854.283 257.28C854.193 257.371 854.14 257.497 854.14 257.627V268.397C854.14 268.526 854.193 268.653 854.283 268.744C854.375 268.835 854.501 268.887 854.63 268.887H877.15C877.279 268.887 877.405 268.834 877.496 268.744C877.587 268.653 877.639 268.526 877.639 268.397V257.627C877.639 257.497 877.587 257.371 877.496 257.28C877.405 257.189 877.279 257.137 877.15 257.137ZM855.119 258.116H876.66V267.907H855.119V258.116Z" fill="#6B3D1B"/>
<path d="M681.812 229.721H660.271V240.492H681.812V229.721Z" fill="#E2A47A"/>
<path d="M696.499 243.755H675.938V254.2H696.499V243.755Z" fill="#FFEAB0"/>
<path d="M682.647 241.328C682.738 241.236 682.791 241.11 682.791 240.981V229.232C682.791 229.102 682.738 228.977 682.647 228.885C682.556 228.794 682.43 228.742 682.302 228.742H659.782C659.652 228.742 659.526 228.794 659.435 228.885C659.344 228.977 659.292 229.102 659.292 229.232V240.981C659.292 241.11 659.344 241.236 659.435 241.328C659.526 241.419 659.652 241.471 659.782 241.471H682.302C682.43 241.471 682.556 241.418 682.647 241.328ZM660.271 229.721H681.812V240.492H660.271V229.721Z" fill="#6B3D1B"/>
<path d="M696.989 242.776H675.448C675.319 242.776 675.193 242.829 675.101 242.92C675.01 243.011 674.958 243.137 674.958 243.265V254.689C674.958 254.818 675.01 254.945 675.101 255.035C675.193 255.126 675.319 255.179 675.448 255.179H696.989C697.117 255.179 697.244 255.126 697.335 255.035C697.426 254.944 697.479 254.817 697.479 254.689V243.265C697.479 243.137 697.426 243.011 697.335 242.92C697.244 242.829 697.117 242.776 696.989 242.776ZM675.938 243.755H696.499V254.199H675.938V243.755Z" fill="#6B3D1B"/>
<path d="M568.885 255.179H547.997V265.296H568.885V255.179Z" fill="#E2A47A"/>
<path d="M569.374 254.199H547.507C547.378 254.199 547.253 254.252 547.161 254.342C547.069 254.433 547.018 254.56 547.018 254.689V265.786C547.018 265.915 547.069 266.041 547.161 266.131C547.253 266.222 547.378 266.275 547.507 266.275H569.374C569.503 266.275 569.63 266.222 569.721 266.131C569.812 266.04 569.864 265.914 569.864 265.786V254.689C569.864 254.56 569.812 254.433 569.721 254.342C569.63 254.251 569.503 254.199 569.374 254.199ZM547.997 255.179H568.885V265.296H547.997V255.179Z" fill="#6B3D1B"/>
<path d="M775.156 279.657H753.941V289.774H775.156V279.657Z" fill="#E2A47A"/>
<path d="M752.962 290.264C752.962 290.393 753.015 290.52 753.106 290.61C753.197 290.701 753.324 290.754 753.452 290.754H775.646C775.775 290.754 775.902 290.701 775.992 290.61C776.082 290.519 776.136 290.392 776.136 290.264V279.168C776.136 279.038 776.083 278.912 775.992 278.822C775.901 278.731 775.774 278.678 775.646 278.678H753.452C753.324 278.678 753.197 278.731 753.106 278.822C753.015 278.913 752.962 279.039 752.962 279.168V290.264ZM753.942 279.657H775.156V289.775H753.942V279.657Z" fill="#6B3D1B"/>
<path d="M769.281 333.509H747.74V343.627H769.281V333.509Z" fill="#E2A47A"/>
<path d="M753.615 349.175H734.033V358.314H753.615V349.175Z" fill="#E2A47A"/>
<path d="M782.336 349.828H761.774V358.641H782.336V349.828Z" fill="#E2A47A"/>
<path d="M768.955 363.536H748.394V372.675H768.955V363.536Z" fill="#FFEAB0"/>
<path d="M747.251 344.606H769.771C769.9 344.606 770.026 344.553 770.118 344.463C770.209 344.372 770.26 344.245 770.26 344.116V333.02C770.26 332.89 770.208 332.764 770.118 332.674C770.026 332.583 769.9 332.53 769.771 332.53H747.251C747.122 332.53 746.996 332.583 746.904 332.674C746.813 332.765 746.761 332.891 746.761 333.02V344.116C746.761 344.245 746.813 344.372 746.904 344.463C746.996 344.553 747.122 344.606 747.251 344.606ZM747.74 333.509H769.281V343.627H747.74V333.509Z" fill="#6B3D1B"/>
<path d="M754.451 359.149C754.542 359.058 754.594 358.932 754.594 358.802V348.686C754.594 348.557 754.542 348.43 754.451 348.34C754.359 348.249 754.234 348.196 754.105 348.196H733.543C733.414 348.196 733.288 348.249 733.196 348.34C733.105 348.431 733.053 348.558 733.053 348.686V358.803C733.053 358.933 733.105 359.059 733.196 359.15C733.288 359.241 733.414 359.293 733.543 359.293H754.105C754.234 359.293 754.359 359.24 754.451 359.149ZM753.615 358.314H734.032V349.175H753.615V358.314Z" fill="#6B3D1B"/>
<path d="M782.826 348.849H761.285C761.157 348.849 761.03 348.902 760.939 348.992C760.848 349.083 760.795 349.21 760.795 349.339V359.13C760.795 359.26 760.848 359.386 760.939 359.477C761.03 359.567 761.157 359.62 761.285 359.62H782.826C782.955 359.62 783.082 359.567 783.173 359.477C783.263 359.385 783.316 359.259 783.316 359.13V349.339C783.316 349.21 783.263 349.083 783.173 348.992C783.082 348.901 782.955 348.849 782.826 348.849ZM761.775 349.829H782.336V358.641H761.775V349.829Z" fill="#6B3D1B"/>
<path d="M747.558 362.7C747.466 362.791 747.415 362.917 747.415 363.047V373.164C747.415 373.293 747.466 373.42 747.558 373.51C747.649 373.601 747.775 373.654 747.904 373.654H769.445C769.574 373.654 769.701 373.601 769.792 373.51C769.882 373.419 769.935 373.292 769.935 373.164V363.047C769.935 362.917 769.882 362.791 769.792 362.7C769.7 362.609 769.573 362.557 769.445 362.557H747.904C747.775 362.557 747.649 362.609 747.558 362.7ZM768.956 372.675H748.394V363.536H768.956V372.675Z" fill="#6B3D1B"/>
<path d="M778.094 410.535H756.879V420.979H778.094V410.535Z" fill="#E2A47A"/>
<path d="M762.101 425.548H741.54V435.666H762.101V425.548Z" fill="#FFEAB0"/>
<path d="M778.583 409.556H756.389C756.261 409.556 756.134 409.609 756.043 409.699C755.952 409.79 755.899 409.916 755.899 410.045V421.468C755.899 421.597 755.952 421.724 756.043 421.815C756.134 421.906 756.261 421.958 756.389 421.958H778.583C778.712 421.958 778.839 421.905 778.929 421.815C779.019 421.725 779.073 421.597 779.073 421.468V410.045C779.073 409.916 779.02 409.79 778.929 409.699C778.839 409.608 778.712 409.556 778.583 409.556ZM756.879 410.535H778.093V420.979H756.879V410.535Z" fill="#6B3D1B"/>
<path d="M762.591 424.569H741.05C740.921 424.569 740.795 424.622 740.703 424.712C740.612 424.803 740.561 424.929 740.561 425.059V436.155C740.561 436.284 740.612 436.411 740.703 436.502C740.795 436.593 740.921 436.645 741.05 436.645H762.591C762.719 436.645 762.846 436.592 762.937 436.502C763.028 436.411 763.081 436.284 763.081 436.155V425.059C763.081 424.929 763.028 424.803 762.937 424.712C762.846 424.622 762.719 424.569 762.591 424.569ZM741.54 425.548H762.102V435.666H741.54V425.548Z" fill="#6B3D1B"/>
<path d="M848.265 463.408H828.355V473.525H848.265V463.408Z" fill="#E2A47A"/>
<path d="M848.755 462.429H827.866C827.737 462.429 827.61 462.482 827.518 462.572C827.428 462.663 827.376 462.79 827.376 462.919V474.015C827.376 474.145 827.429 474.271 827.518 474.361C827.61 474.452 827.737 474.505 827.866 474.505H848.755C848.884 474.505 849.01 474.452 849.102 474.361C849.192 474.27 849.244 474.144 849.244 474.015V462.919C849.244 462.79 849.192 462.663 849.102 462.572C849.01 462.482 848.884 462.429 848.755 462.429ZM828.356 463.408H848.265V473.526H828.356V463.408Z" fill="#6B3D1B"/>
<path d="M986.976 362.557H966.741V373.328H986.976V362.557Z" fill="#E2A47A"/>
<path d="M1001.66 376.591H971.962V388.667H1001.66V376.591Z" fill="#FFEAB0"/>
<path d="M987.813 374.164C987.903 374.072 987.956 373.946 987.956 373.818V362.068C987.956 361.939 987.903 361.812 987.813 361.721C987.721 361.63 987.594 361.578 987.466 361.578H966.252C966.123 361.578 965.997 361.631 965.906 361.721C965.816 361.812 965.763 361.939 965.763 362.068V373.818C965.763 373.947 965.816 374.073 965.906 374.164C965.998 374.254 966.124 374.307 966.252 374.307H987.466C987.594 374.307 987.721 374.254 987.813 374.164ZM986.976 373.328H966.741V362.558H986.976V373.328Z" fill="#6B3D1B"/>
<path d="M1002.15 375.612H971.473C971.344 375.612 971.217 375.665 971.126 375.755C971.035 375.845 970.983 375.973 970.983 376.102V389.157C970.983 389.286 971.036 389.412 971.126 389.503C971.216 389.594 971.344 389.646 971.473 389.646H1002.15C1002.28 389.646 1002.41 389.593 1002.5 389.503C1002.59 389.412 1002.64 389.286 1002.64 389.157V376.102C1002.64 375.973 1002.59 375.846 1002.5 375.755C1002.41 375.664 1002.28 375.612 1002.15 375.612ZM1001.66 388.667H971.963V376.591H1001.66V388.667Z" fill="#6B3D1B"/>
<path d="M1005.25 243.103H984.365V252.568H1005.25V243.103Z" fill="#E2A47A"/>
<path d="M1005.74 242.124H983.876C983.747 242.124 983.62 242.176 983.529 242.267C983.439 242.358 983.386 242.484 983.386 242.613V253.057C983.386 253.186 983.439 253.312 983.529 253.402C983.621 253.493 983.748 253.546 983.876 253.546H1005.74C1005.87 253.546 1006 253.493 1006.09 253.402C1006.18 253.311 1006.23 253.185 1006.23 253.057V242.613C1006.23 242.484 1006.18 242.358 1006.09 242.267C1006 242.176 1005.87 242.124 1005.74 242.124ZM984.365 243.103H1005.25V252.568H984.365V243.103Z" fill="#6B3D1B"/>
<path d="M1005.25 147.799H985.017V157.916H1005.25V147.799Z" fill="#FFEAB0"/>
<path d="M990.566 133.113H972.289V142.251H990.566V133.113Z" fill="#E2A47A"/>
<path d="M1004.6 117.773H984.038V127.89H1004.6V117.773Z" fill="#E2A47A"/>
<path d="M1006.09 146.964C1006 146.873 1005.87 146.82 1005.74 146.82H984.528C984.398 146.82 984.272 146.873 984.18 146.964C984.09 147.055 984.038 147.181 984.038 147.309V158.407C984.038 158.535 984.091 158.661 984.18 158.753C984.272 158.844 984.398 158.896 984.528 158.896H1005.74C1005.87 158.896 1006 158.844 1006.09 158.753C1006.18 158.661 1006.23 158.535 1006.23 158.407V147.309C1006.23 147.181 1006.18 147.056 1006.09 146.964ZM985.017 147.799H1005.25V157.916H985.017V147.799Z" fill="#6B3D1B"/>
<path d="M971.799 132.133C971.67 132.133 971.544 132.185 971.452 132.277C971.361 132.368 971.31 132.494 971.31 132.622V142.741C971.31 142.869 971.362 142.995 971.452 143.086C971.544 143.177 971.67 143.23 971.799 143.23H991.056C991.185 143.23 991.311 143.177 991.401 143.086C991.492 142.995 991.545 142.869 991.545 142.741V132.622C991.545 132.494 991.492 132.368 991.401 132.277C991.31 132.185 991.184 132.133 991.056 132.133H971.799ZM990.566 142.251H972.289V133.113H990.566V142.251Z" fill="#6B3D1B"/>
<path d="M983.201 116.936C983.111 117.027 983.059 117.154 983.059 117.283V128.38C983.059 128.509 983.112 128.634 983.201 128.726C983.293 128.817 983.419 128.869 983.549 128.869H1005.09C1005.22 128.869 1005.35 128.817 1005.44 128.726C1005.53 128.634 1005.58 128.509 1005.58 128.38V117.283C1005.58 117.154 1005.53 117.027 1005.44 116.936C1005.34 116.845 1005.22 116.793 1005.09 116.793H983.549C983.419 116.793 983.293 116.845 983.201 116.936ZM1004.6 127.89H984.038V117.773H1004.6V127.89Z" fill="#6B3D1B"/>
<path d="M987.303 13.6572H965.435V24.4277H987.303V13.6572Z" fill="#FFEAB0"/>
<path d="M988.139 25.264C988.229 25.173 988.282 25.0467 988.282 24.9174V13.1678C988.282 13.0395 988.229 12.9132 988.139 12.8222C988.047 12.7311 987.921 12.6782 987.792 12.6782H964.945C964.816 12.6782 964.69 12.7311 964.598 12.8222C964.507 12.9132 964.456 13.0395 964.456 13.1678V24.9174C964.456 25.0467 964.508 25.173 964.598 25.264C964.69 25.3551 964.816 25.407 964.945 25.407H987.792C987.922 25.407 988.048 25.3551 988.139 25.264ZM965.435 13.6574H987.303V24.4278H965.435V13.6574Z" fill="#6B3D1B"/>
<path d="M554.525 362.557H531.025V371.696H554.525V362.557Z" fill="#FFEAB0"/>
<path d="M559.094 376.591H546.365V386.709H559.094V376.591Z" fill="#E2A47A"/>
<path d="M555.36 372.531C555.451 372.44 555.504 372.314 555.504 372.185V362.068C555.504 361.939 555.451 361.812 555.36 361.721C555.269 361.63 555.143 361.578 555.014 361.578H530.536C530.407 361.578 530.28 361.631 530.189 361.721C530.098 361.812 530.046 361.939 530.046 362.068V372.185C530.046 372.315 530.098 372.441 530.189 372.531C530.28 372.622 530.407 372.675 530.536 372.675H555.014C555.143 372.675 555.269 372.622 555.36 372.531ZM531.026 362.558H554.525V371.696H531.026V362.558Z" fill="#6B3D1B"/>
<path d="M559.583 375.612H545.875C545.747 375.612 545.62 375.665 545.529 375.755C545.438 375.846 545.385 375.973 545.385 376.102V387.198C545.385 387.328 545.438 387.454 545.529 387.545C545.62 387.636 545.747 387.688 545.875 387.688H559.583C559.712 387.688 559.838 387.635 559.929 387.545C560.02 387.455 560.072 387.328 560.072 387.198V376.102C560.072 375.973 560.02 375.846 559.929 375.755C559.838 375.664 559.712 375.612 559.583 375.612ZM546.364 376.591H559.093V386.709H546.364V376.591Z" fill="#6B3D1B"/>
<path d="M636.445 471.567H616.862V480.705H636.445V471.567Z" fill="#E2A47A"/>
<path d="M636.935 470.588H616.373C616.245 470.588 616.118 470.641 616.027 470.732C615.936 470.823 615.883 470.95 615.883 471.078V481.195C615.883 481.325 615.936 481.451 616.027 481.542C616.118 481.633 616.245 481.685 616.373 481.685H636.935C637.064 481.685 637.19 481.632 637.281 481.542C637.372 481.451 637.424 481.325 637.424 481.195V471.078C637.424 470.949 637.372 470.822 637.281 470.732C637.19 470.641 637.064 470.588 636.935 470.588ZM616.862 471.568H636.445V480.706H616.862V471.568Z" fill="#6B3D1B"/>
</g>
<g clip-path="url(#clip2_625_53)">
<path d="M1537.14 0.11377H1047.58V489.681H1537.14V0.11377Z" fill="#DECC8A"/>
<path d="M1147.94 20.1853H1126.4V30.9558H1147.94V20.1853Z" fill="#FFEAB0"/>
<path d="M1148.77 31.7919C1148.86 31.6998 1148.92 31.5745 1148.92 31.4452V19.6956C1148.92 19.5664 1148.86 19.441 1148.77 19.349C1148.68 19.2579 1148.56 19.2061 1148.43 19.2061H1125.91C1125.78 19.2061 1125.65 19.2579 1125.56 19.349C1125.47 19.441 1125.42 19.5664 1125.42 19.6956V31.4452C1125.42 31.5745 1125.47 31.6998 1125.56 31.7919C1125.65 31.8829 1125.78 31.9348 1125.91 31.9348H1148.43C1148.56 31.9348 1148.68 31.8829 1148.77 31.7919ZM1126.4 20.1852H1147.94V30.9557H1126.4V20.1852Z" fill="#6B3D1B"/>
<path d="M1308.84 13.9844H1288.93V23.7757H1308.84V13.9844Z" fill="#E2A47A"/>
<path d="M1288.44 24.7548H1309.33C1309.46 24.7548 1309.59 24.7019 1309.68 24.6108C1309.77 24.5198 1309.82 24.3935 1309.82 24.2652V13.4947C1309.82 13.3654 1309.77 13.2391 1309.68 13.1481C1309.59 13.057 1309.46 13.0051 1309.33 13.0051H1288.44C1288.31 13.0051 1288.19 13.057 1288.1 13.1481C1288.01 13.2391 1287.95 13.3654 1287.95 13.4947V24.2652C1287.95 24.3935 1288.01 24.5198 1288.1 24.6108C1288.19 24.7019 1288.31 24.7548 1288.44 24.7548ZM1288.93 13.9843H1308.84V23.7756H1288.93V13.9843Z" fill="#6B3D1B"/>
<path d="M1301.01 68.8159H1280.45V78.6073H1301.01V68.8159Z" fill="#FFEAB0"/>
<path d="M1279.96 79.5863H1301.5C1301.63 79.5863 1301.75 79.5334 1301.84 79.4424C1301.93 79.3513 1301.99 79.225 1301.99 79.0967V68.3262C1301.99 68.197 1301.93 68.0707 1301.84 67.9796C1301.75 67.8886 1301.63 67.8367 1301.5 67.8367H1279.96C1279.83 67.8367 1279.7 67.8886 1279.61 67.9796C1279.52 68.0707 1279.47 68.197 1279.47 68.3262V79.0967C1279.47 79.225 1279.52 79.3513 1279.61 79.4424C1279.7 79.5334 1279.83 79.5863 1279.96 79.5863ZM1280.45 68.8158H1301.01V78.6072H1280.45V68.8158Z" fill="#6B3D1B"/>
<path d="M1316.67 83.176H1295.79V93.9465H1316.67V83.176Z" fill="#E2A47A"/>
<path d="M1317.16 82.1968H1295.3C1295.17 82.1968 1295.04 82.2496 1294.95 82.3407C1294.86 82.4318 1294.81 82.5581 1294.81 82.6863V94.436C1294.81 94.5652 1294.86 94.6915 1294.95 94.7826C1295.04 94.8736 1295.17 94.9255 1295.3 94.9255H1317.16C1317.29 94.9255 1317.42 94.8736 1317.51 94.7826C1317.6 94.6915 1317.65 94.5652 1317.65 94.436V82.6863C1317.65 82.5581 1317.6 82.4318 1317.51 82.3407C1317.42 82.2496 1317.29 82.1968 1317.16 82.1968ZM1295.79 83.1759H1316.67V93.9464H1295.79V83.1759Z" fill="#6B3D1B"/>
<path d="M1296.11 168.035H1274.9V178.479H1296.11V168.035Z" fill="#E2A47A"/>
<path d="M1274.41 179.458H1296.6C1296.73 179.458 1296.86 179.405 1296.95 179.314C1297.04 179.223 1297.09 179.097 1297.09 178.969V167.545C1297.09 167.416 1297.04 167.29 1296.95 167.198C1296.86 167.107 1296.73 167.055 1296.6 167.055H1274.41C1274.28 167.055 1274.15 167.107 1274.06 167.198C1273.97 167.29 1273.92 167.416 1273.92 167.545V178.969C1273.92 179.097 1273.97 179.223 1274.06 179.314C1274.15 179.405 1274.28 179.458 1274.41 179.458ZM1274.9 168.035H1296.11V178.479H1274.9V168.035Z" fill="#6B3D1B"/>
<path d="M1306.88 217.645H1285.02V227.762H1306.88V217.645Z" fill="#E2A47A"/>
<path d="M1307.37 216.665H1284.53C1284.4 216.665 1284.27 216.717 1284.18 216.808C1284.09 216.899 1284.04 217.026 1284.04 217.155V228.252C1284.04 228.382 1284.09 228.507 1284.18 228.599C1284.27 228.69 1284.4 228.742 1284.53 228.742H1307.37C1307.5 228.742 1307.63 228.69 1307.72 228.599C1307.81 228.507 1307.86 228.382 1307.86 228.252V217.156C1307.86 217.027 1307.81 216.9 1307.72 216.809C1307.63 216.718 1307.5 216.665 1307.37 216.665ZM1285.02 217.644H1306.88V227.763H1285.02V217.644Z" fill="#6B3D1B"/>
<path d="M1399.9 228.742H1378.69V238.533H1399.9V228.742Z" fill="#E2A47A"/>
<path d="M1385.54 243.429H1363.35V254.526H1385.54V243.429Z" fill="#E2A47A"/>
<path d="M1400.23 258.116H1378.69V267.907H1400.23V258.116Z" fill="#FFEAB0"/>
<path d="M1378.2 239.513H1400.39C1400.52 239.513 1400.65 239.461 1400.74 239.37C1400.83 239.278 1400.88 239.152 1400.88 239.023V228.253C1400.88 228.123 1400.83 227.998 1400.74 227.906C1400.65 227.815 1400.52 227.763 1400.39 227.763H1378.2C1378.07 227.763 1377.94 227.815 1377.85 227.906C1377.76 227.998 1377.71 228.123 1377.71 228.253V239.023C1377.71 239.152 1377.76 239.278 1377.85 239.37C1377.94 239.46 1378.07 239.513 1378.2 239.513ZM1378.69 228.742H1399.9V238.533H1378.69V228.742Z" fill="#6B3D1B"/>
<path d="M1362.86 255.505H1386.03C1386.16 255.505 1386.29 255.452 1386.38 255.361C1386.47 255.27 1386.52 255.143 1386.52 255.015V242.94C1386.52 242.81 1386.47 242.685 1386.38 242.593C1386.29 242.502 1386.16 242.45 1386.03 242.45H1362.86C1362.73 242.45 1362.6 242.502 1362.51 242.593C1362.42 242.685 1362.37 242.81 1362.37 242.94V255.015C1362.37 255.144 1362.42 255.271 1362.51 255.361C1362.6 255.451 1362.73 255.505 1362.86 255.505ZM1363.35 243.429H1385.54V254.526H1363.35V243.429Z" fill="#6B3D1B"/>
<path d="M1400.72 257.137H1378.2C1378.07 257.137 1377.94 257.19 1377.85 257.28C1377.76 257.371 1377.71 257.497 1377.71 257.627V268.397C1377.71 268.526 1377.76 268.653 1377.85 268.744C1377.94 268.835 1378.07 268.887 1378.2 268.887H1400.72C1400.85 268.887 1400.97 268.834 1401.06 268.744C1401.15 268.653 1401.21 268.526 1401.21 268.397V257.627C1401.21 257.497 1401.15 257.371 1401.06 257.28C1400.97 257.189 1400.85 257.137 1400.72 257.137ZM1378.69 258.116H1400.23V267.907H1378.69V258.116Z" fill="#6B3D1B"/>
<path d="M1205.38 229.721H1183.84V240.492H1205.38V229.721Z" fill="#E2A47A"/>
<path d="M1220.07 243.755H1199.51V254.2H1220.07V243.755Z" fill="#FFEAB0"/>
<path d="M1206.22 241.328C1206.31 241.236 1206.36 241.11 1206.36 240.981V229.232C1206.36 229.102 1206.31 228.977 1206.22 228.885C1206.12 228.794 1206 228.742 1205.87 228.742H1183.35C1183.22 228.742 1183.09 228.794 1183 228.885C1182.91 228.977 1182.86 229.102 1182.86 229.232V240.981C1182.86 241.11 1182.91 241.236 1183 241.328C1183.09 241.419 1183.22 241.471 1183.35 241.471H1205.87C1206 241.471 1206.12 241.418 1206.22 241.328ZM1183.84 229.721H1205.38V240.492H1183.84V229.721Z" fill="#6B3D1B"/>
<path d="M1220.56 242.776H1199.02C1198.89 242.776 1198.76 242.829 1198.67 242.92C1198.58 243.011 1198.53 243.137 1198.53 243.265V254.689C1198.53 254.818 1198.58 254.945 1198.67 255.035C1198.76 255.126 1198.89 255.179 1199.02 255.179H1220.56C1220.69 255.179 1220.81 255.126 1220.9 255.035C1220.99 254.944 1221.05 254.817 1221.05 254.689V243.265C1221.05 243.137 1220.99 243.011 1220.9 242.92C1220.81 242.829 1220.69 242.776 1220.56 242.776ZM1199.51 243.755H1220.07V254.199H1199.51V243.755Z" fill="#6B3D1B"/>
<path d="M1092.45 255.179H1071.56V265.296H1092.45V255.179Z" fill="#E2A47A"/>
<path d="M1092.94 254.199H1071.08C1070.95 254.199 1070.82 254.252 1070.73 254.342C1070.64 254.433 1070.59 254.56 1070.59 254.689V265.786C1070.59 265.915 1070.64 266.041 1070.73 266.131C1070.82 266.222 1070.95 266.275 1071.08 266.275H1092.94C1093.07 266.275 1093.2 266.222 1093.29 266.131C1093.38 266.04 1093.43 265.914 1093.43 265.786V254.689C1093.43 254.56 1093.38 254.433 1093.29 254.342C1093.2 254.251 1093.07 254.199 1092.94 254.199ZM1071.56 255.179H1092.45V265.296H1071.56V255.179Z" fill="#6B3D1B"/>
<path d="M1298.72 279.657H1277.51V289.774H1298.72V279.657Z" fill="#E2A47A"/>
<path d="M1276.53 290.264C1276.53 290.393 1276.58 290.52 1276.67 290.61C1276.77 290.701 1276.89 290.754 1277.02 290.754H1299.21C1299.34 290.754 1299.47 290.701 1299.56 290.61C1299.65 290.519 1299.7 290.392 1299.7 290.264V279.168C1299.7 279.038 1299.65 278.912 1299.56 278.822C1299.47 278.731 1299.34 278.678 1299.21 278.678H1277.02C1276.89 278.678 1276.77 278.731 1276.67 278.822C1276.58 278.913 1276.53 279.039 1276.53 279.168V290.264ZM1277.51 279.657H1298.72V289.775H1277.51V279.657Z" fill="#6B3D1B"/>
<path d="M1292.85 333.509H1271.31V343.627H1292.85V333.509Z" fill="#E2A47A"/>
<path d="M1277.18 349.175H1257.6V358.314H1277.18V349.175Z" fill="#E2A47A"/>
<path d="M1305.9 349.828H1285.34V358.641H1305.9V349.828Z" fill="#E2A47A"/>
<path d="M1292.52 363.536H1271.96V372.675H1292.52V363.536Z" fill="#FFEAB0"/>
<path d="M1270.82 344.606H1293.34C1293.47 344.606 1293.59 344.553 1293.69 344.463C1293.78 344.372 1293.83 344.245 1293.83 344.116V333.02C1293.83 332.89 1293.78 332.764 1293.69 332.674C1293.59 332.583 1293.47 332.53 1293.34 332.53H1270.82C1270.69 332.53 1270.56 332.583 1270.47 332.674C1270.38 332.765 1270.33 332.891 1270.33 333.02V344.116C1270.33 344.245 1270.38 344.372 1270.47 344.463C1270.56 344.553 1270.69 344.606 1270.82 344.606ZM1271.31 333.509H1292.85V343.627H1271.31V333.509Z" fill="#6B3D1B"/>
<path d="M1278.02 359.149C1278.11 359.058 1278.16 358.932 1278.16 358.802V348.686C1278.16 348.557 1278.11 348.43 1278.02 348.34C1277.93 348.249 1277.8 348.196 1277.67 348.196H1257.11C1256.98 348.196 1256.86 348.249 1256.76 348.34C1256.67 348.431 1256.62 348.558 1256.62 348.686V358.803C1256.62 358.933 1256.67 359.059 1256.76 359.15C1256.86 359.241 1256.98 359.293 1257.11 359.293H1277.67C1277.8 359.293 1277.93 359.24 1278.02 359.149ZM1277.18 358.314H1257.6V349.175H1277.18V358.314Z" fill="#6B3D1B"/>
<path d="M1306.39 348.849H1284.85C1284.72 348.849 1284.6 348.902 1284.51 348.992C1284.42 349.083 1284.36 349.21 1284.36 349.339V359.13C1284.36 359.26 1284.42 359.386 1284.51 359.477C1284.6 359.567 1284.72 359.62 1284.85 359.62H1306.39C1306.52 359.62 1306.65 359.567 1306.74 359.477C1306.83 359.385 1306.88 359.259 1306.88 359.13V349.339C1306.88 349.21 1306.83 349.083 1306.74 348.992C1306.65 348.901 1306.52 348.849 1306.39 348.849ZM1285.34 349.829H1305.9V358.641H1285.34V349.829Z" fill="#6B3D1B"/>
<path d="M1271.13 362.7C1271.03 362.791 1270.98 362.917 1270.98 363.047V373.164C1270.98 373.293 1271.03 373.42 1271.13 373.51C1271.22 373.601 1271.34 373.654 1271.47 373.654H1293.01C1293.14 373.654 1293.27 373.601 1293.36 373.51C1293.45 373.419 1293.5 373.292 1293.5 373.164V363.047C1293.5 362.917 1293.45 362.791 1293.36 362.7C1293.27 362.609 1293.14 362.557 1293.01 362.557H1271.47C1271.34 362.557 1271.22 362.609 1271.13 362.7ZM1292.52 372.675H1271.96V363.536H1292.52V372.675Z" fill="#6B3D1B"/>
<path d="M1301.66 410.535H1280.45V420.979H1301.66V410.535Z" fill="#E2A47A"/>
<path d="M1285.67 425.548H1265.11V435.666H1285.67V425.548Z" fill="#FFEAB0"/>
<path d="M1302.15 409.556H1279.96C1279.83 409.556 1279.7 409.609 1279.61 409.699C1279.52 409.79 1279.47 409.916 1279.47 410.045V421.468C1279.47 421.597 1279.52 421.724 1279.61 421.815C1279.7 421.906 1279.83 421.958 1279.96 421.958H1302.15C1302.28 421.958 1302.41 421.905 1302.5 421.815C1302.59 421.725 1302.64 421.597 1302.64 421.468V410.045C1302.64 409.916 1302.59 409.79 1302.5 409.699C1302.41 409.608 1302.28 409.556 1302.15 409.556ZM1280.45 410.535H1301.66V420.979H1280.45V410.535Z" fill="#6B3D1B"/>
<path d="M1286.16 424.569H1264.62C1264.49 424.569 1264.36 424.622 1264.27 424.712C1264.18 424.803 1264.13 424.929 1264.13 425.059V436.155C1264.13 436.284 1264.18 436.411 1264.27 436.502C1264.36 436.593 1264.49 436.645 1264.62 436.645H1286.16C1286.29 436.645 1286.41 436.592 1286.5 436.502C1286.6 436.411 1286.65 436.284 1286.65 436.155V425.059C1286.65 424.929 1286.6 424.803 1286.5 424.712C1286.41 424.622 1286.29 424.569 1286.16 424.569ZM1265.11 425.548H1285.67V435.666H1265.11V425.548Z" fill="#6B3D1B"/>
<path d="M1371.83 463.408H1351.92V473.525H1371.83V463.408Z" fill="#E2A47A"/>
<path d="M1372.32 462.429H1351.43C1351.3 462.429 1351.18 462.482 1351.09 462.572C1351 462.663 1350.94 462.79 1350.94 462.919V474.015C1350.94 474.145 1351 474.271 1351.09 474.361C1351.18 474.452 1351.3 474.505 1351.43 474.505H1372.32C1372.45 474.505 1372.58 474.452 1372.67 474.361C1372.76 474.27 1372.81 474.144 1372.81 474.015V462.919C1372.81 462.79 1372.76 462.663 1372.67 462.572C1372.58 462.482 1372.45 462.429 1372.32 462.429ZM1351.92 463.408H1371.83V473.526H1351.92V463.408Z" fill="#6B3D1B"/>
<path d="M1510.54 362.557H1490.31V373.328H1510.54V362.557Z" fill="#E2A47A"/>
<path d="M1525.23 376.591H1495.53V388.667H1525.23V376.591Z" fill="#FFEAB0"/>
<path d="M1511.38 374.164C1511.47 374.072 1511.52 373.946 1511.52 373.818V362.068C1511.52 361.939 1511.47 361.812 1511.38 361.721C1511.29 361.63 1511.16 361.578 1511.03 361.578H1489.82C1489.69 361.578 1489.56 361.631 1489.47 361.721C1489.38 361.812 1489.33 361.939 1489.33 362.068V373.818C1489.33 373.947 1489.38 374.073 1489.47 374.164C1489.57 374.254 1489.69 374.307 1489.82 374.307H1511.03C1511.16 374.307 1511.29 374.254 1511.38 374.164ZM1510.54 373.328H1490.31V362.558H1510.54V373.328Z" fill="#6B3D1B"/>
<path d="M1525.72 375.612H1495.04C1494.91 375.612 1494.79 375.665 1494.69 375.755C1494.6 375.845 1494.55 375.973 1494.55 376.102V389.157C1494.55 389.286 1494.6 389.412 1494.69 389.503C1494.78 389.594 1494.91 389.646 1495.04 389.646H1525.72C1525.85 389.646 1525.98 389.593 1526.07 389.503C1526.16 389.412 1526.21 389.286 1526.21 389.157V376.102C1526.21 375.973 1526.16 375.846 1526.07 375.755C1525.98 375.664 1525.85 375.612 1525.72 375.612ZM1525.23 388.667H1495.53V376.591H1525.23V388.667Z" fill="#6B3D1B"/>
<path d="M1528.82 243.103H1507.93V252.568H1528.82V243.103Z" fill="#E2A47A"/>
<path d="M1529.31 242.124H1507.44C1507.31 242.124 1507.19 242.176 1507.1 242.267C1507.01 242.358 1506.95 242.484 1506.95 242.613V253.057C1506.95 253.186 1507.01 253.312 1507.1 253.402C1507.19 253.493 1507.32 253.546 1507.44 253.546H1529.31C1529.44 253.546 1529.57 253.493 1529.66 253.402C1529.75 253.311 1529.8 253.185 1529.8 253.057V242.613C1529.8 242.484 1529.75 242.358 1529.66 242.267C1529.57 242.176 1529.44 242.124 1529.31 242.124ZM1507.93 243.103H1528.82V252.568H1507.93V243.103Z" fill="#6B3D1B"/>
<path d="M1528.82 147.799H1508.58V157.916H1528.82V147.799Z" fill="#FFEAB0"/>
<path d="M1514.13 133.113H1495.86V142.251H1514.13V133.113Z" fill="#E2A47A"/>
<path d="M1528.17 117.773H1507.61V127.89H1528.17V117.773Z" fill="#E2A47A"/>
<path d="M1529.66 146.964C1529.57 146.873 1529.44 146.82 1529.31 146.82H1508.1C1507.97 146.82 1507.84 146.873 1507.75 146.964C1507.66 147.055 1507.61 147.181 1507.61 147.309V158.407C1507.61 158.535 1507.66 158.661 1507.75 158.753C1507.84 158.844 1507.97 158.896 1508.1 158.896H1529.31C1529.44 158.896 1529.57 158.844 1529.66 158.753C1529.75 158.661 1529.8 158.535 1529.8 158.407V147.309C1529.8 147.181 1529.75 147.056 1529.66 146.964ZM1508.59 147.799H1528.82V157.916H1508.59V147.799Z" fill="#6B3D1B"/>
<path d="M1495.37 132.133C1495.24 132.133 1495.11 132.185 1495.02 132.277C1494.93 132.368 1494.88 132.494 1494.88 132.622V142.741C1494.88 142.869 1494.93 142.995 1495.02 143.086C1495.11 143.177 1495.24 143.23 1495.37 143.23H1514.62C1514.75 143.23 1514.88 143.177 1514.97 143.086C1515.06 142.995 1515.11 142.869 1515.11 142.741V132.622C1515.11 132.494 1515.06 132.368 1514.97 132.277C1514.88 132.185 1514.75 132.133 1514.62 132.133H1495.37ZM1514.13 142.251H1495.86V133.113H1514.13V142.251Z" fill="#6B3D1B"/>
<path d="M1506.77 116.936C1506.68 117.027 1506.63 117.154 1506.63 117.283V128.38C1506.63 128.509 1506.68 128.634 1506.77 128.726C1506.86 128.817 1506.99 128.869 1507.12 128.869H1528.66C1528.79 128.869 1528.91 128.817 1529 128.726C1529.09 128.634 1529.15 128.509 1529.15 128.38V117.283C1529.15 117.154 1529.09 117.027 1529 116.936C1528.91 116.845 1528.79 116.793 1528.66 116.793H1507.12C1506.99 116.793 1506.86 116.845 1506.77 116.936ZM1528.17 127.89H1507.61V117.773H1528.17V127.89Z" fill="#6B3D1B"/>
<path d="M1510.87 13.6572H1489V24.4277H1510.87V13.6572Z" fill="#FFEAB0"/>
<path d="M1511.71 25.264C1511.8 25.173 1511.85 25.0467 1511.85 24.9174V13.1678C1511.85 13.0395 1511.8 12.9132 1511.71 12.8222C1511.61 12.7311 1511.49 12.6782 1511.36 12.6782H1488.51C1488.38 12.6782 1488.26 12.7311 1488.17 12.8222C1488.08 12.9132 1488.02 13.0395 1488.02 13.1678V24.9174C1488.02 25.0467 1488.08 25.173 1488.17 25.264C1488.26 25.3551 1488.38 25.407 1488.51 25.407H1511.36C1511.49 25.407 1511.62 25.3551 1511.71 25.264ZM1489 13.6574H1510.87V24.4278H1489V13.6574Z" fill="#6B3D1B"/>
<path d="M1078.09 362.557H1054.59V371.696H1078.09V362.557Z" fill="#FFEAB0"/>
<path d="M1082.66 376.591H1069.93V386.709H1082.66V376.591Z" fill="#E2A47A"/>
<path d="M1078.93 372.531C1079.02 372.44 1079.07 372.314 1079.07 372.185V362.068C1079.07 361.939 1079.02 361.812 1078.93 361.721C1078.84 361.63 1078.71 361.578 1078.58 361.578H1054.1C1053.97 361.578 1053.85 361.631 1053.76 361.721C1053.67 361.812 1053.61 361.939 1053.61 362.068V372.185C1053.61 372.315 1053.67 372.441 1053.76 372.531C1053.85 372.622 1053.97 372.675 1054.1 372.675H1078.58C1078.71 372.675 1078.84 372.622 1078.93 372.531ZM1054.59 362.558H1078.09V371.696H1054.59V362.558Z" fill="#6B3D1B"/>
<path d="M1083.15 375.612H1069.44C1069.31 375.612 1069.19 375.665 1069.1 375.755C1069.01 375.846 1068.95 375.973 1068.95 376.102V387.198C1068.95 387.328 1069.01 387.454 1069.1 387.545C1069.19 387.636 1069.31 387.688 1069.44 387.688H1083.15C1083.28 387.688 1083.41 387.635 1083.5 387.545C1083.59 387.455 1083.64 387.328 1083.64 387.198V376.102C1083.64 375.973 1083.59 375.846 1083.5 375.755C1083.41 375.664 1083.28 375.612 1083.15 375.612ZM1069.93 376.591H1082.66V386.709H1069.93V376.591Z" fill="#6B3D1B"/>
<path d="M1160.01 471.567H1140.43V480.705H1160.01V471.567Z" fill="#E2A47A"/>
<path d="M1160.5 470.588H1139.94C1139.81 470.588 1139.69 470.641 1139.6 470.732C1139.5 470.823 1139.45 470.95 1139.45 471.078V481.195C1139.45 481.325 1139.5 481.451 1139.6 481.542C1139.69 481.633 1139.81 481.685 1139.94 481.685H1160.5C1160.63 481.685 1160.76 481.632 1160.85 481.542C1160.94 481.451 1160.99 481.325 1160.99 481.195V471.078C1160.99 470.949 1160.94 470.822 1160.85 470.732C1160.76 470.641 1160.63 470.588 1160.5 470.588ZM1140.43 471.568H1160.01V480.706H1140.43V471.568Z" fill="#6B3D1B"/>
</g>
</g>
<defs>
<clipPath id="clip0_625_53">
<rect width="489.568" height="489.568" fill="white" transform="translate(0.44043 0.11377)"/>
</clipPath>
<clipPath id="clip1_625_53">
<rect width="489.568" height="489.568" fill="white" transform="translate(524.008 0.11377)"/>
</clipPath>
<clipPath id="clip2_625_53">
<rect width="489.568" height="489.568" fill="white" transform="translate(1047.58 0.11377)"/>
</clipPath>
</defs>
</svg>
