<svg width="1466" height="523" viewBox="0 0 1466 523" fill="none" xmlns="http://www.w3.org/2000/svg">
<path d="M55.43 93.0613L25.148 112.053L43.4121 144.939L15.3706 166.582" stroke="#A151CA" stroke-width="4"/>
<path d="M1291.54 293.144L1256.64 285.443L1246.59 321.694L1211.43 317.453" stroke="#82D972" stroke-width="5"/>
<path d="M1115.45 360.5C1115.45 372.926 1105.38 383 1092.95 383C1080.53 383 1070.45 372.926 1070.45 360.5C1070.45 348.074 1080.53 338 1092.95 338C1105.38 338 1115.45 348.074 1115.45 360.5ZM1073.77 360.5C1073.77 371.094 1082.36 379.682 1092.95 379.682C1103.55 379.682 1112.14 371.094 1112.14 360.5C1112.14 349.906 1103.55 341.318 1092.95 341.318C1082.36 341.318 1073.77 349.906 1073.77 360.5Z" fill="#D34638"/>
<path d="M1371.45 153.5C1371.45 165.926 1361.38 176 1348.95 176C1336.53 176 1326.45 165.926 1326.45 153.5C1326.45 141.074 1336.53 131 1348.95 131C1361.38 131 1371.45 141.074 1371.45 153.5ZM1329.77 153.5C1329.77 164.094 1338.36 172.682 1348.95 172.682C1359.55 172.682 1368.14 164.094 1368.14 153.5C1368.14 142.906 1359.55 134.318 1348.95 134.318C1338.36 134.318 1329.77 142.906 1329.77 153.5Z" fill="#9E54C8"/>
<path d="M185.454 42.4999C185.454 54.9263 175.381 64.9999 162.954 64.9999C150.528 64.9999 140.454 54.9263 140.454 42.4999C140.454 30.0735 150.528 19.9999 162.954 19.9999C175.381 19.9999 185.454 30.0735 185.454 42.4999ZM143.772 42.4999C143.772 53.0939 152.36 61.6821 162.954 61.6821C173.548 61.6821 182.136 53.0939 182.136 42.4999C182.136 31.9059 173.548 23.3178 162.954 23.3178C152.36 23.3178 143.772 31.9059 143.772 42.4999Z" fill="#D34638"/>
<path d="M292.454 434.5C292.454 446.926 282.381 457 269.954 457C257.528 457 247.454 446.926 247.454 434.5C247.454 422.074 257.528 412 269.954 412C282.381 412 292.454 422.074 292.454 434.5ZM250.772 434.5C250.772 445.094 259.36 453.682 269.954 453.682C280.548 453.682 289.136 445.094 289.136 434.5C289.136 423.906 280.548 415.318 269.954 415.318C259.36 415.318 250.772 423.906 250.772 434.5Z" fill="#C85391"/>
<line y1="-1.5" x2="53.7587" y2="-1.5" transform="matrix(0.984356 0.176193 -0.124176 0.99226 52.6287 278)" stroke="#69CB50" stroke-width="3"/>
<line y1="-1.5" x2="53.7587" y2="-1.5" transform="matrix(0.124176 -0.99226 0.984356 0.176193 76.5754 309.342)" stroke="#69CB50" stroke-width="3"/>
<line x1="254.778" y1="320.006" x2="297.086" y2="323.18" stroke="#69CB50" stroke-width="4"/>
<line x1="274.344" y1="343.222" x2="277.519" y2="300.914" stroke="#69CB50" stroke-width="4"/>
<line x1="1210.28" y1="491.874" x2="1245.77" y2="515.112" stroke="#C95290" stroke-width="3"/>
<line x1="1214.33" y1="521.675" x2="1237.57" y2="486.178" stroke="#C95290" stroke-width="3"/>
<line x1="1248.05" y1="11.7576" x2="1287.04" y2="28.4779" stroke="#915FBD" stroke-width="3"/>
<line x1="1257.21" y1="40.4016" x2="1273.93" y2="1.40895" stroke="#915FBD" stroke-width="3"/>
<line y1="-2.5" x2="59.2039" y2="-2.5" transform="matrix(0.247169 0.968972 -0.967921 0.251253 1424.79 232.598)" stroke="#48DA40" stroke-width="5"/>
<line y1="-2.5" x2="59.2039" y2="-2.5" transform="matrix(0.967921 -0.251253 0.247169 0.968972 1407.79 270.473)" stroke="#48DA40" stroke-width="5"/>
</svg>
