<svg width="2100" height="1311" viewBox="0 0 2100 1311" fill="none" xmlns="http://www.w3.org/2000/svg">
<g clip-path="url(#clip0_401_257)">
<path d="M2035.34 193.45C2053.23 257.44 2052.43 323.2 2053.95 388.75C2056.24 487.43 2060.79 586 2067.28 684.49C2072.28 760.51 2077.11 836.54 2082.14 912.55C2086.04 971.49 2089.62 1030.46 2094.37 1089.33C2096.23 1112.4 2098.76 1135.42 2099.99 1158.54C2100.93 1176.25 2075.87 1200 2058.22 1198.76C2054.09 1198.47 2054.32 1195.79 2054.08 1193.25C2053.49 1186.9 2052.92 1180.54 2052.68 1174.17C2052.46 1168.52 2049.91 1167.48 2044.88 1169.03C2033.26 1172.63 2025.89 1182.61 2025.54 1194.72C2024.5 1230.97 2023.66 1267.22 2025.29 1303.48C2025.38 1305.58 2026.36 1308.18 2023.22 1310.07C2018.84 1307.82 2022.36 1302.49 2019.54 1299.82C2018.96 1299.46 2018.17 1299.12 2018.03 1298.56C2012.77 1277.71 1996.13 1264.52 1983.95 1248.41C1974.65 1236.12 1970.67 1222.87 1969.64 1207.57C1966.78 1165.11 1968.57 1122.61 1967.66 1079.62C1963.38 1079.28 1961.19 1083.5 1957.56 1083.41C1955.77 1083.31 1954.49 1082.49 1953.87 1080.76C1953.5 1076.27 1956.6 1073.38 1958.88 1070.14C1961.78 1066.01 1965.58 1062.65 1968.74 1058.73C1982.81 1041.25 1983.37 1032.49 1972.2 1013.16C1959.52 991.23 1941.57 974.32 1921.55 959.36C1915.51 954.85 1914.17 955.67 1913.42 963.62C1908.87 1012.32 1902.09 1060.76 1897.09 1109.41C1896.63 1113.93 1896.89 1119.07 1891.19 1121.06C1887.8 1117.74 1889.38 1113.9 1890.02 1110.16C1895.15 1064.5 1899.59 1018.75 1905.77 973.23C1908.21 955.22 1905.74 942.58 1891.82 928.37C1863.47 899.44 1847.11 862.71 1837.46 823.24C1836.02 817.34 1837.48 811.86 1838.47 806.35C1858.36 696.1 1880.59 586.34 1904.53 476.88C1916.84 420.6 1924.02 363.2 1936.53 306.88C1947.59 257.09 1958.15 207.11 1983.02 161.73C1984.28 159.43 1985.15 157.44 1983.52 154.36C1975.93 140.05 1977.55 130.45 1989.03 119.39C1991.74 116.78 1990.63 113.78 1990.72 110.94C1991.72 81.1201 1990.12 51.1701 1995.06 21.5401C1996.06 15.5601 1997.68 9.74007 2000.6 4.37007C2001.92 1.94007 2003.59 -0.20993 2006.77 0.0300704C2009.95 0.27007 2011.35 2.72007 2012.29 5.25007C2015.35 13.5001 2016.35 22.1801 2017.11 30.8601C2019.44 57.3101 2019.49 83.8301 2019.62 110.35C2019.64 114.82 2020.16 118.25 2024.01 121.74C2031.48 128.51 2030.52 145.8 2023.06 157.1C2021.7 158.45 2020.14 159.48 2018.29 160.04C2012.06 162.37 2013 167.9 2012.68 172.79C2011.26 194.3 2013.91 215.64 2015.63 237.01C2015.87 240.01 2016.43 243 2016.5 246.02C2018.23 320.45 2019.49 394.88 2018.55 469.33C2018.15 481.4 2019.28 493.49 2018.28 505.55C2018.75 514.35 2018.79 523.16 2018.39 531.96C2019.36 554.96 2021.26 577.94 2020.16 600.99C2020.01 604.04 2020.69 606.96 2021.5 609.87C2022.14 612.31 2022.19 614.81 2022.18 617.31C2021.98 635.23 2025.89 652.99 2024.36 670.96C2027.97 689.5 2027.15 708.39 2028.33 727.09C2030.93 768.24 2033.7 809.38 2036.08 850.53C2038.09 885.35 2040.95 920.1 2043 954.91C2045.27 993.4 2048.16 1031.87 2051.49 1070.29C2054.59 1106.04 2056.39 1141.9 2060.5 1177.56C2061.86 1189.31 2063.53 1189.95 2074.14 1183.98C2087.81 1176.29 2093.56 1165.89 2091.85 1149.27C2087.58 1107.59 2085.15 1065.72 2082.27 1023.91C2079.96 990.46 2077.26 957.04 2075.17 923.57C2073.12 890.77 2070.34 858.03 2068.17 825.24C2065.73 788.45 2063.91 751.62 2060.96 714.86C2059.91 701.84 2059.23 688.78 2058.39 675.74C2058.97 665.98 2057.57 656.33 2056.66 646.65C2056.14 616.91 2051.75 587.36 2052.24 557.57C2054.12 549.75 2049.87 542.35 2050.59 534.61C2050.58 533.41 2050.57 532.22 2050.54 531.02C2050.07 522 2050.14 512.98 2050.52 503.96C2049.91 494.35 2052.08 484.61 2049.03 475.12C2048 438.25 2046.7 401.39 2045.77 364.51C2044.43 311.25 2043.5 257.79 2030.72 205.54C2030.43 203.7 2030.6 201.85 2030.67 200C2031.2 197.1 2031.02 193.66 2035.35 193.48L2035.34 193.45Z" fill="#0B0A0A"/>
<path d="M77.7299 159.07C70.1899 145.37 66.4199 131.85 79.1499 118.79C81.4799 116.4 80.2399 113.01 80.3699 110.07C81.5899 82.5799 80.7499 54.9999 83.5999 27.5699C84.3599 20.2099 85.3499 12.9099 87.8499 5.89988C88.8899 2.97988 90.1899 0.049875 93.8399 -0.000124972C97.9099 -0.040125 99.5499 3.22988 100.82 6.32987C105.71 18.2999 107.31 31.0099 107.89 43.7399C108.91 66.2099 109.26 88.7099 109.75 111.2C109.85 115.63 109.73 118.95 115.01 121.59C121.39 124.78 123.29 144.51 118.35 152.29C116.04 155.94 115.46 158.51 117.49 162.25C144.04 211.04 156.06 264.6 165.94 318.34C188.69 442.09 215.42 565.02 239.94 688.4C248.18 729.85 255.47 771.49 262.97 813.08C264.96 824.12 260.67 834.54 256.93 844.37C243.24 880.33 226.87 914.89 196.76 940.61C192.02 944.66 192.25 949.15 192.83 954.17C196.38 985.17 199.97 1016.16 203.56 1047.15C207.89 1084.47 213 1121.71 216.3 1159.12C218.67 1186.02 207.45 1209.22 189.95 1228.82C168.23 1253.16 146.07 1277 131.97 1306.92C130.65 1309.71 128.95 1311.57 126.19 1308.18C124.39 1301.08 129.11 1295.98 132.2 1290.73C144.32 1270.1 158.78 1251.18 175.36 1233.9C183.98 1224.91 191.76 1215.33 198.2 1204.58C208.08 1188.1 209.6 1170.53 206.37 1152.11C207.87 1145.11 209.14 1138.1 206.83 1131.02C201.21 1102.03 199.6 1072.53 195.95 1043.29C192.71 1017.36 189.93 991.37 187.03 965.39C185.8 954.4 185.08 954.3 176.22 961.31C155.55 977.66 137.34 996.06 124.35 1019.42C117.51 1031.71 118.54 1042.55 127.03 1052.9C144.04 1073.64 161.73 1093.77 183.03 1110.36C186.41 1112.99 190.5 1115.07 191.7 1119.76C191.75 1121.42 191.11 1122.7 189.63 1123.51C184.73 1124.63 181.58 1121.33 178.06 1118.93C159.16 1106.07 144.42 1088.97 129.78 1071.74C127.27 1068.88 124.58 1066.18 121.96 1063.4C112.72 1053.6 109.22 1041.83 108.6 1028.52C106.37 981.26 106.06 933.94 104.18 886.69C102.89 854.46 104.31 822.2 102.29 790.08C100.43 760.53 100.88 731.04 100.75 701.52C101.85 685.04 97.5399 668.81 98.5299 652.32C98.9099 645.97 98.6799 639.58 98.9199 633.21C98.3899 625.02 98.5799 616.82 98.7999 608.62C99.8199 587.84 94.9799 567.23 96.9899 546.43C96.3899 537.63 96.4699 528.84 96.9599 520.04C96.8899 502.49 93.1799 485.07 94.9999 467.44C95.2699 441.54 91.7099 415.74 93.0499 389.83C92.7299 380.15 93.9499 370.43 92.1699 360.79C91.7199 354.16 92.0399 347.52 91.9399 340.89C91.9399 337.86 91.9399 334.83 91.9399 331.81C92.7699 310.9 90.3099 289.98 91.1099 269.06C90.0799 289.14 92.7799 309.22 91.9399 329.31C93.4699 388.11 92.3299 446.92 93.4299 505.71C93.5099 510.04 93.7399 514.4 92.9999 518.71C93.1099 523.2 93.3499 527.71 92.3499 532.15C89.8599 539.68 91.3099 547.4 91.1799 555.06C90.8899 572.09 92.7499 589.22 88.9699 606.1C88.9299 609.18 89.5499 612.27 88.9499 615.35C88.5599 642.61 86.6799 669.8 84.9199 696.99C83.2899 723.75 81.9499 750.53 80.1999 777.29C78.5599 802.38 76.7599 827.47 75.1599 852.57C72.8399 889.05 70.5099 925.53 67.7399 961.98C65.4299 992.42 63.3699 1022.87 61.0599 1053.31C58.8099 1083.08 56.5099 1112.86 53.5399 1142.56C52.5299 1152.67 53.7099 1159.83 64.2699 1164.3C72.6799 1167.86 77.9699 1175.96 84.3299 1182.36C96.9999 1193.19 104.86 1209.05 120.25 1216.94C122.62 1194.59 119.73 1172.23 122.15 1149.99C123.64 1145.49 123.19 1140.83 123.37 1136.23C123.51 1132.66 123.04 1128.83 126.59 1126.34C131.7 1128.03 130.86 1132.51 130.99 1136.28C131.29 1145.21 131.04 1154.15 131.14 1163.07C131.32 1177.15 131.13 1191.24 131.15 1205.33C131.17 1221.35 126.23 1235.7 116.23 1248.2C109.32 1256.85 103.04 1266.08 95.0899 1273.79C88.5899 1280.1 88.1199 1289.76 81.6099 1295.86C79.2199 1298.71 79.9299 1302.19 79.5699 1305.47C79.3799 1307.23 80.3299 1310.03 77.1399 1309.83C74.1999 1309.64 74.9299 1307.03 74.9699 1305.17C75.2399 1291.1 75.9299 1277.02 75.7899 1262.96C75.5599 1238.17 74.8899 1213.39 74.3099 1188.6C74.1099 1180.21 59.0999 1167.31 51.1999 1168.29C47.7999 1168.71 47.8799 1170.94 47.7099 1173.29C47.3499 1178.3 47.1699 1183.34 46.5899 1188.33C45.2099 1200.26 44.8399 1200.42 33.0699 1196.46C23.3299 1193.18 15.0999 1187.48 7.88988 1180.33C3.00988 1175.49 -0.560122 1169.66 0.0298781 1162.47C1.82988 1140.46 2.01988 1118.31 5.52988 1096.44C6.69988 1094.17 6.88988 1089.52 10.9499 1094.2C14.0299 1108.29 9.82988 1122.16 9.51988 1136.16C9.38988 1141.82 9.10988 1147.59 8.38988 1153.2C6.35988 1169.2 15.0299 1178.36 27.7899 1185.13C35.7399 1189.35 39.0799 1187.84 39.8399 1178.98C41.9499 1154.25 44.2999 1129.53 46.2799 1104.79C49.7199 1061.67 52.6799 1018.51 55.8099 975.36C58.2299 941.91 60.1899 908.43 62.5499 874.97C65.0999 838.84 67.7899 802.72 69.7299 766.56C71.4399 734.75 73.7899 702.98 74.9799 671.14C77.4299 653.08 76.0299 634.75 78.8699 616.72C79.0399 608.12 78.2399 599.5 79.3799 590.92C82.2699 579.39 79.9099 567.68 80.5399 556.07C80.8799 549.75 80.3199 543.39 81.0699 537.08C81.2099 535.93 81.4599 534.79 81.7499 533.66C83.9299 527.05 82.8999 520.27 82.7799 513.54C82.4599 510.59 82.9499 507.65 82.8599 504.7C82.0899 492.93 82.6399 481.17 82.6799 469.4C82.2199 404.72 81.4899 340.01 82.9399 275.36C83.6899 242.29 85.9699 209.16 88.0499 176.08C88.3799 170.83 92.2199 162.27 81.1299 161.92C79.2299 161.88 77.3199 161.84 77.6999 159.07H77.7299Z" fill="#0A0A09"/>
<path d="M1957 1082.51C1960.58 1078.58 1964.15 1074.65 1967.49 1070.99C1971.71 1072.78 1970.05 1075.5 1970.03 1077.44C1969.51 1122.43 1971.1 1167.37 1972.66 1212.32C1973.11 1225.29 1978.12 1236.4 1986.16 1246.25C1993.37 1255.07 2000.7 1263.8 2008.27 1272.31C2015.3 1280.22 2017.81 1289.82 2019.52 1299.82C2020.23 1308.62 2016.02 1311.1 2007.64 1310.32C1999.33 1309.54 1990.88 1309.91 1982.51 1310.25C1978.42 1310.42 1975.45 1309.22 1973.09 1306.05C1970.34 1305.74 1969.24 1303.61 1968.19 1301.5C1954.39 1273.51 1933.33 1250.99 1912.95 1227.93C1895.26 1207.91 1883.74 1185.53 1888.32 1157.62C1892.25 1139.21 1903.66 1126.09 1918.5 1115.54C1928.91 1108.13 1937.6 1098.89 1946.59 1089.95C1949.65 1086.9 1952.46 1083.48 1957.01 1082.51H1957Z" fill="#F1ECCD"/>
<path d="M81.6399 1295.84C83.0899 1277.44 97.1599 1266.65 107.9 1254.39C122.65 1237.53 129.54 1218.89 128.37 1196.71C127.83 1186.41 128.46 1176.04 128.55 1165.7C129.3 1151.42 129.64 1137.25 127.93 1122.9C126.12 1107.69 127.19 1092.23 127.61 1076.88C127.69 1074.06 127.8 1070.59 132.17 1070.53C148.91 1090.08 166.42 1108.8 188.13 1123.05C201.7 1128.59 207.14 1139.63 208.59 1153.36C215.98 1180.04 205.69 1201.98 189.54 1221.99C175.68 1239.16 159.42 1254.31 146.93 1272.69C139.19 1284.07 131.95 1295.67 126.21 1308.18C112.61 1312.32 98.6199 1310.53 85.0099 1309.43C78.1399 1308.87 83.5999 1300.33 81.6399 1295.84Z" fill="#F1ECCD"/>
<path d="M9.29981 1092.45C8.04981 1093.77 6.79981 1095.1 5.55981 1096.42C11.4298 1010.72 17.4598 925.02 23.1298 839.3C31.5498 712.04 40.2498 584.8 44.2098 457.29C45.9098 402.6 45.8998 347.85 49.5598 293.23C52.0498 256.05 55.6298 219 67.8298 183.41C72.1098 183.44 71.7298 186.87 72.3598 189.59C72.5598 194.4 70.6998 198.88 70.0998 203.57C61.2998 237.48 58.5898 272.14 56.9198 306.98C54.4998 357.46 53.1898 407.95 52.6498 458.48C52.5198 470.46 50.8598 482.49 50.5398 494.53C50.6898 497.57 50.8898 500.61 50.5298 503.64C50.6798 507.28 50.5598 510.89 49.7898 514.47C46.6498 525.73 49.7498 537.22 48.5398 548.55C47.2298 581.32 46.4898 614.13 42.5398 646.73C43.2998 657.26 42.7898 667.72 41.0598 678.13C39.4498 730.13 34.1298 781.89 31.3098 833.8C28.9398 877.36 25.1298 920.81 22.4798 964.35C20.1198 1003.19 16.5498 1041.96 14.3098 1080.82C14.0598 1085.19 13.2598 1089.55 9.28981 1092.43L9.29981 1092.45Z" fill="#0E0E0E"/>
<path d="M1890.55 1157.65C1884.97 1188.06 1899.86 1210.78 1919 1231.52C1939.99 1254.27 1959.77 1277.79 1973.09 1306.05C1970.4 1310.44 1970.12 1310.57 1967.63 1305.37C1959.01 1287.39 1947.33 1271.47 1934.74 1256.17C1929.64 1249.96 1924.25 1243.94 1918.52 1238.31C1886.02 1206.38 1877.42 1168.19 1888.35 1124.77C1893.95 1125.92 1892.43 1130.51 1892.9 1134.15C1892.86 1135.8 1892.67 1137.43 1892.27 1139.03C1890.13 1145.09 1891.65 1151.49 1890.56 1157.64L1890.55 1157.65Z" fill="#0B0A0A"/>
<path d="M2035.34 193.45C2032.94 194.93 2033.87 197.52 2033.3 199.6C2032.97 199.6 2032.42 199.74 2032.33 199.6C2024.7 186.58 2018.87 172.97 2018.55 157.56C2020.04 157.4 2021.54 157.25 2023.03 157.09C2027.07 169.23 2033.74 180.49 2035.33 193.46L2035.34 193.45Z" fill="#252524"/>
<path d="M69.9298 189.7C69.1698 187.63 70.2798 184.93 67.8298 183.42C69.6898 174.72 72.3998 166.36 77.7298 159.07C78.3898 159.76 79.0598 160.46 79.7198 161.15C81.3998 172.36 77.5298 181.67 69.9298 189.7Z" fill="#31312F"/>
<path d="M1890.43 1135.16C1889.24 1131.8 1891.5 1127.75 1888.35 1124.78C1888.03 1119.81 1887.85 1114.86 1889.99 1110.17C1891.14 1113.59 1888.8 1117.8 1892.34 1120.69C1895.76 1126.05 1897.23 1131.15 1890.43 1135.16Z" fill="#23221E"/>
<path d="M1991.52 729.999C1989.53 825.589 1987.54 921.189 1985.56 1016.8C1984.22 1016.73 1983.26 1016.89 1983.13 1016.64C1967.03 984.699 1939.43 963.699 1912.56 941.899C1875.9 912.139 1855.99 871.969 1843.54 827.609C1839.61 813.599 1844.33 799.759 1847.72 786.119C1856.16 747.379 1865.77 708.919 1875.7 670.539C1876.94 665.729 1877.47 660.589 1881.26 656.789C1887.41 653.939 1892.5 657.259 1897.76 659.609C1900.19 660.939 1899.6 668.019 1905.15 663.439C1918.87 664.779 1930.49 671.969 1942.46 677.659C1955.73 683.959 1968.71 690.949 1981.31 698.669C1989.42 703.639 1993.54 709.459 1992.05 719.019C1991.49 722.629 1992.47 726.379 1991.51 729.999H1991.52Z" fill="#FEFEFE"/>
<path d="M2061.4 674.96C2064.29 717.81 2067.08 760.67 2070.11 803.51C2076.46 893.57 2082.96 983.63 2089.34 1073.69C2091.29 1101.13 2092.45 1128.65 2095.16 1156.02C2096.54 1169.96 2090.12 1178.09 2079.62 1184.8C2077.92 1185.88 2076.25 1187.01 2074.51 1188.02C2059.81 1196.51 2058.76 1195.89 2057.25 1179.53C2046.81 1066.55 2039.71 953.32 2031.88 840.14C2027.99 783.9 2025.28 727.58 2022.03 671.3C2035.51 668.69 2048.94 666.69 2061.4 674.97V674.96Z" fill="#FEFEFE"/>
<path d="M2018.47 696.72C2022.17 754.99 2025.66 813.26 2029.61 871.51C2035.99 965.58 2042.07 1059.67 2051 1153.55C2051.51 1158.95 2051.94 1162.29 2044.51 1163.74C2032.37 1166.11 2026.25 1177.77 2017.2 1185.01C2012.87 1180.08 2012.86 1173.76 2012.55 1167.9C2011.45 1147.16 2009.59 1126.46 2008.46 1105.73C2007.13 1081.39 2004.12 1057.17 2003.88 1031.65C1998.04 1044.43 1993.79 1056.8 1985.81 1067.19C1983.06 1070.77 1980.68 1075.35 1974.81 1074.28C1973.33 1067.97 1974.71 1062.63 1979.09 1057.6C1987.32 1048.15 1988.23 1036.34 1988.72 1024.5C1993.07 917.91 1994.05 811.24 1996.81 704.62C1996.91 700.94 1997.15 697.26 1997.32 693.58C2004.75 692.05 2012.24 690.14 2018.48 696.7L2018.47 696.72Z" fill="#F1ECCD"/>
<path d="M1890.43 1135.16C1892.6 1130.54 1892.49 1125.62 1892.34 1120.69C1896.31 1087.41 1900.33 1054.13 1904.24 1020.84C1907 997.29 1909.6 973.72 1912.4 949C1941.45 969.86 1966.87 992.26 1981.47 1024.57C1985.19 1032.8 1983.98 1040.78 1979.52 1048.52C1972.76 1060.26 1962.42 1069.08 1954.44 1079.82C1945.96 1094.15 1933.09 1104.2 1920.32 1114.23C1910.86 1121.66 1901.32 1128.86 1895.19 1139.56C1894.16 1141.35 1893.04 1144.28 1890.01 1142.3C1888.77 1141.48 1889.29 1139.93 1890.24 1138.81C1890.3 1137.59 1890.37 1136.38 1890.43 1135.16Z" fill="#F1ECCD"/>
<path d="M2033.03 203.45C2044.64 243.65 2046.14 285.11 2047.68 326.47C2049.53 376.33 2050.54 426.23 2051.92 476.11C2052.55 482.68 2055.33 492.18 2050.73 494.97C2045.11 498.37 2039.54 489.9 2034.11 486.37C2028.29 482.59 2021.81 479.12 2020.53 471.15C2019.72 467.16 2019.78 463.13 2019.78 459.1C2019.76 398.37 2019.76 337.64 2019.78 276.91C2019.78 271.2 2019.88 265.5 2021.25 259.91C2023.18 250.29 2023.13 240.57 2021.48 231.01C2020.15 223.32 2020.53 215.69 2020.45 208.01C2023.46 198.29 2025.55 197.53 2033.03 203.45Z" fill="#FEFEFE"/>
<path d="M1974.8 1074.31C1988.25 1064.01 1992.84 1048.35 1999.43 1033.87C2001.04 1030.34 2000.8 1025.84 2004.65 1023.29C2008.61 1026.41 2006.86 1030.75 2007.09 1034.53C2008.6 1059.48 2009.78 1084.45 2011.45 1109.39C2013.14 1134.62 2015.27 1159.82 2017.21 1185.04C2005.41 1197.56 1995.18 1211.76 1977.68 1222.12C1975.84 1171.58 1973.2 1123.02 1974.8 1074.33V1074.31Z" fill="#FEFEFE"/>
<path d="M1922.5 427.04C1930.53 388.34 1940.88 350.21 1950.84 311.99C1962.66 266.62 1975.32 221.47 1985.59 175.71C1986.98 169.52 1989.28 163.54 1991.15 157.47C1995.86 154.56 1997.27 156.59 1998.25 161.39C2000.48 172.3 1996.93 182.68 1995.26 193.02C1989.62 227.9 1983.34 262.68 1979.35 297.81C1979.2 299.16 1978.56 300.35 1977.84 301.48C1975.08 304.19 1974.43 307.79 1973.45 311.36C1962.85 349.68 1952.21 387.99 1942.89 426.66C1942.42 428.61 1941.97 430.58 1940.37 432.01C1933.66 433.09 1927.01 433.94 1922.51 427.04H1922.5Z" fill="#F0EBCD"/>
<path d="M2000.99 163.16C2001.74 161.33 2002.5 159.5 2003.51 157.06C2004.28 158.34 2005.09 159.06 2005.09 159.79C2006.13 257.4 2002.28 354.89 1998.05 452.37C1991.96 453.67 1986.99 453 1985.85 445.5C1985.39 388.69 1985.2 331.88 1986.01 275.07C1986.08 270.41 1986.57 265.7 1985.01 261.15C1984.08 243.63 1989.81 226.96 1991.79 209.79C1993.15 197.97 1995.78 186.26 1997.21 174.39C1997.69 170.44 1998.8 166.58 2000.99 163.14V163.16Z" fill="#F0EBCC"/>
<path d="M1992.85 639.25C1992.75 649.82 1992.65 660.38 1992.55 670.95C1990 670.9 1988.83 668.94 1988.72 667.05C1988.1 656.65 1981.03 656.09 1973.13 656.27C1957.08 656.64 1941.02 655.65 1924.99 657.86C1918.16 658.8 1910.94 659.57 1904.34 655.94C1899.07 650.17 1903.02 643.82 1903.6 637.89C1904.86 624.82 1905.82 611.65 1909.76 598.99C1917.62 596.78 1923.94 601.71 1930.37 604.35C1949.51 612.24 1967.97 621.66 1985.77 632.3C1988.73 634.07 1990.95 636.46 1992.85 639.24V639.25Z" fill="white"/>
<path d="M2033.03 203.45C2027.55 200.36 2023.49 200.37 2022.9 208.05C2018.34 206.74 2019.38 202.88 2019.32 199.73C2019.23 195.16 2019.19 190.64 2018.05 188.17C2019.34 198.2 2019.76 210.24 2021.37 222.13C2023.07 234.68 2021.93 247.5 2025.19 259.87C2022.79 264.21 2023.27 268.96 2023.26 273.64C2023.16 340.48 2023.06 407.32 2022.96 474.17C2018.31 476.22 2017.26 471.99 2015.1 469.68C2014.87 465.67 2014.46 461.67 2014.44 457.66C2014.02 391.53 2014 325.4 2013.09 259.27C2012.66 228.09 2008.85 197.02 2008.95 165.76C2008.97 158 2010.97 155.18 2018.56 157.54C2023.47 171.56 2028.39 185.57 2033.3 199.59C2033.21 200.87 2033.12 202.16 2033.03 203.44V203.45Z" fill="#F0EBCD"/>
<path d="M1987.15 447.489C1990.79 449.109 1994.42 450.729 1998.05 452.369C1997.24 481.559 1996.43 510.729 1995.62 539.909C1995.16 539.629 1994.7 539.36 1994.24 539.09C1990.79 533.22 1992.07 526.729 1992.26 520.539C1992.51 512.379 1989.09 507.989 1981.68 504.619C1968.42 498.589 1954.31 494.549 1941.57 487.339C1940.43 470.169 1944.5 453.549 1946.86 436.769C1947.28 435.819 1947.92 435.019 1948.74 434.389C1956.16 435.319 1957.57 427.049 1963.06 424.979C1965.73 427.449 1965.16 431.059 1966.33 434.049C1968.01 438.599 1972.55 438.509 1976.08 440.049C1980.22 441.859 1985.32 442.249 1987.16 447.489H1987.15Z" fill="white"/>
<path d="M1904.37 655C1928.44 655.34 1952.38 651.77 1976.5 652.9C1990.17 653.54 1990.15 653.03 1991.11 666.31C1991.22 667.88 1992.06 669.4 1992.56 670.95C1992.75 690.66 1993.19 710.37 1991.53 730.03C1991.41 729.69 1991.12 729.34 1991.19 729.07C1995.87 709.66 1983.02 702.05 1968.83 694.48C1947.85 683.3 1926.73 672.55 1904.27 664.64C1898.88 661.36 1899.48 658.16 1904.38 655H1904.37Z" fill="white"/>
<path d="M1992.85 639.25C1966.87 623.82 1939.87 610.47 1911.71 599.49C1907.94 588.67 1910.84 578.57 1915.04 568.61C1919.92 565.3 1923.55 567.88 1927.02 571.15C1927.83 572.16 1928.22 574.24 1929.32 574.23C1953.72 573.91 1971.5 589.14 1990.33 601.09C1997.84 605.85 1993.62 615.83 1993.34 623.61C1993.17 628.83 1993.01 634.04 1992.84 639.26L1992.85 639.25Z" fill="#FEFEFE"/>
<path d="M2055.13 555.49C2056.62 586.24 2058.12 616.99 2059.61 647.74C2057.16 649.02 2054.82 648.24 2053.17 646.58C2042.61 635.96 2029.92 627.75 2019.74 616.72C2019.44 614.26 2019.14 611.8 2018.83 609.34C2017.55 601.75 2018.58 594.1 2018.27 586.48C2018.09 582.19 2020.09 578.84 2022.96 575.86C2030.57 567.96 2038.75 560.61 2045.51 551.9C2047.14 549.81 2049.31 547.56 2052.13 548.08C2056.44 548.87 2053.34 553.31 2055.14 555.5L2055.13 555.49Z" fill="#FDFDFD"/>
<path d="M1993.35 623.6C1996.22 606.1 1985.6 598.08 1971.62 591.99C1960.95 587.35 1951.11 580.98 1940.08 576.96C1934.67 574.99 1930.09 573 1928.49 581.37C1925.07 578.3 1927.02 575.13 1926.34 572.46C1926.61 571.55 1926.96 570.68 1927.38 569.82C1929.04 566.21 1930.13 562.32 1932.68 559.13C1952 552.4 1971.56 550.6 1991.42 556.57C1993.07 557.07 1993.94 558.69 1994.69 560.22C1994.94 581.36 1995.2 602.5 1993.35 623.6Z" fill="white"/>
<path d="M1994.69 560.23C1981.16 555.69 1967.34 554.49 1953.45 557.85C1946.63 559.5 1938.45 554.87 1932.92 562.27C1930.77 560.66 1930.39 558.33 1930.89 556C1934.12 540.85 1933.78 525.13 1938.18 510.18C1944.95 509.06 1948.35 515.41 1953.88 517.38C1964.55 521.19 1974.98 525.78 1985.07 531.06C1988.99 533.11 1992.64 535.31 1994.81 539.34C1995.14 539.45 1995.42 539.64 1995.64 539.91C1995.33 546.68 1995.02 553.46 1994.71 560.23H1994.69Z" fill="white"/>
<path d="M1927.65 572.36C1927.21 572.36 1926.77 572.4 1926.33 572.47C1923.11 571.08 1919.89 569.68 1916.66 568.29C1910.79 562.16 1919.38 555.64 1916.37 550.32C1916.87 555.83 1915.45 561.75 1912.29 567.32C1904.22 569.86 1897.41 567.13 1891.08 562.33C1893.52 546.67 1897.88 531.45 1901.95 516.17C1909.16 511.26 1916.43 506.54 1925.8 507.56C1929.68 508.4 1933.67 509.01 1935.96 512.88C1936.3 533.14 1932.83 552.88 1927.65 572.37V572.36Z" fill="white"/>
<path d="M2021.55 1188.87C2020.81 1219.44 2018.46 1248.03 2020.07 1278.98C2006.74 1263.94 1994.86 1250.75 1984.7 1236.1C1980.38 1229.87 1980.63 1225.56 1988.08 1220.96C2000.69 1213.18 2008.36 1199.78 2021.55 1188.88V1188.87Z" fill="#F0EBCC"/>
<path d="M2019.74 616.72C2032.07 622.94 2041.05 633.41 2051.69 641.79C2054.28 643.83 2056.97 645.76 2059.61 647.74C2061.62 656.73 2061.62 665.84 2061.4 674.97C2048.49 671.48 2035.08 673.25 2022.03 671.3C2020.92 653.12 2018.87 634.98 2019.75 616.72H2019.74Z" fill="white"/>
<path d="M1898.06 661.54C1892.75 660.07 1887.44 658.6 1882.14 657.13C1878.11 657.74 1874.37 657.61 1872.41 653.15C1875.38 632.72 1880.12 612.65 1884.69 592.55C1893.85 589.95 1901.74 591.71 1907.89 599.37C1906.19 620.34 1906 641.55 1898.06 661.54Z" fill="white"/>
<path d="M2055.13 555.49C2054.33 553.4 2053.54 551.32 2052.51 548.62C2041.89 559.99 2031.49 571.03 2021.23 582.18C2017.32 586.43 2019.81 591.73 2019.44 596.55C2019.11 600.81 2019.02 605.09 2018.83 609.35C2016.48 583.8 2016.42 558.18 2015.77 532.58C2028.44 530.59 2041.08 529.51 2053.57 533.68C2053.88 540.96 2056.24 548.1 2055.13 555.49Z" fill="white"/>
<path d="M2018.47 696.72C2011.61 694.37 2004.01 697.01 1997.31 693.6C1997.72 671.69 1998.13 649.79 1998.54 627.88C2008.54 633.58 2010.12 632.69 2010.44 621.3C2010.56 617.04 2009.99 612.7 2011.62 608.57C2012.1 607.71 2012.78 607.08 2013.69 606.7C2015.29 636.71 2016.88 666.72 2018.48 696.72H2018.47Z" fill="white"/>
<path d="M1964.07 436.59C1961.01 433.8 1962.85 430 1962.03 426.74C1958.82 421.92 1959.18 416.44 1959.78 411.19C1963.56 378.37 1966.11 345.39 1971.73 312.79C1972.36 309.12 1973.34 305.72 1975.05 302.47C1980.26 269.23 1985.46 236 1990.67 202.76C1992.68 189.91 1994.75 177.07 1996.66 164.21C1997.26 160.16 1997.94 155.64 1991.14 157.47C1999.85 149.98 1997.84 161.03 2000.99 163.17C1996.68 191.08 1992.36 218.99 1988.1 246.91C1987.45 251.16 1987.13 255.46 1986.66 259.74C1987.88 279.3 1983.38 298.35 1981.32 317.61C1977.58 352.55 1972.77 387.38 1969.87 422.41C1969.43 427.66 1969.39 433.26 1964.07 436.61V436.59Z" fill="#242422"/>
<path d="M1922.5 427.04C1928.47 428.3 1934.44 429.57 1940.41 430.83C1943.75 429.24 1945.91 430.62 1947.41 433.63C1945 450.63 1943.94 467.83 1940.03 484.62C1932.17 488.88 1930.27 481.76 1926.76 477.7C1923.54 469.73 1917.17 463.29 1915.4 454.6C1917.77 445.41 1920.14 436.23 1922.5 427.04Z" fill="white"/>
<path d="M1930.28 360.58C1941.69 302.56 1952.83 244.46 1974.56 189.1C1976.59 188.74 1977.62 189.38 1977.1 191.6C1963.92 250.34 1946.07 307.88 1932.23 366.45C1927.32 365.91 1930.19 362.78 1930.28 360.58Z" fill="#E9E4C6"/>
<path d="M2014.78 118.89C2009.5 122.18 2003.82 119.7 1998.34 119.96C1995.24 120.11 1994.62 117.64 1994.73 115.12C1996.18 81.8599 1993.39 48.3099 2001.2 15.4799C2001.87 12.6599 2003.55 10.0799 2004.76 7.37988C2010.35 16.2199 2008.17 26.1999 2008.39 35.6499C2008.91 58.0199 2008.64 80.4099 2008.5 102.8C2008.46 109.15 2009.7 114.69 2014.78 118.89Z" fill="#CB7B54"/>
<path d="M2014.78 118.89C2006.88 119.92 2004.74 116.47 2004.82 108.66C2005.17 74.8999 2004.84 41.1399 2004.76 7.37991C2007.29 4.56991 2008.32 7.19991 2008.7 8.84991C2010.02 14.7199 2011.49 20.6299 2011.96 26.5899C2014.42 57.2999 2015.93 88.0599 2014.78 118.89Z" fill="#FAC24C"/>
<path d="M1872.41 653.15C1875.65 654.48 1878.89 655.8 1882.14 657.13C1872.06 696.81 1861.98 736.5 1851.86 776.17C1850.97 779.66 1850.67 783.45 1847.73 786.11C1851.04 756.86 1857.69 728.19 1862.94 699.27C1865.74 683.83 1869.24 668.52 1872.42 653.15H1872.41Z" fill="#EEEACC"/>
<path d="M2015.1 469.689C2017.72 471.189 2020.34 472.679 2022.96 474.179C2031.84 481.059 2040.71 487.939 2050.85 495.799C2051.26 488.259 2051.59 482.179 2051.92 476.109C2054.01 485.239 2053.17 494.479 2053.02 503.679C2043.88 509.059 2033.72 508.569 2023.67 508.769C2020.56 508.779 2017.66 508.149 2015.33 505.899C2014.42 493.829 2014.23 481.759 2015.1 469.689Z" fill="white"/>
<path d="M1915.39 454.6C1921.07 460.78 1924.91 468.08 1928.29 475.67C1928.78 481.7 1927.22 487.46 1925.38 493.04C1923.56 498.55 1924.46 504.06 1924.22 509.57C1915.97 508.97 1910.08 516.34 1901.96 516.16C1906.44 495.64 1910.92 475.12 1915.4 454.6H1915.39Z" fill="#EFEACC"/>
<path d="M2023.34 505.98C2033.23 505.22 2043.13 504.45 2053.02 503.68C2053.14 513.16 2053.25 522.65 2053.37 532.13C2044.78 534.11 2036.06 532.57 2027.42 533.04C2023.25 533.27 2021.06 530.86 2020.61 527.18C2019.72 519.93 2018.18 512.49 2023.34 505.97V505.98Z" fill="#FEFEFD"/>
<path d="M1999.31 604.63C1999.66 585.29 2000 565.95 2000.35 546.62C2004.53 542.86 2007.75 545.43 2010.94 548.22C2011.85 567.71 2012.76 587.21 2013.67 606.7L2013.09 607.12C2007.94 609.34 2003.47 607.86 1999.31 604.63Z" fill="white"/>
<path d="M1906.62 598.6C1899.31 596.58 1892 594.57 1884.7 592.55C1886.83 582.48 1888.96 572.4 1891.09 562.32C1898.01 563.74 1904.93 565.17 1911.86 566.59C1912.74 577.69 1913.83 588.82 1906.63 598.59L1906.62 598.6Z" fill="#F2EFDA"/>
<path d="M2009.39 465.75C2009.29 466.8 2009.18 467.84 2009.08 468.89C2006.25 472.43 2004.7 469.61 2002.98 467.66C2002.49 432.62 2005.04 397.66 2006.07 362.67C2006.37 352.67 2006.91 342.67 2007.34 332.68C2011.3 332.73 2010.09 335.83 2010.09 337.8C2010.12 379.83 2010.27 421.85 2010.04 463.88C2010.04 464.51 2009.62 465.14 2009.4 465.77L2009.39 465.75Z" fill="#E4E0C2"/>
<path d="M2023.51 137.46C2023.94 142.62 2025.04 147.99 2019.29 151.27C2016.76 152.59 2013.95 152.37 2011.39 151.99C2006.5 151.26 2000.33 154.93 1997.02 148.25C1993.89 141.94 1995.92 130.67 2001.1 125.17C2005.78 125.14 2010.46 125.12 2015.14 125.09C2018.79 128.63 2019.83 133.94 2023.52 137.46H2023.51Z" fill="#FCC44D"/>
<path d="M1890.24 1138.81C1890.41 1139.1 1890.52 1139.47 1890.77 1139.65C1891.15 1139.93 1891.97 1140.3 1892.01 1140.25C1907.91 1115.03 1936.08 1102.48 1954.45 1079.82C1955.3 1080.72 1956.15 1081.62 1957.01 1082.52C1947.38 1095.03 1936.13 1106.04 1923.26 1115.03C1907.7 1125.89 1895.52 1138.89 1890.56 1157.67C1889.24 1151.41 1885.54 1145.19 1890.25 1138.83L1890.24 1138.81Z" fill="#23221E"/>
<path d="M2001.1 125.17C1997.75 131.38 1999.59 138.13 1999.03 144.64C1998.63 149.34 2000.81 151.16 2005.43 151.01C2010.04 150.86 2014.67 151.16 2019.29 151.27C2009.81 154.24 2000.05 153.26 1990.64 151.96C1981.7 150.72 1983.94 142.45 1984 136.44C1984.06 130.6 1984.92 124.62 1993.1 124.8C1995.77 124.86 1998.43 125.05 2001.1 125.18V125.17Z" fill="#C57752"/>
<path d="M2009.39 465.75C2009.15 425.3 2008.94 384.86 2008.61 344.41C2008.58 340.49 2009.68 336.37 2007.34 332.67V288.99C2010.52 293.98 2010.39 298 2010.4 301.88C2010.47 354.9 2010.48 407.93 2010.44 460.95C2010.44 462.55 2009.76 464.15 2009.39 465.75Z" fill="#989581"/>
<path d="M2002.98 467.66C2005.01 468.07 2007.05 468.49 2009.08 468.89C2009.54 486.46 2010 504.03 2010.46 521.61C2006.96 523.25 2003.92 522.64 2001.34 519.75C2000.68 502.35 2001.78 485 2002.98 467.66Z" fill="white"/>
<path d="M1999.31 604.63C2004.14 604.14 2008.7 605.16 2013.09 607.12C2013.07 613.75 2013.18 620.38 2012.99 627C2012.9 630.24 2014.92 634.98 2008.76 635.03C2003.74 635.07 1998.39 635.3 1998.53 627.87C1998.79 620.13 1999.05 612.38 1999.31 604.63Z" fill="#EFE9CD"/>
<path d="M2001.34 519.75C2004.38 520.37 2007.42 521 2010.46 521.61C2010.62 530.47 2010.78 539.34 2010.94 548.2C2007.41 547.67 2003.88 547.14 2000.35 546.6C1996.78 537.5 2001.89 528.72 2001.33 519.74L2001.34 519.75Z" fill="#E9E5C8"/>
<path d="M2023.34 505.98C2023.11 523.28 2031.78 531.966 2049.35 532.04C2050.69 532.04 2052.03 532.1 2053.36 532.13C2053.83 532.6 2053.9 533.12 2053.56 533.68C2040.96 533.27 2028.3 535.1 2015.76 532.57C2015.61 523.68 2015.47 514.79 2015.32 505.89C2017.99 505.92 2020.66 505.95 2023.33 505.97L2023.34 505.98Z" fill="#E4DFD0"/>
<path d="M1930.28 360.58C1931.33 362.4 1929.85 365.07 1932.23 366.45C1930.84 378.44 1926.83 389.76 1923.07 401.19C1924.23 387.43 1925.91 373.78 1930.28 360.58Z" fill="#767465"/>
<path d="M2023.51 137.46C2016.72 136.04 2014.79 131.34 2015.13 125.09C2026.65 123.3 2023.28 131.6 2023.51 137.46Z" fill="#FBDEA3"/>
<path d="M1977.1 191.6C1976.26 190.77 1975.41 189.93 1974.56 189.1C1975.45 185.2 1977.24 181.77 1980.72 177.82C1979.62 183.22 1979.84 187.75 1977.09 191.61L1977.1 191.6Z" fill="#9A9784"/>
<path d="M253.46 790.1C264.25 820.19 252.72 846.54 240.03 872.91C224.59 904.99 203.38 931.91 174.38 953.02C150.73 970.23 130.16 990.75 116.96 1017.75L113.58 1016.87C113.58 995.22 113.95 973.57 113.51 951.93C111.94 874.35 110.08 796.77 108.36 719.19C108.29 715.84 108.5 712.48 108.57 709.13C109.83 705.9 112.03 703.5 114.95 701.66C137.87 687.21 161.97 675.06 186.97 664.67C189.74 663.52 192.7 662.82 195.77 663.6C197.47 664.06 198.54 665.45 199.87 666.3C204.7 656.21 210.83 653.66 220.34 657.69C229.53 688.7 237.49 720.02 244.73 751.53C247.68 764.38 250 777.38 253.45 790.12L253.46 790.1Z" fill="#FEFEFE"/>
<path d="M9.29984 1092.45C12.6898 1047.68 16.2598 1002.92 19.4298 958.13C24.7698 882.57 29.8498 806.99 35.0198 731.42C36.2998 712.71 37.5198 694 38.7698 675.3C39.4098 674.55 39.9398 673.45 40.7898 673.17C52.9598 669.15 65.2698 667.32 77.8498 671.28C75.4198 716.13 73.3598 760.99 70.4798 805.81C65.7798 879.09 60.8098 952.35 55.4698 1025.58C51.5898 1078.74 46.8198 1131.84 42.7498 1184.99C42.1498 1192.82 39.7698 1195.29 32.5498 1191.34C29.3198 1189.57 25.9698 1188.03 22.8098 1186.16C10.8498 1179.06 3.20984 1170.32 5.11984 1154.56C7.60984 1133.99 7.99984 1113.16 9.29984 1092.45Z" fill="#FEFEFE"/>
<path d="M103.37 699.93C104.91 768.31 106.31 836.7 108.04 905.08C109.09 946.64 110.76 988.18 111.9 1029.74C112.27 1043.19 117.32 1054.41 126.12 1064.23C129.55 1071.21 128.35 1078.73 128.08 1085.97C127.58 1099.58 130.22 1113.33 126.44 1126.79C125.79 1134.97 125.14 1143.15 124.49 1151.32C120.24 1147.78 121.11 1142.8 121.06 1138.23C120.88 1121.45 120.86 1104.66 121.05 1087.88C121.14 1080.21 119.51 1073.51 114.69 1067.27C106.62 1056.82 101.78 1044.62 97.18 1032.12C93.17 1080.26 90.47 1128.32 86.94 1176.32C86.7 1179.65 86.71 1183.11 83.69 1185.47C73.01 1177.33 66.03 1164.17 50.72 1162.12C47.58 1161.7 49.39 1156.78 49.61 1153.97C53.12 1108.18 56.88 1062.42 60.29 1016.62C64.22 963.8 67.99 910.97 71.59 858.13C75.25 804.28 78.6 750.41 82.09 696.55C91.93 689.74 99.88 691 103.37 699.93Z" fill="#F1ECCD"/>
<path d="M190.86 1120.44C167.71 1103.01 147.59 1082.48 129.21 1060.19C114.7 1042.61 112.36 1033.99 124.42 1013.31C139.86 986.849 162.45 967.789 187.72 948.859C194.91 1010.2 201.97 1070.46 209.03 1130.72C210.21 1134.21 210.6 1137.65 207.61 1142.67C203.13 1133.61 194.83 1128.88 190.85 1120.43L190.86 1120.44Z" fill="#F1ECCD"/>
<path d="M83.7 1185.48C85.69 1146.2 88.04 1106.96 91.73 1067.79C93.16 1052.54 93.45 1037.19 94.35 1020.3C100.19 1026.9 100.92 1034.35 103.79 1040.68C108.5 1051.06 112.8 1061.64 120.92 1069.92C124.47 1073.54 124.21 1077.72 124.23 1082.05C124.33 1105.15 124.42 1128.24 124.52 1151.34C124.15 1174.24 125.21 1197.21 121.99 1221.37C105.31 1212.29 95.33 1197.99 83.71 1185.48H83.7Z" fill="#FEFEFE"/>
<path d="M102.31 158.53C109.04 154.68 110.54 159.71 111.7 164.38C115.51 179.64 118.85 195.01 122.76 210.24C140.99 281.2 159.35 352.13 177.63 423.08C177.95 424.33 177.9 425.69 178.02 426.99C173.16 432.94 166.98 433.83 160.01 431.66C155.71 423.61 154.54 414.56 152.32 405.91C144.7 376.18 136.26 346.67 128.51 316.97C127.92 314.69 127.49 312.43 127.47 310.07C127.47 308.79 127.66 307.48 127.04 306.26C126.05 306.81 126.96 309.22 124.74 308.58C118.97 303.03 120.64 295.29 119.86 288.75C115.38 251.33 108.44 214.32 102.24 177.19C101.15 170.64 104.59 164.69 102.3 158.51L102.31 158.53Z" fill="#F0EBCD"/>
<path d="M102.37 452.25C97.9898 354.3 94.0198 256.33 95.7398 157.45C99.4298 159.79 96.4498 163.92 99.3998 165.53C104.72 172.93 103.9 181.97 105.35 190.22C109.16 211.8 112.28 233.51 115.98 255.11C116.32 257.07 116.08 259.11 115.73 261.11C114.31 273.83 115.48 286.54 115.52 299.25C115.67 344.82 115.62 390.39 115.56 435.96C115.56 439.32 115.43 442.66 114.55 445.94C112.39 451.71 108.6 454.36 102.36 452.24L102.37 452.25Z" fill="#F1ECCE"/>
<path d="M107.8 655C106.13 645.4 105.72 635.75 106.54 626.05C111.97 625.49 109.16 631.32 113.01 633.58C123.41 625.69 136 620.43 147.94 613.95C158.58 608.16 169.93 604.27 181.29 600.35C184.47 599.25 187.78 598.23 190.45 601.58C195.95 618.16 196.15 635.61 198.87 652.64C199.19 654.62 198.16 656.55 196.45 657.9C188.16 659.98 179.7 658.84 171.52 657.99C153.12 656.08 134.78 656.02 116.37 656.97C113.29 657.13 110.34 657.06 107.8 655Z" fill="white"/>
<path d="M69.9299 189.7C73.1899 180.18 76.4599 170.67 79.7199 161.15C80.3699 155.42 84.9199 156.75 88.1499 157.08C92.6799 157.54 91.1399 161.65 91.1499 164.33C91.2299 193.54 88.7499 222.66 87.4999 251.82C84.5799 319.95 86.5399 388.13 85.9299 456.28C85.8899 460.64 85.6499 464.99 85.4999 469.35C83.0299 473.49 80.4099 476.96 75.8599 471.41C73.7499 465.91 74.3899 460.15 74.3799 454.48C74.3299 397.11 74.3499 339.74 74.3499 282.36C74.3499 275.32 74.3899 268.27 72.5699 261.41C78.3999 247.93 76.6499 233.26 78.6199 219.18C79.7499 211.09 81.6499 203.02 81.8299 196.69C81.8799 198.41 80.6199 201.31 77.2499 203.09C73.7599 204.26 70.4699 204.27 67.6699 201.48C68.4199 197.56 69.1599 193.64 69.9099 189.72L69.9299 189.7Z" fill="#F0EBCD"/>
<path d="M102.37 452.25C105.93 451.4 109.35 450.23 112.14 447.72C118.33 439.87 128.29 439.88 136.41 436.04C137.3 435.57 138.22 435.18 139.15 434.81C143.46 433.84 147.74 430 152.12 434.63C156.97 452.15 158.29 470.18 159.76 488.18C148.96 493.57 136.76 495.39 126.14 501.44C121.59 504.03 116.47 505.76 111.66 508C109.25 508.9 106.84 509.97 104.29 508.42C102.92 489.72 101.97 471 102.35 452.24L102.37 452.25Z" fill="white"/>
<path d="M188.29 600.63C160.37 609.43 134.71 623.06 109.71 638.38C105.89 634.55 109.19 629.51 106.54 626.03C106.54 619.43 106.54 612.81 106.54 606.2C107.84 603.48 109.11 600.68 111.83 599.07C128.19 589.41 144.42 579.46 162.58 573.35C164.82 572.6 167.16 572.43 169.47 573.01C173.34 573.78 173.84 569.32 176.66 568.36C180.23 567.15 183.74 565.56 186.47 569.83C189.24 577.48 189.22 585.6 190.67 593.46C191.17 596.16 190.88 598.83 188.29 600.62V600.63Z" fill="#FEFDFD"/>
<path d="M107.8 655C137.45 650.58 166.94 653.61 196.41 657.02C199.23 659.67 199.17 662.38 196.57 665.14C181.66 668 168.48 675.44 155.19 682.02C139.11 689.97 123.11 698.36 108.59 709.13C108.33 691.08 108.07 673.04 107.81 655H107.8Z" fill="white"/>
<path d="M105.84 562.31C104.27 554.98 104.44 547.56 104.63 540.14C106.24 537.66 108.09 535.41 110.71 533.91C123.34 525.02 138.19 520.92 152.13 514.86C155.26 513.5 158.88 511.37 162.19 514.98C167.1 531.44 167.93 548.55 170.2 565.42C170.37 566.71 169.38 567.88 168.4 568.81C151.09 565.41 133.58 565.31 116.04 565.5C112.33 565.54 108.77 564.89 105.85 562.31H105.84Z" fill="white"/>
<path d="M80.2499 1279.79C80.9199 1248.5 80.3399 1219.57 78.3699 1187.47C86.2399 1195.74 92.0199 1201.95 97.9599 1208.01C101.93 1212.06 105.82 1216.27 110.27 1219.75C120.33 1227.63 120.93 1230.34 112.36 1241.01C102.36 1253.47 91.9999 1265.64 80.2599 1279.79H80.2499Z" fill="#EFEACC"/>
<path d="M183.84 568.26C179.67 570.25 173.21 569.71 174.07 577.25C174.22 578.54 173.61 580.38 172.02 579.34C170.93 578.63 170.77 576.51 170.19 575.02C170.15 574.46 170.1 573.9 170.06 573.34C170.63 559.94 166.64 547.07 165.41 533.88C164.74 526.64 163.58 519.44 163.69 512.14C167.02 508.45 171.64 508.15 176.1 507.41C184.54 507.97 192.43 509.93 198.44 516.49C202.21 531.65 207.32 546.5 208.85 562.16C203.32 567.48 196.61 568.66 189.31 567.8C181.44 563.97 186.85 555.58 183.75 551.06C184.35 556.23 186.19 562.19 183.82 568.27L183.84 568.26Z" fill="white"/>
<path d="M218.91 657.02C210.82 659.1 200.77 658.56 202.45 672.05C202.85 675.29 199.93 675.2 199.17 671.56C199.79 647.28 193.37 623.77 191.43 599.76C197.66 592 206.34 590.97 215.43 591.06C219.77 612.11 224.1 633.16 228.44 654.22C225.72 656.71 222.53 657.59 218.91 657.01V657.02Z" fill="white"/>
<path d="M77.8598 671.28C64.9098 673.41 51.5098 671.18 38.7698 675.31C39.2598 666.12 39.7298 656.94 40.2098 647.77C48.9098 634.67 62.9898 627.63 74.3098 617.47C76.3998 616.38 78.4598 614.9 80.8898 616.68C80.5998 634.92 80.4698 653.17 77.8598 671.28Z" fill="white"/>
<path d="M105.84 562.31C123.8 563.1 141.85 560.62 159.78 564.11C163.29 564.79 166.1 565.57 168.29 568.3C170.74 569.46 170.87 571.68 170.87 573.96C170.66 574.32 170.43 574.67 170.19 575.02C162.79 574.25 156.53 578.09 150.52 581.1C135.43 588.65 119.76 595.34 106.55 606.21C105.44 591.59 105.31 576.95 105.84 562.31Z" fill="white"/>
<path d="M45.7799 547.74C45.9999 536.64 44.8799 525.48 47.1399 514.47C52.2199 518.06 49.1199 524.67 52.5199 528.86C57.4599 533.1 63.3599 530.53 68.7799 531.2C73.8799 531.83 79.4799 529.68 83.8799 534.02C84.6799 552.75 84.0699 571.45 82.2899 590.11C78.6399 588.11 77.4599 583.8 74.1599 581.47C64.2299 570.62 54.1699 559.88 45.7899 547.74H45.7799Z" fill="white"/>
<path d="M103.37 699.93C101.91 693.93 97.1599 695.18 93.0399 695.41C89.3799 695.61 85.7399 696.17 82.0999 696.56C83.5499 669.39 84.9899 642.22 86.4299 615.06C90.2699 615.19 90.5499 618.52 90.2899 620.73C89.2599 629.52 94.6999 632 101.63 633.37C102.21 655.56 102.79 677.74 103.37 699.93Z" fill="white"/>
<path d="M113.85 260C109.55 232.16 105.25 204.33 100.96 176.49C100.4 172.84 99.9099 169.18 99.3899 165.53C102.24 163.98 101.56 160.96 102.3 158.53C110.11 205.56 118.42 252.51 124.22 299.86C124.58 302.79 125.4 305.67 126.01 308.57C131.89 323.98 132.7 340.35 134.79 356.43C137.59 377.93 138.81 399.6 141.26 421.15C141.89 426.7 142.52 432.58 138.13 437.31L138.39 437.18C132.62 437.66 131.79 433.28 131.47 429.37C126.84 373.38 117.28 317.93 113.23 261.88C113.18 261.26 113.59 260.61 113.85 259.99V260Z" fill="#232220"/>
<path d="M160.54 430.68C166.37 429.45 172.19 428.23 178.02 427C180.17 436.23 182.33 445.47 184.48 454.7C182.81 464.23 175.99 471.22 172.19 479.71C169.29 483.21 166.38 486.67 161.13 483.79C155.74 472.55 156.86 460.08 154.72 448.23C153.87 443.55 151.16 438.76 153.1 433.67C154.83 430.8 157.08 429.24 160.54 430.68Z" fill="white"/>
<path d="M125.75 189.72C144.49 238.27 157.17 288.39 164.69 339.86C165.01 342.05 166.06 344.13 166.77 346.26C167.44 348.44 168.53 350.82 164.55 350.65C155.22 315.84 145.78 281.06 136.6 246.22C132.17 229.41 128.23 212.48 124.06 195.6C123.52 193.33 121.37 190.59 125.75 189.73V189.72Z" fill="#E9E4C6"/>
<path d="M85.9999 119.02C84.4199 94.7901 85.7199 70.5701 86.8999 46.3801C87.4699 34.7501 87.4699 22.9901 90.5799 11.6101C91.7099 7.4901 91.7899 7.5101 95.8699 8.1001C99.0199 18.1001 98.9099 28.4701 99.1999 38.7701C99.8399 61.8301 99.6499 84.9001 99.3099 107.96C99.1399 119.12 97.1499 120.41 85.9999 119.02Z" fill="#FCC34C"/>
<path d="M218.91 657.02C221.62 654.49 224.86 653.8 228.44 654.24C236.57 696.87 244.72 739.51 252.8 782.16C253.29 784.76 253.25 787.45 253.46 790.1C247.34 775.33 244.46 759.63 240.42 744.27C233.56 718.17 226.94 692.01 220.3 665.86C219.57 662.98 219.37 659.97 218.92 657.02H218.91Z" fill="#EFEACC"/>
<path d="M86 119.02C93.55 119.74 96.3 116.95 96.18 108.81C95.66 75.2501 95.91 41.6701 95.88 8.1001C102.88 20.2001 102.8 33.8301 103.65 47.0701C104.87 66.1501 105.03 85.3101 105.68 104.43C106.26 121.7 104.04 123.36 86.01 119.02H86Z" fill="#CB7955"/>
<path d="M170.83 477.52C174.64 469.47 178.88 461.68 184.48 454.7C190.47 474.98 194.25 495.77 198.45 516.47C191.26 514.15 184.07 511.82 176.89 509.49C177.07 498.42 173.19 488.11 170.83 477.52Z" fill="#EFEBCD"/>
<path d="M77.8599 473.79C80.4099 472.31 82.9599 470.83 85.5099 469.34C85.4399 481.55 85.3799 493.75 85.3099 505.96C82.4999 509.01 78.7999 508.67 75.1799 508.64C66.1399 506.27 56.0699 509.52 47.6799 503.6C47.7599 501.03 47.8499 498.46 47.9299 495.89C56.5699 486.71 65.9299 478.51 77.8599 473.78V473.79Z" fill="white"/>
<path d="M86.5798 606.599C87.5398 581.959 88.5098 557.329 89.4698 532.689C93.7298 536.499 91.6298 545.189 99.7198 546.069C100.3 566.759 100.87 587.449 101.45 608.149C96.5198 607.399 91.2598 609.789 86.5798 606.609V606.599Z" fill="white"/>
<path d="M93.8599 333.32L93.4499 340.12C94.0499 372.5 93.5499 404.89 94.4399 437.26C94.6299 444.26 94.6499 451.27 94.9599 458.27C95.0999 461.54 94.3199 465.08 97.5999 467.45C98.1399 484.91 98.6899 502.36 99.2299 519.82C96.4299 522.73 93.3899 522.71 90.1699 520.58C90.0999 489.05 89.9999 457.52 89.9699 425.99C89.9299 393.77 89.9699 361.55 89.9699 329.33C94.6499 327.36 92.1799 332.36 93.8599 333.32Z" fill="white"/>
<path d="M215.43 591.07C208.65 595.35 200.53 595.65 193.27 598.5C188.01 588.37 185.21 577.89 188.81 566.53C195.5 565.07 202.19 563.62 208.87 562.16C212.32 571.51 213.62 581.35 215.43 591.08V591.07Z" fill="#F1EED9"/>
<path d="M81.6098 151.45C75.8398 148.89 75.6598 144.02 76.3898 138.79C79.1298 133.95 82.5498 129.59 85.8098 125.12C90.5098 125.15 95.1998 125.19 99.8998 125.22C102.25 127.3 103.2 130.09 103.96 133.02C107.85 148.08 104.74 152.21 89.4798 152.08C86.8498 152.06 84.1698 152.48 81.6098 151.45Z" fill="#FCC34D"/>
<path d="M97.5999 467.45C89.2799 470.84 91.5099 463.99 91.4799 460.59C91.2599 438.78 91.3399 416.97 91.3999 395.15C91.4399 380.38 91.5599 365.62 91.7699 350.86C91.8199 347.23 91.1199 343.42 93.4599 340.12C93.6999 346.96 93.9299 353.81 94.1699 360.65C96.2899 370.13 93.6999 379.83 95.5699 389.32C96.2499 415.36 96.9299 441.41 97.6099 467.45H97.5999Z" fill="#EBE7C9"/>
<path d="M81.6099 151.45C83.9099 151.29 86.1999 151.03 88.4999 151C103.31 150.79 103.85 150.07 101.05 135C100.45 131.78 100.27 128.48 99.8999 125.22C114.57 124.19 120.96 132.91 115.91 147C114.76 150.23 112.27 152.21 109.24 152.25C100.03 152.37 90.7299 154.32 81.6099 151.45Z" fill="#C57752"/>
<path d="M86.5799 606.6C91.5199 607.24 97.2299 600.56 101.45 608.15C101.51 616.55 101.57 624.95 101.64 633.36C87.6899 636.79 87.6499 636.74 87.6899 622.71C87.6899 620.11 88.5899 617.31 86.4299 615.05C86.4799 612.23 86.5299 609.42 86.5799 606.6Z" fill="#EDE7CA"/>
<path d="M126.46 1126.8C126.35 1105.95 126.24 1085.09 126.14 1064.24C128.15 1066.34 130.17 1068.44 132.18 1070.54C129.04 1073.6 130.7 1077.47 130.63 1080.94C130.03 1109.2 131.88 1137.51 128.57 1165.7C128.43 1155.87 128.35 1146.03 128.12 1136.2C128.05 1133.01 129.07 1129.57 126.47 1126.8H126.46Z" fill="#282826"/>
<path d="M75.8699 505.74C79.0199 505.81 82.1699 505.89 85.3099 505.96C85.3299 508.9 85.3599 511.84 85.3799 514.78C83.6399 521.14 86.3399 527.85 83.8499 534.15L83.8699 534.03C71.9399 532.2 59.6399 536.36 47.8799 531.84C51.6899 528.35 56.4999 528.68 60.9999 528.97C69.2599 529.51 73.4499 526.66 72.6899 517.8C72.3299 513.57 72.5899 509.18 75.8599 505.75L75.8699 505.74Z" fill="#E8E2D4"/>
<path d="M90.18 520.58C93.2 520.33 96.22 520.08 99.24 519.83C99.4 528.58 99.56 537.33 99.72 546.08C91.4 550 88.61 546.98 89.91 538.43C90.19 536.58 89.64 534.6 89.47 532.69C89.71 528.66 89.94 524.62 90.18 520.58Z" fill="#E8E5C8"/>
<path d="M76.1798 579.92C80.2698 582.1 81.8798 585.76 82.2798 590.13C81.7998 598.98 82.8098 607.91 80.8898 616.69C79.1798 617.32 77.4698 617.94 75.7598 618.57C70.6198 605.63 69.9898 592.74 76.1798 579.93V579.92Z" fill="#ECE7CB"/>
<path d="M93.86 333.32C92.56 331.98 91.27 330.65 89.97 329.32C89.97 308.29 89.97 287.25 89.97 266.22C91.8 288.6 94.89 310.87 93.86 333.32Z" fill="#5F5D51"/>
<path d="M110.22 536.4C109.03 538.65 106.89 539.5 104.62 540.14C104.51 529.57 104.41 519 104.3 508.43C106.26 507.62 108.22 506.8 110.19 505.99C115.31 516.12 115.12 526.26 110.22 536.4Z" fill="#E4E2C6"/>
<path d="M190.86 1120.44C198.56 1124.73 203.03 1132.02 207.78 1139.42C210.21 1136.37 207.96 1133.34 209.03 1130.72C213.2 1138.35 211.09 1145.86 208.59 1153.36C204.03 1141.73 197.66 1131.33 188.13 1123.05C189.04 1122.18 189.95 1121.3 190.86 1120.43V1120.44Z" fill="#33322C"/>
<path d="M164.55 350.64C165.29 349.18 166.03 347.71 166.77 346.25C170.13 355.42 171.2 365.07 172.84 374.61C173.43 376.58 174.66 378.86 170.85 378.67C168.75 369.33 166.65 359.99 164.55 350.65V350.64Z" fill="#BCB8A0"/>
<path d="M85.8098 125.11C86.0198 131.97 82.5398 136.3 76.3898 138.79C76.5798 132.2 72.9198 122.96 85.8098 125.11Z" fill="#EFD399"/>
<path d="M170.85 378.67C171.51 377.32 172.18 375.97 172.84 374.61C176.41 383.73 176.6 393.44 177.91 402.98C174.16 395.26 172.41 386.99 170.84 378.67H170.85Z" fill="#787667"/>
<path d="M95.5599 389.32C93.0499 379.86 93.8399 370.25 94.1599 360.65C97.1799 370.08 96.0699 379.71 95.5599 389.32Z" fill="#5F5D51"/>
<path d="M125.75 189.72C123.67 191.24 124.83 193.69 124.06 195.59C121.27 191.04 121.07 185.85 119.61 179.27C123.95 182.74 124.96 186.16 125.75 189.72Z" fill="#989582"/>
<path d="M83.8599 534.15C84.5199 527.7 82.9199 521.07 85.3899 514.77C85.5099 521.29 86.9699 527.9 83.8599 534.15Z" fill="white"/>
<path d="M77.8599 473.79C68.3699 481.82 58.6999 489.6 47.9299 495.9C50.9899 413.79 49.5199 331.49 58.0099 249.61C59.6999 233.33 62.3799 217.1 67.6899 201.47C71.1099 201.48 74.5399 201.49 77.9599 201.5C78.9299 202.45 79.9699 203.59 79.8799 204.88C78.6199 222.63 79.0899 240.58 73.9099 257.89C78.4399 263.51 77.8499 270.16 77.8399 276.76C77.8099 342.44 77.8399 408.11 77.8599 473.79Z" fill="#FEFEFE"/>
<path d="M76.18 579.92C76.04 592.8 75.9 605.68 75.76 618.56C64.17 628.6 52.94 639.09 40.22 647.76C42.08 614.43 43.93 581.09 45.79 547.74C57.75 556.74 65.9 569.34 76.19 579.91L76.18 579.92Z" fill="#FEFEFE"/>
<path d="M75.8699 505.739C75.8699 523.619 66.8766 532.343 48.8899 531.909C48.5599 531.909 48.2199 531.859 47.8899 531.839C47.6399 526.039 47.3899 520.249 47.1499 514.459C47.3299 510.849 47.5099 507.229 47.6899 503.609C57.0899 504.319 66.4799 505.039 75.8799 505.749L75.8699 505.739Z" fill="#FDFDFE"/>
<path d="M1906.62 598.6C1910.43 588.27 1910.08 577.26 1911.85 566.6C1913.96 558.06 1913.76 549 1918.18 538.01C1920.85 550.15 1916.35 559.14 1916.67 568.3C1915.02 578.69 1913.37 589.08 1911.72 599.49C1909.27 618.01 1906.82 636.52 1904.37 655.02C1902.03 658.21 1901.41 661.41 1904.26 664.66C1900.63 665.88 1902.45 670.13 1899.08 672.94C1898.7 668.71 1898.38 665.13 1898.07 661.55C1900.92 640.57 1903.77 619.59 1906.62 598.61V598.6Z" fill="#2A263A"/>
<path d="M2025.19 259.88C2019.48 254.18 2021.63 246.69 2020.88 239.95C2019.07 223.64 2017.59 207.28 2016.18 190.93C2015.89 187.56 2014.24 183.64 2018.6 180.53C2022.42 189.59 2019.99 199.29 2022.9 208.06C2022.6 225.38 2027.51 242.47 2025.19 259.89V259.88Z" fill="#51504A"/>
<path d="M2033.31 297.76C2031.82 279.34 2030.32 260.93 2028.83 242.51C2029.88 242.42 2030.92 242.33 2031.97 242.23C2035.28 260.42 2037.12 278.75 2036.27 297.33C2035.28 297.47 2034.3 297.61 2033.31 297.75V297.76Z" fill="#393939"/>
<path d="M1945.7 433.17C1943.94 432.39 1942.18 431.61 1940.41 430.83C1940.21 417.28 1945.37 404.83 1948.66 392.05C1955.98 363.62 1963.89 335.34 1971.81 307.07C1972.22 305.61 1971.11 301.89 1975.05 302.47C1970.71 343.88 1966.37 385.3 1962.03 426.73C1961.13 433.33 1960.57 440.4 1950.98 434.32C1949.43 434.63 1949.87 430.7 1947.51 432.76C1946.97 433.33 1946.38 433.47 1945.69 433.18L1945.7 433.17Z" fill="#FDFDFD"/>
<path d="M1964.07 436.59C1967.04 411.38 1969.93 386.17 1973 360.97C1977.12 327.16 1980.35 293.24 1986.66 259.72C1989.87 262.22 1988.94 265.8 1988.94 269.04C1989 325.68 1989 382.32 1988.98 438.95C1988.98 441.89 1989.69 445.06 1987.14 447.48C1980 442.69 1970.24 443.42 1964.06 436.58L1964.07 436.59Z" fill="#FDFDFD"/>
<path d="M1994.79 539.34C1979.99 531 1964.45 524.26 1948.79 517.75C1945.32 516.31 1940.7 515.78 1940.11 510.62C1935.88 502.06 1938.35 494.36 1943.14 486.95C1959.95 490.33 1974.52 499.32 1990.15 505.65C1994.06 507.23 1995.33 510.31 1995.19 514.42C1994.91 522.72 1994.9 531.03 1994.78 539.34H1994.79Z" fill="#FDFDFC"/>
<path d="M1943.15 486.95C1942.14 494.83 1941.13 502.71 1940.12 510.61C1937.72 527.84 1935.31 545.06 1932.91 562.27C1930.85 565.47 1932.91 570.82 1927.65 572.36C1930 552.36 1932.35 532.36 1934.7 512.36C1931.88 502.67 1933.08 493.49 1938.22 484.82C1940.71 467.61 1943.2 450.39 1945.69 433.18C1946.03 432.57 1946.38 431.96 1946.72 431.36C1950.05 430.63 1949.42 433.1 1949.6 434.92C1947.45 452.27 1945.3 469.61 1943.14 486.96L1943.15 486.95Z" fill="#152B2C"/>
<path d="M1949.61 434.9C1948.65 433.71 1947.69 432.53 1946.73 431.34C1946.47 428.82 1945.89 426.23 1948.78 423.93C1952.76 426.74 1949.97 431.03 1951 434.31C1950.63 434.73 1950.17 434.93 1949.62 434.9H1949.61Z" fill="#6F6F6F"/>
<path d="M1938.22 484.809C1937.72 494.079 1937.03 503.319 1934.7 512.349C1931.21 511.419 1927.71 510.489 1924.22 509.559C1921.47 507.369 1919.44 504.679 1920.64 501.049C1923.42 492.649 1923.56 483.449 1928.3 475.649C1931.21 479.129 1932.75 484.099 1938.23 484.799L1938.22 484.809Z" fill="#FAFBFA"/>
<path d="M188.8 566.52C188.83 577.38 191.19 587.92 193.26 598.49C195.8 617.32 198.52 636.12 200.77 654.99C201.43 660.48 202.34 666.3 199.16 671.56C198.29 669.43 197.43 667.28 196.56 665.14C197.51 662.41 197.04 659.72 196.4 657.02C193.69 638.22 190.99 619.42 188.28 600.63C186.8 589.84 185.32 579.06 183.83 568.27C183.11 559.18 179.91 550.28 181.36 538.99C187.61 548.52 185.3 558.33 188.79 566.53L188.8 566.52Z" fill="#2B293D"/>
<path d="M160.54 430.68C158.57 431.42 156.6 432.16 154.63 432.9C152.34 429.01 151.44 433.03 149.95 433.72C146.18 435.46 142.39 437.17 138.14 437.32C138.04 409.8 133.66 382.64 131.31 355.3C129.96 339.67 125.77 324.37 126.03 308.57C126.2 307.58 126.03 306.25 126.6 305.67C129.5 302.81 128.49 306.88 128.57 307.18C133.11 322.83 137.66 338.48 141.87 354.22C147.71 376.07 153.17 398.02 159.08 419.85C160.06 423.48 160.47 427.01 160.55 430.67L160.54 430.68Z" fill="#FCFCFC"/>
<path d="M113.86 260C122.67 315.02 128.68 370.39 134.29 425.8C134.7 429.83 132.89 434.9 138.4 437.18C129.65 440.69 120.9 444.2 112.14 447.71C112.12 388 112.09 328.28 112.1 268.57C112.1 265.63 111.34 262.46 113.85 260H113.86Z" fill="#FDFDFD"/>
<path d="M73.9099 257.89C75.2599 239.09 76.6099 220.29 77.9599 201.49C79.0499 194.89 80.1399 188.29 81.4699 180.25C84.9499 184.1 84.3299 187.14 84.0899 189.85C82.1699 211.12 80.1499 232.37 78.0299 253.62C77.8099 255.8 78.7999 259.88 73.9199 257.89H73.9099Z" fill="#45443F"/>
<path d="M110.22 536.4C110.21 526.26 110.2 516.12 110.18 505.99C122.87 500.4 135.57 494.83 148.24 489.19C151.34 487.81 154.39 486.67 157.71 488.4C162.35 496.59 164.88 504.99 160.29 514.1C143.48 521.28 126.35 527.74 110.2 536.4H110.22Z" fill="#FDFDFD"/>
<path d="M160.31 514.1C159.45 505.54 158.59 496.98 157.73 488.41C155.13 470.17 152.54 451.94 149.95 433.71C150.07 431.11 150.2 428.51 150.33 425.67C154.45 426.82 152.83 430.84 154.63 432.89C157.25 449.98 159.88 467.07 162.51 484.15C166.88 493.11 168.92 502.29 165.14 512.01C167.5 529.49 169.93 546.95 172.17 564.45C172.58 567.63 173.61 571.11 170.87 573.95C170.01 572.06 169.15 570.18 168.29 568.29C165.63 550.22 162.97 532.15 160.31 514.08V514.1Z" fill="#162E30"/>
<path d="M165.14 512.03C164.06 502.76 161.69 493.61 162.51 484.16C166.93 484.02 168.65 480.47 170.84 477.52C177.61 484.74 181.2 503.66 176.89 509.49C173.06 510.71 169.31 512.35 165.14 512.03Z" fill="#FBFBFB"/>
<path d="M66.8598 300.82C61.9598 288.53 64.4098 252.4 71.6498 242.27C70.1298 260.85 68.6098 279.44 66.8598 300.82Z" fill="#4D4D4D"/>
</g>
<defs>
<clipPath id="clip0_401_257">
<rect width="2100" height="1310.78" fill="white"/>
</clipPath>
</defs>
</svg>
