<?xml version="1.0" encoding="UTF-8"?>
<svg id="b" data-name="Слой 2" xmlns="http://www.w3.org/2000/svg" width="426.65" height="635" viewBox="0 0 426.65 635">
  <g id="c" data-name="Слой 1">
    <g>
      <path d="m71.59,634.82c-2.96.78-2.35-1.41-2.36-2.93-.03-11.62-.44-23.25.13-34.84.38-7.65-1.46-12.95-7.73-18.21-15.96-13.39-29.84-28.92-41.64-46.17-8.64-12.62-14.5-26.61-19.12-41.14-1.32-4.14-1.42-8.05,1.58-11.54,1.11-1.29.75-2.52.29-3.9-2.13-6.38-1.7-7.73,4.32-10.4,2.15-.95,2.7-2.05,2.67-4.22-.11-8.81.05-17.62-.11-26.42-.05-2.86.5-3.99,3.74-3.91,9.82.25,19.66,0,29.48.15,2.67.04,3.66-.75,3.45-3.43-.2-2.66.24-5.39-.67-7.97-4.17-11.78-3.17-23.95-2.38-36.02.29-4.42-.21-8.36-2.33-12.12-2.17-3.84-2.04-7.5.37-11.16,2.8-4.25,4.71-9.06,8.11-12.93,1.9-2.15,1.88-4.38.23-6.61-1.59-2.15-3.23-4.26-4.9-6.35-3.16-3.95-3.19-7.6.07-11.36.93-1.08,1.82-2.01,1.82-3.6.04-8.14,2.25-15.89,4.49-23.61,1.46-5.02,1.51-9.94.71-15.1-2.51-16.19,2.71-29.33,16.26-38.88.72-.51,1.54-.92,2.37-1.21.82-.29,1.72-.37,2.55-.53.36-1.08-.52-1.41-1-1.88-20.6-20.03-21.01-50.55-1.1-71.31,7.82-8.15,17.22-13.92,27.14-18.99,2.86-1.46,3.25-2.12.45-4.4-5.58-4.54-10.51-9.77-11.56-17.43-1.15-8.4,2.16-14.12,10.17-16.88,8.84-3.04,18.02-3.22,27.22-2.37,2.83.26,4.18.26,3.44-3.3-.86-4.11-.93-8.39-.11-12.56,2.77-14.2-2.73-25.72-11.63-36.14-3.81-4.46-5.7-9.46-3.76-15.19,2.15-6.37,5.86-11.84,10.66-16.59,9.99-9.89,22.55-14.07,35.96-16.37,12.07-2.07,24.12-4.26,36.23-6.02,10.3-1.5,20.65-1.64,30.61,2.09,6.94,2.61,12.48,6.76,14.78,14.36,1.25,4.14.22,7.95-1.24,11.55-3.37,8.31-4.31,17-4.93,25.8-.32,4.56.39,8.84,2.56,12.94,3.39,6.43,6.75,12.89,9.79,19.48,1.14,2.46,2.23,2.42,4.34,1.49,6.75-2.98,13.42-6.33,21.1-6.22,8.74.12,14.12,7.74,10.98,15.83-2,5.17-5.13,9.67-9.53,13.18-.78.62-1.58,1.23-2.62,2.04,3.57,2.22,7.3,3.5,10.98,4.63,21.21,6.53,34.46,21.02,41.81,41.43,4.85,13.45,9.35,27.01,11.22,41.28.73,5.54.49,10.83-2.57,15.88-3.53,5.82-8.5,8.6-15.17,8.55-5.15-.04-10.31-.57-14.77-3.32-5.32-3.29-10.92-1.31-17.09-1.59,3.49,3.63,6.58,6.85,9.69,10.08.6.62,1.39.59,2.15.54,9.29-.61,17.49,2.85,25.58,6.79,5.04,2.46,10.05,4.99,15.35,6.88,1.57.56,2.77.53,4.32-.1,7.35-2.99,10.7-1.57,14,5.67,2.66,5.83,4.28,12.01,6.02,18.15.55,1.93,1.38,3.48,2.82,4.84,9.23,8.66,13.19,19.47,12.91,31.98-.07,3.33.47,6.38,1.83,9.58,3.44,8.11,2.65,16.63.12,24.76-1.96,6.34-.67,11.87,2.26,17.25,1.84,3.37,3.18,6.83,2.58,10.57-1.46,9.16.98,17.98,1.87,26.93.8,8.01.85,16.04-.3,24.05-.65,4.53-3.34,8.19-5.31,12.17.91,1.24,2.15.7,3.18.71,9.57.05,19.15.19,28.72-.07,3.36-.09,4.03,1.04,3.96,4.1-.19,8.55,0,17.11-.11,25.66-.03,2.37.39,3.79,2.86,4.91,5.76,2.59,6.28,4.19,4.13,10.21-.56,1.58-.73,2.82.44,4.21,2.64,3.15,2.68,6.87,1.55,10.53-6.3,20.3-15.4,39.08-29.37,55.37-9.97,11.64-20.19,23-31.66,33.2-.29.25-.5.62-.83.79-6.36,3.17-6.94,8.61-6.72,15,.41,12.24.13,24.51.1,36.76,0,1.53.61,3.68-2.33,2.98-1.37-1.63-1.08-3.6-1.09-5.49-.03-11.59,0-23.18-.03-34.78,0-1.34.41-2.77-.65-4.38-7.21,5.75-15.25,10.11-22.74,15.33-1.84,1.29-1.9,3.19-1.91,5.12-.03,6.37.01,12.74-.03,19.11-.01,1.76.23,3.61-1.13,5.08-.73,0-1.45-.01-2.18-.02-1.46-1.41-1.2-3.27-1.22-5.02-.05-5.71.05-11.42-.04-17.13-.05-3.32-.49-3.42-3.6-2.21-4.04,1.56-6.09,4.06-5.65,8.65.35,3.65.09,7.35.06,11.03-.01,1.64.09,3.33-1.11,4.7-.53,0-1.05,0-1.58,0-1.78-2.49-.9-5.35-1.03-8.05-.14-2.75-.1-5.52-.01-8.28.09-2.95-1.23-3.19-3.45-1.96-18.33,7.71-37.28,13.21-57.01,15.86-7.21.97-14.44,1.49-21.72,1.65-13.12.3-26.23.4-39.35-.38-21.08-1.25-41.37-5.96-61.1-13.28-3.23-1.2-6.47-2.38-9.6-3.81-2.08-1.24-3.07-.53-3.14,1.77-.11,3.94,0,7.87-.06,11.81-.03,1.63.19,3.35-1.18,4.64-.56.02-1.12.04-1.68.06-1.6-3.01-.67-6.26-.88-9.4-.11-1.65-.23-3.35.02-4.96.86-5.57-1.96-8.47-6.77-10.42-2.48-1.01-3.24-.48-3.24,2.02,0,5.86.02,11.73-.02,17.59-.01,1.77.19,3.6-.99,5.15h-1.79c-1.19-1.55-.98-3.38-.99-5.14-.03-6.37-.05-12.73,0-19.1.03-2.66-.86-4.55-3.21-6-6.6-4.08-13.29-8.04-19.46-12.78-.59-.45-1.27-1.19-2.02-.72-1,.63-.65,1.83-.65,2.8-.03,11.84,0,23.68-.04,35.52,0,1.85.43,3.88-1.28,5.35Z" fill="#040406" stroke-width="0"/>
      <path d="m119.25,615.68c18.25,7.48,37.06,13.02,56.64,15.63,19.52,2.61,39.1,3.07,58.77,1.69,25.31-1.79,49.54-7.81,72.96-17.38,1.24-.58,2.18.1,2.28,1.14.56,6.06,1.7,12.16-.71,18.11-63.82,0-127.64-.01-191.46-.02-1.4-1.59-1.22-3.55-1.23-5.45,0-3.56-.21-7.14.13-10.68.14-1.43-.15-3.68,2.62-3.04Z" fill="#c87c46" stroke-width="0"/>
      <path d="m327.57,634.86c0-8.68,0-17.36,0-26.04,0-1.51-.15-2.89,1.56-3.94,8.69-5.29,17.44-10.5,26.03-17.67,0,16.44,0,32.05,0,47.65-9.19,0-18.39,0-27.58,0Z" fill="#c87c46" stroke-width="0"/>
      <path d="m71.59,634.82v-47.66c6.75,5.98,13.26,10.51,20.2,14.04,6.36,3.24,8.13,7.5,7.53,14.18-.58,6.46-.11,13-.1,19.51-9.21-.02-18.42-.05-27.64-.07Z" fill="#c87c46" stroke-width="0"/>
      <path d="m101.02,634.89c0-8.29.1-16.59-.02-24.88-.04-2.79.84-3.15,3.02-1.8.11.07.21.15.33.19,6.97,2.09,9.8,6.5,8.65,13.9-.64,4.11-.1,8.4-.09,12.61-3.96,0-7.92-.02-11.88-.02Z" fill="#c67b45" stroke-width="0"/>
      <path d="m313.82,634.87c0-6.22.12-12.45-.06-18.67-.07-2.49.54-4.05,2.97-4.99,2.12-.82,4.12-1.98,6.11-3.1,1.94-1.09,2.61-.71,2.58,1.58-.09,8.38-.04,16.77-.04,25.15-3.85,0-7.71.02-11.56.03Z" fill="#c87c46" stroke-width="0"/>
      <path d="m309.19,634.87c0-5.31.03-10.63,0-15.94,0-1.31.47-2.93-1.57-3.31,1.35-.6,2.7-1.19,4.63-2.04,0,7.44,0,14.37,0,21.29-1.02,0-2.04,0-3.05,0Z" fill="#a65324" stroke-width="0"/>
      <path d="m119.25,615.68c-2.08.38-1.49,2.04-1.5,3.31-.05,5.29-.02,10.58-.02,15.86-1.05,0-2.1,0-3.15,0,0-5.47-.02-10.94-.02-16.41q0-4.96,4.69-2.76Z" fill="#a85525" stroke-width="0"/>
      <path d="m401.65,507.55c7.91-5.44,12.83-13.32,17.47-21.43.94-1.65,1.82-3.33,2.88-5.26,2.78,2.48,3.15,5.28,2.24,8.38-4.49,15.27-10.58,29.85-19.75,42.91-15.72,22.4-34.38,42.06-56.54,58.18-20.07,14.6-42.17,25.12-66,32.25-29.42,8.8-59.45,10.1-89.81,8.38-24.44-1.39-47.83-7.25-70.4-16.55-29.62-12.21-54.89-30.59-76.57-54.05-14.34-15.52-27.64-31.76-35.73-51.62-2.6-6.38-5.33-12.71-7.02-19.41-.76-2.99-.51-5.79,2.04-8.57,6.22,10.7,11.73,21.83,23.31,28.58,0-2.14-1.32-2.59-2.2-3.35-10.05-8.6-16.45-19.69-21.43-31.71-.67-1.61-1.46-3.49.38-4.9,1.57-1.2,3.38-3.32,5.27-2.26,1.7.96.49,3.49.65,5.23-.8.52-1.36.15-1.94-.07-.58-.23-1.26-.62-1.56.26-.26.76.39,1.13.97,1.41,2.18,1.06,4.37,2.09,6.55,3.14,41.38,20.01,85.45,30.98,130.43,39.02,20.6,3.68,41.39,5.86,62.14,8.29,11.79,1.38,23.41-1.27,35.02-2.59,36.41-4.15,72.31-11.14,107.62-21.03,23.41-6.56,45.8-15.76,67.73-26.16.84-.4,2.05-.54,2.17-1.88-.47-1.91-3.59,1.69-3.36-1.59.1-1.36-.57-2.98.59-4,.84-.74,1.96-.02,2.8.56,1.52,1.04,3.75,1.59,3.48,4.04-.15,1.37-.6,2.76-1.17,4.02-5.25,11.74-11.57,22.73-21.79,30.98-.17.41-.43.93.08,1.18.49.25,1.11.31,1.42-.39Z" fill="#8269b2" stroke-width="0"/>
      <path d="m213.43,433.62c65.47,0,130.94.03,196.41-.08,3.69,0,5.08.62,4.95,4.73-.34,10.71-.22,21.44-.04,32.16.05,2.8-.92,4.2-3.45,5.06-2.04.69-4.01,1.65-5.94,2.63-4.86,2.47-9.87,3.44-15.42,3.44-119.46-.12-238.93-.08-358.39-.07-4.55,0-8.04-3.11-12.17-4.2-6.06-1.58-7.9-5.04-7.5-11.26.61-9.53.25-19.14.11-28.71-.04-2.67.41-3.78,3.49-3.77,44.54.1,89.09.06,133.63.06,21.44,0,42.88,0,64.31,0,0,0,0,0,0,.01Z" fill="#d8935b" stroke-width="0"/>
      <path d="m110.14,329.32c-11.25,6.83-21.77,14.58-31,24.03-2.48,2.54-5.71,4.35-9.04,5.66-9.36,3.69-12.89,10.96-12.99,20.47-.01,1.28,0,2.55.04,3.83.01.35.17.69.35,1.41,1.32-4.35,1.24-8.59,2.61-12.59,1.68-4.9,4.55-8.54,9.29-10.52,6.35-2.66,11.71-6.65,16.45-11.58,7.05-7.33,15.29-12.99,24.76-17.66.72,3.41.07,6.62-.21,9.82-1.11,12.58-2.06,25.15.33,37.69.65,3.41,1.76,6.65,3.71,9.56,5.17,7.72,10.23,15.53,16.27,22.63.85.92.5,1.93.09,2.85-2.9,6.56-6.45,12.62-13.07,16.18-12.63.04-25.27.03-37.9.16-2.17.02-3.27-.81-3.95-2.73-1.21-3.43-2.52-6.82-3.87-10.46-1.58,1.06-1.12,2.24-.83,3.23.65,2.2,1.56,4.33,2.12,6.55.26,1.04,2.41,2.58-.03,3.23-1.77.47-4.04.88-4.87-2.09-2.49-8.96-3.65-17.97-1.62-27.18q.51-2.33-.21-4.94c-2.16,2.7-2.2,5.81-2.42,8.7-.58,7.79-.43,15.57,2.08,23.09.72,2.15.09,2.65-1.99,2.6-4.46-.11-8.93-.09-13.4,0-1.94.04-2.95-.55-2.54-2.64.69-3.49.13-6.9-.99-10.17-3.84-11.2-2.2-22.76-2.29-34.18-.04-5.31-.07-10.42-3.04-15.08-1.29-2.03-.76-4.03.2-6.16,10.28-22.73,31.17-27.49,48.74-25.46.33.04.68-.12,1.08-.2-5.99-5.2-22.72-2.24-38.24,6.77-1.51-4.1-4.53-7.15-7.2-10.45-3.01-3.71-3.08-6.65.44-9.65,4.94-4.22,10.6-6.53,17.26-7.37,12.77-1.6,24.15,2.55,35.56,7.1,2.13.85,4.28,1.65,6.42,2.48,1.77.44,4.6-.45,3.89,3.11Z" fill="#40638d" stroke-width="0"/>
      <path d="m320.71,239.48c5.69,2.54,11.67,4.59,16.98,7.77,4.87,2.92,4.5,8.43,4.16,13.45-.08,1.24-.76,2.44-.04,4.23,3.04-4.49,1.96-8.94,1.43-13.42-.19-1.64-3.31-3.42-.04-5.12,3.73-1.94,7.42-1.59,9.29,1.24,1.32,2,2.44,4.22,3.24,6.48,3.59,10.12,6.36,20.43,6.47,31.28q1.63-2.11,1.55-10.12c3.43,2.22,5.54,5.31,7.35,8.58,7.3,13.26,7.35,32.92-4.86,45.58-3.09,3.2-5.76,6.81-8.57,10.27-1.42,1.75-2.73,3.59-3.19,6.84,4.8-5.5,9.07-10.32,13.25-15.22,4.14-4.85,7.42-10.22,9.79-16.31,3.76,9.36,2.38,18.56-.37,27.77-2.74,9.16-6.71,17.75-11.64,25.97,6.36-4.46,7.98-11.89,11.41-18.14,5.94,8.48,7.11,17.75,4.65,27.74-1.81,7.35-3.25,14.8-4.67,22.24,2.99-5.08,4.36-10.71,5.9-16.34,3.08,11.22,2.8,22.56,1.73,33.9-.4,4.29-3.04,7.78-5.1,11.44-.73,1.3-1.75,1.65-3.15,1.64-7.15-.04-14.29-.08-21.44.02-2.15.03-2.73-.73-2.89-2.86-.35-4.62.53-7.89,4.96-10.76,6.06-3.91,10.99-9.4,15.39-15.3-6.63,5.55-11.96,12.66-20.1,17.14v-35.91c1.37-.45,1.54,1.28,2.79,1.19-.08-.39-.03-.84-.23-1.02-2.4-2.15-2.91-4.85-2.78-7.96.2-4.97.03-9.95.13-14.93.09-4.16-.46-8.23-2.41-11.87-1.63-3.04-1.14-5.32.82-7.98,2.64-3.58,5.32-7.19,7.06-11.34.28-.68.77-1.36.18-2.57-3.44,3.91-5.88,8.3-8.59,12.45-1.62,2.49-2.02,2.76-4.73.47-8.31-7.04-5.25-16.05-5.39-24.55-.03-1.58,1.4-2.67,2.25-3.91,4.98-7.25,10.21-14.33,14.04-22.31,1.15-2.39,1.78-4.75,1.09-8.07-4.09,11.4-10.75,20.62-17.41,29.91-2.66-4.65-3.77-13.72-2.55-18.94,1.32-5.66,3.25-11.24,2.34-18.1-1.12,4.2-2.02,7.59-2.97,11.17-1.84-1.32-3.28-2.83-5.52-2.86-1.6-.02-2.05-1.15-2.11-2.61-.13-2.8-.36-5.59-.57-8.39-.24-3.26-1.95-4.67-5.09-3.77-6.73,1.9-13.66,3.2-19.75,7-3.22,2.01-6.84,2.68-10.65,2.45-1.93-.12-3.18-.37-1.5-2.58,1.61-2.12,3.09-4.35,4.62-6.53,5.29-5.78,10.73-11.41,17.33-15.74,4.01-2.64,6.68-6.13,7.26-11.02.08-.64.31-1.22.84-1.64Z" fill="#40638d" stroke-width="0"/>
      <path d="m141.39,232.71c.84-4.09,1.84-8.1,1.88-12.36.05-6.27-1.84-11.75-5.37-16.77-4.03-5.73-7.9-11.55-10.53-18.09-.42-1.05-1.22-2.07-.71-3.25,3.37-7.84,3.07-16.15,3.23-24.41-.71-1.26.45-2.25.49-3.41.24-2.07-.15-4.18.3-6.24.58-2.01,2.26-2.24,3.95-2.33,2.83-.15,5.51-.91,8.17-1.83,12.66-4.39,25.58-5.47,38.79-3.05,6.39,1.17,12.8,2.27,19.09,3.93,2.7.71,5.46,1.39,7.52,3.51h-.03c.49,2.86.5,5.73,0,8.6.27,3.36-1.11,4.86-4.6,5.53-3.86.74-6.5,1.26-9.83-2.37-4.67-5.09-11.74-6.39-18.56-6.95-10.49-.86-20.58.6-29.93,5.83-1.19.66-2.79,2.31-4.02.77-1.45-1.81.28-3.41,1.58-4.53,4.38-3.76,9.81-5.49,15.26-6.66,10.07-2.16,20.05-1.1,29.71,2.41,3.5,1.27,6.44,3.56,9.46,6.52.03-2.8-1.12-4.24-2.97-5.36-14.03-8.42-28.69-8.72-43.76-3.39-3.24,1.14-6.38,2.61-9.19,4.65-3.25,2.36-3.68,5.31-1.15,8.47,1.62,2.02,2.7,3.87-.3,5.67-1.43.86-.05,1.52.46,1.97,2.5,2.21,5.33,3.9,8.4,5.21,7.37,3.16,15,4.91,23.06,4.5,1.47-.08,2.95-.01,4.55-.01-.68,3.56-3.08,3.89-5.78,3.96-11.74.33-22.17-2.81-30.73-11.66,1.46,6.32,11.84,12.21,23.76,13.79,1.71.8,3.76-.41,5.91,1.13-5.78,3.76-11.92,2.44-17.06,2.6,4.67.34,10.07.5,15.33-1.29.92-.31,2.11-.23,2.19,1.3-2.12,1.61-4.24,3.22-6.99,5.3,2.88-.29,5.04-.77,6.58-2.36,1.66-1.72,2.74-1.72,3.61.84,5.31-14.95,14.34-25.19,30.35-27.71.48,1.07-.19,1.77-.94,2.19-6.85,3.84-5.97,10.18-5.34,16.41.13,1.24.59,2.45.76,3.71-3.22,2.85-7.56,4.32-10.64,8.86,4.61-2.56,8.43-4.68,12.24-6.8,1.84,2.8,1.79,6.22,2.99,9.25,1.53,3.86,2.63,7.9,4.14,11.78-1.92,1.66-4.9,2.08-6.09,5.23,2.83-.82,4.69-3.15,7.48-3.02,1.79,4.99,2.02,10.26,2.58,15.44.29,2.64.46,5.23,1.45,7.71-1.07.49-2.13.98-3.2,1.47-.55,1.36-1.94,1.51-3.01,2.15,1.42-.8,3.06-.9,4.58-1.37.48-.01.96-.03,1.44-.04.52,3.23,1.08,6.45,1.58,9.68.34,2.23,1.02,4.11,2.48,5.76-.77.57-1.53,1.14-2.8,2.09,2.05-.25,3.45-.42,4.85-.59.15,2.41,2.17,3.18,3.76,4.34,1.22.89,2.77,1.23,3.8,2.4-.46,1.55-.91,3.11-1.56,5.3,1.94-2.58,3.35-4.63,4.94-6.54,2.18-2.62,5.16-2.57,8.07-1.86,1.79.43,3.19,1.5,2.8,3.85-.29,1.77.1,3.49,1.19,4.93,1.03-.14.68-.78.64-1.17-.39-3.57-.23-6,4.7-6.36,5.88-.43,9.97-8.3,8.87-15.68-.33-2.22-1.19-4.36-1.97-7.12,7.91,2.79,10.05-2.49,12.04-8.1.59-1.66,1.53-3.21,2.36-4.78.66-1.24,1.34-2.7,2.99-2.58,1.94.14,2.26,1.93,2.54,3.38,1.3,6.63.29,13.23-.86,19.71-1.81,10.14-6.31,19.03-13.91,26.18-5.22,3.93-11.43,5.08-17.65,5.55-10.49.79-20.94.48-30.58-4.67-2.99-.89-5.13-3.48-7.98-4.39-15.53-4.92-16.96-18.28-18.72-31.26-.94-6.92.41-14-.56-20.98-.59-4.24-1.79-8.17-5.25-11.76-.08,3.13,2.27,5.16,1.85,8.15-2.38-2.13-4.87-3.75-7.92-2.54-2.99,1.18-4.4,3.77-4.85,6.83-.26,1.76-1.05,2.13-2.59,1.49-3.17-1.31-6.42-2.47-9.52-3.94-2.08-.98-1.98-1.3.26-4.43-3.63-.28-7.66,2.66-8.16,5.96-.16,1.06-.05,1.33,1.17.9,1.3-.46,1.22.49,1.51,1.02,2.47,4.53,5.84,8.29,9.96,11.37,1.84,1.37.94,2.38.01,3.78-1.65,2.48-5.04,3.5-5.64,6.81-.53.45-1.2.65-1.76.32-3.61-2.05-7.74-3.24-10.63-6.47Z" fill="#8269b2" stroke-width="0"/>
      <path d="m136.03,16.52c6.57-3.88,13.81-5.81,21.23-7.01,14.95-2.42,29.73-6,44.89-7.11,7.97-.58,15.78,0,23.34,2.8,8.54,3.16,16.55,11.64,11.71,24.06-3.14,8.06-4.65,16.36-4.82,24.96-.01.59-.23,1.18-.47,2.32-1.98-2.94-2.72-5.98-5.21-7.98,1.43,3.1,2.89,6.18,4.27,9.3.62,1.41.7,2.35-1.51,2.07-19.65-2.47-39.17-.98-58.64,2.03-.75.12-1.52.06-2.28.09-1.14.44-2.35.34-3.36-.11-6.82-3.04-13.9-5.62-18.68-11.95-2.89-3.83-5.64-7.87-10.22-10.05-1.59-.76-2.07-2.32-1.68-3.9,1.47-5.99,1.99-11.99.89-18.1-.09-.5.29-.96.54-1.4Z" fill="#fefefe" stroke-width="0"/>
      <path d="m287.1,278.6c7.6,1.05,14.59-.38,21.21-4.46,4.37-2.69,9.76-2.79,14.55-4.52,1.18-.43,1.99.16,2.31,1.33.2.73.25,1.51.36,2.26q1.2,8.36-7.16,8.61c-7.45.22-9.51,2.99-7.31,10.2.58,1.9.08,3.5-.36,5.21-.73,2.84-1.81,5.64-2.07,8.52-.31,3.42-1.92,4.84-5.14,5.43-3.37.62-6.65,1.73-9.97,2.62-.85.23-2.03.36-1.9,1.47.19,1.55,1.54.99,2.44.85,3.39-.54,6.81-1.01,10.14-1.84,2.39-.6,2.87.2,2.88,2.38.01,3.43.21,6.87.48,10.3.27,3.5-.59,6.49-3.06,9.09-7.78,8.16-11.09,17.69-10.78,29.17.56,20.65.08,41.32.2,61.99.02,3.13-.75,4.25-4.01,4.09-5.6-.28-11.22-.21-16.83-.1-2.06.04-2.95-.7-3.35-2.65-1.36-6.54-3.8-12.67-7.21-18.41-.68-1.15-.85-2.37-.87-3.67-.12-10.46.51-20.89,1.59-31.29.5-9.25,1.64-18.43,2.75-27.61.7-5.84.89-11.69.75-17.55-.11-4.69,2.41-8.28,5.01-11.72,2.53-3.35,5.11-6.69,7.95-9.79,2.21-2.41,3.12-5.15,3.12-8.34,0-5.61-.16-11.22.09-16.82.11-2.53.31-5.39,4.2-4.76Z" fill="#40638d" stroke-width="0"/>
      <path d="m390.69,484.19c-8.39,3.92-16.35,6.17-23.96,9.32-12.08,4.99-24.66,3-37.07,3.05-3.57.01-7.13.22-10.69.22-70.46-.04-140.93-.03-211.39-.03-10.58,0-21.17-.02-31.75.04-3.87.02-7.58-.6-11.26-1.82-9.44-3.12-18.76-6.54-28.98-10.78h355.09Z" fill="#ac5626" stroke-width="0"/>
      <path d="m85.52,316.24c-7.56-1.91-15.14-3.08-22.96-1.65-3.79.69-7.47,1.63-10.78,3.61-1.78,1.06-2.44.53-2.67-1.33-.23-1.91-.29-3.77.22-5.67,1.32-4.91,2.51-9.86,3.85-14.77,1.42-5.23,1.58-10.35.64-15.8-2.33-13.55,2.28-28.26,15.46-36.78,3.31-2.14,6.64-.95,9.76.44,2.06.92,3.86,2.42,5.78,3.66,7.2,5.59,14.27,11.33,21.36,17.05,3.99,3.23,8.46,5.53,13.14,7.5,5.03,4.68,10.91,8.35,15.71,13.31,2.89,2.98,2.43,4.68-1.61,5.8-3.92,1.09-7.88,2.11-11.96,2.35-3.6.22-6.66.85-6.03,6.13-12.67-11.22-20.88-24.93-28.93-38.77.46,6.84,9.79,20.77,25.96,39.39,1.74,5.25,1.51,10.54.34,15.85-1.09,1.2-2.03.66-2.84-.33-5.94-7.27-13.88-11.19-20.2-12.94,3.17.53,8.18,3.19,12.85,6.55,1.32.95,2.86,1.76,3.07,3.67-.71,1.34-1.93,1.27-3.17,1.15-7.9-3.81-15.55-8.24-24.09-10.6-4.27-1.18-8.53-2.55-12.22-2.01,4.49-.35,9.43,1.37,14.39,2.91,2.8.87,5.5,2.04,8.24,3.08,1.32.5,2.52,1.26,3.08,2.68-1.33,3.25-4.42,1.08-6.46,2.14q1.18,2.1.09,3.38Z" fill="#40638d" stroke-width="0"/>
      <path d="m122.27,174.49c1.32,10.33,6.06,19.23,12.02,27.47,5.07,7.01,7.7,14.3,6.55,23.15-.81,6.27-5.06,9.88-8.53,14.77-2.4-6.75-3.12-13.59-7.84-18.84,1.61,5.64,3.22,11.28,4.83,16.92,1.09,8.83-2.9,13.34-11.52,12.54-7.45-.69-14.34-3.13-20.18-8.02-6.23-3.18-12.38-6.47-16.81-12.2.39.99,1.21,1.71,1.39,2.77,0,1.23-.7,1.72-1.84,1.77-2.83-.48-3.34-3.18-4.78-4.99-3.87-6.01-5.81-12.7-6.91-19.68-.99-6.28.74-11.93,4.54-16.87,5.02-6.53,11.76-10.75,19.41-13.62,8.19-1.17,16.03-3.73,23.94-5.99,1.98-.57,4.17-1.79,5.75.82Z" fill="#a38dce" stroke-width="0"/>
      <path d="m81.66,499.26h263.53c-13.55,4.6-27.55,7.17-41.31,10.68-45.61,11.63-92.06,7.08-138.25,7.54-28.3-4.46-56.4-9.84-83.98-18.22Z" fill="#ac5726" stroke-width="0"/>
      <path d="m315.83,292.07c-3.27-.12-3.74-2.06-3.7-4.45.04-2.62,2.03-3.14,3.9-3.37,4.57-.56,9.18-.52,13.74-.02,1.83.2,3.95.65,4,3.28.05,2.36-.53,4.29-4.34,4.41,2.27,1.11,2.81,2.37,3.25,3.88,3,10.23,4.89,20.54,3.58,31.29-.46,3.75.52,7.22,3.35,10.17,4.35,4.54,7.93,9.65,9.54,15.89.19.74.47,1.46.59,2.21.89,5.6.39,6.07-4.88,4.61-11.08-3.08-22.12-3-33.17.17-2.46.71-3.38,1.92-3.37,4.6.11,19.4.12,38.8-.03,58.2-.02,3.07,1.13,3.54,3.8,3.51,11.23-.11,22.46-.07,33.69.02,1.63.01,4.06-1.08,4.15,2.27.09,3.31-2.24,2.47-3.96,2.47-15.31.05-30.63-.05-45.94.1-3.17.03-4.11-.85-4.08-4.06.15-19.65.14-39.31.04-58.96-.02-4.96-.51-9.94.68-14.8,1.52-6.23,4.87-11.5,9.36-15.99,2.45-2.45,3.51-5.17,3.29-8.58-.7-11.04.3-21.87,3.61-32.49.55-1.76.95-3.29,2.9-4.34Z" fill="#904a16" stroke-width="0"/>
      <path d="m196.7,311.66c-.95,1.71-2.76,1.87-4.32,1.97-5.17.33-10.3.76-15.52-.35-3.74-.8-6.86,1.43-9.61,4.06,5.12-2.98,10.46-1.13,15.68-1.02,4.47.1,8.9-.07,13.25-1.23.97-.26,1.95-.78,2.76.32.62.95.4,1.85-.16,2.74-1.54,1.18-.9,3.3-2.02,4.66-4.28,2.47-8.87,1.45-13.29.9-4.52-.56-8.57-.2-11.96,3.12.58,1.34-3.64-1.52-1.26,1.45.38.47.7,1.12.15,1.7-.52.54-1.19.39-1.75.09-2.7-1.46-4.88-3.49-6.58-6.08,1.3,2.83,4.46,4.03,5.87,6.73-.54,2.38-1.85,3.68-4.45,3.12-3.12-1.17-5.71-3.04-7.93-6.18,1.55,2.89,3.67,4.46,6.02,5.78,1.93,1.05,1.67,2.26.3,3.61-3.91,3.85-14.33,4.49-18.64.93-5.21-4.29-7.1-10.41-8.63-16.65-.24-.99.15-2.02.72-2.91,1.52-2.68,1.5-5.62,1.38-8.55-.43-10.76,1.27-21.07,6.4-30.67.29-.55.63-1.07,1.18-2,1.21,4.07,1.59,8.04,4.95,11.62-1.27-5.99-3.65-11.1-1.51-17.54,2.16,9.34,8.7,13.38,15.62,16.77,5.18,2.54,9.99-.58,11.15-6.67,1.07-5.61,1.23-5.96,6.44-3.69,5.64,2.46,12.17,3.01,16.84,7.64.52.51,1.34.73,2.04,1.03q6.07,2.65,4.28,9.12c-1.47,2.67-3.87,1.76-5.99,1.42-4.42-.7-8.7-2.04-13.1-2.85-4.84-1.74-9.38,1.66-14.59.45,1.2,1.42,2.34.79,3.3,1.03.72.18,2.36-.63,1.36,1.41-.58,1.19.57.79.98.62,7.9-3.29,14.44,1.57,21.46,3.52.46.13.93.19,1.4.28,2.04.55,1.86,2.25,1.58,3.64-.52,2.58-1.36,5.1-3.8,6.64Z" fill="#8269b2" stroke-width="0"/>
      <path d="m208.2,148.39c-8.88-3.04-18.06-4.71-27.27-6.37-13.17-2.37-25.94-1.11-38.47,3.29-2.65.93-5.29,1.75-8.14,1.61-1.3-.06-2.63-.1-2.89,1.67-1.81-.31-1.83-1.93-2.2-3.19-.56-1.9-1.48-3.58-2.64-5.15,3.27,4.45,3.46,9.91,4.86,14.97-.38.95-1.59,1.4-1.56,2.59-.98-4.21-.84-8.71-3.44-12.91-.13,1.16-.22,1.97-.3,2.77-2.54-.66-3.63.27-3.71,2.94-.03,1.16.69,3.33-1.95,3.07-1.09-1.39-.37-3.25-1.24-4.68-2.05-1.36-3.58.49-5.3.9-4.47,1.07-8.89,2.26-13.11-.72,3.65-2.07,7.29-4.14,10.94-6.2,4.74-2.68,8.73-6.19,11.61-10.83,1.42-2.3,3.08-3.28,5.95-2.98,8.32.86,16.64,1.95,25.13,1.94-5.45,3-11.88,4.3-15.87,9.86,19.01-11.25,38.63-13.25,59.1-4.28-3.93-4.18-9.25-5.18-14.86-7.27,26.21-2.67,50.17-10.58,73.42-20.97,1.12-.5,2.16-.96,3.15.05,7.01,7.1,16.51,9.33,25.29,12.96.58.24,1.12.56,1.68.85-5.17,3.08-10.76,1.96-16.28,1.67-1.45,2.96.27,6.24-1.21,9.88-2.34-7.08-3.68-14.39-12.01-18.01,2.19,3.68,5.54,5.38,6.34,8.86-.62.84-.89,2.04-2.22,2.17-6.01-6.7-13.8-8.41-22.23-7.32-8.61,1.11-16.63,4.08-23.38,9.89,5.39-2.09,10.69-4.5,16.2-6.2,7.42-2.28,14.98-2.94,22.32.63,1.85.9,3.5,2.06,4.55,3.91-3.32,1.98-6.96.83-10.44.97-8.77.36-16.83,2.64-23.8,8.15-3.81,3.01-7.01,6.66-10.43,10.09-1.6,1.6-1.48,3.67-1.62,5.72-.1,1.51.55,3.42-1.65,4.13-.22-4.94.45-9.93-1.39-14.75-.84-2.2-1.86-4.14-4.26-5.88,1.17,4.38,3.47,7.97,3.33,12.16Z" fill="#725a9f" stroke-width="0"/>
      <path d="m100.85,149.2c5.99,1.54,11.73.93,17.16-2.06,1.94-1.07,2.06.15,2.13,1.55.08,7.81-4.44,13.27-9.63,18.22-7.56,7.21-17.22,11.22-26.03,16.51-4.37,2.62-8.45,5.63-11.46,9.9-3.42,4.85-5.2,10-4.4,16.09.99,7.56,2.89,14.7,7.43,20.95.82,1.57,1.91,2.94,3.23,4.11.31.28.93,1.48.86-.19.86-.06,1.47-.39,1.55-1.35,1.53-.77,1.92.74,2.63,1.41,2.81,2.65,5.92,4.81,9.44,6.39,1.29.58,2.55,1.24,3.98.45,7.03,6.01,15.24,8.79,24.39,8.21,4.45-.29,6.79-4.55,7.17-11.42,1.18,4.83,1.86,9.67.96,14.67-.55,3.03-2.31,4.32-5.15,4.71-3.35.45-6.62-.1-9.85-.84-15.28-3.49-29.96-8.35-41.7-19.41-19.61-18.47-20.38-47.66-1.98-67.49,8.3-8.95,18.45-15.14,29.28-20.39Z" fill="#8269b2" stroke-width="0"/>
      <path d="m270.11,123.99c.6-.83,1.5-.86,2.38-.82,4.66.24,9.28-.22,13.89-.85,11.87,3.57,20.1,11.7,26.77,21.64,8.07,12.03,12.39,25.6,15.88,39.51,1.42,5.68,2.87,11.34,3.59,17.17.52,4.24.61,8.43-.83,12.47-2.56,7.19-9.52,11.09-17.75,10.05-4.06-.51-8.05-1.36-11.68-3.38-2.88-1.6-5.91-2.01-9.21-1.79-4.95.34-9.94.53-14.86-.54-6.62-1.44-8.8-5.38-6.48-11.77.65-1.78,1.39-3.52,2.09-5.28,2.85,2.92,6.3,4.41,10.37,4.84,2.52.27,4.81,1.57,6.95,2.91,1.97,1.23,4.05,2.03,6.29,2.5,4.77,3.5,10.12,5.68,15.87,6.98,2.62.59,5.02.11,7.35-1.07,1.14-.58,1.92-1.28,1.1-2.66.97-4.33,3.93-7.97,4.32-12.5,1.45-3.46,1.13-7.01.28-10.5-2.08-8.54-4.62-16.9-8.27-24.98-4.82-10.65-12.89-17.02-23.77-20.55-7.11-2.3-13.6-5.79-18.33-11.88,4.51,6.5,11.28,9.71,18.39,12.13,9,3.06,16.65,7.64,21.28,16.28.82,1.52,2.17,2.94,1.3,4.93-1.72.58-2.67-.7-3.53-1.69-3.09-3.55-7.08-5.29-11.57-6.23-2.74-.57-5.47-1.28-8.13-2.17-1.76-.58-3.49-.78-5.14.32-.82.19-1.43-.18-1.99-.72-2.85-3.2-4.04-3.48-7.36-1.73-1.99-5.65-4.31-11.14-8.01-15.93-.62-.8-1.03-1.65-.58-2.81,1.58-4.03.86-7.99-.62-11.89Z" fill="#8369b2" stroke-width="0"/>
      <path d="m277.83,103.29c-.75,1.96-2.36,3.24-3.75,4.68-5.4,5.59-8.13,5.35-12.77-1.18.92-.65,1.83-1.3,2.75-1.95.21-.54.52-1.02.95-1.41-.88.11-1.79.13-2.62.51-16.33,6.49-32.37,13.78-49.53,17.99-27.41,6.72-55.1,8.85-83.15,5.11-3.41-.46-6.78-1.21-10.24-1.15-1.38.02-2.75.36-4.73.64,3.34.7,6.04,1.27,8.74,1.83-3.78,8.49-11.2,12.26-18.57,16.09-.88.46-1.75.43-2.52-.17-5.9-4.54-11.53-9.3-13.13-17.14.61-3.58,2.86-5.69,6.02-7.28,4.55-2.29,8.99-4.9,14.21-5.04,4.35-.12,8.79-.36,12.91,1.62.61.68-1.15,1.17-.4,1.29,4.98.81,9.51,2.82,14.03,4.97-.77-.63-2.49-.7-1.09-2.31,1.99-.88,4.01-.49,6.03-.19,8.58,1.27,17.25,1.7,25.87,2.62,3.59.38,7.15-.17,10.66-.76,15.1-2.52,30.27-4.81,44.69-10.24,8.03-3.02,15.52-7.18,22.75-11.75,5.41-3.42,11.04-6.42,16.84-9.06,3.93-1.79,7.83-2.61,11.97.15,4.69,3.13,5.87,7.04,4.06,12.14Z" fill="#f1eccd" stroke-width="0"/>
      <path d="m204.24,406.58c-.57-3.02-1.14-6.04-1.7-9.05,3.62-2.43,7.95-1.55,11.87-2.6,3.76-.15,7.51-.44,11.24-.94,3.32-.2,6.59-1.02,9.93-.82,3.63-.29,7.23-.81,10.83-1.26,1.38-.17,2.76-.26,4.1.2,1.95.96,1.97,2.44,1.05,4.12-.77,1.4-.85,2.84-.63,4.41,1.3,9.4,4.15,18.27,8.88,26.51.68,1.18,1.68,2.3,1.1,3.85-17.6,0-35.19.01-52.79.02-1.6-1.86-1.61-4.2-1.89-6.45-.73-5.99-1.27-12-2-17.99Z" fill="#fefefe" stroke-width="0"/>
      <path d="m297.76,211.28c-2.23.15-4.15-.44-6.08-1.7-3.08-2-6.39-3.41-10.22-3.84-3.23-.36-6.58-1.4-7.56-5.34,3.53-7.22,4.49-15.13,6.18-22.85.85-2.84.08-6.01,2.06-8.65,1.58-2.11,3.26-3.53,6.05-2.62,1.49.85,1.84,2.38,2.14,3.88,1.53,7.62,4.91,14.4,9.01,20.43-3.73-5.89-7.47-12.22-8.57-19.72.36-2.62,2.31-2.95,4.27-2.57,7,1.38,13.68,3.88,20.33,6.39,1.18.45,2.16,1.42,2.83,2.5,5.56,8.9,8.13,18.51,6.46,29.01-.39,2.42-1.58,4.56-3.44,6.24-2.87,2.58-6.01,2.68-9.25.35-5.8-2.17-11.53-4.49-16.29-8.64,2.37,2.28,5.27,3.76,8.1,5.34.86.48,2.02.62,1.95,2-.57,1.52-1.82,1.93-3.26,2.06-1.87-.12-3.13-1.52-4.7-2.27Z" fill="#a38dce" stroke-width="0"/>
      <path d="m277.83,103.29c-.23-.43-.68-.88-.64-1.29.86-9.51-5.78-14.16-14.66-10.26-7.83,3.44-15.08,7.96-22.34,12.4-12.77,7.81-26.63,12.48-41.24,15.15-10.33,1.89-20.55,4.96-31.13,4.51-9.21-.39-18.44-1.21-27.58-2.68-1.87-.3-3.8-.17-5.71-.24-4.52.07-8.43-1.74-12.21-3.95-7.11-1.33-14.22-2.24-21.06,1.07-4.6,2.22-9.45,4.17-11.99,9.13,0,0,0-.02,0-.02-.37-2.62-.47-5.24.06-7.85,2.36-5.94,7.49-8.02,13.13-9.17,11.43-2.32,22.85-1.07,34.23.44,19.27,2.56,38.58,3.87,57.92,1.19,17.93-2.48,35.02-7.69,50.61-17.24,6.64-4.06,13.54-7.62,21.22-9.35,1.24-.28,2.51-.48,3.77-.61,8.88-.88,14.02,6.14,10.49,14.31-.71,1.63-1.52,3.22-2.86,4.46Z" fill="#fefefe" stroke-width="0"/>
      <path d="m130.93,408.84c-5.62-7.22-11.1-14.54-15.52-22.59-2.18-3.97-3.41-8.26-3.66-12.76-.81-14.29.27-28.53,1.55-42.75.1-1.11.34-2.27,1.21-3.14,4-3.3,9.14-3.9,13.76-5.71,1.05-.41,1.93.21,2.51,1.17.1,3.28.37,6.57.27,9.85-.3,9.66,1.95,18.58,7.17,26.74.68,1.06,1.14,2.25,1.7,3.38,1.19,6.94-1.09,13.29-3.35,19.64-.37,2.88-2.54,5.29-2.19,8.36.05.36.05.72.03,1.08-.25,1.72-1.23,2.92-2.86,3.89.95-.37,1.75-.84,2.49,0,1.12,4.26-.46,8.24-1.31,12.28-.16.77-.95,1.17-1.79.55Z" fill="#fefefe" stroke-width="0"/>
      <path d="m196.78,348.51c-.22-5.57.18-11.18-1.05-16.67-.36-1.63.67-2.29,1.58-3.12,1.57-1.43,3.54-2.54,3.98-4.89.05-.12.17-.24.15-.34-.96-6.06,2.21-9.43,7.13-12.37,4.61-2.75,8.88-4.24,14.34-2.78,7.85,2.1,15.78,3.94,23.71,5.74,2.99.68,4.69,2.23,5.26,5.21.87,4.49,1.8,8.97,2.66,13.47.24,1.25.47,2.52-.4,3.67-4.1,2.26-8.67,1.85-13.09,2.36-5.13,0-10.09,1.77-15.25,1.51-5.25-.13-10.32,1.64-15.57,1.55-4.45-.35-8.32.39-10.46,5.02-.49,1.05-1.35,2.28-2.99,1.66Z" fill="#fefefe" stroke-width="0"/>
      <path d="m174.4,63.54c18.21-2.77,36.48-3.69,54.83-1.62,2.25.25,6.81,6.14,6.38,8.3-.19.97-1.07,1.01-1.73,1.27-2.61,1.03-5.26,1.95-7.86,3-2.23.9-3.45,1.99-.6,3.81,3.11,1.99,6.08,4.2,9.22,6.13,1.93,1.18,3.22,2.29,2.06,4.8-.52,1.12-.82,2.52-.69,3.73.5,4.62-2.53,5.97-6.04,7.3-6.21,2.34-12.56,4.23-18.87,6.24-2.63.84-4.68,1.01-5.36-2.43-.21-1.09-.91-2.1-1.42-3.12q-3.43-6.92,2.01-12.59c1.95-2.02,3.99-3.94,5.99-5.91,2.7-2.66,2.52-3.5-1.17-4.8-4.88-1.73-9.98-2.21-15.08-1.9-3.3.2-5.51-.81-7.24-3.61-1.4-2.26-3.32-4.2-4.83-6.41-1.86-2.71-3.4-2.26-4.71.34-.8,1.59-1.32,3.31-1.97,4.97-3.36-.36-3.76-3.33-4.75-5.63-.58-1.34.97-1.45,1.83-1.84Z" fill="#40638d" stroke-width="0"/>
      <path d="m261.01,126.88c.52-.95,1.23-1.7,2.22-2.17,3,8.65,8.2,16.3,11.67,24.64,6.64,15.97,3.73,32.02-2.22,47.67-1.04,2.74-2.25,5.4-3.38,8.1-1.9,3.86-4.63,7.11-7.63,10.14-1.04,1.05-2.12,2.25-3.89,1.41-2.01-1.24-1.89-5.51.18-5.48,2.82.04,2.02-1.64,2.06-2.71.13-3.66-1.19-6.63-4.82-8.51.5,3.22-5.58,8.43-8.25,7.27-1.53-.66-1.97-2.23-1.88-3.88.39-6.98.34-13.95-.83-21.21,4.07,1.24,7.44,3.8,11.91,3.74-3.36-1.92-6.43-3.66-9.5-5.41.46-2.37,2.41-1.4,3.6-1.33,4.27.26,8-1.08,10.7-2.66-3.58,2.46-8.57,2.9-13.73,2.56-.88-.06-2.14.06-2.22-.97-.13-1.59,1.66-.5,2.28-1.23,5.8-1.67,11.35-3.8,15.46-8.54,2.15-2.48,3.5-5.26,3.4-8.79-1.68.87-1.52,2.63-2.27,3.84-4.71,7.63-11.93,10.74-20.45,11.57-2.39.23-3.74-1.11-4.37-3.5,7.98-1.63,15.54-4.08,21.75-9.57,5.01-4.43,6.23-10.48,7.22-16.63.1-.6.12-1.51-.23-1.86-4.66-4.54-3.04-11.63-6.77-16.53Z" fill="#8268b2" stroke-width="0"/>
      <path d="m161.36,407.4c-3.55-7.67-2.45-11.72,4-16.55,4.17-3.13,8.15-6.53,12.04-10,3.37-3.01,4.48-6.67,3.55-11.36-1.61-8.13-4.02-15.81-9.57-22.14-1.41-1.61-.65-2.3.23-3.76,3.82-6.32,8.89-9.86,16.57-10.56,5.89-.54,5.71-1.29,6.28,5.08,1.1,12.35.42,24.71.43,37.06,0,6.64,1.18,12.85,3.92,18.86,2.25,4.93,2.89,10.24,3.1,15.61-1.77.57-2.83-.73-4.05-1.56-6.3-4.28-12.69-8.43-18.83-12.94-2.62-1.93-4.69-1.78-7.56-.16-5.13,2.88-7.65,7.54-10.09,12.42Z" fill="#305077" stroke-width="0"/>
      <path d="m136.03,16.52c1.68,6.4,1.51,12.75-.46,19.07-.42,1.36-.62,2.98,1.14,3.57,4.99,1.67,7.51,6.05,10.36,9.81,5.52,7.27,13.55,9.99,21.47,13.07-11.23,2.78-22.38,5.8-32.93,10.69-5.56,2.58-5.59,2.48-7.94-2.95-2.5-5.76-5.9-10.98-9.78-15.86-4.41-5.55-5.32-11.27-1.89-17.68,4.65-8.68,11.17-15.35,20.03-19.7Z" fill="#f1eccd" stroke-width="0"/>
      <path d="m161.36,407.4c.27-4.47,2.68-7.82,5.9-10.59,1.62-1.39,3.67-2.27,5.36-3.59,1.79-1.41,3.22-1.32,5.1-.02,8,5.56,16.1,10.98,24.17,16.45,1.08,6.19.69,12.44.87,18.67.06,2.15-.65,2.88-2.83,2.86-9.43-.09-18.86-.08-28.28,0-1.84.01-2.77-.66-3.32-2.37-2.28-7.15-4.64-14.27-6.97-21.4Z" fill="#40638d" stroke-width="0"/>
      <path d="m198.08,317.77c.95-.55.77-1.5.85-2.36,1.78,5.64.17,9.98-4.6,12.97-5.75,3.6-12.25,4.02-18.71,4.58-2.22.19-4.48.03-6.75.5,1.5,1.53,3.52.58,5.26,1.45-1.22,3.19-5.35,2.67-7.02,5.71,1.48-.21,2.68-.39,4.09-.59-7.6,10.77-15.24,11.78-24.6,4.65.68,4.89,8.22,7.77,16.66,6.17,0,2.25-1.07,4.09-1.77,6.02-2.66,7.31-5.64,14.48-9.29,21.36-2.19,4.13-2.27,4.18-7.63,4.81.8-2.49,1.55-4.87,2.32-7.23.94-2.87.46-5.3-1.4-7.84-9.88-13.49-14.23-28.57-12.44-45.31.19-1.79.87-3.14,2.26-4.19.75,6.98,2.94,13.36,8.06,18.38,3.76,3.69,14.89,3.11,18.42-.76,1.85-2.03-1.25-1.17-1.2-2.13.68-1.16,1.81-.64,2.78-.76,2.33.74,3.16-1.01,4.17-2.48,1.85.26,3.51-.79,5.26-.9-.77-.77-2.5-.94-2.24-2.72,2.98-5.3,7.82-5.11,12.89-4.43,4.35.58,8.73,1.13,13.04-.34,1.93-1.02.08-3.36,1.59-4.52Z" fill="#715a9f" stroke-width="0"/>
      <path d="m174.4,63.54c-2.13,1.19-.81,2.38-.06,3.66.83,1.41,1.37,3.02,2.98,3.81-.48,2.36-1.03,4.71-1.41,7.09-.25,1.59-1.22,1.89-2.6,2.22-4.7,1.11-9.39,2.3-14.01,3.69-3.6,1.08-3.87,2.54-1.32,5.41,2.4,2.71,5.39,4.68,8.54,6.36,1.79.96,1.98,1.92,1.07,3.63-1.56,2.92-2.88,5.97-3.52,9.25-.32,1.66-1.06,2.43-2.83,2.24-4.04-.43-8.11-.61-12.14-1.17-3.87-.53-4.95-4.46-7.47-6.66-2.9-2.53-3.76-5.03-.63-8.18,1.77-1.78,2.98-4.11,4.47-6.17,1.78-2.47,1.3-4-1.81-4.39-3.14-.39-6.37-.43-9.53-.21-2.68.19-3.18-1.62-3.88-3.36-.76-1.86-.04-3.23,1.72-4.07,13.51-6.43,27.53-11.22,42.43-13.15Z" fill="#305077" stroke-width="0"/>
      <path d="m349.76,416.49q.64,7.88-7.11,7.86c-9.7,0-19.4-.07-29.1.09-2.68.04-3.47-.76-3.46-3.44.1-18.38.09-36.76,0-55.15-.01-2.75.73-4.09,3.63-4.7,12.3-2.59,24.32-2.18,36.08,2.54.82,1.82.21,3.73.38,5.59-1.06,1.9-2.67.92-4,.63-10.39-2.28-18.33,1.63-24.58,9.7-1.96,2.53-3.33,5.39-2.94,8.77-1.01,2.16-2.56,4.02-3.01,6.49-1.02,5.69,1.35,9.57,6.21,12.23,1.13,1.36,2,2.92,3.19,4.23,5.46,5.99,12.19,7.66,19.97,5.95,1.57-.34,3.04-1.35,4.76-.78Z" fill="#8268b2" stroke-width="0"/>
      <path d="m254.03,336.04c-1.05-5.59-2.06-11.19-3.17-16.76-.44-2.2-1.33-3.52-4.1-4.06-8.56-1.67-17.03-3.85-25.48-6.07-3.41-.89-6.45-.91-9.36,1.28-1.31.99-2.73,1.86-4.17,2.65-3.74,2.05-6.82,4.44-5.82,9.43.08.38-.41.87-.63,1.31,0-1.02.08-2.04-.02-3.05-.36-3.92,1.45-6.52,3.64-9.86,5.21-7.91,12.26-14.65,16.05-24,4.24,6.2,10.25,10.32,16.25,14.46,6.19,4.27,12.87,7.21,20.43,7.82,1.58.13,2.35.35,2.61,2.29,2.24,16.48,1.71,33.02,1.24,49.56-.75,1.84.95,4.87-.88,5.51-2.27.8-3.53-2.22-5.2-3.63-.38-.32-.64-.77-.88-1.21-.71-1.84.62-3.1,1.34-4.52.68-1.35,1.6-2.57,2.47-4.16-2.04,1.88-2.23,4.99-5.03,5.81-1.58-.28-3.88,1.09-4.33-1.86.99-3.07,3.54-5.18,4.93-8.01.74-1.51,1.59-2.89.62-4.59-.04-1.06.55-1.88,1.02-2.76q1.97-3.69-1.54-5.59Z" fill="#f1eccd" stroke-width="0"/>
      <path d="m270.11,214.86c3.3,3.59,6.78,5.55,11.31,5.77,2.2.1,3.51,2.45,4.94,4,5.62,6.09,12.01,11.36,17.82,17.24,3.71,3.75,3.84,5.4.63,9.61-5.7,7.5-11.73,14.75-16.69,22.78-.2.32-.4.67-.69.91-.4.34-10.13-2.71-10.59-3.38-1.33-1.94-.29-3.63.72-5.28,1.88-3.08,3.17-6.42,3.85-9.92.53-2.7,1.12-5.65-1.82-7.62-1.53-1.03-.91-2.22-.17-3.29,1.58-2.31,3.25-4.56,4.88-6.83,1.65-2.3,1.54-4.48-.4-6.56-3.47-3.72-7.39-7.02-10.37-11.2-.41-.58-1.15-1.01-1.83-1.31-2.46-1.07-2.47-1.04-1.6-4.91Z" fill="#305077" stroke-width="0"/>
      <path d="m197.97,187.47c-4.89-6.55-2.69-17.03,4.34-20.91.5-.28.79-.93,1.18-1.41,11.95-2.79,22.77-.39,32.16,7.48,5.43,4.55,7.02,10.84,6.96,17.8-1.68-.1-2.46-1.23-3.42-1.98-9.73-7.51-20.43-8.55-31.81-4.73-3.2,1.07-6.28,2.49-9.41,3.75Z" fill="#8970b8" stroke-width="0"/>
      <path d="m279.39,254.91c-.08,3.83-1.68,7.21-3.54,10.35-1.7,2.87-1.88,5.62-1.34,8.75,1.62,9.25,3.42,18.48,4.04,27.89.21,3.19-.91,4.7-3.98,5.16-5.06.76-10.11.76-15.16-.03-4.21-4.32-7.17-9.35-8.69-15.21.09-.09.17-.26.26-.27q1.91-.15.96-1.55c-.06-1.03.34-1.83,1.17-2.42,2.02-.61,3.34.8,4.78,1.74,2.65,1.72,5.28,3.47,7.73,5.48-3.68-3.19-8.06-5.42-11.83-8.5-.21-1.55.62-2.71,1.6-3.7,7.74-7.73,14.11-16.56,20.51-25.37.84-1.15,1.5-2.79,3.48-2.33Z" fill="#ed454b" stroke-width="0"/>
      <path d="m130.93,408.84c2.66-1.1,1.23-3.61,1.57-5.35.48-2.44,2.07-4.96.66-7.61-.11-3.02,3.3-4.18,3.54-6.67-.7.93-.74,2.86-2.8,2.93-.03-.31-.06-.63-.08-.94-.08-1.93.88-3.56,1.56-5.27.4-1.02,1.21-2.01.03-3.03,2.77-6.33,3.56-13.11,4.51-19.85.63,1.09,1.07,2.38,1.94,3.23,4.55,4.47,3.67,9.3,1.2,14.33-2.5,5.1-3.75,10.77-7.7,15.82,3.69-.83,4.86-3.24,5.73-5.71,1.17-3.34,3.44-4.99,6.8-5.97,8.34-2.44,16.97-3.54,25.36-5.69.56-.14,1.21.05,2.14.11-1.12,2.44-3.15,3.61-4.94,4.86-8.94,6.29-16.45,14.03-23.25,22.53-.95,1.19-2.02,2.3-3.11,3.36-4.77,4.62-8.74,4.28-13.15-1.07Z" fill="#f1eccd" stroke-width="0"/>
      <path d="m139.21,235.97c-.52,4.21-2.66,7.94-2.55,12.26.08,2.98.78,4.52,4.12,4.34,3.47-.18,6.81.81,10.05,2.02,1.49.55,2.59,1.09.97,2.89-2.61,2.89-3.99,6.28-4.58,10.26-.34,2.31-2.56,4.3-3.77,6.52-1.59,2.9-3.09,5.87-4.52,8.86-.72,1.52-1.42,1.97-2.78.66-6.24-6.01-13.67-10.68-19.45-17.2-.85-.95-1.76-1.85-2.53-2.87-.89-1.17-1.41-2.6-.57-3.92.82-1.29,2.19-.35,3.15-.09,2.64.73,5.29.77,7.97.68,5.13-.17,7.99-2.87,8.35-8.01.15-2.16.26-4.36,0-6.5-.62-5.06,3.01-7.27,6.15-9.91Z" fill="#305077" stroke-width="0"/>
      <path d="m199.72,97.08c2.08,2.62,3.24,5.69,4.77,9.28-5.39.01-10.05-1.49-14.65-2.99-2.25-.74-3.99-.57-6.11.54-4.62,2.42-9.44,4.48-14.2,6.61-1.02.46-2.3,1.01-3.23.07-.79-.8-.09-1.92.16-2.87.79-2.98,2-5.82,3.6-8.41,1.41-2.3,1.09-3.61-1.34-4.77-3.11-1.49-5.96-3.41-8.47-5.83-1.8-1.74-1.53-2.6.9-3.16,4.21-.98,8.34-2.47,12.6-3.1,2.92-.43,4.14-1.6,4.33-4.38.08-1.11.55-2.2.84-3.29,6.23,8.1,12.96,15.72,20.8,22.31Z" fill="#fcf6dc" stroke-width="0"/>
      <path d="m212.13,235.91c-1.63-.31-2.51-1.53-2.38-2.96.62-6.84-2.42-13.36-1.65-20.19,9.63-6.01,21.99-4.78,29.97,2.82,1.61,1.54,1.92,2.93,1.33,5.04-1.51,5.38-4.41,9.98-7.59,14.45-.68.96-1.34,1.86-2.78,1.26-5.57-2.34-11.23-1.49-16.89-.42Z" fill="#a28ccd" stroke-width="0"/>
      <path d="m210.52,156.86c.19-.32.59-.68.54-.96-1.78-10.11,6.42-14.28,12.17-19.42,9.19-8.22,20.76-9.3,32.56-8.71.89.04,1.78.03,2.67.04,1.93,2.22,3.83,4.46,2.97,8.06-12.44-5.45-23.82-2.64-34.59,4.17-4.3,2.72-9.12,5.12-10.16,10.97,5.11-6.08,11.68-10.06,18.8-13.17,7.33-3.21,14.85-3.43,22.37-.73,4.84,1.73,7.22,4.6,8.19,9.77-7.68-8.75-16.74-7.31-25.7-4.13-8.81,3.12-16.77,7.67-20.46,17.08-.5,1.27-1.11,1.88-2.49,1.74-1.01-.1-2.04-.06-3.06-.07q-4.57-.01-3.81-4.63Z" fill="#8268b1" stroke-width="0"/>
      <path d="m169.52,177.25c-7.62-.16-15.01-1.69-21.96-5.29-2.95-1.53-3.59-3.88-3.73-6.9-.14-2.97,1.71-3.97,3.86-4.95,3.37-1.53,6.71-3.07,10.49-3.4,1.48-.13,2.27-.49,1.96,1.74-.69,4.97,2.89,8.82,7.94,9.06,4.79.22,8.4-3.43,7.74-8.69-.43-3.39.95-3.23,3.18-2.68,4.33,1.07,8.77,1.94,12.47,4.61,3.15,2.27,3.08,3.94-.15,6.01-3.55,2.27-6.99,4.66-10.07,7.56-3.29,3.09-7.57,2.54-11.72,2.93Z" fill="#fefefe" stroke-width="0"/>
      <path d="m229.25,151.34c3.36,6.14,5.66,7.51,10.4,6.38,5.28-1.26,7.62-6.19,4.86-10.84-1.41-2.38-.68-3.18,1.6-3.5,4.54-.63,9.11-1.51,13.45.86,4.45,2.43,5.85,7.87,3.16,12.14-5.06,8.01-18.85,14.16-28.11,11.87-4.24-1.04-8.14-3.49-12.15-5.39-1.78-.84-.75-2.34-.3-3.3,1.53-3.28,3.91-5.93,7.1-8.22Z" fill="#fefefe" stroke-width="0"/>
      <path d="m170.43,269.59c1.11,2.65,2.52,5.16,2.39,8.24-.14,3.32-.66,6.39-3.91,8.02-3.18,1.6-5.81.02-8.29-1.88.62-.53.92-1.17.76-2.02-.67-3.8.63-6.87,3.53-9.34-3,2.23-4.4,5.15-3.78,8.9.15.91.21,1.77-.46,2.52-6.23-3.23-10.54-7.7-11.02-15.24-.54-8.47,5.52-13.61,13.81-11.31,9.42,2.61,12.13,5.61,14.4,16.06-3.42.72-4.39-1.42-4.95-4.08-1.53-1.94-1.69-4.75-4.1-6.16,2.48,1.63,2.89,3.77,1.62,6.3Z" fill="#8268b2" stroke-width="0"/>
      <path d="m234.94,188.27c6.14,2.77,9.19,7.14,8,14.19-.69,4.1-.63,8.33-2,12.3-.3-.01-.47.03-.54-.03-8.89-8.77-19.35-9.05-30.49-5.63-1.99.65-2.49-.58-2.64-2.14-.23-2.44,1.18-4.01,2.94-5.42,6.26-5.01,13.36-8.73,20.06-13.06,1.5-.97,3.08-1.02,4.68-.21Z" fill="#a089cb" stroke-width="0"/>
      <path d="m287.1,278.6c-2.52.41-3.23,2.05-3.19,4.39.08,4.2-.47,8.47.13,12.58,1.06,7.33-2.22,12.68-6.76,17.71-1.7,1.88-3.49,3.71-4.92,5.79-2.74,3.98-4.93,8.01-4.62,13.32.67,11.43-1.29,22.72-3.31,33.92-.53,2.96.66,6.13-1.19,8.87.02-15.02,1.4-30.03.68-45.06-.28-5.83-.89-11.65-1.5-17.46-.26-2.52.56-3.36,3.12-3.34,3.66.03,7.35.47,11-.65,2.99-.92,4.46-2.46,4.26-5.75-.51-8.52-2.17-16.87-3.48-25.27-.15-.99-.78-2.23.1-2.87.8-.59,1.95.1,2.83.57,2.23,1.2,4.91,1.46,6.86,3.24Z" fill="#305077" stroke-width="0"/>
      <path d="m153.32,381.17c5.16-10.91,9.68-21.24,13.05-32.03.73-2.35,1.85-2.69,3.61-.53,5.17,6.31,7.59,13.72,8.94,21.58.5,2.94-.88,4.81-3.64,5.88-6.9,2.66-14.26,3.12-21.96,5.11Z" fill="#f0ebcd" stroke-width="0"/>
      <path d="m348.16,386.65c3.65,7.16,1.07,14.84,1.84,22.24.07.65-.17,1.25-.95,1.4-2.48-1.3-4.38-3.14-5.33-5.84-.2-1.16-.14-2.38-.84-3.43-.64-1.3-1.51-2.29-3.1-2.33-.57-.11-1.34-.77-1.67-.1-.43.88.57,1.38,1.17,1.6,2.71.99,4.5,2.62,4.58,5.68,0,.39-.16.72-.42,1-4.89,1.38-9.56,1.22-13.78-2,1.5-4.71-.45-9.74,1.35-14.46.4-1.06.44-2.58-1.12-3.24-2.27.01-4.13,1.1-6.03,2.15-1.04.57-1.89,1.87-3.38,1.08-.49-1.01-.12-1.88.41-2.74,4.01-2.71,7.56-5.79,10.33-9.93,2.14-3.2,7.77-3.39,10.75-1.05.72.57,1.71,1.62,1.2,2.16-2.02,2.18.72,1.11,1.05,1.52.54.66,1.45,1.08,1.77,1.94.43,1.14.88,2.52-1.28,1.92-1.2-.34-2.32-.19-3.42-.17,1.86-.02,3.95-.77,4.25,2.31-1.54,1.48-3.42.09-5.08.58-.72.21-1.7.18-1.72,1.16-.03.94.86,1.21,1.62,1.27,2.15.17,4.49.66,5.26-2.32.22-.75.68-1.25,1.47-1.4.63.04.96.41,1.08,1Z" fill="#8160c1" stroke-width="0"/>
      <path d="m234.94,188.27c-1.4-.02-2.79.05-4.01.86-6.81,4.55-14.08,8.4-20.57,13.45-2.94,2.28-3.07,4.54-.45,6.51-.88.89-2,1.26-3.2,1.47-.62-.14-1.33-.23-1.53-.95-1.86-6.69-5.44-12.91-5.6-20.08,10.78-5.96,21.84-8.4,33.53-2.58.66.33,1.23.87,1.84,1.32Z" fill="#8e76bc" stroke-width="0"/>
      <path d="m200.4,391.7c-4.78-7.6-3.63-16.06-3.57-24.37,2.94-.13,3.96,2.49,5.44,4.14,2.45,2.74,4.98,3.91,8.69,3,3.05-.75,6.33-.22,9.43-1.02,1.6-.08,3.21-.2,4.63.78.68.6,1.18,1.44,2.14,1.7,5.29,1.33,9.47-1.09,13.52-3.99,3.05-1.08,6.09-1.65,9.09.14,1.14,2.27,1.12,4.55.07,6.84-2.75,2.09-6.07,1.7-9.2,2.11-5.65,1.05-11.47.57-17.1,1.81-2.91.65-5.91,0-8.82.62-1.87.48-3.8.27-5.69.47-1.79.19-3.03,1.2-3.93,2.7-1.43,1.81-2.04,4.4-4.7,5.06Z" fill="#fdfdfe" stroke-width="0"/>
      <path d="m120.81,153.82c1.43-1.49.72-3.34.77-5.02.05-1.69.94-2.51,2.34-3.01,1.8-.64,1.19,1.61,2.23,1.9,1.28,6.59,1.98,13.24,1.48,19.96-.29,3.84-.41,7.74-2.27,11.55-1.67-2.09-1.37-4.57-2.7-6.65-.15.75-.28,1.35-.4,1.94-1.41-.89-2.76-.66-4.32-.21-7.14,2.06-14.33,3.91-21.48,5.92-1.38.39-2.73.43-4.12.36.87-2.6,3.41-3.21,5.41-4.34,6.12-3.47,11.71-7.55,16.41-12.85,1.88-2.13,3.18-4.57,4.6-6.97.57-.96.73-2.22,2.05-2.58Z" fill="#917abe" stroke-width="0"/>
      <path d="m199.72,97.08c-1.73.9-2.54-.58-3.4-1.47-5.16-5.35-10.26-10.77-15.36-16.19-1.22-1.3-2.23-2.72-2.04-4.66.18-2.96.96-5.72,2.84-8.59,2.43,3.19,4.82,6.12,6.97,9.22,1.08,1.55,2.25,1.89,4.09,2,6.12.36,12.35.18,18.67,2.46-3.77,3.98-7.02,7.87-10.75,11.21-2.26,2.02-2.64,3.67-1.01,6.01Z" fill="#fdfdfd" stroke-width="0"/>
      <path d="m196.85,362.89c0-2.29-.02-4.58-.03-6.87,3.85-2.76,8.44-2.1,12.74-2.59,3.87-.43,7.77-.61,11.62-1.29,5.34-.47,10.72-.62,16.03-1.52,4.44,0,8.83-1.47,13.32-.55,1.31.84,1.04,1.98.36,2.97-1.57,2.29-2.97,4.78-5.69,6-6.67,1.69-13.53,1.75-20.32,2.4-5.06.98-10.22.89-15.31,1.54-2.85.31-5.67.93-8.53,1.02-1.48.05-3.03.13-4.18-1.12Z" fill="#fdfdfe" stroke-width="0"/>
      <path d="m251.04,291.58c2.12,5.52,5.63,10.28,8.37,15.46-10.65.22-18.74-5.58-26.79-11.44-3.19-2.32-6.13-4.9-8.41-8.74,4.97-.89,10.04.15,14.52-2.18,4.82-.51,10.49,2.66,12.32,6.9Z" fill="#f0242c" stroke-width="0"/>
      <path d="m117.74,431.1c4.01-4.61,9.14-8.32,11.24-14.49.51-1.5,1.37-2.94,1.74-4.54,6.68,4.65,9.92,4.43,15.6-1.52,3.46-3.63,6.63-7.54,10.24-11.12-1.57,5.44-4.73,10.05-7.49,14.83-2.74,4.75-5.74,9.34-8.53,14.06-1.21,2.04-2.64,3.05-5.2,2.94-5.86-.24-11.73-.13-17.6-.16Z" fill="#304f77" stroke-width="0"/>
      <path d="m260.92,431c-6.08-9.45-9.58-19.84-11.24-30.91-.24-1.59-.4-3.07.93-4.23,1.06-.92,1.1-1.92.41-3.04.21-.29.49-.51.81-.67,2.17-.36,3.5-1.75,4.71-3.5.94-1.36,1.37-3.39,3.56-3.55-.25,6.49-.47,12.98-.74,19.47-.11,2.76.59,5.22,1.95,7.65,3.25,5.8,5.61,11.96,6.99,18.76h-7.39Z" fill="#f1eccd" stroke-width="0"/>
      <path d="m263.54,227.47c-2.56,7.63-5.61,9.16-12.5,6.54-.59-.22-1.18-.7-1.76-.22-.85.7-.19,1.44.24,1.97,2.6,3.17,1.1,5.03-1.75,7.01-5.29,3.67-11.35,4.95-17.43,6.36-.67-7.56,3.12-13.42,7.62-18.59,2.08-2.39,5.24-4.48,9.44-2.91,5.09,1.9,10.46,1.81,16.14-.15Z" fill="#71599f" stroke-width="0"/>
      <path d="m102.46,313.88c1.02-.1,2.15.34,2.98-.62,1.71-.76,2.3.87,3.34,1.56.97.64,1.08,2.3,2.66,2.23,1.81-2.09.74-4.58.89-6.87.2-3.14.1-6.3.14-9.45,6.23,3.33,5.28,10.21,7.57,15.48.17.4-.26,1.27-.66,1.67-3.52,3.46-6.29,7.52-9.23,11.44-.18-2.43-2.79-1.83-3.89-3.11-1.23-2.88-4.02-3.66-6.53-4.66-4.69-1.88-9.46-3.56-14.2-5.32,1.15-2.66-2.47-2.11-2.62-4.13,2.72-1.49,6.09.6,8.79-1.27,1.61-1.1,2.85.17,4.22.66,2.19.79,4.03,2.53,6.55,2.39Z" fill="#304f77" stroke-width="0"/>
      <path d="m141.39,232.71c4.13,2.05,8.27,4.09,12.4,6.14.57,3.19,2.96,3.86,5.66,4,4.43.22,8.15-1.66,11.71-4.03,4.72-3.15,9.72-1.06,10.9,4.45.48,2.24,1.05,4.48,1.88,6.6,1.01,2.6.05,3.02-2.36,2.93-13.61-.52-24.92-6.6-35.46-14.55-1.94-1.47-4.64-2.43-4.72-5.54Z" fill="#71599e" stroke-width="0"/>
      <path d="m210.24,271.85c4.59.23,8.69,2.46,13.24,3.1,12.06,1.71,23.69.52,34.99-3.98-11.23,10.29-24.21,15.24-39.56,12.9-2.41-.37-4.23-.91-3.94-4.25.3-3.43-2.05-5.84-4.73-7.78Z" fill="#715a9f" stroke-width="0"/>
      <path d="m162.98,239.74c-.21.13-.42.34-.65.38-1.84.27-4.31,1.27-5.32-.36-1.16-1.87,1.16-3.31,2.43-4.62,3.69-3.83,6.05-8.37,7.49-13.45.52-1.82,1.17-3.61,1.77-5.41.81-2.45,1.63-5.09,4.58-5.5,2.94-.4,4.41,1.95,5.85,4.05.7,1.6.56,3.16.04,4.81-2.77,8.83-7.67,15.92-16.2,20.1Z" fill="#fdfdfd" stroke-width="0"/>
      <path d="m320.71,239.48c.44,6.38-2.95,10.7-7.99,13.74-5.88,3.54-9.87,9.15-15.31,13.12-.71.52-1.42,1.03-2.13,1.54,2.19-4.35,5.51-7.88,8.53-11.63,1.43-1.78,2.72-3.66,4.11-5.48,2.21-2.89,1.89-5.71-.37-8.31-2.49-2.87-5.16-5.58-8.27-8.92,8.2-.32,14.96,2.27,21.44,5.94Z" fill="#304f77" stroke-width="0"/>
      <path d="m253.38,287.58c-.3.86-.6,1.71-.9,2.57-4.02-1.19-7.42-3.26-9.78-6.83,14.79-5.54,24.57-15.89,29.78-30.76.48-1.38-.22-4.81,2.83-3.7,2.33.85,5.6,2.12,4.08,6.05-3.68,2.87-5.63,7.11-8.4,10.7-4.41,5.73-8.78,11.49-13.95,16.57-1.2,1.18-2.2,2.46-2.94,3.95-.57.32-1.05.68-.72,1.45Z" fill="#ee242c" stroke-width="0"/>
      <path d="m349.76,416.49c-11.16,5.52-24.06,1.42-28.26-8.99,4.33-2.29,8.62-3.01,13.23-.51,1.88,1.02,4.36.72,6.37.26,4-.93,6.15.96,7.86,4.06,1.5,1.54,1.06,3.38.8,5.19Z" fill="#fdfdfd" stroke-width="0"/>
      <path d="m216,253.55c-.94-.23-2.45-.03-2.54-1.2-.35-4.76-3.43-9.24-1.53-14.23,4.86-1.11,9.7-1.97,14.69-.52,2.31.67,3.11,1.9,2.78,4.15-.39,2.66-1.13,5.2-2.15,7.7-.61,1.49-1.48,2.26-3.09,2.31-2.83.1-5.5.94-8.17,1.79Z" fill="#a38dcd" stroke-width="0"/>
      <path d="m192.09,271.06c4.67-4.54,5.53-4.47,13.44,1.14-1.12,1.64-3.57,1.97-4.26,4.41,1.66.1,2.73-1.06,4-1.52,2.38-.87,4.48-.6,6.29,1.28,1.74,1.81,1.67,3.93.88,6.04-.84,2.25-2.6,3.29-5.05,3.31-3.54.03-6.88-.6-9.61-2.96-1.82-1.57-3.82-2.82-5.86-4.05-1.45-2.58-1.61-5.14.17-7.65Z" fill="#8268b1" stroke-width="0"/>
      <path d="m147.6,431.09h-6.32c2.87-4.74,5.49-9.04,8.09-13.35,2.62-4.36,5.2-8.74,7.92-13.3,1.43,1.03,1.55,2.59,2.01,3.94,2.08,6.16,4.09,12.34,6.17,18.5,1.48,4.36,1.51,4.35-3.32,4.14-2.58-2.48-3.37-5.93-4.8-9.02-1.01-2.19-1.86-2.39-3.33-.24-2.13,3.11-3,7.1-6.41,9.33Z" fill="#2f4f77" stroke-width="0"/>
      <path d="m144.18,109.34c-4.65-.55-8.51-1.03-12.38-1.46-1.79-.2-1.71-1.57-1.9-2.81-.91-5.83-.54-11.65.13-17.48.11-.92.05-1.69,1.43-1.63,3.29.14,6.59.05,9.88.13,2.15.06,3.17.64,1.38,2.84-1.91,2.37-3.4,5.09-5.38,7.38-1.62,1.88-1.34,3.22.16,4.9,2.16,2.43,4.14,5.01,6.68,8.11Z" fill="#f9f3d9" stroke-width="0"/>
      <path d="m117.92,299.62c-.23-2.35.55-3.19,2.31-3.33,4.45-.36,8.81-1.25,13.09-2.49,2-.58,2.22.31,2.01,1.88-.32,2.39-.59,4.79-.98,7.17-.09.57-.45,1.35-.9,1.57-3.98,1.85-5.98,5.79-9.09,8.57-2.11,1.89-2.84,1.4-3.5-.98-1.19-4.29-2.38-8.58-2.94-12.38Z" fill="#2f4f77" stroke-width="0"/>
      <path d="m249.44,372.05c-3.07,0-6.15-.11-9.13.84-2.48,1.16-5.09,1.51-7.79,1.3-1.49-.77-.8-1.79-.02-2.36,5.87-4.22,11.11-9.08,15.68-14.69.3-.37.8-.62,1.14.07.92,1.62,3.07-.11,4,1.47.73,2.93-2.32,3.56-3.29,5.58,1.73-.87,2.5-3.18,4.76-3.1,1.86,1.77,3.72,3.54,5.66,5.4,1.19-1.88-.03-3.92,1.08-5.52.34,3.25.13,6.46-.66,9.63-3.61,2.08-7.47,2.07-11.42,1.38Z" fill="#55a9c3" stroke-width="0"/>
      <path d="m164.42,254.07c-7.28,2.36-13.51-2.14-20.27-3.17-6.29-.95-6.58-1.83-4.65-8.08q1.74-5.64,6.36-2.18c6.86,5.12,14.22,9.34,22.39,12.03-.57,2.39-2.78.31-3.83,1.41Z" fill="#efeacb" stroke-width="0"/>
      <path d="m221.33,353.09c-5.94,1.47-12.09,1.11-18.08,2.11-2.13.36-4.28.56-6.42.83-.02-2.51-.03-5.02-.05-7.52,1.3-.24,1.86-1.41,2.24-2.34,1.99-4.94,5.93-5.75,10.56-5.29,1.83,5.17,6,8.22,10.21,11.21.49.35,1.2.39,1.54,1Z" fill="#817dd8" stroke-width="0"/>
      <path d="m196.85,362.89c4.24-.29,8.48-.57,12.72-.86,3.19,3.14,6.83,5.84,9.57,9.43.65.85,1.71,1.59,1.2,2.94-4.24.5-8.49.96-12.73,1.52-1.83.24-2.99-.5-4.18-1.86-2.06-2.36-4.39-4.49-6.6-6.71,0-1.48.02-2.97.03-4.45Z" fill="#a15be6" stroke-width="0"/>
      <path d="m119.32,272.5c-4.94,0-8.59-2.89-12.19-5.66-6.44-4.95-12.74-10.07-19.03-15.21-1.26-1.03-2.6-2.09-3.28-3.68,7.64,3.76,15.31,7.43,23.68,9.38,1.7.4,3.3,1.04,2.65,3.68-.51,2.09,1.03,3.84,2.43,5.37,1.89,2.06,3.82,4.08,5.73,6.12Z" fill="#304f77" stroke-width="0"/>
      <path d="m260.11,385.12c-1.17,1.65-2.53,3.2-3.47,4.98-1.13,2.15-2.65,2.95-4.96,2.38-4.1-3.84-8.79-7.15-11.31-12.43,3.02-.36,6.05-.72,9.07-1.08.92-.81,2.06-.98,3.21-1.05,2.9-.18,5.55-1.18,8.14-2.4-.23,3.2-.46,6.41-.69,9.61Z" fill="#6e91d0" stroke-width="0"/>
      <path d="m348.97,411.31c-2.66-3.65-6.39-3.75-10.38-3.26-1.11.14-2.35.09-3.39-.28-3.79-1.33-7.49-3.05-11.24.2-.65.57-1.69,0-2.46-.47-8.16-3.49-9.79-13.21-3.23-19.27.11-.51.28-1.13.72-1.29,7.27-2.69,10.23-10.35,16.48-14.24,2.21-1.37,1.86-1.12,4.46.18,1.26.63,2.97,1.47,4.63,1.44,1.4-.03,2.7.32,3.98.86.72-1.87-.17-3.84,1.18-5.3.02-2.06.05-4.13.07-6.19,1.69,4.77.67,9.66.64,14.5,0,.87-.79,1.56-1.84,1.62-1.44-.15-1.95-1.85-3.42-1.99-.48,1.19.69,1.77,1.04,2.65,1.17,1.79,2.23,3.62,1.52,5.89-.67-.3-1.13.18-1.65.44-.47.17-.76.01-.88-.47-.4-2.86-2.84-1.83-5.1-2.48h5.7c-1.15-3.06-3.43-3.6-6.11-3.45.65-1.27,3.06.24,2.77-1.76-.18-1.24-1.54-1.73-2.93-1.97-5.23-.91-6.77-.55-9.3,4.09-2.04,3.74-5.6,5.3-8.76,7.5-3.67,3.19-5.64,7.01-4.34,11.99.81,3.09,3.45,4.94,6.97,4.98,1.34-.38,2.24-1.53,3.53-2.01.99-.14,1.69.35,2.31,1.04,4.35,2.43,8.86,3.46,13.71,1.58-.44-.8-.63-1.47.68-1.42.86,2.53,3.78,3.41,4.73,5.88-.03.34-.06.68-.09,1.02Z" fill="#241f2d" stroke-width="0"/>
      <path d="m237.96,95.97c-.13-3.08.18-5.81,1.43-8.16,1.24-2.32.32-3.01-1.62-3.96-3.78-1.84-7.23-4.24-10.51-6.86.19-.33.25-.64.42-.72q9.02-4.31,13.47,4.48c.52,1.02,1.03,2.05,1.55,3.07q4.14,8.18-4.76,12.15Z" fill="#fbfbfb" stroke-width="0"/>
      <path d="m168.16,256.62c8.24.44,16.51,1.03,22.93,7.15,2.55,2.43,1.82,3.5-1.44,4.92-5.75,2.5-9.13-1.54-11.95-4.69-2.81-3.14-5.65-5.63-9.54-7.38Z" fill="#ec232b" stroke-width="0"/>
      <path d="m240.85,519.43c-18.5,4.1-37,4.1-55.5,0h55.5Z" fill="#a35224" stroke-width="0"/>
      <path d="m288.37,166.86c-3.95.07-6.93,2.94-7.46,7.2-.15,1.2.39,2.56-.83,3.5.43-7.67.53-15.33-.76-22.94,0-1.46.47-2.73,2.18-2.27,2.28.61,5.41.23,5.58,3.92,1.16,3.44,2.16,6.9,1.29,10.58Z" fill="#947dc1" stroke-width="0"/>
      <path d="m130.78,323.06c-1.35-.95-2.66-.26-3.92.17-4.13,1.42-8.24,2.91-12.35,4.38,3.85-6.82,9.85-11.66,15.15-17.15l1.12.24v12.37Z" fill="#efeacc" stroke-width="0"/>
      <path d="m232.67,255.71c6.27-4.28,12.28-6.06,18.63-6.93,1.8-.25,1.71.76,1.38,2.12-1.37,5.72-6.81,8.97-12.34,6.91-2.12-.79-4.26-1.42-7.67-2.1Z" fill="#eb232b" stroke-width="0"/>
      <path d="m243.99,213.37c.12-1.38.24-2.75.35-4.13,1.64-.35,2.04,1.04,2.7,1.76,3.39,3.67,7.45,6.43,11.73,8.93,1.17.68,2.64,1.03,3.09,2.59.6,2.01.06,3.54-2.24,3.2-6.29-.93-11.51-3.87-15.32-9.05-.69-.94-.79-2.14-.31-3.29Z" fill="#fbfbfb" stroke-width="0"/>
      <path d="m147.6,431.09c2.03-3.53,4.07-7.05,6.07-10.6.51-.91,1.05-1.98,2.09-2.08,1.28-.13,1.46,1.25,1.85,2.11,1.56,3.47,3.03,6.99,4.53,10.49-4.85.02-9.69.05-14.54.07Z" fill="#3f628d" stroke-width="0"/>
      <path d="m200.4,391.7c1.27-1.69,2.55-3.37,3.82-5.06.2-.16.41-.38.65-.39,3.46-.06,9.45,6.12,9.38,9.66-3.81,1.21-7.82.96-11.71,1.61-.71-1.94-1.43-3.88-2.14-5.83Z" fill="#d02df8" stroke-width="0"/>
      <path d="m185,294.08c3.72-1.11,7.06,1,10.61,1.3,2.84.24,5.62,1.86,8.48.13,2.06-.97,2.39-1.36,2.5-4.74.06-1.9.24-3.19,2.62-3.13,2.46.06,2.04,1.8,2.09,3.21.22,7.1-3.16,9.98-10.03,8.48-5.59-1.22-11.15-2.56-16.27-5.25Z" fill="#67508b" stroke-width="0"/>
      <path d="m243.99,213.37c.56,4.32,4.12,6.12,7.18,8.16,2.16,1.44,4.73,2.31,7.19,3.25,2.02.77,3.47.24,3.51-2.26,1.5,2.31.6,3.54-1.85,3.96-5.8,1.01-11.3.07-16.58-2.5-1.37-.67-1.9-1.43-1.45-2.95.74-2.53,1.34-5.1,2-7.66Z" fill="#eee9cc" stroke-width="0"/>
      <path d="m276.01,227.95c3.29,2.05,7.13,4.44,7.14,7.62.01,4.08-4.44,6.84-6.48,10.49-.24.43-.81.65-1.33.31-.78-.51-.62-1.35-.52-2.07.76-5.37,1.26-10.77,1.19-16.36Z" fill="#e8e4c7" stroke-width="0"/>
      <path d="m162.98,239.74c.66-1.84,2.51-2.47,3.87-3.47,7.32-5.36,10.81-12.8,12.28-21.45,2.96,3.82,2.95,8.03.4,11.81-3.33,4.93-7.13,9.28-12.58,11.92-1.25.61-2.5,1.3-3.97,1.19Z" fill="#ede9cc" stroke-width="0"/>
      <path d="m260.8,375.5c-.53,1.73-1.16,2.98-3.51,2.83-2.59-.16-5.22.38-7.84.62,0-2.3,0-4.6,0-6.9,3.74-1.03,7.6-1,11.42-1.38-.02,1.61-.04,3.22-.05,4.83Z" fill="#eeeacc" stroke-width="0"/>
      <path d="m200.23,108.91c-8.56,1.25-16.74,2.11-25.22,2.05,7.84-6.42,16.07-6.71,25.22-2.05Z" fill="#2e4c72" stroke-width="0"/>
      <path d="m257.77,216.69c4.51-1.58,6.25-5.98,9.2-9.14.76-.82,1.3-1.84,2.32-2.42-1.52,6.11-1.01,12.65-4.06,19.23-1.5-4.07-4.73-5.6-7.47-7.68Z" fill="#70599d" stroke-width="0"/>
      <path d="m225.62,261.79c-3.43,0-5.47-2.69-8.11-4.21-1.74-1-.04-1.76.54-2.53,3.55-1.3,7.16-1.26,10.75-.33,1.76.46,2.82,1.28.64,2.96-1.46,1.13-2.56,2.72-3.82,4.1Z" fill="#9d87c8" stroke-width="0"/>
      <path d="m159.22,225.99c-2.11-2.55-4.66-4.38-6.15-7.17-.55-1.03-.97-2.25-.13-3.24.9-1.06,1.88.02,2.75.31,4.93,1.61,5.15,2.27,3.53,10.11Z" fill="#ededed" stroke-width="0"/>
      <path d="m169.94,189.09c-1.09-1.56-2.3-.36-3.4-.09-4.72,1.17-9.48,1.7-14.32.95-1.22-.19-2.55-.13-3.38-1.61,6.58-.4,13.28,1.27,19.62-1.97-1.69-.69-3.47.02-4.88-1.01,3.05-.37,6.05-.28,8.91,1.15-.54,1.17-1.44,1.99-2.55,2.6Z" fill="#342947" stroke-width="0"/>
      <path d="m204.24,406.58c1.82,5.76,1.99,11.81,3.06,17.7.4,2.22.56,4.49.82,6.73-2.39.61-3.33-.03-3.33-2.77,0-7.22-.35-14.44-.56-21.66Z" fill="#e9e4c9" stroke-width="0"/>
      <path d="m202.77,301.56c4.81.98,5.31,2.15,2.54,6.23-1.06,1.57-2.26,3.06-4.08,3.86q-3.58.35-2.34-2.75c.75-1.87,1.6-3.69,1.65-5.78.03-1.31.68-2.19,2.23-1.56Z" fill="#695391" stroke-width="0"/>
      <path d="m247.27,176.88c-.52.32-1.04.64-1.81,1.11,7.16,1.45,13.33-.16,19.16-5.08-1.84,4.02-6.84,6.7-12.06,7.1-1.97.15-4.02-.6-5.92.48-.23-.06-.55-.04-.69-.18-.9-.89-2.72-1.57-2.07-3.01.5-1.1,2.2-.51,3.39-.43Z" fill="#2f253f" stroke-width="0"/>
      <path d="m212.73,296.15c.52-3.43,1.03-6.18.13-8.92-.32-.98-.02-1.81.93-2.19,1.3-.51,2.45.36,3.63.7,1.23.36.8,1.45.44,2.22-1.26,2.72-2.24,5.62-5.13,8.19Z" fill="#e42229" stroke-width="0"/>
      <path d="m192.09,271.06c-.06,2.55-.11,5.1-.17,7.65-1.47-.35-3.22.69-4.44-.89.75-2.26.63-4.61.66-6.94,1.38-1.45,2.7-1.43,3.95.18Z" fill="#271f36" stroke-width="0"/>
      <path d="m251.18,208.41c1.35-.98,3.18-2.56,4.36-1.06,1.31,1.67-.05,3.86-1.34,5.42-1.38,1.67-2.33.44-3.16-.76-.8-1.23-1.21-2.45.14-3.59Z" fill="#f1f1f2" stroke-width="0"/>
      <path d="m243.46,247.45c2.8-1.85,6.06-2.85,8.65-5.16,1.89,3.38.98,4.72-2.4,4.88-1.86.09-3.7.6-5.55.92-.79.4-.85-.01-.71-.64Z" fill="#c3bfa7" stroke-width="0"/>
      <path d="m161.82,227.12c-.32-.24-.92-.56-.88-.69.63-2.3.58-4.64.69-6.98.03-.72,1.08-.5,1.58-.21.72.41,2.13.43,1.93,1.51-.41,2.23-1.25,4.36-2.65,6.21-.11.15-.45.11-.67.16Z" fill="#f1f1f1" stroke-width="0"/>
      <path d="m242.7,283.32c3.26,2.28,6.52,4.55,9.78,6.83.32.75,1.4,1.03,1.26,2.08-1.09.53-1.75-.71-2.71-.65-3.65-3.1-7.14-6.51-12.32-6.9,1.33-.45,2.65-.91,3.98-1.36Z" fill="#530e10" stroke-width="0"/>
      <path d="m132.38,316.88c0-2.85,0-5.7,0-8.54,0-.69.29-1.29,1-1.41.8-.13,1.15.46,1.12,1.14-.13,2.97.86,6.07-.89,8.85-.41-.01-.83-.03-1.24-.04Z" fill="#dad6ba" stroke-width="0"/>
      <path d="m180.98,228.4c0,2.39.06,3.75-.02,5.11-.05.91.55,2.3-.94,2.46-1.2.13-2.76.2-3.53-.89-.78-1.09.72-1.65,1.22-2.41.81-1.24,1.8-2.38,3.27-4.27Z" fill="#ebebeb" stroke-width="0"/>
      <path d="m188.14,270.88c1.31,1.6.95,5.32-.66,6.94-.51-1.12-.93-2.29-1.56-3.34-1.63-2.72-.16-3.42,2.23-3.6Z" fill="#735c9d" stroke-width="0"/>
      <path d="m202.77,301.56c-2.9,1.9-1.61,5.53-3.27,7.91-1.94,2.78.59,1.9,1.73,2.18-1.51,1.23-3.02.81-4.53.01,1.14-3.34,4.31-6.24,2.22-10.27,1.33-.92,2.61-.77,3.86.17Z" fill="#282038" stroke-width="0"/>
      <path d="m170.43,269.59c-.73-.82-1.46-1.64-2.26-2.54,1.23-.78,1.61.79,2.64.41-.52-2.47-2.69-3.68-4.87-5.42,4.25.25,6.27,2.63,6.97,7.41-.82.23-1.7-.76-2.48.14Z" fill="#322844" stroke-width="0"/>
      <path d="m347.73,386.37c-1.1-1.83-.76-4.31-2.61-5.8.99-.91,1.99-.87,3-.03,2.45,2.07,2.47,4.45.05,6.12-.18-.04-.33-.14-.44-.28Z" fill="#805fc0" stroke-width="0"/>
      <path d="m184.6,276.99q-4.36-1.72-4.71-7.62c2.92,1.72,3.76,4.33,4.71,7.62Z" fill="#705a98" stroke-width="0"/>
      <path d="m164.42,254.07c1.04-1.12,2.93.09,3.83-1.41,3.88.71,7.76,1.42,11.63,2.13-.05.53-.54.63-.87.89-4.81-.97-9.68-1.48-14.59-1.61Z" fill="#988e7e" stroke-width="0"/>
      <path d="m179,255.68c.29-.3.58-.59.87-.89,7.06.06,6.82.17,7.03,3.35-2.71-.84-5.31-1.65-7.9-2.46Z" fill="#dbd5d5" stroke-width="0"/>
      <path d="m348.12,380.53c-1,.01-2,.02-3,.03-.65-1.14-1.29-2.28-2.01-3.54,2.91-.84,4.7,0,5.48,2.79-.16.24-.31.48-.47.72Z" fill="#8160c2" stroke-width="0"/>
      <path d="m173.37,159.54c-.23,1.11-.85,1.84-2.04,1.76-1.32-.09-2.11-.94-2.05-2.2.05-1.22.79-2.19,2.18-2.01,1.33.17,1.72,1.28,1.92,2.45Z" fill="#cbcbcb" stroke-width="0"/>
      <path d="m240.46,147.67c1.12.28,2.12.8,2.11,2.16-.01,1.22-.85,1.84-1.98,1.61-1.16-.24-2.01-1.03-1.95-2.35.04-1.09.81-1.43,1.82-1.41Z" fill="#d0d0d0" stroke-width="0"/>
      <path d="m236.43,251.06c-1.68.02-2.39,1.65-3.74,2.26-.98.45-1.7.25-2.42-.34-.35-.28-1-.48-.65-1.14.42-.79,1.25-.7,1.97-.84,1.33-.26,2.66-.53,3.99-.79.82-.26,1.02.11.85.84Z" fill="#c2bea7" stroke-width="0"/>
      <path d="m236.43,251.06c-.28-.28-.57-.56-.85-.84,2.63-.92,5.25-1.84,7.88-2.77.24.21.47.43.71.64-2.58.99-5.16,1.98-7.74,2.97Z" fill="#837e76" stroke-width="0"/>
      <path d="m210.5,238.15c-1.87,1.48-4.15,1.98-6.38,2.67,1.07-1.94,2.8-2.9,4.82-3.44.52.26,1.04.52,1.56.77Z" fill="#2b233b" stroke-width="0"/>
      <path d="m251.18,208.41c-.05,1.2-.09,2.4-.14,3.59-.92-.9-2.84-1.18-2.66-2.69.17-1.35,1.79-.73,2.8-.9Z" fill="#707071" stroke-width="0"/>
      <path d="m262.4,103.94c1.55-1.26,3.3-1.96,5.58-2.16-1.07,1.7-2.36,2.55-3.91,3.06-.22-.93-1.06-.7-1.67-.9Z" fill="#5a584c" stroke-width="0"/>
      <path d="m208.17,156.99c0-2.87,0-5.74,0-8.61,1.06,2.87.85,5.74,0,8.61Z" fill="#725a9f" stroke-width="0"/>
      <path d="m89.33,119.27c-.02,2.62-.04,5.23-.06,7.85-.92-2.62-1.38-5.25.06-7.85Z" fill="#f1eccd" stroke-width="0"/>
      <path d="m401.65,507.55c-.77,1.2-1.96,2.3-3.1,1.09-.71-.76.67-1.54,1.6-1.88.31.62.84.83,1.5.79Z" fill="#362b4a" stroke-width="0"/>
      <path d="m139.15,582.64c.7.52,1.84.93,2.01,1.59.71,2.74,2.02,1.63,3.38.72.27.26.45.57.55.93,0,2.83-2.19,4.5-3.57,6.58-1.68,2.56-3.38,5.11-5.25,7.54-.52.68-1.29,1.49-.48,2.36.64.7,1.67.83,2.51.46,4.81-2.13,8.83-1.1,12.26,2.81.69.78,1.74,1.3,2.75.71.97-.57.46-1.62.34-2.46-.79-5.68-1.76-11.34-2.6-17.02.02-.38.15-.71.39-1,2.56.36,3.56,1.98,3.86,4.4.43,3.5,1.03,6.98,2.03,10.46.52-2.46,1.07-4.92,1.56-7.39,1.14-5.71,4.01-6.82,9.35-3.6-5.19-.12-6.14,3.35-6.55,7.5-.29,2.9-1.15,5.73-1.57,8.63-.15,1.04-.27,2.14,1.14,2.39,1.23.22,2.3-.04,2.77-1.39.54-1.57.68-3.23.97-4.86.2-1.1.23-2.45,1.7-2.65,1.36-.18,1.98.93,2.57,1.92,1.24,2.08,2.34,4.23,3.43,6.39.91,1.82,2.13,3.36,4.4,2.86,2.27-.5,2.19-2.61,2.29-4.33.22-3.55,1.06-7.05.93-10.63-.05-1.32.06-2.72-1.75-2.78-1.62-.06-1.56,1.38-1.84,2.44-.46,1.73-.36,3.55-.8,5.27-.39,1.5-1.68,2.54-2.67,1.05-2.38-3.61-5.4-7.06-5.08-11.87,3.03.04,2.93,2.96,4.25,4.57,3.13-4.49,4.11-4.77,10.36-2.96.94.33,2.03.45,2.37,1.64.25.57.33,1.39.83,1.67,4.07,2.33,3.45,6.01,2.88,9.67-.31,2.01-.56,4.01-.15,6.03.23,1.14.94,1.78,2.14,1.7,1.12-.07,1.48-.92,1.52-1.85.14-2.91.66-5.77,1.15-8.64.49-2.59,1.52-4.63,4.63-4.57.4-.06.8-.03,1.2.08.77.41,1.05,1.13,1.28,1.9.55,2.9,2.3,4.75,5.02,5.78.72.27,1.44.54,2.1.93,1.33.78,2.96,1.57,2.11,3.47-.71,1.59-2.31,1.27-3.71.99-.37-.07-.72-.27-1.09-.37-1.18-.33-2.84-1.32-3.4.12-.65,1.68,1.27,2.25,2.53,2.68,2.48.85,5.02.86,7.47-.21,1.76-.77,2.93-1.99,3.02-4.04.09-2.01-.8-3.41-2.54-4.35-1.35-.73-2.85-1.14-4.16-1.93-1.27-.77-2.42-1.79-1.75-3.39.7-1.68,2.25-1.35,3.64-.94,2.06.62,4.27,1.86,5.18-1.5.16-.35.39-.64.69-.88,2.76,2.51,4.55,5.28,2.13,8.97-.79,1.2.21,1.9.51,2.78,1.8,5.33-.5,10.03-5.84,11.85-6.08,2.07-12.18.19-15.45-4.75-2,4.68-5.98,6.07-10.78,3.91-1.91-.86-2.11-2.36-2.01-4.09.11-1.91.22-3.82.38-5.73.15-1.89.36-3.77.26-5.7-1.73,3.01-1.26,6.45-1.92,9.66-.43,2.09-.01,4.88-2.94,5.01-3.29.15-7.01.89-9.46-2.46-.74-1.01-1.25-2.18-2.17-3.83-1.13,5.07-4.45,4.73-7.83,3.89-2.94-.74-5.87-1.4-8.89-1.79-2.25-.29-4.33-.78-5.6-3.31-.74-1.47-2.78-2.04-4.62-.92-.53.32-1.05.74-1.63.89-1.82.46-3.79.09-5.16-.86-4.55-3.14-10.91-1.02-14.9-5.35-.73-.8-.92-1.35-2.27-.88-3.02,1.05-5.66-.6-8.23-1.91-1.03-.52-1.58-1.6-1.6-2.87-.08-6.89.32-13.77,1.18-20.6.25-1.96,1.23-4.28,4.23-2.88.27.32.34.67.22,1.07-2.33,5.77-1.35,11.8-1.36,17.75,0,1.24.72,2.15,1.96,2.54,1.47.45,2.46-.25,3.22-1.4,1.13-1.69,2.07-3.51,3.23-5.18.63-.9,1.26-2.28,2.6-1.68,1.19.53,1,1.95.84,3.09-.23,1.64-.52,3.27-.48,4.93.04,1.7.11,3.42,2.1,4.06,2.06.67,2.95-.81,3.91-2.22,2.78-4.11,5.18-8.47,8.12-12.48.58-.72.88-1.65,1.68-2.19Z" fill="#010101" stroke-width="0"/>
      <path d="m217.4,564.48c-1.18,6.46-5.35,10.01-11.49,11.27-8.64,1.78-16.49.55-22.33-6.98-1.09.57-.63,1.6-.62,2.34.06,3.37-1.91,4.66-4.85,4.5-5.34-.3-10.67-.82-16-1.33-2.63-.25-3.77-1.9-3.64-4.46.06-1.13.25-2.26.46-4.06-6.17,7.08-13.35,7.71-21.17,4.9-4.39-1.58-7.24-4.62-8.16-9.29-.88-4.54.82-6.71,5.7-6.95-4.37-5.09-5.08-10.46-1.58-16.16,1.53-.15,1.47,1.08,1.77,2.01-.36,5.56,2.35,9.17,7.24,11.42,1.62.75,3.2,1.6,4.59,2.74,1.67,1.36,2.43,3.11,1.3,5.06-1.12,1.93-3.05,2.1-5.06,1.5-.99-.3-1.82-.9-2.59-1.59-.66-.6-1.27-1.29-2.11-1.63-1.54-.63-3.45-1.51-4.62-.07-1.28,1.57.25,3.09,1.36,4.28,3.66,3.88,11.44,4.95,16,2.19,3.38-2.05,4.85-5.12,4.41-9.06-.13-1.14-.55-2.23-.5-3.4,1.35-2.98,2.46.33,3.7.15q-.39-2.17-5.13-1.53c-3.27-1.41-6.18-3.46-9.3-5.14-1.91-1.03-3.28-2.73-1.8-5,1.43-2.21,3.54-2.15,5.71-1.06,1.48.74,2.51,2.14,4.07,2.78,3.19,1.32,4.35.49,4.11-2.99-.04-.51-.06-1.01.03-1.52.11-.39.32-.71.64-.96.63.62,1.29,1.2,1.88,1.86.49.55.89,1.19,1.45,1.95.89-1.44.07-3.44,1.79-4.3,1.69-.19,1.67,1.17,2,2.21.67,8.66-1.16,17.16-1.67,25.75-.16,2.77.4,4.04,3.31,4.05,2.53.01,5.02.57,7.56.73,3.06.19,4.83-.9,5.24-4,.3-.64.79-1.05,1.46-1.27,2.32.22,1.49-1.57,1.54-2.6.33-6.23.59-12.47.85-18.7.09-2.06.15-4.11,2.03-5.5,1.19-.07,1.46.81,1.75,1.68.31,5.47.46,10.94-.28,16.4-.95,7.01.73,11.02,5.48,13.41,5.69,2.86,14.92,1.94,18.76-1.95,2.4-2.43,3.28-5.61,2.92-8.81-.54-4.84-.46-9.67-.55-14.51-.03-1.92.15-4.07-2.77-4-2.89.07-2.61,2.27-2.64,4.15-.06,3.57-.02,7.14-.02,10.71,0,2.18-.21,4.33-.86,6.42-1.47,4.71-4.65,6.2-9.47,4.45-.22-.42-.19-.83.11-1.21,5.34.49,5.83.11,5.88-5.02.05-5.59-.03-11.19.04-16.78.05-3.8,1.55-5.3,5.32-5.33,3.17-.03,6.76-1.05,8.56,2.96.22.46.14-.19.23.3,1.43,8.35,1.6,16.7-.08,25.04Z" fill="#010101" stroke-width="0"/>
      <path d="m286.93,585.85c.48.75.96,1.5,1.43,2.24l.66-.57c-.52-2.18-.89-4.41-1.6-6.53-1.07-3.18.4-4.85,3.14-5.85,1.19-.43,2.51-.53,3.67-1.01,3.15-1.31,4.88.05,5.74,2.97,1.4,4.76,2.67,9.56,4.07,14.32.41,1.39.67,3.32,2.87,2.72,2.22-.6,1.47-2.32,1.04-3.75-1.4-4.63-2.71-9.29-4.35-13.83-.9-2.49-.49-4.17,1.76-5.46.6.18,1.07.54,1.44,1.04,2.46,5.21,3.95,10.75,5.34,16.3.91,3.64-.65,6.16-3.94,7.16-3.29,1-5.9-.23-7.28-3.75-1.58-4.03-2.42-8.31-3.73-12.43-.53-1.67-.71-3.71-3.39-3.03-2.53.65-2.16,2.38-1.69,4.22,1.07,4.2,1.98,8.43,3.22,12.58,1.57,5.26,4.88,7.39,10.37,6.82,2.17-.23,4.25-.82,6.22-1.76,5.47-2.59,7.26-6.35,5.55-12.15-1.15-3.91-2.45-7.77-3.93-11.57-.6-1.53-1.36-3.04-1.12-4.78.1-.4.31-.74.62-1.01,1.77.57,2.52,1.98,3.08,3.62,1.81,5.3,3.74,10.57,5.48,15.89,1.86,5.7.25,10.67-4.57,14.17-3.93,2.85-8.41,4.27-13.24,4.28-5.46,0-9.5-2.48-12.13-8.29-1.53,5.99-4,10.62-9.03,13.3-4.84,2.58-9.92,3.99-15.45,2.73-9.25-2.11-13.39-7.37-14.06-17.94-4.17,4.22-4.11,9.27-3.36,14.49.34,2.35,1.52,5.22-1.07,6.66-3.17,1.76-6.9,1.66-10.41.79-1.44-.36-2.01-1.91-1.9-3.44.61-7.86-2.4-14.31-7.56-19.99-.93-1.03-1.59-2.31-2.35-3.48-2.6-3.98-1.18-6.77,3.65-7.08,4.29-.27,8.91-1.32,10.73,4.74,4.37-7.7,12.46-8.67,17.04-2.6.76-.14,1.03.32,1.18.94.05,1.32-.63,2.45-.99,3.67-3.07,10.31,4.6,18.03,14.76,17,3.47-.35,6.71-1.44,9.51-3.69,4.19-3.37,5.78-8.11,4.36-13.28-.4-1.46-1.26-2.82-1.03-4.43.2-.59.5-1.06,1.24-.94Z" fill="#010101" stroke-width="0"/>
      <path d="m332.19,532.96c8.76,13.66-.01,29.93-16.94,31.44-7.11.63-13.38-1.13-18.77-7.02-.82,10.29-7.79,12.79-15.99,13.78-2.53.31-5.05.69-7.57,1-4.91.62-5.99-.3-6.57-5.3-1.06-9.11-2.14-18.21-3.26-27.31-.68-5.5.6-7.03,6.27-7.27.25.38.21.74-.1,1.07-1.71,1.05-2.25,2.52-2,4.54,1.03,8.35,2.08,16.69,3.12,25.04.27,2.18,1.43,2.84,3.38,2.56,3.53-.52,7.1-.85,10.58-1.63,7.58-1.7,10.09-8.95,5.07-14.88-1.51-1.79-2.24-3.31-.92-5.4,1.47-2.34.4-5.02.97-7.49.29-.58.66-1.03,1.41-.85.78,1.12,1.56,2.24,2.45,3.51.74-1.28,1.39-2.42,2.05-3.55,1.15-.21,1.34.65,1.61,1.43.25,1.42-.26,2.77-.41,4.16-.9,8.51,4.51,15.62,12.94,16.99,10.39,1.7,19.86-4.34,21.97-13.85.73-3.29-.85-6.27-.79-9.44.21-.8.35-1.67,1.51-1.52Z" fill="#010101" stroke-width="0"/>
      <path d="m217.95,539.01c.46-.54.92-1.08,1.39-1.63,2.5.2,1.94,2.2,2.05,3.67.29,3.73-.32,7.49.41,11.2.62,4.54.46,9.15,1.09,13.72.32,2.29,1.01,3.53,3.51,3.46,2.51-.08,2.79-1.65,2.86-3.62.13-3.59-1-7.08-.78-10.68.07-1.14-.02-2.3.19-3.44.14-.76.31-1.67,1.13-1.85.82-.18,1.36.59,1.77,1.23,2.54,3.99,4.75,8.16,7.14,12.23.75,1.28,1.16,3.43,2.72,3.39,1.64-.04,1.72-2.25,2.32-3.58,2.11-4.65,3.94-9.42,5.85-14.15.35-.88.59-2.26,1.86-2.07,1.21.18,1.24,1.53,1.26,2.5.12,4.85.91,9.64,1.07,14.5.11,3.38,1.79,4.26,4.87,3.21.94-.32,1.7-.77,1.57-1.84-1.14-9.86-1.22-19.84-3.61-29.54-.06-.24-.21-.46-.32-.7-.18-.4-.15-.79.08-1.16,3.08-.43,4.66,1.28,4.97,4,1.2,10.5,2.23,21.03,3.32,31.54.03.25.07.53,0,.76-1.61,5.45-6.46,3.28-9.96,4.1-2.78.65-4.27-.92-4.5-3.77-.17-2.02-.5-4.04-.9-7.24-1.61,3.75-2.78,6.53-4.02,9.29-.68,1.51-1.34,3.15-3.39,3.2-1.92.04-2.93-1.26-3.79-2.76-1.43-2.51-2.91-4.99-4.85-8.29,0,3.01-.01,5.08,0,7.16.02,2.62-1.21,4.07-3.88,4.17-1.53.06-3.06.08-4.59.16-5.26.26-5.94-.35-6.08-5.59-.65-10.51-1.49-21.01-.75-31.55Z" fill="#010101" stroke-width="0"/>
      <path d="m110.98,512.12c.84.46,1.67,1.3,1.43,2.08-1.24,4.17,1.72,6.39,3.81,9.15,1.54,2.05,2.13,4.59,2.24,7.19.24,5.85-.75,6.97-6.69,7.15,3.83,4.28,6.04,8.85,4.48,14.65-1.66,6.15-5.46,9.96-11.65,11.2-1.88.38-2.89.95-3.24,2.94-.54,3.06-2.6,3.79-5.42,2.99-1.59-.45-3.21-.76-4.8-1.23-1.83-.54-3.05-1.95-2.4-3.72,1.04-2.87-.59-3.95-2.42-5.52-4.41-3.77-6.09-8.69-4.66-14.4.85-3.39,3.06-4.04,6.16-2.07-.04.4-.23.68-.6.83-2.28.43-2.38,2.04-1.9,3.79.79,2.89,2.1,5.51,4.76,7.14,2.12,1.3,3.55,2.87,3.17,5.56-.25,1.76.71,2.57,2.33,2.85,1.73.29,2.27-.87,2.55-2.18.52-2.44,2.11-3.13,4.41-3.33,4.96-.42,8.22-3.2,9.67-7.92,1.46-4.75.12-8.21-4.22-11.66-2.4-1.9-4.98-3.55-7.48-5.3-1.91-1.33-3.18-3.01-2.55-5.48.45-1.77,1.63-2.94,3.51-3,2.44-.08,4.11,1.13,4.9,3.47,1.06,3.13,3.88,2.92,6.33,3.25,1.66.22,1.69-1.17,1.71-2.35.05-3.2-1.53-5.63-3.9-7.52-2.17-1.73-3.05-3.67-1.8-6.31.56-.97.63-2.43,2.3-2.26Z" fill="#020202" stroke-width="0"/>
      <path d="m138.39,585.04c-2.79,4.39-5.65,8.73-8.33,13.18-1.27,2.11-2.23,3.35-5.28,2.45-3.34-.99-2.36-3.06-2.31-5.01.08-2.63.39-5.25.65-8.51-2.7,2.67-3.81,5.66-5.41,8.29-.98,1.62-1.91,2.36-3.93,1.54-1.85-.76-3.52-1.12-3.11-3.81.81-5.36-.48-10.84.83-16.21.26-1.07.3-1.97,1.62-2.06,4.46.98,5.2,1.88,4.63,6.12-.24,1.79-.27,3.65-.98,5.12,1.96-2.16,2.13-6,5.58-7.34,3.98.15,5.99,2.05,5.46,6.18,1.27,1.9,1.01,3.79.32,5.38,1.67-2.58,2.39-6.25,5.15-8.67,4.47.34,4.82.57,5.11,3.35Z" fill="#fdfdfd" stroke-width="0"/>
      <path d="m87.86,542.68s-.05-.14-.05-.14c.68-.24,1.37-.47,2.05-.71-6.12-8.64-5.77-16.1,1.04-22.21.3.29.48.65.54,1.06.02.51-.07,1.01-.22,1.5-2.86,9.15-1.95,11.71,6.12,17.16,1.69,1.14,3.36,2.28,4.74,3.8,1.77,1.93,2.8,4.03,1.04,6.47-1.41,1.95-4.84,2.55-6.82.53-2.65-2.71-5.29-5.34-8.44-7.45Z" fill="#020202" stroke-width="0"/>
      <path d="m180.61,563.38c-.24.33-.47.66-.71.99-9.75,1.55-11.23.07-10.08-9.58.53-4.42,1.03-8.86,1.13-13.33.04-1.62.24-3.42-1.66-4.33-1.75-.85-3.2-.28-4.51.97-.29.28-.69.29-1.07.29-.04-.94.04-1.94-1-2.48,3.06-3.11,6.74-1.55,9.94-.78,3.26.79,2.82,4.03,2.62,6.73-.4,5.18-.7,10.36-1.19,15.53-.49,5.13-.58,5.1,4.39,5.5.72.06,1.43.33,2.15.5Z" fill="#030304" stroke-width="0"/>
      <path d="m221.1,552.88c-1.57-3.66-.35-7.51-.77-11.25-.16-1.45.54-3.12-.99-4.25,5.39-3.56,13.86-1.59,16.6,3.84,1.29,2.56,2.65,5.08,4.41,8.42,1.29-3.37,2.6-5.84,3.17-8.47,1.14-5.24,4.36-7.36,9.44-7.3,1.14.01,2.28-.02,3.41-.03,0,.19,0,.38,0,.58-.99,1.41-2.55,1.73-4.05,1.74-2.77.02-4.02,1.54-4.92,3.92-1.3,3.45-2.59,6.91-3.98,10.32-.56,1.37-.92,3.24-2.78,3.25-1.77,0-2.35-1.76-3.02-3.09-1.65-3.3-3.42-6.54-5.32-9.7-1.7-2.84-5.3-3.89-8.27-2.59-1.4.61-1.77,1.73-1.82,3.06-.09,2.42.02,4.83-.06,7.25-.05,1.49.25,3.1-1.06,4.29Z" fill="#0f0e11" stroke-width="0"/>
      <path d="m403.9,496.8c-11.75,11.12-23.64,22.15-39.79,27.04,14.67-6.98,26.8-17.57,39.79-27.04Z" fill="#191423" stroke-width="0"/>
      <path d="m62.11,523.56c-16.11-4.65-27.7-15.97-39.62-26.81,13.14,9.03,24.86,20.17,39.62,26.81Z" fill="#1a1525" stroke-width="0"/>
      <path d="m359.95,563.01c11.54-7.51,20.28-17.82,28.81-28.33-1.54,8-21.6,27.79-28.81,28.33Z" fill="#292139" stroke-width="0"/>
      <path d="m66.49,563.34c-12.89-5.91-21.32-16.56-28.84-28.14,9.06,9.92,17.46,20.52,28.84,28.14Z" fill="#282037" stroke-width="0"/>
      <path d="m197.46,563.32c-.02.29-.05.57-.07.86-2.8.71-3.47-1.42-4.19-3.28-1.13-2.92-.94-6.03-.75-9.05.3-4.68.58-9.36,1.12-14.02.31-.67.68-1.25,1.56-1.12,1.95,1.29,2.27,3.23,2.18,5.37-.24,5.6-.45,11.2-.66,16.8-.06,1.54-.05,3.06.8,4.44Z" fill="#0a090c" stroke-width="0"/>
      <path d="m296.31,536.97c-.24-.64-.14-1.46-.95-1.79,4.38-7.72,11.4-11.1,19.88-11.3,7.15-.17,13.06,2.77,16.96,9.08-.76.3-.64,1.04-.82,1.62-1.45.07-1.88-1.15-2.5-2.04-6.76-9.73-23.39-7.44-29.29.96-.91,1.29-1.31,3.13-3.26,3.47Z" fill="#302c38" stroke-width="0"/>
      <path d="m60.69,550.3c7.31,5.78,15.13,10.78,22.91,15.85-9.15-3.09-16.7-8.53-22.91-15.85Z" fill="#2b223c" stroke-width="0"/>
      <path d="m365.77,550.48c-6.03,7.26-13.55,12.44-22.5,15.6,7.53-5.14,15.37-9.86,22.5-15.6Z" fill="#2a223b" stroke-width="0"/>
      <path d="m122.35,578.79c-1.9,3.06-3.79,6.12-5.69,9.18-.22-.07-.45-.13-.67-.2.2-1.93.24-3.89.64-5.77.71-3.37.59-6.18-3.5-7.11-.04-.18-.05-.35,0-.53,2.62.05,5.26.8,6.35,3.1.83,1.75,2.54-.25,2.89,1.32Z" fill="#131213" stroke-width="0"/>
      <path d="m286.93,585.85c-.28.3-.56.59-.84.89-1.3.15-2.07-.77-2.96-1.47-6.48-5.09-14.13-5.05-20.6.06-1.14.9-2.01,2.4-3.83,2.05-.27-.27-.53-.54-.8-.81,7.58-9.19,21.07-9.53,29.03-.73Z" fill="#301622" stroke-width="0"/>
      <path d="m91.02,520.87c-.04-.42-.08-.83-.11-1.25.78-1.41,2.15-2.13,3.53-2.69,2.91-1.17,5.89-1.7,7.24-5.48.92-2.56,5.45-1.99,9.3.67-.52.83-1.04,1.65-1.56,2.48q-3.53-2.94-5.95,1.15c-.46.78-1,1.69-1.89,1.69-3.91.01-7.05,2.25-10.55,3.43Z" fill="#2c2832" stroke-width="0"/>
      <path d="m199.85,599.05l-1-1.81c-1.52-2.82-4.18-3.23-7.02-3.43-2.45-.17-5.03.6-7.32-.9-.57-.54-1.14-1.07-1.7-1.61,6.23.15,12.6-.62,18.42,2.46,1.18.63,1.84-.59,2.82-.48.68-.27,1.03.05,1.19.68-1.8,1.68-3.26,3.74-5.39,5.07Z" fill="#34323a" stroke-width="0"/>
      <path d="m133.42,582.08c-1.72,3.19-3.43,6.37-5.61,10.42,0-3.17,0-5.34,0-7.52.29-1.67.58-3.33.87-4.99,1.69-.34,1.7,2.54,3.57,1.91.44-.27.83-.2,1.17.19Z" fill="#090909" stroke-width="0"/>
      <path d="m217.95,539.01c-.13,10.53,1.32,21.01.76,31.55-1.45-1.81.31-4.31-1.31-6.08-.05-8.45-.1-16.89-.15-25.34.23-.09.46-.14.7-.14Z" fill="#44375e" stroke-width="0"/>
      <path d="m157.58,536.41c-.05.46-.1.91-.16,1.37-1.54.11-2.51-1.04-3.68-1.72-3.3-1.94-6.82-2.51-10.55-1.84-2.72.49-4.96,1.72-6.36,4.25-.51.93-.72,2.25-2.21,2.26-.3-.82.18-1.91-.89-2.46,5.65-7.76,16.77-8.62,23.84-1.85Z" fill="#28252d" stroke-width="0"/>
      <path d="m269.37,532.88c0-.2,0-.4-.01-.61,4.02-1.04,8.07-1.76,12.24-1.75,3.92,0,7.05,1.42,9.27,4.71-.32.34-.63.68-.95,1.02-.97.04-1.65-.54-2.31-1.12-2.67-2.34-5.7-2.69-9.16-2.3-2.98.33-6.06,2.15-9.07.05Z" fill="#27232f" stroke-width="0"/>
      <path d="m205.04,594.12c-.33-.27-.66-.54-.99-.82,4.24-1.31,8.22-1.12,11.68,2.03-.05.48-.1.95-.15,1.43-3.35-1.52-7.14-1.34-10.55-2.64Z" fill="#413c48" stroke-width="0"/>
      <path d="m195.14,536.71c-.31.33-.62.65-.93.98-2.72.31-5.5,0-8.17.78-.33-.63-.67-1.26-1-1.89,3.4-2.51,6.75-.92,10.1.13Z" fill="#433a54" stroke-width="0"/>
      <path d="m306.12,572.02c-.25-.31-.5-.62-.75-.93,2.36-1.42,4.72-2.84,7.66-2.36,0,.32,0,.64,0,.96-2,1.68-4.31,2.43-6.92,2.32Z" fill="#3d1b28" stroke-width="0"/>
      <path d="m133.42,582.08c-.39-.06-.78-.12-1.17-.19,2.52-1.8,4.71-.47,6.9.75.19.94.31,1.86-.76,2.39-.2-3.43-3.34-1.93-4.97-2.96Z" fill="#4a4554" stroke-width="0"/>
      <path d="m151.45,585.88c.09.18.1.37.02.56-2.37,1.35-4.55-.17-6.8-.45-.04-.34-.08-.68-.12-1.03,2.58-1.77,4.69-.09,6.9.91Z" fill="#393443" stroke-width="0"/>
      <path d="m122.33,411.73c-13.79-4.02-24.84-12.35-34.8-22.38,11.02,8.36,21.78,17.13,34.8,22.38Z" fill="#172332" stroke-width="0"/>
      <path d="m75.92,380.39c5.77,6.5,11.3,13.21,17.21,19.58-7.13-5.28-12.88-11.79-17.21-19.58Z" fill="#15202f" stroke-width="0"/>
      <path d="m96.78,375.14c-2.45-4.07-4.32-8.36-4.58-13.19,2.52,4.04,3.6,8.6,4.58,13.19Z" fill="#192637" stroke-width="0"/>
      <path d="m348.64,333.73c3.8-6.12,7.59-12.25,11.96-19.29-.08,4.46-7.58,17.2-10.96,19.84-.33-.18-.66-.37-.99-.55Z" fill="#070b10" stroke-width="0"/>
      <path d="m360.27,420.02c5.01-4.38,10.01-8.76,15.02-13.14-.28-.28-.56-.57-.84-.85-.41,2.45-8.64,11.3-14.18,14Z" fill="#131d29" stroke-width="0"/>
      <path d="m147.88,204.3c-.98-5.03-4.9-7.45-8.19-10.39-3.08-2.75-4.93-6.02-3.81-10.54,1.71,6.33,6.38,10.09,11.11,13.96,1.95,1.6.62,4.61.9,6.97Z" fill="#0f0c14" stroke-width="0"/>
      <path d="m131.46,155.23c-.92.11-1.44-.27-1.52-1.21-.43-5.35-2.13-10.31-5.06-15.49,4.81,2.19,4.84,6.67,6.55,10.07,0,2.21.02,4.42.03,6.63Z" fill="#0f0c15" stroke-width="0"/>
      <path d="m220.51,37.23c4.14,1.64,6.89,4.5,7.83,8.91-2.61-2.97-5.22-5.94-7.83-8.91Z" fill="#5c5c5c" stroke-width="0"/>
      <path d="m102.46,313.88c-1.97,1.67-3.53-.21-5.2-.68-1.94-.54-3.46-2.17-5.57-2.37-4.08-2.74-8.8-3.94-13.34-5.56-4.41-1.57-9.11-1.88-13.92-3.09,4.68-2.23,8.88-.61,12.97.55,8.87,2.5,17.21,6.31,25.06,11.16Z" fill="#070a0f" stroke-width="0"/>
      <path d="m111.44,317.05c-.05,1.63-.75.73-1.26.3-1.6-1.34-2.76-3.18-4.73-4.09-5.59-4.73-11.84-8.22-19.54-10.17,7.63-1.44,21.47,6.4,25.53,13.96Z" fill="#080d12" stroke-width="0"/>
      <path d="m120.81,153.82c-4.16,11.42-13.35,17.89-23.27,23.65-1.75,1.01-3.47,2.07-5.2,3.1-5.05,2.18-9.67,5.06-13.92,8.53-9.78,8.01-10.55,18.18-6.97,29.39,1.25,3.89,2.94,7.58,4.92,11.15.51.87.56,1.51-.73,1.5-6.51-8.5-9.07-18.22-7.76-28.68,1.02-8.13,6.77-13.43,13.13-17.94,4.89-3.47,10.36-5.94,15.54-8.91,10.33-5.94,19.65-12.84,23.21-25.05.18-.6.25-1.24.38-1.86,1.45,1.55.38,3.43.67,5.13Z" fill="#08070b" stroke-width="0"/>
      <path d="m105.02,184.27c1.95,9.18-3.15,30.99-8.6,35.54,5.1-11.76,7.82-23.42,8.6-35.54Z" fill="#383147" stroke-width="0"/>
      <path d="m97.74,241.18c-.63,2.7-2.31,1.2-3.54.77-5.04-1.77-8.81-5.35-12.51-9.02-1.83-1.19-2.34-3.08-3.2-5.93,6.31,5.92,11.65,11.65,19.25,14.18Z" fill="#14111a" stroke-width="0"/>
      <path d="m115.16,183.43c4.9,6.99,6.45,14.88,6.1,23.26-1.62-7.87-2.81-15.85-6.1-23.26Z" fill="#3b334b" stroke-width="0"/>
      <path d="m97.38,237.42c3.08-.24,5.67,1.1,8.35,2.08.72.26,1.49.69,1.04,1.63-.4.85-1.23.74-1.97.45-2.66-1.02-5.34-2-7.42-4.16Z" fill="#2a2536" stroke-width="0"/>
      <path d="m75.65,231.13c.67-.29.63-.93.73-1.5,1.67,1.22,1.73,3.73,3.76,4.65.72.98,1.43,1.97,2.15,2.95-2.72-1.52-5.04-3.43-6.65-6.1Z" fill="#362d48" stroke-width="0"/>
      <path d="m313.81,323.23c.52-6.81.99-13.62,2.36-20.32.35-1.71,1.06-3.4,1.88-4.94.61-1.16,1.91-1.2,3.04-.66,1.23.6.87,1.54.49,2.59-2.38,6.51-2.56,13.37-3.14,20.16-.2,2.39.06,4.8-.65,7.18-.38,1.26-.46,2.74-2.13,2.62-1.92-.13-1.83-1.78-1.84-3.19-.01-1.14,0-2.29,0-3.43Z" fill="#bd7744" stroke-width="0"/>
      <path d="m315.27,338.36c-3.55,4.09-5.68,9.82-9.65,14.2-1.29,1.42-3.04-.84-2.44-2.35,2.1-5.31,5.01-10.2,9.06-14.32.58-.59,1.38-.6,2.12-.15.73.45.95,1.15.91,2.62Z" fill="#bc7744" stroke-width="0"/>
      <path d="m321.39,288.44c-.03,1.63-.77,2.4-2.31,2.49-1.61.1-2.34-.55-2.22-2.18.12-1.54.76-2.86,2.37-2.84,1.39.02,2.03,1.27,2.15,2.53Z" fill="#ba7442" stroke-width="0"/>
      <path d="m170.56,327.07c1.24,1.85,3.78,1.87,5.12,3.84-2.74-1.22-5.44,1.57-8.14-.21-2.92-2.61-6.58-4.7-6.74-9.37,2.53,3.36,4.85,6.88,9.29,8.46-.58-2.08-3.12-2.48-3.23-4.86,1.84-.22,2.34,1.78,3.69,2.15Z" fill="#312743" stroke-width="0"/>
      <path d="m163.38,333.18c-.7,1.09-1.83.57-2.78.76-2.96-1.92-6.03-3.76-5.89-8.73,2.59,3.59,5.37,6.09,8.67,7.97Z" fill="#15111d" stroke-width="0"/>
      <path d="m151.81,300.56c.71,4.89,3.99,7.25,5.7,10.85-4.69-1.06-6.62-4.47-5.7-10.85Z" fill="#14101c" stroke-width="0"/>
      <path d="m198.08,317.77c0,1.72.06,3.45,0,5.17-.02.57-.41,1.43-1.01,1.28-.91-.23-.42-1.25-.57-1.93.81-1.41-1.01-3.74,1.59-4.53Z" fill="#2c233c" stroke-width="0"/>
      <path d="m201.4,136.06c-3.77-1.99-7.54-3.97-11.31-5.96,4.8.03,8.29,2.55,11.79,5.04l-.48.92Z" fill="#261e36" stroke-width="0"/>
      <path d="m302.27,212.82c1.23-.17,2.35-.54,3.13-1.59,1.31-1.14,2.54.13,3.82.14,1.02,0,2.06,1.02,3.05-.1,2.16,3.03,5.64,3.17,8.54.24,3.09-3.12,3.92-7.25,3.6-11.26-.55-6.94-2.03-13.76-5.4-20-1.64-3.04-3.81-5.07-7.39-5.95-5.4-1.34-10.62-3.39-15.98-4.92-1.69-.48-4.03-1.14-4.06,2.1-.37-.01-.87.04-.97-.36-1.15-4.64-3.46-9.1-2.15-14.11.28-1.61.83-2.5,2.82-1.92,5.35,1.57,10.76,2.92,16.14,4.38,4.19,1.13,6.05,5.34,9.61,7.31,1.73.18,2.15,1.65,2.67,2.89,3.06,7.27,5.22,14.82,6.95,22.5.67,2.96.5,5.99.24,9,.14,4.99-2.87,8.87-4.65,13.17-1.06,2.82-3.68,3.75-6.09,3.64-4.67-.21-9.2-1.48-13.3-3.91-.47-.28-.7-.69-.58-1.26Z" fill="#957dc1" stroke-width="0"/>
      <path d="m326.88,201.16c-.82-8.33-2.8-16.39-5.56-24.27-1.21-3.46-2.2-7.03-4.3-10.12-3.63-8.55-9.14-15.18-18.21-18.39-4.8-1.7-9.62-3.44-14.06-5.99-4.81-2.76-8.87-6.23-11.01-11.76.6-.07.92-.19.98-.11,5.84,8.23,14.4,12.3,23.57,15.45,9.02,3.1,15.58,8.91,19.76,17.5,4.78,9.81,8.21,20.04,9.85,30.83.35,2.32.7,4.78-1.01,6.86Z" fill="#08060b" stroke-width="0"/>
      <path d="m288.45,157c.77,4.88,1.06,9.87,3.12,14.47,1.12,6.09,3.97,11.46,7.07,16.72.95,1.61,1.97,3.18,3.33,5.36-5.1-3.33-8.02-9.25-13.6-26.7-.85-3.48-1.59-6.97-1.29-10.59.46.24.91.49,1.37.73Z" fill="#362e44" stroke-width="0"/>
      <path d="m302.27,212.82c3.98,3.08,8.78,3.79,13.53,4.41,2.55.33,4.37-1.72,6.43-2.89.6-.17,1.4-.67,1.74-.45.7.44.09,1.09-.27,1.57-1.49,1.92-3.57,3.08-5.88,3.15-7.62.23-14.45-1.96-20.07-7.32,1.93-.75,2.85,1.47,4.51,1.53Z" fill="#322943" stroke-width="0"/>
      <path d="m130.49,124.14c-9.58-2.25-19.12-4.28-29.35-.48,4.24-5.03,21.69-4.65,29.35.48Z" fill="#4f4d43" stroke-width="0"/>
      <path d="m122.32,116.95c4.07,1.32,8.14,2.63,12.21,3.95,1.11,1.38,3.45.88,4.67,3.48-7.05-2.15-13.15-5.15-20.01-6.45,1.13-1.54,2.23-.75,3.14-.98Z" fill="#56554b" stroke-width="0"/>
      <path d="m257.73,99.31c-2.33,1.6-4.66,3.19-7.74,5.31.92-3.02,2.84-3.66,4.25-4.76,2.52-1.95,5.09-3.82,7.68-5.67.81-.58,1.68-1.93,2.75-.26-1.62,2.68-3.88,4.55-6.94,5.37Z" fill="#535146" stroke-width="0"/>
      <path d="m265.67,94.93c2.17-.76,3.93-2.74,6.73-1.87-4.38,2.08-8.27,4.89-12.31,7.48-.97.62-1.31-.09-1.15-1.05,1.95-1.95,3.95-3.83,6.73-4.56Z" fill="#535146" stroke-width="0"/>
      <path d="m265.67,94.93c-2.24,1.52-4.48,3.04-6.73,4.56-.4-.06-.81-.12-1.21-.18,2.31-1.79,4.63-3.58,6.94-5.37.33.33.67.67,1,1Z" fill="#cac6ac" stroke-width="0"/>
      <path d="m240.38,380.04c3.6,4.3,8.31,7.6,11.31,12.43-.21.13-.44.25-.66.35-5.07.4-10.14.81-15.22,1.21.46-1.69-.27-2.93-1.5-3.97-3.51-2.95-6.43-6.7-11.05-8.13,5.62-1.45,11.42-1.23,17.12-1.9Z" fill="#8875dc" stroke-width="0"/>
      <path d="m223.25,381.94c1.58.39,3.77-.64,4.71.77,2.5,3.76,7.05,5.41,9.26,9.38.96,1.72-1.02,1.24-1.42,1.94-3.37.3-6.74.61-10.12.91-4.2-3.77-8.34-7.61-11.68-12.22,3.01-1.07,6.14-.73,9.24-.8Z" fill="#a359e7" stroke-width="0"/>
      <path d="m214.01,382.74c4.4,3.58,8.57,7.4,11.68,12.22-3.78.7-7.58,1.25-11.44.97-2.44-4.06-5.13-7.87-10.03-9.27,1.59-5.49,6.26-3.29,9.79-3.91Z" fill="#b945f0" stroke-width="0"/>
      <path d="m312.26,211.27c-.38,2.22-1.9.95-2.9.85-1.34-.14-2.65-.58-3.97-.89-4.38-2.39-8.95-4.51-11.84-8.98,5.74,4.11,11.5,8.07,18.71,9.02Z" fill="#362f45" stroke-width="0"/>
      <path d="m133.9,392.13c1.96-1.61,2.07-4.45,4.64-6.82-.55,4.84-3.32,7.53-5.38,10.57-1.27.58-1.45,2.35-3.16,2.78-.07-3.11,3.06-4.16,3.9-6.53Z" fill="#504f4a" stroke-width="0"/>
      <path d="m135.41,382.89c.97-.99,2.03-1.3,1.49.57-.76,2.65-2.03,5.16-3.08,7.73-1.63-.43-.95-1.46-.55-2.33.88-1.93,1.81-3.84,2.13-5.97Z" fill="#555451" stroke-width="0"/>
      <path d="m221.33,353.09c-2.31.21-3.93-.7-5.42-2.55-1.89-2.34-4.16-4.38-6.37-6.44-1.29-1.2-1.58-2.16.04-3.22,5.38-.53,10.69-1.67,16.13-1.57,3.54,4.36,7.66,8.18,11.58,12.18-5.26,1.15-10.6,1.49-15.97,1.61Z" fill="#5f9fca" stroke-width="0"/>
      <path d="m237.29,351.48c-1-.12-2.11.02-2.76-.99-2.16-3.36-5.39-5.73-8.05-8.62-.69-.76-1.58-1.39-.78-2.57,5.13-.28,10.15-1.68,15.32-1.5,1.87,4.07,5.63,6.49,8.49,9.69.9,1.01,2.22.29,3.2.9.42,1.38.04,2.19-1.52,2.2-4.64.29-9.27.58-13.91.88Z" fill="#3dc1bc" stroke-width="0"/>
      <path d="m252.63,348.25c-1.04.28-1.72,2.06-3.18.52-2.68-2.83-5.47-5.56-8.26-8.29-.93-.91-.77-1.74-.16-2.67,4.33-.59,8.67-1.18,13-1.76.88.01,1.77-.02,2.65.05,2.06.17,2.76,1.1,1.6,3-1.11,1.83-2.23,3.66-3.34,5.48.1,1.77-.83,2.9-2.31,3.67Z" fill="#24dbb1" stroke-width="0"/>
      <path d="m259.06,194.47c-.7-2.99-.89-5.34,2.31-7.41,3.8-2.46,5.44-6.91,7.53-11.54.34,4.83-1.23,8.37-4.07,11.25-2.29,2.31-4.82,4.35-5.76,7.71Z" fill="#0d0b12" stroke-width="0"/>
      <path d="m123.95,37.05c-3.57,4.42-3.61,9.57-3.23,15.59-3.32-5.14-.96-14.9,3.23-15.59Z" fill="#5a584d" stroke-width="0"/>
      <path d="m129.19,50.67c-.61,4.08-.07,8.17.06,12.57-2.42-2.86-2.48-9.59-.06-12.57Z" fill="#5e5c50" stroke-width="0"/>
      <path d="m124.91,56.25c-1.75-3.48-1.61-8.6.23-11.75-.19,3.91-.63,7.82-.23,11.75Z" fill="#49473e" stroke-width="0"/>
      <path d="m131.49,67.31c-1.44-2.83-1.68-5.56,0-8.26v8.26Z" fill="#33322b" stroke-width="0"/>
      <path d="m349.71,369.88v7.58c-2.05-1.56-4.07-3.11-6.74-1.97-1.01-3.14-2.66-.43-4.01-.48-.41-.02-1-.4-1.15-.77-.58-1.36.82-1.77,1.27-2.78-2.69,2.14-6.34,3.22-8.15,6.21-3.06,5.05-7.71,7.92-12.67,10.55-2.17-1.17-.56-2.73-.18-3.87,4.18-12.66,18.09-18.98,31.62-14.48Z" fill="#fbfbfc" stroke-width="0"/>
      <path d="m252.63,348.25c.77-1.22,1.54-2.45,2.31-3.67,2.68.12,1.7,1.74.99,2.84-2.12,3.32-4.41,6.53-6.63,9.79-5.06,6.19-10.88,11.56-17.41,16.17-1.25,2.15-3.31,2.87-5.59,3.21-1.07-.04-1.51-.58-1.28-1.64,1.73-2.79,4.87-3.86,7.21-5.9,3.6-2.19,6.79-4.87,9.65-7.94,1.04-1.12,2.06-2.2,3.52-2.75,2.16-2.41,4.36-4.79,5.8-7.74.97-.49,1.6-1.18,1.43-2.36Z" fill="#0a0d0f" stroke-width="0"/>
      <path d="m254.78,361.17c-1.58,1.62-3.14,3.26-4.73,4.86-.45.45-1.11.83-1.68.39-.82-.64-.31-1.34.21-1.93,1.65-1.88,3.67-3.46,4.74-5.81,1.97-2.02,2.91-4.68,4.4-7,.42-.65.87-1.38,1.74-.76.63.45.35,1.14.05,1.7-1.56,2.86-3.14,5.7-4.72,8.55Z" fill="#111716" stroke-width="0"/>
      <path d="m253.38,287.58c-.59-.55-1.18-1.1-1.79-1.68.96-.57,1.67.35,2.5.23,5.04,2.76,9.64,6.09,13.65,10.24-5.15-2.39-9.16-6.55-14.37-8.79Z" fill="#541719" stroke-width="0"/>
      <path d="m270.04,297.27c-.95-2.19-1.9-4.39-2.85-6.58,2.84,1.35,3.37,3.76,2.85,6.58Z" fill="#661d20" stroke-width="0"/>
      <path d="m160.68,284.03c-1.1-4.75-.73-9.08,3.49-12.31.82-.63,1.87-1.43,2.63-.41.69.92-.52,1.48-1.2,1.98-2.71,2.01-3.68,4.72-3.26,8,.17,1.37.72,2.99-1.72,2.69,0,0,.05.06.05.06Z" fill="#0c0910" stroke-width="0"/>
      <path d="m327.77,403.64c-.89.92-1.75,1.9-3.04,2.29-3.69.39-5.69-1.87-6.88-4.82-1.55-3.85-.22-8.1,2.88-10.52,2.65-2.32,5.67-3.91,9.12-4.7.29.29.52.61.7.98.62,2.59-.96,5.09-.31,7.69.32,1.84.38,3.69.46,5.56.09,2.17-.91,3.2-2.92,3.52Z" fill="#a486dc" stroke-width="0"/>
      <path d="m320.72,390.59c-1.3,2.34-2.53,4.62-2.37,7.5.23,4.24,1.69,6.22,6.37,7.84-4.77,1.76-9.87-3.6-9.06-9.25.49-3.45,1.31-7.41,5.82-8.43-.25.78-.5,1.56-.75,2.34Z" fill="#8563c6" stroke-width="0"/>
      <path d="m345.19,386.34c.29.16.58.31.88.47,1.61,2.73-.32,3.38-2.33,3.67-2.26.33-4.6.44-6.45-1.34-.62-.59-.69-1.43-.07-2.04,1.76-1.72,3.97-1.33,6.11-1.12.63.06,1.24.23,1.87.35Z" fill="#f4f4f4" stroke-width="0"/>
      <path d="m327.77,403.64c3.36-2.54,2.21-6.02,1.94-9.31-.71-2.61,1.36-5.12.28-7.74,0-.24-.05-.47-.15-.69,3.21.36,2.73,3.1,2.14,4.62-1.15,3.01-.83,5.88-.48,8.85.22,1.87-.36,3.48-1.56,4.89-.72-.2-1.45-.41-2.17-.61Z" fill="#4f3d73" stroke-width="0"/>
      <path d="m344.33,404.41c-.23.47-.46.94-.68,1.42-1.07-2.03-1.74-4.3-4.72-4.63-.83-.09-2.68-1.43-2.03-2.91.68-1.54,2.11-1.24,3.23-.08,1.18.7,1.56,2.61,3.43,2.25,1.54,1.07.66,2.61.78,3.96Z" fill="#554474" stroke-width="0"/>
      <path d="m343.55,400.46c-1.35,1.4-2.33.75-3.43-2.25,2.81-1.78,2.2,1.64,3.43,2.25Z" fill="#d8d8d8" stroke-width="0"/>
      <path d="m232.59,369.67c-2.14,2.31-5.04,3.53-7.56,5.28-1.45-1.12-3.13-.31-4.69-.56-2.22-3.21-4.93-5.95-7.98-8.38-1.31-1.05-2.13-2.46-2.79-3.98,5.08-.91,10.23-1.18,15.37-1.44,2.58,2.99,7.1,4.36,7.64,9.07Z" fill="#837ad9" stroke-width="0"/>
      <path d="m226.31,376.59c1.86-1.07,3.73-2.14,5.59-3.21,2.82.06,5.56-1.03,8.41-.49-3.94,3.96-8.52,5.53-14,3.7Z" fill="#ece7cb" stroke-width="0"/>
      <path d="m232.59,369.67c-1.62-3.81-6.2-5.12-7.64-9.07,6.82-.75,13.64-1.5,20.46-2.25-3.79,4.33-7.57,8.65-12.82,11.32Z" fill="#6597cb" stroke-width="0"/>
      <path d="m209.22,289.23c.67,3.55-.39,6.53-2.98,9,.99-3,2.36-5.88,2.98-9Z" fill="#282037" stroke-width="0"/>
      <path d="m201.12,309.65c.18-2.09,1.04-4.02,1.66-6.03.8,2.28.07,4.26-1.66,6.03Z" fill="#2c233c" stroke-width="0"/>
      <path d="m168.19,589.69c1.94,4.09,3.89,8.19,5.83,12.28.25-.03.49-.07.74-.1.37-2.66.75-5.33,1.13-7.99.18-1.26-.16-3.48,1.97-2.5,1.19.55,4.41-1.34,3.7,3.04-.73,4.57-.81,9.35-1.53,13.98-.18,1.13,1,3.59-1.64,3.47-2.14-.1-4.62.41-5.93-2.35-1.62-3.4-3.54-6.66-5.76-10.77-.61,3.43-1.27,5.99-1.46,8.59-.21,2.85-1.88,2.39-3.73,2.15-1.82-.24-3.1-.5-2.55-3,1.11-5.08,1.99-10.22,2.8-15.37.33-2.1,1.27-2.46,3.11-1.91,1.09.32,2.25.37,3.38.55,0,0-.06-.06-.06-.06Z" fill="#fdfdfd" stroke-width="0"/>
      <path d="m144.67,585.99c2.37-1.37,4.51.64,6.8.45,2.21,6.53,2.19,13.47,3.72,20.12.13.55.25,1.54-.64,1.42-1.82-.25-4,.02-5.21-1.65-2.47-3.41-6.41-4.51-9.79-2.48q-1.02.61-6.27-.9c3.85-5.72,7.63-11.34,11.4-16.95Z" fill="#fcfcfc" stroke-width="0"/>
      <path d="m205.04,594.12c3.87-.53,7.55-.31,10.55,2.64.71,2.03.4,3.06-2.14,2.79-1.65-.17-3.19-.21-4.62-1.27-.68-.5-1.8-.35-2.3.63-.59,1.16.41,1.63,1.17,1.98,1.61.73,3.32,1.27,4.93,1.99,2.31,1.03,3.53,2.78,3.38,5.41-.15,2.61-1.61,4.17-3.89,5.13-3.65,1.53-8.93.84-11.15-1.44-.82-.84-1.64-1.82-1.21-3.01.47-1.31,1.74-.5,2.66-.61,1.72-.2,3.16.41,4.62,1.29.85.51,2.1.46,2.56-.75.4-1.07-.5-1.62-1.33-1.98-1.16-.51-2.37-.9-3.55-1.36-2.96-1.16-4.93-3.08-4.87-6.51,1.07-2.34,2.48-4.32,5.19-4.94Z" fill="#fbfbfb" stroke-width="0"/>
      <path d="m184.51,592.92c4.43-.88,8.79.14,13.15.59,2.4.25.54,2.54,1.19,3.73v-.02c-2.27.41-4.78.56-4.5,3.92-.26,3.16-.72,6.31-.73,9.47,0,2.48-.98,2.95-3.2,2.75-2.21-.2-3.6-.52-3.16-3.34.57-3.62.72-7.31,1.04-10.97.09-1.08.55-2.58-1.33-2.4-3.37.33-2.36-2.02-2.46-3.74Z" fill="#fbfbfb" stroke-width="0"/>
      <path d="m194.35,601.14c-1.1-4.31,1.92-3.87,4.51-3.92-1.48,1.34-4.43.98-4.51,3.92Z" fill="#34323a" stroke-width="0"/>
      <path d="m197.32,605.66c1.63,1.47,1.7,2.52-.36,3.66-.45-1.34-.43-2.38.36-3.66Z" fill="#544372" stroke-width="0"/>
      <path d="m186.04,538.47c2.44-3.19,5.37-1.32,8.17-.78-.2,6.56-.56,13.12-.54,19.68,0,2.73.07,5.88,3.73,6.81,6.75.65,8.86-1.14,8.99-7.9.11-5.36.23-10.73-.04-16.07-.23-4.53,2.98-2.49,4.9-2.9,2.08-.45,3.18-.03,3.12,2.63-.13,6.11.24,12.24.26,18.35.03,7.48-3.71,11.55-11.21,12.35-3.96.42-7.88.36-11.62-1.34-4.4-2-6.74-5.34-6.59-10.21.21-6.88.55-13.75.83-20.63Z" fill="#fefefe" stroke-width="0"/>
      <path d="m134.63,540.71c4.21-9.32,14.5-10.65,22.79-2.94.02.13.03.25.06.38.46,1.81,2.43,4.59.27,5.2-2.23.63-5.82,1.26-7.62-2.07-.91-1.69-2.56-1.99-4.24-1.98-1.18,0-2.26.52-2.75,1.71-.54,1.34.34,2.15,1.29,2.85,3.16,2.32,7.09,3.38,10.05,6.04.76.23,1.23.73,1.34,1.54,3.56,7.79-.76,14.92-9.26,15.27-6.56.27-12.02-2.55-13.64-7.02-1.29-3.57-.79-4.19,2.99-3.75,2.36.27,4.53.43,5.93,3.06.79,1.47,2.96,1.72,4.85,1.08,1.1-.38,1.77-1.05,1.84-2.17.13-1.86-1.35-2.62-2.63-3.4-1.41-.86-2.9-1.58-4.38-2.31-4.77-2.35-7.66-5.82-6.9-11.48Z" fill="#fdfdfd" stroke-width="0"/>
      <path d="m163.71,538.39c1.17-3.06,4.67-4.14,7.77-2.33,1.23.72.76,2.03.7,3.05-.48,7.08-.93,14.17-1.63,21.24-.27,2.73.42,3.5,3.21,3.25,2-.18,4.27-.75,6.15.77q0,5.8-5.94,5.38c-1.64-.12-3.28-.31-4.92-.46-7.62-.71-7.59-.71-6.91-8.53.65-7.45,1.77-14.86,1.58-22.37Z" fill="#fdfdfd" stroke-width="0"/>
      <path d="m155.83,551.44c-.45-.51-.89-1.03-1.34-1.54.34-.17.66-.45,1.01-.5,1.59-.2,3.88-1.05,4.62-.33,1.22,1.19.37,3.3-.32,4.92-1.88-.07-1.38-3.67-3.97-2.55Z" fill="#614f82" stroke-width="0"/>
      <path d="m258.7,587.39c5.3-5.6,11.56-8.1,19.28-6.12,3.38.87,5.78,3.1,8.11,5.47,3.74,7.75,2.61,14.17-3.29,18.72-6.46,4.98-16.21,5.13-21.97.33-5.07-4.22-5.86-11.06-2.13-18.4Z" fill="#ec444b" stroke-width="0"/>
      <path d="m306.12,572.02c2.1-1.38,4.43-2.07,6.92-2.32,1.8,5.3,3.63,10.59,5.41,15.89,2.05,6.13.28,10.38-5.43,13.29-2.41,1.23-4.96,2.02-7.64,2.26-5.93.54-9.45-1.86-11.04-7.61-1.39-5.03-2.54-10.12-3.96-15.14-.98-3.46,2.07-2.48,3.41-3.15,1.35-.68,3.07-1.41,3.75,1.24,1.25,4.93,2.67,9.82,4.17,14.68.82,2.66,2.43,4.49,5.64,3.83,3.4-.69,4.88-3.2,3.78-6.95-1.58-5.37-3.33-10.69-5.01-16.03Z" fill="#ec444b" stroke-width="0"/>
      <path d="m241.86,594.17c1.8-6.44,3.47-12.4,11.73-10.25-.69,3.35-2.37,6.49-4.2,9.4-3.04,4.85-3.7,9.85-2.53,15.33.28,1.31,1.16,3.2-.61,4.07-1.84.91-3.99.69-6.03.54-.26-.02-.53-.45-.71-.74-.13-.2-.18-.5-.14-.74,1.6-10.62-5.88-17.33-10.83-25.12-.06-.1-.05-.24-.13-.7,2.88-.44,6.1-2.07,8.5.02,2.07,1.8,3.03,4.86,4.97,8.2Z" fill="#ec444b" stroke-width="0"/>
      <path d="m269.37,532.88c2.94.37,5.75-.54,8.58-1.02,4.93-.83,9.04.03,11.97,4.4.75,3.29,1.26,6.55-1.53,9.25-.94.9-.17,1.11.51,1.52,4.09,2.49,4.81,6.46,4.05,10.65-.73,4.07-3.85,6.2-7.7,6.97-4.35.88-8.77,1.39-13.14,2.13-2.07.35-2.52-.59-2.73-2.48-.99-9.08-1.97-18.18-3.34-27.2-.48-3.17.56-4.13,3.34-4.22Z" fill="#fefefe" stroke-width="0"/>
      <path d="m296.31,536.97c4.08-8.04,10.6-11.9,19.65-11.81,7.12.07,11.9,3.62,15.41,9.42,2.65,7.3,1.71,13.94-4.3,19.13-6.38,5.51-13.89,6.91-21.8,3.93-7.98-3.01-11.15-10.72-8.96-20.67Z" fill="#fdfdfd" stroke-width="0"/>
      <path d="m221.1,552.88c0-4.32.11-8.64-.08-12.95-.08-1.79.57-2.23,2.16-2.67,6.04-1.67,8.01-.92,10.89,4.53,2.11,4,4.24,7.99,6.67,12.54,2.21-5.58,4.39-10.45,6.03-15.5.91-2.8,2.24-3.89,5.12-3.69,1.47.1,2.99-.47,4.49-.74,2.08-.09,2.03,1.47,2.17,2.85,1.01,9.38,1.93,18.78,3.05,28.15.28,2.34-.63,2.76-2.66,2.95-5.77.52-5.76.61-6.22-5.23-.4-5.08-.8-10.16-1.24-15.81-3.26,7.83-6.34,15.24-9.73,23.38-4.19-7.32-7.96-13.89-11.73-20.47-.19,0-.39.02-.58.03.24,5.32.54,10.64.7,15.96.04,1.4,1.07,3.57-.61,4.06-2.25.66-4.81.48-7.2.27-.9-.08-.49-1.55-.54-2.4-.24-5.09-.45-10.18-.68-15.26Z" fill="#fefefe" stroke-width="0"/>
      <path d="m91.02,520.87c2.65-2.5,5.64-4.35,9.42-4.19,2.25.1,2.19-1.53,2.72-2.9.41-1.07-.26-3.37,2.11-2.61,1.73.56,4.79-.13,4.15,3.42-1.08,2.34-.58,3.99,1.84,5.24,1.6.82,2.63,2.41,3.29,4.11.99,2.56,2,6.25.27,7.59-2.11,1.63-5.45-.75-8.28-1.21-1.1-.18-.65-1.49-.81-2.31-.39-2.03-1.71-3.1-3.69-3.29-1.55-.15-2.77.57-3.34,2.03-.74,1.9.37,3.22,1.75,4.25,2.55,1.9,5.25,3.6,7.79,5.52,5.05,3.8,6.48,7.78,4.93,13.3-1.45,5.17-5.18,8.17-11.35,8.39-2.81.1-2.79,1.97-2.91,3.53-.32,4.14-2.86,1.86-4.63,1.77-2.34-.12-3.14-1.17-2.13-3.48.89-2.04.33-3.26-1.88-4.43-4.89-2.58-6.32-6.29-5.98-13.29,1.31-.85,2.3,1.02,3.59.38,1.34.36,2.68.78,4.04,1.05,1.36.27,2.2.68,2.37,2.36.25,2.47,2.08,3.64,4.41,4.1,1.8.36,3.32-.09,4.3-1.69,1.06-1.73.39-3.3-1-4.4-2.29-1.83-4.75-3.43-7.11-5.16-7.24-5.33-8.27-10.21-3.85-18.07Z" fill="#fefefe" stroke-width="0"/>
      <path d="m329.99,386.58c1.47,2.64.03,5.17-.28,7.74-1.72-2.65.55-5.15.28-7.74Z" fill="#8160c1" stroke-width="0"/>
      <path d="m322.72,401.51c-.79-2.99-.55-5.05,0-7.12v7.12Z" fill="#69578c" stroke-width="0"/>
      <path d="m147.65,590.58c.31,2.63.62,4.25.64,5.87,0,.98.87,2.56-.71,2.85-1.14.2-2.69-.14-3.61-.83-1.3-.98.26-1.97.69-2.86.7-1.46,1.64-2.8,2.99-5.03Z" fill="#161616" stroke-width="0"/>
      <path d="m268.21,601.86c-3.91-1.29-5.68-6.2-3.81-10.58,1.75-4.11,6.95-6.2,11.18-4.48,4.05,1.64,6.38,6.92,4.9,11.13-1.41,4.02-6.52,6.64-10.55,5.33-.36-.12-.55-.77-.82-1.17,1.41-.74,3.01-.33,4.48-.8,2.3-.74,3.33-2.29,3.01-4.63-.36-2.61-2.12-3.67-4.59-3.59-2.43.09-3.61,1.52-3.87,3.89-.18,1.65.71,3.26.07,4.91Z" fill="#050203" stroke-width="0"/>
      <path d="m268.21,601.86c-.66-1.37-1.37-2.69-1.36-4.3,0-3.47,1.88-5.61,5.22-5.76,3.14-.14,5.52,2.05,5.78,5.31.25,3.12-1.52,5.07-5,5.43-1.27.13-2.54.11-3.74-.46-.3-.08-.6-.15-.9-.23Z" fill="#8167b0" stroke-width="0"/>
      <path d="m279.51,550.35c3.09-.04,5,1.22,5.1,4.41.08,2.63-2.67,5.25-5.72,4.6-3.51-.75-1.67-4.39-2.42-6.65-.92-2.76,1.79-1.91,3.04-2.36Z" fill="#080808" stroke-width="0"/>
      <path d="m277.83,538.33c2.65-.16,4.65.41,4.66,3.33.01,3.58-3.02,4.08-5.35,4.03-3.45-.07-1.9-3.37-2.33-5.24-.67-2.95,1.95-1.71,3.02-2.13Z" fill="#0a0a0b" stroke-width="0"/>
      <path d="m306.96,549.79c-3.71-4.17-4.33-9.93-1.52-13.91,2.78-3.93,8.06-5.4,12.53-3.79,6.28,2.26,9.51,12.88,2.93,17.87-.35.2-.7.19-1.05.01-.91-1.42.05-2.7.31-4.02.54-2.77-.26-5.07-2.51-6.75-2.01-1.49-4.23-1.67-6.48-.47-2.41,1.28-3.28,3.4-3.24,6.03.02,1.4.56,2.76.28,4.18-.22.57-.53,1.01-1.25.85Z" fill="#030303" stroke-width="0"/>
      <path d="m319.59,549.78c.44.06.88.12,1.31.18-4.92,3.84-9.67,3.79-13.94-.17.29-.28.58-.56.86-.84,3.82,1.76,7.81,1.08,11.77.83Z" fill="#3c3844" stroke-width="0"/>
      <path d="m319.59,549.78c-4.07,1.88-8.08,2.74-11.77-.83-2.05-5.55-.88-9.73,3.25-11.36,2.96-1.17,5.84-.97,8.08,1.46,2.2,2.38,3.11,5.19,1.58,8.36-.38.79-.76,1.58-1.15,2.38Z" fill="#8268b1" stroke-width="0"/>
    </g>
  </g>
</svg>