<svg width="30" height="25" viewBox="0 0 30 25" fill="none" xmlns="http://www.w3.org/2000/svg">
<path fill-rule="evenodd" clip-rule="evenodd" d="M22.4226 23.9474C22.8075 24.2199 23.3036 24.2881 23.7459 24.1207C24.1882 23.9521 24.5134 23.5744 24.6114 23.1165C25.6502 18.2344 28.1702 5.87721 29.1158 1.43618C29.1875 1.10146 29.068 0.753589 28.805 0.530043C28.542 0.306497 28.1774 0.241945 27.8522 0.362683C22.8398 2.21799 7.40317 8.00986 1.09371 10.3445C0.693244 10.4928 0.432638 10.8777 0.445788 11.2997C0.460133 11.7229 0.744647 12.0899 1.15468 12.213C3.98423 13.0594 7.69844 14.2369 7.69844 14.2369C7.69844 14.2369 9.43421 19.4788 10.3391 22.1446C10.4527 22.4794 10.7145 22.7424 11.06 22.8332C11.4043 22.9229 11.7725 22.8284 12.0295 22.5858C13.4831 21.2134 15.7305 19.0915 15.7305 19.0915C15.7305 19.0915 20.0006 22.2223 22.4226 23.9474ZM9.26087 13.5746L11.268 20.1949L11.7139 16.0025C11.7139 16.0025 19.4687 9.00804 23.8894 5.02128C24.0185 4.90413 24.0364 4.70808 23.9288 4.5706C23.8224 4.43313 23.6264 4.40085 23.4793 4.49409C18.3557 7.76599 9.26087 13.5746 9.26087 13.5746Z" fill="white"/>
</svg>
