<svg width="124" height="105" viewBox="0 0 124 105" fill="none" xmlns="http://www.w3.org/2000/svg">
<path d="M116.073 0.841415L5.76498 43.4759C-1.67913 46.1828 -1.67913 50.92 4.4115 52.2735L32.1577 61.0711L42.9855 93.5545C44.339 96.9382 43.6623 98.2916 47.046 98.2916C49.7529 98.2916 51.1064 96.9381 52.4599 95.5847C53.1366 94.9079 59.2272 88.8173 65.9946 82.0499L94.4176 103.029C99.8315 105.736 103.215 104.382 104.569 98.2916L123.517 9.639C125.548 2.19489 120.81 -1.86554 116.073 0.841415ZM101.862 21.1435L49.0762 69.1919L47.046 91.5242L36.2182 59.0408L98.478 19.7901C101.185 17.7599 103.892 19.1133 101.862 21.1435Z" fill="white"/>
</svg>
