<?xml version="1.0" encoding="UTF-8"?>
<svg id="b" data-name="Слой 2" xmlns="http://www.w3.org/2000/svg" width="152.86" height="124" viewBox="0 0 152.86 124">
  <g id="c" data-name="Слой 1">
    <g>
      <path d="m129.83,14.59C115.5,5.18,96.54,0,76.43,0S37.36,5.18,23.04,14.59C8.18,24.36,0,37.52,0,51.64v26.54c0,4.57,1.03,9.17,2.99,13.3,1.96,4.13,4.86,7.84,8.4,10.73,17.24,14.05,40.34,21.79,65.04,21.79s47.81-7.74,65.04-21.8c3.54-2.89,6.44-6.6,8.4-10.73,1.96-4.13,2.99-8.73,2.99-13.29v-26.54c0-14.13-8.18-27.29-23.04-37.05Zm-53.39-6.33c37.59,0,68.17,19.46,68.17,43.38s-30.58,43.38-68.17,43.38S8.26,75.56,8.26,51.64,38.84,8.26,76.43,8.26Zm-28.23,91.42v12.23c-5.54-1.56-10.84-3.59-15.84-6.05v-11.95c4.94,2.35,10.25,4.29,15.84,5.77Zm8.26,1.83c5.13.93,10.43,1.5,15.84,1.7v12.45c-5.4-.2-10.7-.82-15.84-1.8v-12.34Zm24.1,1.7c5.41-.19,10.7-.77,15.84-1.7v12.34c-5.14.99-10.44,1.6-15.84,1.8v-12.45Zm-70.11-15.27c-1.44-3.03-2.19-6.4-2.19-9.75v-3.04c3.74,4.97,8.69,9.55,14.78,13.55.35.23.71.44,1.06.66v11.83c-2.61-1.67-5.11-3.45-7.49-5.39-2.59-2.12-4.72-4.84-6.16-7.87Zm134.15-9.75c0,3.35-.75,6.72-2.19,9.75-1.44,3.03-3.57,5.75-6.16,7.87-2.37,1.93-4.88,3.72-7.49,5.39v-2.04c0-2.28-1.85-4.13-4.13-4.13s-4.13,1.85-4.13,4.13v6.7c-5,2.46-10.3,4.49-15.84,6.05v-12.23c9.29-2.47,17.83-6.17,25.16-10.99,6.09-4,11.03-8.58,14.78-13.55v3.04Z" fill="#fff" stroke-width="0"/>
      <path d="m46.36,25.57c.45,0,.91-.07,1.35-.23,4.16-1.44,8.47-2.56,12.81-3.31,2.25-.39,3.75-2.53,3.36-4.78s-2.53-3.76-4.78-3.36c-4.78.83-9.53,2.06-14.11,3.65-2.16.75-3.3,3.1-2.55,5.26.59,1.71,2.19,2.78,3.9,2.78Z" fill="#fff" stroke-width="0"/>
      <path d="m20.66,51.64c0-8.03,6.32-16.06,17.34-22.04,2.01-1.09,2.75-3.6,1.66-5.6-1.09-2.01-3.59-2.75-5.6-1.66-13.77,7.47-21.67,18.15-21.67,29.3,0,2.28,1.85,4.13,4.13,4.13s4.13-1.85,4.13-4.13Z" fill="#fff" stroke-width="0"/>
      <path d="m41.11,69.23h70.65c2.32,0,3.76-1.65,2.59-2.97l-35.32-39.43c-.72-.63-1.64-.97-2.59-.97s-1.87.35-2.59.97l-35.32,39.43c-1.18,1.32.27,2.97,2.59,2.97Zm16.85-9.08l17.45-19.48c.29-.25.65-.39,1.03-.39s.75.14,1.03.39l17.44,19.48c.48.53-.1,1.19-1.03,1.19h-34.89c-.94,0-1.51-.66-1.03-1.19Z" fill="#fff" stroke-width="0"/>
    </g>
  </g>
</svg>