<svg width="34" height="25" viewBox="0 0 34 25" fill="none" xmlns="http://www.w3.org/2000/svg">
<path d="M33.1765 3.13318C31.9876 3.6137 30.7099 3.93732 29.3689 4.0832C30.7382 3.33666 31.7897 2.15374 32.2838 0.744033C31.0034 1.4354 29.5843 1.93799 28.0736 2.2089C26.8659 1.03578 25.1412 0.302734 23.2347 0.302734C18.9544 0.302734 15.8092 3.93855 16.776 7.71288C11.2678 7.46158 6.38305 5.05896 3.11263 1.40721C1.37577 4.11997 2.21189 7.66875 5.16321 9.46582C4.07801 9.43395 3.05474 9.16304 2.16207 8.71071C2.08937 11.5068 4.29074 14.1227 7.47902 14.705C6.54597 14.9355 5.52405 14.9894 4.48462 14.808C5.32747 17.2057 7.77523 18.9501 10.6781 18.9991C7.89103 20.9886 4.3796 21.8774 0.862793 21.4998C3.79661 23.2123 7.28245 24.2113 11.0255 24.2113C23.3343 24.2113 30.2885 14.7467 29.8684 6.25782C31.1636 5.40587 32.2879 4.34307 33.1765 3.13318Z" fill="white"/>
</svg>
