<?xml version="1.0" encoding="UTF-8"?>
<svg id="b" data-name="Слой 2" xmlns="http://www.w3.org/2000/svg" width="200" height="63" viewBox="0 0 200 63">
  <g id="c" data-name="Слой 1">
    <path d="m144.87,25.02c-4.16.49-7.22,2.72-8.35,6.06-.77,2.27-.68,4.42.29,6.62,1.15,2.59,3.63,4.44,6.92,5.14.95.21,3.41.22,4.39.04,3.82-.71,6.48-2.96,7.59-6.36.26-.81.29-1.06.29-2.5s-.04-1.69-.29-2.5c-1.09-3.36-3.66-5.57-7.34-6.3-.76-.14-2.85-.26-3.5-.19Zm2.32,4.41c1.37.34,2.68,1.19,3.28,2.18.93,1.49.89,3.46-.07,4.88-1.73,2.57-5.67,2.99-8.04.86-1.97-1.78-2.04-4.6-.16-6.53,1.26-1.27,3.25-1.81,5-1.39Z" fill="#fff" stroke-width="0"/>
    <path d="m164.87,25.02c-4.16.49-7.22,2.72-8.35,6.06-.77,2.27-.68,4.42.29,6.62,1.15,2.59,3.63,4.44,6.92,5.14.95.21,3.41.22,4.39.04,3.82-.71,6.48-2.96,7.59-6.36.26-.81.29-1.06.29-2.5s-.04-1.69-.29-2.5c-1.09-3.36-3.66-5.57-7.34-6.3-.76-.14-2.85-.26-3.5-.19Zm2.34,4.41c1.39.34,2.68,1.19,3.28,2.18.93,1.49.89,3.46-.07,4.88-1.73,2.57-5.67,2.99-8.04.86-1.97-1.78-2.04-4.6-.16-6.53,1.24-1.27,3.24-1.81,5-1.39Z" fill="#fff" stroke-width="0"/>
    <path d="m192.36,25.08c-2.44.33-4.28,1.8-4.88,3.91-.57,1.99-.17,4.02.97,5.01.68.59,1.48.93,3.7,1.6,2.15.64,2.63.92,2.86,1.6.25.78-.37,1.71-1.31,1.96-.51.13-1.47.13-2.11-.01-.7-.16-1.96-.73-2.49-1.17-.24-.21-.51-.37-.56-.37s-.32.38-.58.84c-.37.66-.49.8-.51.62l-.04-.22h-5.71v-13.47h-4.72v17.27h10.42v-.48c0-.26.02-.47.05-.47s.45.19.95.4c1.54.68,2.53.88,4.44.88s2.74-.16,3.89-.68c.91-.41,2.15-1.56,2.56-2.36.82-1.6.94-3.76.25-5.12-.12-.26-.52-.76-.9-1.1-.81-.76-1.67-1.17-3.89-1.83-.88-.26-1.76-.57-1.96-.68-.71-.41-.85-1.31-.3-1.88.97-.98,2.7-.89,4.51.23l.35.21.96-1.72c.51-.93.94-1.72.91-1.73-.11-.1-1.45-.6-2.21-.82-1.6-.47-3.29-.63-4.67-.43Z" fill="#fff" stroke-width="0"/>
    <path d="m62,31v12h4.37c2.4,0,4.92-.07,5.57-.14,5.4-.64,9.39-3.82,10.67-8.48.42-1.55.52-4.27.22-5.88-.62-3.14-2.3-5.67-4.88-7.38-1.16-.77-2.2-1.2-3.87-1.64-1.3-.34-1.51-.34-6.7-.41l-5.36-.06v12h-.01Zm9.54-7.1c3.39.7,5.65,3.46,5.65,6.9-.01,2.29-.74,4.25-2.09,5.55-1.34,1.31-3.33,1.95-6.11,1.96h-1.32v-14.6h1.46c.8,0,1.87.09,2.4.19Z" fill="#fff" stroke-width="0"/>
    <path d="m84,30.98v12.01h10.07s10.06-.01,10.06-.01l2.59-3.66c1.44-2,2.64-3.64,2.68-3.64.06,0,1.26,1.64,2.69,3.66l2.61,3.66h3.27c1.79,0,3.26-.05,3.26-.08,0-.05-1.93-2.75-4.25-6l-4.25-5.91,4.07-5.7c2.24-3.12,4.2-5.81,4.32-5.96.26-.26.26-.22.26,2.18v2.44h4.95v19.04h5.91v-19.04l2.89-.02,2.88-.05-3.09-4.88h-10.1s-10.11-.01-10.11-.01l-2.59,3.66c-1.44,2-2.64,3.64-2.68,3.66-.05,0-1.25-1.64-2.68-3.66l-2.61-3.66h-20.13v11.98h-.02Zm17.77-6.01c2.31,3.22,4.21,5.91,4.21,6s-1.89,2.8-4.22,6.04l-4.23,5.89-.05-2.3-.02-2.3h-7.97v-5.39h6.45v-4.55h-6.45v-4.69h7.97v-2.28c0-1.26.02-2.28.06-2.28s1.94,2.64,4.25,5.86Z" fill="#fff" stroke-width="0"/>
    <path d="m20.46,3.55c-3.76,1.96-6.85,3.61-6.84,3.68,0,.18,9.04,4.73,9.36,4.72.14,0,1.2-.49,2.35-1.08l2.09-1.07,4.56,2.34,3.74-1.68c5.62-2.52,6.21-2.8,6.11-2.88-.12-.13-2.14-1.21-7.62-4.08-2.65-1.38-5.21-2.75-5.7-3.02-.49-.28-.96-.49-1.05-.49s-3.24,1.59-7.01,3.55ZM3.94,12.08L.01,14.1v8.86C.01,27.83.06,31.81.13,31.81c.06,0,1.99-.83,4.29-1.85l4.17-1.85v-9.34l2.03,1.1c1.58.86,3.14,1.7,4.71,2.55l2.68,1.44,1.19-.54c.75-.34,1.49-.68,2.23-1.02.58-.27,1.99-.9,3.14-1.41,1.15-.5,2.21-1.02,2.36-1.14.2-.15-2.25-1.5-9.04-4.98-5.13-2.62-9.49-4.76-9.69-4.75-.2.01-2.13.93-4.28,2.04Zm38.59.56c-2.67,1.21-4.86,2.24-4.86,2.3s1.46.93,3.23,1.92c1.79,1,3.23,1.86,3.23,1.93s-1.58.83-3.5,1.69c-1.93.87-6.8,3.06-10.83,4.87l-13.49,6.08c-3.4,1.52-6.45,2.91-6.8,3.06-6.93,3.13-8.84,4-9.1,4.15-.26.15-.32,1.02-.36,5.39l-.06,5.21,7.01,3.56,4.87-2.19c2.67-1.21,4.87-2.25,4.87-2.33s-.49-.4-1.09-.71c-.6-.32-1.85-1.02-2.77-1.56-.92-.54-1.83-1.03-2.03-1.1-.2-.07-.36-.18-.36-.26,0-.07,2.14-1.09,4.76-2.25,5.08-2.26,8.96-4.01,17.3-7.77,3.73-1.68,7.45-3.36,11.19-5.04,3.28-1.48,7.09-3.2,8.47-3.83l2.5-1.15.12-10.54-3.55-1.8c-1.95-1-3.63-1.82-3.72-1.82-.09,0-2.35,1-5.02,2.19Zm11.23,19.03c-.53.26-1.56.74-2.3,1.07-.74.33-2.15.96-3.13,1.41l-1.78.81-.04,4.63c-.02,2.54-.12,4.62-.21,4.6-.21-.04-3.54-1.73-6.89-3.53-2.42-1.29-2.57-1.35-3.14-1.07-.33.16-2.29,1.04-4.36,1.94-2.07.91-3.83,1.71-3.92,1.79-.08.07,4.08,2.32,9.26,5l9.41,4.87,4.02-2.07c2.21-1.14,4.09-2.18,4.17-2.31.2-.29.18-17.66-.01-17.63-.08.01-.58.22-1.09.48Zm-22.27,20.38c-.69.29-1.4.6-2.09.9-2.1.9-1.69.94-4.2-.3-1.67-.83-2.39-1.08-2.7-.96-.24.09-2.25,1-4.48,2-2.22,1.01-4.13,1.84-4.22,1.84-.94,0,.62.93,6.62,3.94l7.03,3.54,2.96-1.45c1.62-.8,4.91-2.4,7.29-3.56,2.39-1.16,4.3-2.13,4.27-2.18-.04-.04-2.03-1.05-4.44-2.27l-4.37-2.2-1.66.71Z" fill="#00b6d6" fill-rule="evenodd" stroke-width="0"/>
  </g>
</svg>